<?xml version="1.0" standalone="no"?>
<!DOCTYPE svg PUBLIC "-//W3C//DTD SVG 20010904//EN"
 "http://www.w3.org/TR/2001/REC-SVG-20010904/DTD/svg10.dtd">
<svg version="1.0" xmlns="http://www.w3.org/2000/svg"
 width="400.000000pt" height="400.000000pt" viewBox="0 0 400.000000 400.000000"
 preserveAspectRatio="xMidYMid meet">
<metadata>
Created by potrace 1.14, written by Peter Selinger 2001-2017
</metadata>
<g transform="translate(0.000000,400.000000) scale(0.100000,-0.100000)"
fill="#000000" stroke="none">
<path d="M1279 3977 c-2 -3 -44 -7 -94 -11 -307 -22 -598 -104 -713 -201 -24
-20 -30 -31 -23 -43 12 -24 49 -159 56 -207 4 -22 8 -47 11 -55 2 -8 6 -38 9
-65 4 -28 8 -61 10 -75 22 -124 22 -699 1 -830 -3 -14 -7 -61 -11 -105 -4 -44
-8 -93 -10 -110 -2 -16 -6 -55 -10 -85 -3 -30 -8 -66 -10 -80 -3 -14 -7 -45
-10 -69 -5 -39 -56 -346 -71 -426 -25 -136 -82 -399 -115 -534 -22 -90 -41
-172 -42 -182 -2 -10 -6 -22 -10 -25 -4 -4 -7 -17 -7 -28 0 -12 -9 -52 -20
-91 -11 -38 -45 -160 -75 -270 -31 -110 -72 -252 -91 -315 -20 -63 -40 -128
-45 -144 l-8 -29 1948 5 c1903 4 1949 5 1981 24 18 10 41 34 51 53 17 32 18
86 18 958 0 1010 2 963 -57 1008 -26 19 -43 20 -595 20 l-569 0 -33 -36 c-21
-23 -36 -52 -41 -80 l-8 -44 -7 40 c-4 22 -11 60 -15 85 -3 25 -8 48 -10 51
-1 3 -6 28 -9 55 -3 27 -10 72 -15 99 -5 28 -12 74 -15 104 -4 30 -8 61 -10
70 -1 9 -6 52 -10 96 -4 44 -9 87 -10 97 -8 42 -19 278 -19 423 0 294 26 514
78 663 20 56 12 71 -62 110 -122 65 -386 134 -599 157 -35 4 -75 9 -90 11 -36
6 -618 16 -624 11z"/>
</g>
</svg>
