<?xml version="1.0" encoding="utf-8" standalone="no"?>
<!DOCTYPE svg PUBLIC "-//W3C//DTD SVG 1.1//EN"
  "http://www.w3.org/Graphics/SVG/1.1/DTD/svg11.dtd">
<svg xmlns:xlink="http://www.w3.org/1999/xlink" width="460.8pt" height="345.6pt" viewBox="0 0 460.8 345.6" xmlns="http://www.w3.org/2000/svg" version="1.1">
 <metadata>
  <rdf:RDF xmlns:dc="http://purl.org/dc/elements/1.1/" xmlns:cc="http://creativecommons.org/ns#" xmlns:rdf="http://www.w3.org/1999/02/22-rdf-syntax-ns#">
   <cc:Work>
    <dc:type rdf:resource="http://purl.org/dc/dcmitype/StillImage"/>
    <dc:date>2023-07-24T21:59:15.524428</dc:date>
    <dc:format>image/svg+xml</dc:format>
    <dc:creator>
     <cc:Agent>
      <dc:title>Matplotlib v3.5.1, https://matplotlib.org/</dc:title>
     </cc:Agent>
    </dc:creator>
   </cc:Work>
  </rdf:RDF>
 </metadata>
 <defs>
  <style type="text/css">*{stroke-linejoin: round; stroke-linecap: butt}</style>
 </defs>
 <g id="figure_1">
  <g id="patch_1">
   <path d="M 0 345.6 
L 460.8 345.6 
L 460.8 0 
L 0 0 
z
" style="fill: #ffffff"/>
  </g>
  <g id="axes_1">
   <g id="patch_2">
    <path d="M 350.472307 166.579046 
C 350.472307 145.92198 345.425901 125.574275 335.773353 107.311125 
C 326.120804 89.047974 312.151226 73.416397 295.083367 61.780138 
C 278.015507 50.143879 258.360582 42.851467 237.833347 40.539116 
C 217.306112 38.226764 196.521398 40.963731 177.292526 48.511236 
L 223.635202 166.579046 
L 350.472307 166.579046 
z
" style="fill: #808080"/>
   </g>
   <g id="patch_3">
    <path d="M 177.292526 48.511236 
C 146.730323 60.507175 121.988857 83.913317 108.317438 113.763662 
C 94.646019 143.614007 93.085104 177.636811 103.965866 208.613574 
L 223.635202 166.579046 
L 177.292526 48.511236 
z
" style="fill: #999999"/>
   </g>
   <g id="patch_4">
    <path d="M 103.965866 208.613574 
C 109.908658 225.532284 119.372366 240.999958 131.730889 253.993282 
C 144.089411 266.986606 159.064062 277.21258 175.664145 283.994672 
C 192.264228 290.776763 210.115412 293.962036 228.036693 293.339759 
C 245.957974 292.717481 263.545226 288.301685 279.63491 280.384512 
L 223.635202 166.579046 
L 103.965866 208.613574 
z
" style="fill: #b2b2b2"/>
   </g>
   <g id="patch_5">
    <path d="M 279.63491 280.384512 
C 284.705208 277.889595 289.603111 275.058624 294.295874 271.910527 
C 298.988636 268.76243 303.465774 265.304238 307.697355 261.559074 
L 223.635202 166.579046 
L 279.63491 280.384512 
z
" style="fill: #adff2f"/>
   </g>
   <g id="patch_6">
    <path d="M 307.697355 261.559074 
C 314.432252 255.598348 320.514087 248.93815 325.840163 241.690944 
C 331.166239 234.443738 335.706408 226.650546 339.384004 218.442966 
L 223.635202 166.579046 
L 307.697355 261.559074 
z
" style="fill: #32cd32"/>
   </g>
   <g id="patch_7">
    <path d="M 339.384004 218.442966 
C 341.238858 214.30334 342.870305 210.067189 344.271309 205.752774 
C 345.672313 201.438359 346.840859 197.051891 347.771909 192.612282 
L 223.635202 166.579046 
L 339.384004 218.442966 
z
" style="fill: #00ff7f"/>
   </g>
   <g id="patch_8">
    <path d="M 347.771909 192.612282 
C 348.287749 190.152552 348.730367 187.678034 349.099177 185.192005 
C 349.467987 182.705976 349.762826 180.209534 349.983302 177.705986 
L 223.635202 166.579046 
L 347.771909 192.612282 
z
" style="fill: #008000"/>
   </g>
   <g id="patch_9">
    <path d="M 349.983302 177.705986 
C 350.146207 175.85618 350.268469 174.003019 350.349999 172.147844 
C 350.431529 170.292668 350.472309 168.435926 350.472307 166.578961 
L 223.635202 166.579046 
L 349.983302 177.705986 
z
" style="fill: #006400"/>
   </g>
   <g id="matplotlib.axis_1"/>
   <g id="matplotlib.axis_2"/>
   <g id="text_1">
    <!-- Oil -->
    <g transform="translate(302.228183 54.059622)scale(0.1 -0.1)">
     <defs>
      <path id="DejaVuSans-4f" d="M 2522 4238 
Q 1834 4238 1429 3725 
Q 1025 3213 1025 2328 
Q 1025 1447 1429 934 
Q 1834 422 2522 422 
Q 3209 422 3611 934 
Q 4013 1447 4013 2328 
Q 4013 3213 3611 3725 
Q 3209 4238 2522 4238 
z
M 2522 4750 
Q 3503 4750 4090 4092 
Q 4678 3434 4678 2328 
Q 4678 1225 4090 567 
Q 3503 -91 2522 -91 
Q 1538 -91 948 565 
Q 359 1222 359 2328 
Q 359 3434 948 4092 
Q 1538 4750 2522 4750 
z
" transform="scale(0.015625)"/>
      <path id="DejaVuSans-69" d="M 603 3500 
L 1178 3500 
L 1178 0 
L 603 0 
L 603 3500 
z
M 603 4863 
L 1178 4863 
L 1178 4134 
L 603 4134 
L 603 4863 
z
" transform="scale(0.015625)"/>
      <path id="DejaVuSans-6c" d="M 603 4863 
L 1178 4863 
L 1178 0 
L 603 0 
L 603 4863 
z
" transform="scale(0.015625)"/>
     </defs>
     <use xlink:href="#DejaVuSans-4f"/>
     <use xlink:href="#DejaVuSans-69" x="78.710938"/>
     <use xlink:href="#DejaVuSans-6c" x="106.494141"/>
    </g>
   </g>
   <g id="text_2">
    <!-- 31% -->
    <g transform="translate(255.390819 106.459076)scale(0.1 -0.1)">
     <defs>
      <path id="DejaVuSans-33" d="M 2597 2516 
Q 3050 2419 3304 2112 
Q 3559 1806 3559 1356 
Q 3559 666 3084 287 
Q 2609 -91 1734 -91 
Q 1441 -91 1130 -33 
Q 819 25 488 141 
L 488 750 
Q 750 597 1062 519 
Q 1375 441 1716 441 
Q 2309 441 2620 675 
Q 2931 909 2931 1356 
Q 2931 1769 2642 2001 
Q 2353 2234 1838 2234 
L 1294 2234 
L 1294 2753 
L 1863 2753 
Q 2328 2753 2575 2939 
Q 2822 3125 2822 3475 
Q 2822 3834 2567 4026 
Q 2313 4219 1838 4219 
Q 1578 4219 1281 4162 
Q 984 4106 628 3988 
L 628 4550 
Q 988 4650 1302 4700 
Q 1616 4750 1894 4750 
Q 2613 4750 3031 4423 
Q 3450 4097 3450 3541 
Q 3450 3153 3228 2886 
Q 3006 2619 2597 2516 
z
" transform="scale(0.015625)"/>
      <path id="DejaVuSans-31" d="M 794 531 
L 1825 531 
L 1825 4091 
L 703 3866 
L 703 4441 
L 1819 4666 
L 2450 4666 
L 2450 531 
L 3481 531 
L 3481 0 
L 794 0 
L 794 531 
z
" transform="scale(0.015625)"/>
      <path id="DejaVuSans-25" d="M 4653 2053 
Q 4381 2053 4226 1822 
Q 4072 1591 4072 1178 
Q 4072 772 4226 539 
Q 4381 306 4653 306 
Q 4919 306 5073 539 
Q 5228 772 5228 1178 
Q 5228 1588 5073 1820 
Q 4919 2053 4653 2053 
z
M 4653 2450 
Q 5147 2450 5437 2106 
Q 5728 1763 5728 1178 
Q 5728 594 5436 251 
Q 5144 -91 4653 -91 
Q 4153 -91 3862 251 
Q 3572 594 3572 1178 
Q 3572 1766 3864 2108 
Q 4156 2450 4653 2450 
z
M 1428 4353 
Q 1159 4353 1004 4120 
Q 850 3888 850 3481 
Q 850 3069 1003 2837 
Q 1156 2606 1428 2606 
Q 1700 2606 1854 2837 
Q 2009 3069 2009 3481 
Q 2009 3884 1853 4118 
Q 1697 4353 1428 4353 
z
M 4250 4750 
L 4750 4750 
L 1831 -91 
L 1331 -91 
L 4250 4750 
z
M 1428 4750 
Q 1922 4750 2215 4408 
Q 2509 4066 2509 3481 
Q 2509 2891 2217 2550 
Q 1925 2209 1428 2209 
Q 931 2209 642 2551 
Q 353 2894 353 3481 
Q 353 4063 643 4406 
Q 934 4750 1428 4750 
z
" transform="scale(0.015625)"/>
     </defs>
     <use xlink:href="#DejaVuSans-33"/>
     <use xlink:href="#DejaVuSans-31" x="63.623047"/>
     <use xlink:href="#DejaVuSans-25" x="127.246094"/>
    </g>
   </g>
   <g id="text_3">
    <!-- Natural gas -->
    <g transform="translate(39.037224 111.241499)scale(0.1 -0.1)">
     <defs>
      <path id="DejaVuSans-4e" d="M 628 4666 
L 1478 4666 
L 3547 763 
L 3547 4666 
L 4159 4666 
L 4159 0 
L 3309 0 
L 1241 3903 
L 1241 0 
L 628 0 
L 628 4666 
z
" transform="scale(0.015625)"/>
      <path id="DejaVuSans-61" d="M 2194 1759 
Q 1497 1759 1228 1600 
Q 959 1441 959 1056 
Q 959 750 1161 570 
Q 1363 391 1709 391 
Q 2188 391 2477 730 
Q 2766 1069 2766 1631 
L 2766 1759 
L 2194 1759 
z
M 3341 1997 
L 3341 0 
L 2766 0 
L 2766 531 
Q 2569 213 2275 61 
Q 1981 -91 1556 -91 
Q 1019 -91 701 211 
Q 384 513 384 1019 
Q 384 1609 779 1909 
Q 1175 2209 1959 2209 
L 2766 2209 
L 2766 2266 
Q 2766 2663 2505 2880 
Q 2244 3097 1772 3097 
Q 1472 3097 1187 3025 
Q 903 2953 641 2809 
L 641 3341 
Q 956 3463 1253 3523 
Q 1550 3584 1831 3584 
Q 2591 3584 2966 3190 
Q 3341 2797 3341 1997 
z
" transform="scale(0.015625)"/>
      <path id="DejaVuSans-74" d="M 1172 4494 
L 1172 3500 
L 2356 3500 
L 2356 3053 
L 1172 3053 
L 1172 1153 
Q 1172 725 1289 603 
Q 1406 481 1766 481 
L 2356 481 
L 2356 0 
L 1766 0 
Q 1100 0 847 248 
Q 594 497 594 1153 
L 594 3053 
L 172 3053 
L 172 3500 
L 594 3500 
L 594 4494 
L 1172 4494 
z
" transform="scale(0.015625)"/>
      <path id="DejaVuSans-75" d="M 544 1381 
L 544 3500 
L 1119 3500 
L 1119 1403 
Q 1119 906 1312 657 
Q 1506 409 1894 409 
Q 2359 409 2629 706 
Q 2900 1003 2900 1516 
L 2900 3500 
L 3475 3500 
L 3475 0 
L 2900 0 
L 2900 538 
Q 2691 219 2414 64 
Q 2138 -91 1772 -91 
Q 1169 -91 856 284 
Q 544 659 544 1381 
z
M 1991 3584 
L 1991 3584 
z
" transform="scale(0.015625)"/>
      <path id="DejaVuSans-72" d="M 2631 2963 
Q 2534 3019 2420 3045 
Q 2306 3072 2169 3072 
Q 1681 3072 1420 2755 
Q 1159 2438 1159 1844 
L 1159 0 
L 581 0 
L 581 3500 
L 1159 3500 
L 1159 2956 
Q 1341 3275 1631 3429 
Q 1922 3584 2338 3584 
Q 2397 3584 2469 3576 
Q 2541 3569 2628 3553 
L 2631 2963 
z
" transform="scale(0.015625)"/>
      <path id="DejaVuSans-20" transform="scale(0.015625)"/>
      <path id="DejaVuSans-67" d="M 2906 1791 
Q 2906 2416 2648 2759 
Q 2391 3103 1925 3103 
Q 1463 3103 1205 2759 
Q 947 2416 947 1791 
Q 947 1169 1205 825 
Q 1463 481 1925 481 
Q 2391 481 2648 825 
Q 2906 1169 2906 1791 
z
M 3481 434 
Q 3481 -459 3084 -895 
Q 2688 -1331 1869 -1331 
Q 1566 -1331 1297 -1286 
Q 1028 -1241 775 -1147 
L 775 -588 
Q 1028 -725 1275 -790 
Q 1522 -856 1778 -856 
Q 2344 -856 2625 -561 
Q 2906 -266 2906 331 
L 2906 616 
Q 2728 306 2450 153 
Q 2172 0 1784 0 
Q 1141 0 747 490 
Q 353 981 353 1791 
Q 353 2603 747 3093 
Q 1141 3584 1784 3584 
Q 2172 3584 2450 3431 
Q 2728 3278 2906 2969 
L 2906 3500 
L 3481 3500 
L 3481 434 
z
" transform="scale(0.015625)"/>
      <path id="DejaVuSans-73" d="M 2834 3397 
L 2834 2853 
Q 2591 2978 2328 3040 
Q 2066 3103 1784 3103 
Q 1356 3103 1142 2972 
Q 928 2841 928 2578 
Q 928 2378 1081 2264 
Q 1234 2150 1697 2047 
L 1894 2003 
Q 2506 1872 2764 1633 
Q 3022 1394 3022 966 
Q 3022 478 2636 193 
Q 2250 -91 1575 -91 
Q 1294 -91 989 -36 
Q 684 19 347 128 
L 347 722 
Q 666 556 975 473 
Q 1284 391 1588 391 
Q 1994 391 2212 530 
Q 2431 669 2431 922 
Q 2431 1156 2273 1281 
Q 2116 1406 1581 1522 
L 1381 1569 
Q 847 1681 609 1914 
Q 372 2147 372 2553 
Q 372 3047 722 3315 
Q 1072 3584 1716 3584 
Q 2034 3584 2315 3537 
Q 2597 3491 2834 3397 
z
" transform="scale(0.015625)"/>
     </defs>
     <use xlink:href="#DejaVuSans-4e"/>
     <use xlink:href="#DejaVuSans-61" x="74.804688"/>
     <use xlink:href="#DejaVuSans-74" x="136.083984"/>
     <use xlink:href="#DejaVuSans-75" x="175.292969"/>
     <use xlink:href="#DejaVuSans-72" x="238.671875"/>
     <use xlink:href="#DejaVuSans-61" x="279.785156"/>
     <use xlink:href="#DejaVuSans-6c" x="341.064453"/>
     <use xlink:href="#DejaVuSans-20" x="368.847656"/>
     <use xlink:href="#DejaVuSans-67" x="400.634766"/>
     <use xlink:href="#DejaVuSans-61" x="464.111328"/>
     <use xlink:href="#DejaVuSans-73" x="525.390625"/>
    </g>
   </g>
   <g id="text_4">
    <!-- 24% -->
    <g transform="translate(143.331262 137.649191)scale(0.1 -0.1)">
     <defs>
      <path id="DejaVuSans-32" d="M 1228 531 
L 3431 531 
L 3431 0 
L 469 0 
L 469 531 
Q 828 903 1448 1529 
Q 2069 2156 2228 2338 
Q 2531 2678 2651 2914 
Q 2772 3150 2772 3378 
Q 2772 3750 2511 3984 
Q 2250 4219 1831 4219 
Q 1534 4219 1204 4116 
Q 875 4013 500 3803 
L 500 4441 
Q 881 4594 1212 4672 
Q 1544 4750 1819 4750 
Q 2544 4750 2975 4387 
Q 3406 4025 3406 3419 
Q 3406 3131 3298 2873 
Q 3191 2616 2906 2266 
Q 2828 2175 2409 1742 
Q 1991 1309 1228 531 
z
" transform="scale(0.015625)"/>
      <path id="DejaVuSans-34" d="M 2419 4116 
L 825 1625 
L 2419 1625 
L 2419 4116 
z
M 2253 4666 
L 3047 4666 
L 3047 1625 
L 3713 1625 
L 3713 1100 
L 3047 1100 
L 3047 0 
L 2419 0 
L 2419 1100 
L 313 1100 
L 313 1709 
L 2253 4666 
z
" transform="scale(0.015625)"/>
     </defs>
     <use xlink:href="#DejaVuSans-32"/>
     <use xlink:href="#DejaVuSans-34" x="63.623047"/>
     <use xlink:href="#DejaVuSans-25" x="127.246094"/>
    </g>
   </g>
   <g id="text_5">
    <!-- Coal -->
    <g transform="translate(148.859227 298.495609)scale(0.1 -0.1)">
     <defs>
      <path id="DejaVuSans-43" d="M 4122 4306 
L 4122 3641 
Q 3803 3938 3442 4084 
Q 3081 4231 2675 4231 
Q 1875 4231 1450 3742 
Q 1025 3253 1025 2328 
Q 1025 1406 1450 917 
Q 1875 428 2675 428 
Q 3081 428 3442 575 
Q 3803 722 4122 1019 
L 4122 359 
Q 3791 134 3420 21 
Q 3050 -91 2638 -91 
Q 1578 -91 968 557 
Q 359 1206 359 2328 
Q 359 3453 968 4101 
Q 1578 4750 2638 4750 
Q 3056 4750 3426 4639 
Q 3797 4528 4122 4306 
z
" transform="scale(0.015625)"/>
      <path id="DejaVuSans-6f" d="M 1959 3097 
Q 1497 3097 1228 2736 
Q 959 2375 959 1747 
Q 959 1119 1226 758 
Q 1494 397 1959 397 
Q 2419 397 2687 759 
Q 2956 1122 2956 1747 
Q 2956 2369 2687 2733 
Q 2419 3097 1959 3097 
z
M 1959 3584 
Q 2709 3584 3137 3096 
Q 3566 2609 3566 1747 
Q 3566 888 3137 398 
Q 2709 -91 1959 -91 
Q 1206 -91 779 398 
Q 353 888 353 1747 
Q 353 2609 779 3096 
Q 1206 3584 1959 3584 
z
" transform="scale(0.015625)"/>
     </defs>
     <use xlink:href="#DejaVuSans-43"/>
     <use xlink:href="#DejaVuSans-6f" x="69.824219"/>
     <use xlink:href="#DejaVuSans-61" x="131.005859"/>
     <use xlink:href="#DejaVuSans-6c" x="192.285156"/>
    </g>
   </g>
   <g id="text_6">
    <!-- 27% -->
    <g transform="translate(183.739286 239.787796)scale(0.1 -0.1)">
     <defs>
      <path id="DejaVuSans-37" d="M 525 4666 
L 3525 4666 
L 3525 4397 
L 1831 0 
L 1172 0 
L 2766 4134 
L 525 4134 
L 525 4666 
z
" transform="scale(0.015625)"/>
     </defs>
     <use xlink:href="#DejaVuSans-32"/>
     <use xlink:href="#DejaVuSans-37" x="63.623047"/>
     <use xlink:href="#DejaVuSans-25" x="127.246094"/>
    </g>
   </g>
   <g id="text_7">
    <!-- Nuclear -->
    <g transform="translate(301.361941 285.20305)scale(0.1 -0.1)">
     <defs>
      <path id="DejaVuSans-63" d="M 3122 3366 
L 3122 2828 
Q 2878 2963 2633 3030 
Q 2388 3097 2138 3097 
Q 1578 3097 1268 2742 
Q 959 2388 959 1747 
Q 959 1106 1268 751 
Q 1578 397 2138 397 
Q 2388 397 2633 464 
Q 2878 531 3122 666 
L 3122 134 
Q 2881 22 2623 -34 
Q 2366 -91 2075 -91 
Q 1284 -91 818 406 
Q 353 903 353 1747 
Q 353 2603 823 3093 
Q 1294 3584 2113 3584 
Q 2378 3584 2631 3529 
Q 2884 3475 3122 3366 
z
" transform="scale(0.015625)"/>
      <path id="DejaVuSans-65" d="M 3597 1894 
L 3597 1613 
L 953 1613 
Q 991 1019 1311 708 
Q 1631 397 2203 397 
Q 2534 397 2845 478 
Q 3156 559 3463 722 
L 3463 178 
Q 3153 47 2828 -22 
Q 2503 -91 2169 -91 
Q 1331 -91 842 396 
Q 353 884 353 1716 
Q 353 2575 817 3079 
Q 1281 3584 2069 3584 
Q 2775 3584 3186 3129 
Q 3597 2675 3597 1894 
z
M 3022 2063 
Q 3016 2534 2758 2815 
Q 2500 3097 2075 3097 
Q 1594 3097 1305 2825 
Q 1016 2553 972 2059 
L 3022 2063 
z
" transform="scale(0.015625)"/>
     </defs>
     <use xlink:href="#DejaVuSans-4e"/>
     <use xlink:href="#DejaVuSans-75" x="74.804688"/>
     <use xlink:href="#DejaVuSans-63" x="138.183594"/>
     <use xlink:href="#DejaVuSans-6c" x="193.164062"/>
     <use xlink:href="#DejaVuSans-65" x="220.947266"/>
     <use xlink:href="#DejaVuSans-61" x="282.470703"/>
     <use xlink:href="#DejaVuSans-72" x="343.75"/>
    </g>
   </g>
   <g id="text_8">
    <!-- 4% -->
    <g transform="translate(258.099574 232.537309)scale(0.1 -0.1)">
     <use xlink:href="#DejaVuSans-34"/>
     <use xlink:href="#DejaVuSans-25" x="63.623047"/>
    </g>
   </g>
   <g id="text_9">
    <!-- Hydro -->
    <g transform="translate(336.06066 251.961509)scale(0.1 -0.1)">
     <defs>
      <path id="DejaVuSans-48" d="M 628 4666 
L 1259 4666 
L 1259 2753 
L 3553 2753 
L 3553 4666 
L 4184 4666 
L 4184 0 
L 3553 0 
L 3553 2222 
L 1259 2222 
L 1259 0 
L 628 0 
L 628 4666 
z
" transform="scale(0.015625)"/>
      <path id="DejaVuSans-79" d="M 2059 -325 
Q 1816 -950 1584 -1140 
Q 1353 -1331 966 -1331 
L 506 -1331 
L 506 -850 
L 844 -850 
Q 1081 -850 1212 -737 
Q 1344 -625 1503 -206 
L 1606 56 
L 191 3500 
L 800 3500 
L 1894 763 
L 2988 3500 
L 3597 3500 
L 2059 -325 
z
" transform="scale(0.015625)"/>
      <path id="DejaVuSans-64" d="M 2906 2969 
L 2906 4863 
L 3481 4863 
L 3481 0 
L 2906 0 
L 2906 525 
Q 2725 213 2448 61 
Q 2172 -91 1784 -91 
Q 1150 -91 751 415 
Q 353 922 353 1747 
Q 353 2572 751 3078 
Q 1150 3584 1784 3584 
Q 2172 3584 2448 3432 
Q 2725 3281 2906 2969 
z
M 947 1747 
Q 947 1113 1208 752 
Q 1469 391 1925 391 
Q 2381 391 2643 752 
Q 2906 1113 2906 1747 
Q 2906 2381 2643 2742 
Q 2381 3103 1925 3103 
Q 1469 3103 1208 2742 
Q 947 2381 947 1747 
z
" transform="scale(0.015625)"/>
     </defs>
     <use xlink:href="#DejaVuSans-48"/>
     <use xlink:href="#DejaVuSans-79" x="75.195312"/>
     <use xlink:href="#DejaVuSans-64" x="134.375"/>
     <use xlink:href="#DejaVuSans-72" x="197.851562"/>
     <use xlink:href="#DejaVuSans-6f" x="236.714844"/>
    </g>
   </g>
   <g id="text_10">
    <!-- 7% -->
    <g transform="translate(277.026147 214.40556)scale(0.1 -0.1)">
     <use xlink:href="#DejaVuSans-37"/>
     <use xlink:href="#DejaVuSans-25" x="63.623047"/>
    </g>
   </g>
   <g id="text_11">
    <!-- Wind -->
    <g transform="translate(356.33492 212.429522)scale(0.1 -0.1)">
     <defs>
      <path id="DejaVuSans-57" d="M 213 4666 
L 850 4666 
L 1831 722 
L 2809 4666 
L 3519 4666 
L 4500 722 
L 5478 4666 
L 6119 4666 
L 4947 0 
L 4153 0 
L 3169 4050 
L 2175 0 
L 1381 0 
L 213 4666 
z
" transform="scale(0.015625)"/>
      <path id="DejaVuSans-6e" d="M 3513 2113 
L 3513 0 
L 2938 0 
L 2938 2094 
Q 2938 2591 2744 2837 
Q 2550 3084 2163 3084 
Q 1697 3084 1428 2787 
Q 1159 2491 1159 1978 
L 1159 0 
L 581 0 
L 581 3500 
L 1159 3500 
L 1159 2956 
Q 1366 3272 1645 3428 
Q 1925 3584 2291 3584 
Q 2894 3584 3203 3211 
Q 3513 2838 3513 2113 
z
" transform="scale(0.015625)"/>
     </defs>
     <use xlink:href="#DejaVuSans-57"/>
     <use xlink:href="#DejaVuSans-69" x="96.626953"/>
     <use xlink:href="#DejaVuSans-6e" x="124.410156"/>
     <use xlink:href="#DejaVuSans-64" x="187.789062"/>
    </g>
   </g>
   <g id="text_12">
    <!-- 3% -->
    <g transform="translate(288.084835 192.842658)scale(0.1 -0.1)">
     <use xlink:href="#DejaVuSans-33"/>
     <use xlink:href="#DejaVuSans-25" x="63.623047"/>
    </g>
   </g>
   <g id="text_13">
    <!-- Solar -->
    <g transform="translate(361.645575 189.812676)scale(0.1 -0.1)">
     <defs>
      <path id="DejaVuSans-53" d="M 3425 4513 
L 3425 3897 
Q 3066 4069 2747 4153 
Q 2428 4238 2131 4238 
Q 1616 4238 1336 4038 
Q 1056 3838 1056 3469 
Q 1056 3159 1242 3001 
Q 1428 2844 1947 2747 
L 2328 2669 
Q 3034 2534 3370 2195 
Q 3706 1856 3706 1288 
Q 3706 609 3251 259 
Q 2797 -91 1919 -91 
Q 1588 -91 1214 -16 
Q 841 59 441 206 
L 441 856 
Q 825 641 1194 531 
Q 1563 422 1919 422 
Q 2459 422 2753 634 
Q 3047 847 3047 1241 
Q 3047 1584 2836 1778 
Q 2625 1972 2144 2069 
L 1759 2144 
Q 1053 2284 737 2584 
Q 422 2884 422 3419 
Q 422 4038 858 4394 
Q 1294 4750 2059 4750 
Q 2388 4750 2728 4690 
Q 3069 4631 3425 4513 
z
" transform="scale(0.015625)"/>
     </defs>
     <use xlink:href="#DejaVuSans-53"/>
     <use xlink:href="#DejaVuSans-6f" x="63.476562"/>
     <use xlink:href="#DejaVuSans-6c" x="124.658203"/>
     <use xlink:href="#DejaVuSans-61" x="152.441406"/>
     <use xlink:href="#DejaVuSans-72" x="213.720703"/>
    </g>
   </g>
   <g id="text_14">
    <!-- 2% -->
    <g transform="translate(290.981556 180.506196)scale(0.1 -0.1)">
     <use xlink:href="#DejaVuSans-32"/>
     <use xlink:href="#DejaVuSans-25" x="63.623047"/>
    </g>
   </g>
   <g id="text_15">
    <!-- Other renew -->
    <g transform="translate(363.021479 175.464098)scale(0.1 -0.1)">
     <defs>
      <path id="DejaVuSans-68" d="M 3513 2113 
L 3513 0 
L 2938 0 
L 2938 2094 
Q 2938 2591 2744 2837 
Q 2550 3084 2163 3084 
Q 1697 3084 1428 2787 
Q 1159 2491 1159 1978 
L 1159 0 
L 581 0 
L 581 4863 
L 1159 4863 
L 1159 2956 
Q 1366 3272 1645 3428 
Q 1925 3584 2291 3584 
Q 2894 3584 3203 3211 
Q 3513 2838 3513 2113 
z
" transform="scale(0.015625)"/>
      <path id="DejaVuSans-77" d="M 269 3500 
L 844 3500 
L 1563 769 
L 2278 3500 
L 2956 3500 
L 3675 769 
L 4391 3500 
L 4966 3500 
L 4050 0 
L 3372 0 
L 2619 2869 
L 1863 0 
L 1184 0 
L 269 3500 
z
" transform="scale(0.015625)"/>
     </defs>
     <use xlink:href="#DejaVuSans-4f"/>
     <use xlink:href="#DejaVuSans-74" x="78.710938"/>
     <use xlink:href="#DejaVuSans-68" x="117.919922"/>
     <use xlink:href="#DejaVuSans-65" x="181.298828"/>
     <use xlink:href="#DejaVuSans-72" x="242.822266"/>
     <use xlink:href="#DejaVuSans-20" x="283.935547"/>
     <use xlink:href="#DejaVuSans-72" x="315.722656"/>
     <use xlink:href="#DejaVuSans-65" x="354.585938"/>
     <use xlink:href="#DejaVuSans-6e" x="416.109375"/>
     <use xlink:href="#DejaVuSans-65" x="479.488281"/>
     <use xlink:href="#DejaVuSans-77" x="541.011719"/>
    </g>
   </g>
   <g id="text_16">
    <!-- 1% -->
    <g transform="translate(291.732049 172.6797)scale(0.1 -0.1)">
     <use xlink:href="#DejaVuSans-31"/>
     <use xlink:href="#DejaVuSans-25" x="63.623047"/>
    </g>
   </g>
   <g id="text_17">
    <!-- Data from: BP Statistical Review of World Energy 2022 -->
    <g transform="translate(95.191482 334.87968)scale(0.0694 -0.0694)">
     <defs>
      <path id="DejaVuSans-44" d="M 1259 4147 
L 1259 519 
L 2022 519 
Q 2988 519 3436 956 
Q 3884 1394 3884 2338 
Q 3884 3275 3436 3711 
Q 2988 4147 2022 4147 
L 1259 4147 
z
M 628 4666 
L 1925 4666 
Q 3281 4666 3915 4102 
Q 4550 3538 4550 2338 
Q 4550 1131 3912 565 
Q 3275 0 1925 0 
L 628 0 
L 628 4666 
z
" transform="scale(0.015625)"/>
      <path id="DejaVuSans-66" d="M 2375 4863 
L 2375 4384 
L 1825 4384 
Q 1516 4384 1395 4259 
Q 1275 4134 1275 3809 
L 1275 3500 
L 2222 3500 
L 2222 3053 
L 1275 3053 
L 1275 0 
L 697 0 
L 697 3053 
L 147 3053 
L 147 3500 
L 697 3500 
L 697 3744 
Q 697 4328 969 4595 
Q 1241 4863 1831 4863 
L 2375 4863 
z
" transform="scale(0.015625)"/>
      <path id="DejaVuSans-6d" d="M 3328 2828 
Q 3544 3216 3844 3400 
Q 4144 3584 4550 3584 
Q 5097 3584 5394 3201 
Q 5691 2819 5691 2113 
L 5691 0 
L 5113 0 
L 5113 2094 
Q 5113 2597 4934 2840 
Q 4756 3084 4391 3084 
Q 3944 3084 3684 2787 
Q 3425 2491 3425 1978 
L 3425 0 
L 2847 0 
L 2847 2094 
Q 2847 2600 2669 2842 
Q 2491 3084 2119 3084 
Q 1678 3084 1418 2786 
Q 1159 2488 1159 1978 
L 1159 0 
L 581 0 
L 581 3500 
L 1159 3500 
L 1159 2956 
Q 1356 3278 1631 3431 
Q 1906 3584 2284 3584 
Q 2666 3584 2933 3390 
Q 3200 3197 3328 2828 
z
" transform="scale(0.015625)"/>
      <path id="DejaVuSans-3a" d="M 750 794 
L 1409 794 
L 1409 0 
L 750 0 
L 750 794 
z
M 750 3309 
L 1409 3309 
L 1409 2516 
L 750 2516 
L 750 3309 
z
" transform="scale(0.015625)"/>
      <path id="DejaVuSans-42" d="M 1259 2228 
L 1259 519 
L 2272 519 
Q 2781 519 3026 730 
Q 3272 941 3272 1375 
Q 3272 1813 3026 2020 
Q 2781 2228 2272 2228 
L 1259 2228 
z
M 1259 4147 
L 1259 2741 
L 2194 2741 
Q 2656 2741 2882 2914 
Q 3109 3088 3109 3444 
Q 3109 3797 2882 3972 
Q 2656 4147 2194 4147 
L 1259 4147 
z
M 628 4666 
L 2241 4666 
Q 2963 4666 3353 4366 
Q 3744 4066 3744 3513 
Q 3744 3084 3544 2831 
Q 3344 2578 2956 2516 
Q 3422 2416 3680 2098 
Q 3938 1781 3938 1306 
Q 3938 681 3513 340 
Q 3088 0 2303 0 
L 628 0 
L 628 4666 
z
" transform="scale(0.015625)"/>
      <path id="DejaVuSans-50" d="M 1259 4147 
L 1259 2394 
L 2053 2394 
Q 2494 2394 2734 2622 
Q 2975 2850 2975 3272 
Q 2975 3691 2734 3919 
Q 2494 4147 2053 4147 
L 1259 4147 
z
M 628 4666 
L 2053 4666 
Q 2838 4666 3239 4311 
Q 3641 3956 3641 3272 
Q 3641 2581 3239 2228 
Q 2838 1875 2053 1875 
L 1259 1875 
L 1259 0 
L 628 0 
L 628 4666 
z
" transform="scale(0.015625)"/>
      <path id="DejaVuSans-52" d="M 2841 2188 
Q 3044 2119 3236 1894 
Q 3428 1669 3622 1275 
L 4263 0 
L 3584 0 
L 2988 1197 
Q 2756 1666 2539 1819 
Q 2322 1972 1947 1972 
L 1259 1972 
L 1259 0 
L 628 0 
L 628 4666 
L 2053 4666 
Q 2853 4666 3247 4331 
Q 3641 3997 3641 3322 
Q 3641 2881 3436 2590 
Q 3231 2300 2841 2188 
z
M 1259 4147 
L 1259 2491 
L 2053 2491 
Q 2509 2491 2742 2702 
Q 2975 2913 2975 3322 
Q 2975 3731 2742 3939 
Q 2509 4147 2053 4147 
L 1259 4147 
z
" transform="scale(0.015625)"/>
      <path id="DejaVuSans-76" d="M 191 3500 
L 800 3500 
L 1894 563 
L 2988 3500 
L 3597 3500 
L 2284 0 
L 1503 0 
L 191 3500 
z
" transform="scale(0.015625)"/>
      <path id="DejaVuSans-45" d="M 628 4666 
L 3578 4666 
L 3578 4134 
L 1259 4134 
L 1259 2753 
L 3481 2753 
L 3481 2222 
L 1259 2222 
L 1259 531 
L 3634 531 
L 3634 0 
L 628 0 
L 628 4666 
z
" transform="scale(0.015625)"/>
      <path id="DejaVuSans-30" d="M 2034 4250 
Q 1547 4250 1301 3770 
Q 1056 3291 1056 2328 
Q 1056 1369 1301 889 
Q 1547 409 2034 409 
Q 2525 409 2770 889 
Q 3016 1369 3016 2328 
Q 3016 3291 2770 3770 
Q 2525 4250 2034 4250 
z
M 2034 4750 
Q 2819 4750 3233 4129 
Q 3647 3509 3647 2328 
Q 3647 1150 3233 529 
Q 2819 -91 2034 -91 
Q 1250 -91 836 529 
Q 422 1150 422 2328 
Q 422 3509 836 4129 
Q 1250 4750 2034 4750 
z
" transform="scale(0.015625)"/>
     </defs>
     <use xlink:href="#DejaVuSans-44"/>
     <use xlink:href="#DejaVuSans-61" x="77.001953"/>
     <use xlink:href="#DejaVuSans-74" x="138.28125"/>
     <use xlink:href="#DejaVuSans-61" x="177.490234"/>
     <use xlink:href="#DejaVuSans-20" x="238.769531"/>
     <use xlink:href="#DejaVuSans-66" x="270.556641"/>
     <use xlink:href="#DejaVuSans-72" x="305.761719"/>
     <use xlink:href="#DejaVuSans-6f" x="344.625"/>
     <use xlink:href="#DejaVuSans-6d" x="405.806641"/>
     <use xlink:href="#DejaVuSans-3a" x="503.21875"/>
     <use xlink:href="#DejaVuSans-20" x="536.910156"/>
     <use xlink:href="#DejaVuSans-42" x="568.697266"/>
     <use xlink:href="#DejaVuSans-50" x="637.300781"/>
     <use xlink:href="#DejaVuSans-20" x="697.603516"/>
     <use xlink:href="#DejaVuSans-53" x="729.390625"/>
     <use xlink:href="#DejaVuSans-74" x="792.867188"/>
     <use xlink:href="#DejaVuSans-61" x="832.076172"/>
     <use xlink:href="#DejaVuSans-74" x="893.355469"/>
     <use xlink:href="#DejaVuSans-69" x="932.564453"/>
     <use xlink:href="#DejaVuSans-73" x="960.347656"/>
     <use xlink:href="#DejaVuSans-74" x="1012.447266"/>
     <use xlink:href="#DejaVuSans-69" x="1051.65625"/>
     <use xlink:href="#DejaVuSans-63" x="1079.439453"/>
     <use xlink:href="#DejaVuSans-61" x="1134.419922"/>
     <use xlink:href="#DejaVuSans-6c" x="1195.699219"/>
     <use xlink:href="#DejaVuSans-20" x="1223.482422"/>
     <use xlink:href="#DejaVuSans-52" x="1255.269531"/>
     <use xlink:href="#DejaVuSans-65" x="1320.251953"/>
     <use xlink:href="#DejaVuSans-76" x="1381.775391"/>
     <use xlink:href="#DejaVuSans-69" x="1440.955078"/>
     <use xlink:href="#DejaVuSans-65" x="1468.738281"/>
     <use xlink:href="#DejaVuSans-77" x="1530.261719"/>
     <use xlink:href="#DejaVuSans-20" x="1612.048828"/>
     <use xlink:href="#DejaVuSans-6f" x="1643.835938"/>
     <use xlink:href="#DejaVuSans-66" x="1705.017578"/>
     <use xlink:href="#DejaVuSans-20" x="1740.222656"/>
     <use xlink:href="#DejaVuSans-57" x="1772.009766"/>
     <use xlink:href="#DejaVuSans-6f" x="1865.011719"/>
     <use xlink:href="#DejaVuSans-72" x="1926.193359"/>
     <use xlink:href="#DejaVuSans-6c" x="1967.306641"/>
     <use xlink:href="#DejaVuSans-64" x="1995.089844"/>
     <use xlink:href="#DejaVuSans-20" x="2058.566406"/>
     <use xlink:href="#DejaVuSans-45" x="2090.353516"/>
     <use xlink:href="#DejaVuSans-6e" x="2153.537109"/>
     <use xlink:href="#DejaVuSans-65" x="2216.916016"/>
     <use xlink:href="#DejaVuSans-72" x="2278.439453"/>
     <use xlink:href="#DejaVuSans-67" x="2317.802734"/>
     <use xlink:href="#DejaVuSans-79" x="2381.279297"/>
     <use xlink:href="#DejaVuSans-20" x="2440.458984"/>
     <use xlink:href="#DejaVuSans-32" x="2472.246094"/>
     <use xlink:href="#DejaVuSans-30" x="2535.869141"/>
     <use xlink:href="#DejaVuSans-32" x="2599.492188"/>
     <use xlink:href="#DejaVuSans-32" x="2663.115234"/>
    </g>
   </g>
   <g id="text_18">
    <!-- World Energy Use by Source (2021) -->
    <g transform="translate(114.916831 19.44)scale(0.12 -0.12)">
     <defs>
      <path id="DejaVuSans-55" d="M 556 4666 
L 1191 4666 
L 1191 1831 
Q 1191 1081 1462 751 
Q 1734 422 2344 422 
Q 2950 422 3222 751 
Q 3494 1081 3494 1831 
L 3494 4666 
L 4128 4666 
L 4128 1753 
Q 4128 841 3676 375 
Q 3225 -91 2344 -91 
Q 1459 -91 1007 375 
Q 556 841 556 1753 
L 556 4666 
z
" transform="scale(0.015625)"/>
      <path id="DejaVuSans-62" d="M 3116 1747 
Q 3116 2381 2855 2742 
Q 2594 3103 2138 3103 
Q 1681 3103 1420 2742 
Q 1159 2381 1159 1747 
Q 1159 1113 1420 752 
Q 1681 391 2138 391 
Q 2594 391 2855 752 
Q 3116 1113 3116 1747 
z
M 1159 2969 
Q 1341 3281 1617 3432 
Q 1894 3584 2278 3584 
Q 2916 3584 3314 3078 
Q 3713 2572 3713 1747 
Q 3713 922 3314 415 
Q 2916 -91 2278 -91 
Q 1894 -91 1617 61 
Q 1341 213 1159 525 
L 1159 0 
L 581 0 
L 581 4863 
L 1159 4863 
L 1159 2969 
z
" transform="scale(0.015625)"/>
      <path id="DejaVuSans-28" d="M 1984 4856 
Q 1566 4138 1362 3434 
Q 1159 2731 1159 2009 
Q 1159 1288 1364 580 
Q 1569 -128 1984 -844 
L 1484 -844 
Q 1016 -109 783 600 
Q 550 1309 550 2009 
Q 550 2706 781 3412 
Q 1013 4119 1484 4856 
L 1984 4856 
z
" transform="scale(0.015625)"/>
      <path id="DejaVuSans-29" d="M 513 4856 
L 1013 4856 
Q 1481 4119 1714 3412 
Q 1947 2706 1947 2009 
Q 1947 1309 1714 600 
Q 1481 -109 1013 -844 
L 513 -844 
Q 928 -128 1133 580 
Q 1338 1288 1338 2009 
Q 1338 2731 1133 3434 
Q 928 4138 513 4856 
z
" transform="scale(0.015625)"/>
     </defs>
     <use xlink:href="#DejaVuSans-57"/>
     <use xlink:href="#DejaVuSans-6f" x="93.001953"/>
     <use xlink:href="#DejaVuSans-72" x="154.183594"/>
     <use xlink:href="#DejaVuSans-6c" x="195.296875"/>
     <use xlink:href="#DejaVuSans-64" x="223.080078"/>
     <use xlink:href="#DejaVuSans-20" x="286.556641"/>
     <use xlink:href="#DejaVuSans-45" x="318.34375"/>
     <use xlink:href="#DejaVuSans-6e" x="381.527344"/>
     <use xlink:href="#DejaVuSans-65" x="444.90625"/>
     <use xlink:href="#DejaVuSans-72" x="506.429688"/>
     <use xlink:href="#DejaVuSans-67" x="545.792969"/>
     <use xlink:href="#DejaVuSans-79" x="609.269531"/>
     <use xlink:href="#DejaVuSans-20" x="668.449219"/>
     <use xlink:href="#DejaVuSans-55" x="700.236328"/>
     <use xlink:href="#DejaVuSans-73" x="773.429688"/>
     <use xlink:href="#DejaVuSans-65" x="825.529297"/>
     <use xlink:href="#DejaVuSans-20" x="887.052734"/>
     <use xlink:href="#DejaVuSans-62" x="918.839844"/>
     <use xlink:href="#DejaVuSans-79" x="982.316406"/>
     <use xlink:href="#DejaVuSans-20" x="1041.496094"/>
     <use xlink:href="#DejaVuSans-53" x="1073.283203"/>
     <use xlink:href="#DejaVuSans-6f" x="1136.759766"/>
     <use xlink:href="#DejaVuSans-75" x="1197.941406"/>
     <use xlink:href="#DejaVuSans-72" x="1261.320312"/>
     <use xlink:href="#DejaVuSans-63" x="1300.183594"/>
     <use xlink:href="#DejaVuSans-65" x="1355.164062"/>
     <use xlink:href="#DejaVuSans-20" x="1416.6875"/>
     <use xlink:href="#DejaVuSans-28" x="1448.474609"/>
     <use xlink:href="#DejaVuSans-32" x="1487.488281"/>
     <use xlink:href="#DejaVuSans-30" x="1551.111328"/>
     <use xlink:href="#DejaVuSans-32" x="1614.734375"/>
     <use xlink:href="#DejaVuSans-31" x="1678.357422"/>
     <use xlink:href="#DejaVuSans-29" x="1741.980469"/>
    </g>
   </g>
  </g>
 </g>
</svg>
