<?xml version="1.0" encoding="UTF-8"?>
<svg width="460.8pt" height="345.6pt" version="1.1" viewBox="0 0 460.8 345.6" xmlns="http://www.w3.org/2000/svg" xmlns:xlink="http://www.w3.org/1999/xlink">
 <defs>
  <style type="text/css">*{stroke-linejoin: round; stroke-linecap: butt}</style>
 </defs>
 <path d="m0 345.6h460.8v-345.6h-460.8z" fill="#fff"/>
 <path d="m57.6 307.58h357.12v-266.11h-357.12z" fill="#fff"/>
 <defs>
  <path id="ag" d="m236.66-38.016v-16.934l0.81322 0.13018 0.81322 0.12918 0.81322 0.12819 0.81322 0.1272 0.81322 0.12623 0.81322 0.12526 0.81322 0.12429 0.81322 0.12334 0.81322 0.12239 0.81322 0.12145 0.81322 0.12052 0.81322 0.11959 0.81322 0.11867 0.81322 0.11776 0.81322 0.11685 0.81322 0.11595 0.81322 0.11506 0.81322 0.11418 0.81322 0.1133 0.81322 0.11243 0.81322 0.11156 0.81322 0.11071 0.81322 0.10986 0.81322 0.10901 0.81322 0.10817 0.81322 0.10734 0.81322 0.10652 0.81322 0.1057 0.81322 0.10488 0.81322 0.10408 0.81322 0.10328 0.81322 0.10249 0.81322 0.1017 0.81322 0.10092 0.81322 0.10014 0.81322 0.099369 0.81322 0.098606 0.81322 0.097848 0.81322 0.097096 0.81322 0.096349 0.81322 0.095608 0.81322 0.094874 0.81322 0.094144 0.81322 0.09342 0.81322 0.092702 0.81322 0.09199 0.81322 0.091282 0.81322 0.090581 0.81322 0.089884 0.81322 0.089194 0.81322 0.088507 0.81322 0.087827 0.81322 0.087152 0.81322 0.086483 0.81322 0.085817 0.81322 0.085157 0.81322 0.084503 0.81322 0.083853 0.81322 0.083209 0.81322 0.082569 0.81322 0.081934 0.81322 0.081304 0.81322 0.080679 0.81322 0.080059 0.81322 0.079444 0.81322 0.078833 0.81322 0.078227 0.81322 0.077625 0.81322 0.077029 0.81322 0.076436 0.81322 0.075849 0.81322 0.075266 0.81322 0.074687 0.81322 0.074113 0.81322 0.073543 0.81322 0.072978 0.81322 0.072417 0.81322 0.07186 0.81322 0.071308 0.81322 0.07076 0.81322 0.070215 0.81322 0.069676 0.81322 0.06914 0.81322 0.068609 0.81322 0.068081 0.81322 0.067558 0.81322 0.067038 0.81322 0.066523 0.81322 0.066012 0.81322 0.065504 0.81322 0.065001 0.81322 0.064501 0.81322 0.064005 0.81322 0.063513 0.81322 0.063025 0.81322 0.06254 0.81322 0.06206 0.81322 0.061582 0.81322 0.061109 0.81322 0.060639 0.81322 0.060174 0.81322 0.05971 0.81322 0.059251 0.81322 0.058796 0.81322 0.058344 0.81322 0.057896 0.81322 0.05745 0.81322 0.057009 0.81322 0.05657 0.81322 0.056136 0.81322 0.055704 0.81322 0.055276 0.81322 0.05485 0.81322 0.05443 0.81322 0.05401 0.81322 0.053596 0.81322 0.053183 0.81322 0.052775 0.81322 0.052369 0.81322 0.051966 0.81322 0.051567 0.81322 0.051171 0.81322 0.050777 0.81322 0.050386 0.81322 0.05 0.81322 0.049615 0.81322 0.049233 0.81322 0.048855 0.81322 0.04848 0.81322 0.048107 0.81322 0.047737 0.81322 0.04737 0.81322 0.047005 0.81322 0.046645 0.81322 0.046286 0.81322 0.04593 0.81322 0.045577 0.81322 0.045227 0.81322 0.044878 0.81322 0.044534 0.81322 0.044192 0.81322 0.043852 0.81322 0.043514 0.81322 0.043181 0.81322 0.042848 0.81322 0.042519 0.81322 0.042192 0.81322 0.041867 0.81322 0.041546 0.81322 0.041226 0.81322 0.04091 0.81322 0.040595 0.81322 0.040283 0.81322 0.039973 0.81322 0.039666 0.81322 0.039361 0.81322 0.039058 0.81322 0.038758 0.81322 0.03846 0.81322 0.038165 0.81322 0.037871 0.81322 0.03758 0.81322 0.037291 0.81322 0.037004 0.81322 0.03672 0.81322 0.036438 0.81322 0.036157 0.81322 0.03588 0.81322 0.035604 0.81322 0.03533 0.81322 0.035058 0.81322 0.034789 0.81322 0.034521 0.81322 0.034257 0.81322 0.033992 0.81322 0.033732 0.81322 0.033472 0.81322 0.033214 0.81322 0.03296 0.81322 0.032706 0.81322 0.032455 0.81322 0.032205 0.81322 0.031957 0.81322 0.031712 0.81322 0.031468 0.81322 0.031226 0.81322 0.030986 0.81322 0.030748 0.81322 0.030512 0.81322 0.030277 0.81322 0.030044 0.81322 0.029813 0.81322 0.029584 0.81322 0.029357 0.81322 0.029131 0.81322 0.028907 0.81322 0.028685 0.81322 0.028464 0.81322 0.028245v3.6459h-0.81322-0.81322-0.81322-0.81322-0.81322-0.81322-0.81322-0.81322-0.81322-0.81322-0.81322-0.81322-0.81322-0.81322-0.81322-0.81322-0.81322-0.81322-0.81322-0.81322-0.81322-0.81322-0.81322-0.81322-0.81322-0.81322-0.81322-0.81322-0.81322-0.81322-0.81322-0.81322-0.81322-0.81322-0.81322-0.81322-0.81322-0.81322-0.81322-0.81322-0.81322-0.81322-0.81322-0.81322-0.81322-0.81322-0.81322-0.81322-0.81322-0.81322-0.81322-0.81322-0.81322-0.81322-0.81322-0.81322-0.81322-0.81322-0.81322-0.81322-0.81322-0.81322-0.81322-0.81322-0.81322-0.81322-0.81322-0.81322-0.81322-0.81322-0.81322-0.81322-0.81322-0.81322-0.81322-0.81322-0.81322-0.81322-0.81322-0.81322-0.81322-0.81322-0.81322-0.81322-0.81322-0.81322-0.81322-0.81322-0.81322-0.81322-0.81322-0.81322-0.81322-0.81322-0.81322-0.81322-0.81322-0.81322-0.81322-0.81322-0.81322-0.81322-0.81322-0.81322-0.81322-0.81322-0.81322-0.81322-0.81322-0.81322-0.81322-0.81322-0.81322-0.81322-0.81322-0.81322-0.81322-0.81322-0.81322-0.81322-0.81322-0.81322-0.81322-0.81322-0.81322-0.81322-0.81322-0.81322-0.81322-0.81322-0.81322-0.81322-0.81322-0.81322-0.81322-0.81322-0.81322-0.81322-0.81322-0.81322-0.81322-0.81322-0.81322-0.81322-0.81322-0.81322-0.81322-0.81322-0.81322-0.81322-0.81322-0.81322-0.81322-0.81322-0.81322-0.81322-0.81322-0.81322-0.81322-0.81322-0.81322-0.81322-0.81322-0.81322-0.81322-0.81322-0.81322-0.81322-0.81322-0.81322-0.81322-0.81322-0.81322-0.81322-0.81322-0.81322-0.81322-0.81322-0.81322-0.81322-0.81322-0.81322-0.81322-0.81322-0.81322-0.81322-0.81322-0.81322-0.81322-0.81322-0.81322-0.81322-0.81322-0.81322-0.81322-0.81322-0.81322-0.81322-0.81322z" stroke="#f00" stroke-opacity=".2"/>
 </defs>
 <g clip-path="url(#w)">
  <use y="345.6" fill="#ff0000" fill-opacity=".2" stroke="#ff0000" stroke-opacity=".2" xlink:href="#ag"/>
 </g>
 <defs>
  <path id="q" d="m0 0v3.5" stroke="#000" stroke-width=".8"/>
 </defs>
 <use x="73.832727" y="307.584" stroke="#000000" stroke-width=".8" xlink:href="#q"/>
 <g transform="translate(68.848 322.18) scale(.1 -.1)">
  <defs>
   <path id="ac" transform="scale(.015625)" d="m313 2009h1684v-512h-1684v512z"/>
   <path id="u" transform="scale(.015625)" d="m794 531h1031v3560l-1122-225v575l1116 225h631v-4135h1031v-531h-2687v531z"/>
  </defs>
  <use xlink:href="#ac"/>
  <use x="36.083984" xlink:href="#u"/>
 </g>
 <use x="154.996364" y="307.584" stroke="#000000" stroke-width=".8" xlink:href="#q"/>
 <g transform="translate(145.24 322.18) scale(.1 -.1)">
  <defs>
   <path id="g" transform="scale(.015625)" d="m2034 4250q-487 0-733-480-245-479-245-1442 0-959 245-1439 246-480 733-480 491 0 736 480 246 480 246 1439 0 963-246 1442-245 480-736 480zm0 500q785 0 1199-621 414-620 414-1801 0-1178-414-1799-414-620-1199-620-784 0-1198 620-414 621-414 1799 0 1181 414 1801 414 621 1198 621z"/>
   <path id="m" transform="scale(.015625)" d="m684 794h660v-794h-660v794z"/>
   <path id="z" transform="scale(.015625)" d="m691 4666h2478v-532h-1900v-1143q137 47 274 70 138 23 276 23 781 0 1237-428 457-428 457-1159 0-753-469-1171-469-417-1322-417-294 0-599 50-304 50-629 150v635q281-153 581-228t634-75q541 0 856 284 316 284 316 772 0 487-316 771-315 285-856 285-253 0-505-56-251-56-513-175v2344z"/>
  </defs>
  <use xlink:href="#ac"/>
  <use x="36.083984" xlink:href="#g"/>
  <use x="99.707031" xlink:href="#m"/>
  <use x="131.494141" xlink:href="#z"/>
 </g>
 <use x="236.16" y="307.584" stroke="#000000" stroke-width=".8" xlink:href="#q"/>
 <g transform="translate(232.98 322.18) scale(.1 -.1)">
  <use xlink:href="#g"/>
 </g>
 <use x="317.323636" y="307.584" stroke="#000000" stroke-width=".8" xlink:href="#q"/>
 <g transform="translate(309.37 322.18) scale(.1 -.1)">
  <use xlink:href="#g"/>
  <use x="63.623047" xlink:href="#m"/>
  <use x="95.410156" xlink:href="#z"/>
 </g>
 <use x="398.487273" y="307.584" stroke="#000000" stroke-width=".8" xlink:href="#q"/>
 <g transform="translate(395.31 322.18) scale(.1 -.1)">
  <use xlink:href="#u"/>
 </g>
 <g transform="translate(204.38 335.86) scale(.1 -.1)">
  <defs>
   <path id="am" transform="scale(.015625)" d="m-19 4666h3947v-532h-1656v-4134h-634v4134h-1657v532z"/>
   <path id="k" transform="scale(.015625)" d="m603 3500h575v-3500h-575v3500zm0 1363h575v-729h-575v729z"/>
   <path id="v" transform="scale(.015625)" d="m3328 2828q216 388 516 572t706 184q547 0 844-383 297-382 297-1088v-2113h-578v2094q0 503-179 746-178 244-543 244-447 0-707-297-259-296-259-809v-1978h-578v2094q0 506-178 748t-550 242q-441 0-701-298-259-298-259-808v-1978h-578v3500h578v-544q197 322 472 475t653 153q382 0 649-194 267-193 395-562z"/>
   <path id="b" transform="scale(.015625)" d="m3597 1894v-281h-2644q38-594 358-905t892-311q331 0 642 81t618 244v-544q-310-131-635-200t-659-69q-838 0-1327 487-489 488-489 1320 0 859 464 1363 464 505 1252 505 706 0 1117-455 411-454 411-1235zm-575 169q-6 471-264 752-258 282-683 282-481 0-770-272t-333-766l2050 4z"/>
   <path id="ae" transform="scale(.015625)" d="m1984 4856q-418-718-622-1422-203-703-203-1425 0-721 205-1429t620-1424h-500q-468 735-701 1444t-233 1409q0 697 231 1403 232 707 703 1444h500z"/>
   <path id="s" transform="scale(.015625)" d="m3513 2113v-2113h-575v2094q0 497-194 743-194 247-581 247-466 0-735-297-269-296-269-809v-1978h-578v4863h578v-1907q207 316 486 472 280 156 646 156 603 0 912-373 310-373 310-1098z"/>
   <path id="a" transform="scale(.015625)" d="m1959 3097q-462 0-731-361t-269-989 267-989q268-361 733-361 460 0 728 362 269 363 269 988 0 622-269 986-268 364-728 364zm0 487q750 0 1178-488 429-487 429-1349 0-859-429-1349-428-489-1178-489-753 0-1180 489-426 490-426 1349 0 862 426 1349 427 488 1180 488z"/>
   <path id="r" transform="scale(.015625)" d="m544 1381v2119h575v-2097q0-497 193-746 194-248 582-248 465 0 735 297 271 297 271 810v1984h575v-3500h-575v538q-209-319-486-474-276-155-642-155-603 0-916 375-312 375-312 1097zm1447 2203z"/>
   <path id="c" transform="scale(.015625)" d="m2631 2963q-97 56-211 82-114 27-251 27-488 0-749-317t-261-911v-1844h-578v3500h578v-544q182 319 472 473 291 155 707 155 59 0 131-8 72-7 159-23l3-590z"/>
   <path id="e" transform="scale(.015625)" d="m2834 3397v-544q-243 125-506 187-262 63-544 63-428 0-642-131t-214-394q0-200 153-314t616-217l197-44q612-131 870-370t258-667q0-488-386-773-386-284-1061-284-281 0-586 55t-642 164v594q319-166 628-249 309-82 613-82 406 0 624 139 219 139 219 392 0 234-158 359-157 125-692 241l-200 47q-534 112-772 345-237 233-237 639 0 494 350 762 350 269 994 269 318 0 599-47 282-46 519-140z"/>
   <path id="ad" transform="scale(.015625)" d="m513 4856h500q468-737 701-1444 233-706 233-1403 0-700-233-1409t-701-1444h-500q415 716 620 1424t205 1429q0 722-205 1425-205 704-620 1422z"/>
  </defs>
  <use xlink:href="#am"/>
  <use x="57.958984" xlink:href="#k"/>
  <use x="85.742188" xlink:href="#v"/>
  <use x="183.154297" xlink:href="#b"/>
  <use x="244.677734" xlink:href="#DejaVuSans-20"/>
  <use x="276.464844" xlink:href="#ae"/>
  <use x="315.478516" xlink:href="#s"/>
  <use x="378.857422" xlink:href="#a"/>
  <use x="440.039062" xlink:href="#r"/>
  <use x="503.417969" xlink:href="#c"/>
  <use x="544.53125" xlink:href="#e"/>
  <use x="596.630859" xlink:href="#ad"/>
 </g>
 <defs>
  <path id="n" d="m0 0h-3.5" stroke="#000" stroke-width=".8"/>
 </defs>
 <use x="57.6" y="307.584" stroke="#000000" stroke-width=".8" xlink:href="#n"/>
 <g transform="translate(44.238 311.38) scale(.1 -.1)">
  <use xlink:href="#g"/>
 </g>
 <use x="57.6" y="259.2" stroke="#000000" stroke-width=".8" xlink:href="#n"/>
 <g transform="translate(37.875 263) scale(.1 -.1)">
  <defs>
   <path id="ab" transform="scale(.015625)" d="m1228 531h2203v-531h-2962v531q359 372 979 998 621 627 780 809 303 340 423 576 121 236 121 464 0 372-261 606-261 235-680 235-297 0-627-103-329-103-704-313v638q381 153 712 231 332 78 607 78 725 0 1156-363 431-362 431-968 0-288-108-546-107-257-392-607-78-91-497-524-418-433-1181-1211z"/>
  </defs>
  <use xlink:href="#ab"/>
  <use x="63.623047" xlink:href="#g"/>
 </g>
 <use x="57.6" y="210.816" stroke="#000000" stroke-width=".8" xlink:href="#n"/>
 <g transform="translate(37.875 214.62) scale(.1 -.1)">
  <defs>
   <path id="aa" transform="scale(.015625)" d="m2419 4116-1594-2491h1594v2491zm-166 550h794v-3041h666v-525h-666v-1100h-628v1100h-2106v609l1940 2957z"/>
  </defs>
  <use xlink:href="#aa"/>
  <use x="63.623047" xlink:href="#g"/>
 </g>
 <use x="57.6" y="162.432" stroke="#000000" stroke-width=".8" xlink:href="#n"/>
 <g transform="translate(37.875 166.23) scale(.1 -.1)">
  <defs>
   <path id="at" transform="scale(.015625)" d="m2113 2584q-425 0-674-291-248-290-248-796 0-503 248-796 249-292 674-292t673 292q248 293 248 796 0 506-248 796-248 291-673 291zm1253 1979v-575q-238 112-480 171-242 60-480 60-625 0-955-422-329-422-376-1275 184 272 462 417 279 145 613 145 703 0 1111-427 408-426 408-1160 0-719-425-1154-425-434-1131-434-810 0-1238 620-428 621-428 1799 0 1106 525 1764t1409 658q238 0 480-47t505-140z"/>
  </defs>
  <use xlink:href="#at"/>
  <use x="63.623047" xlink:href="#g"/>
 </g>
 <use x="57.6" y="114.048" stroke="#000000" stroke-width=".8" xlink:href="#n"/>
 <g transform="translate(37.875 117.85) scale(.1 -.1)">
  <defs>
   <path id="ar" transform="scale(.015625)" d="m2034 2216q-450 0-708-241-257-241-257-662 0-422 257-663 258-241 708-241t709 242q260 243 260 662 0 421-258 662-257 241-711 241zm-631 268q-406 100-633 378-226 279-226 679 0 559 398 884 399 325 1092 325 697 0 1094-325t397-884q0-400-227-679-226-278-629-378 456-106 710-416 255-309 255-755 0-679-414-1042-414-362-1186-362-771 0-1186 362-414 363-414 1042 0 446 256 755 257 310 713 416zm-231 997q0-362 226-565 227-203 636-203 407 0 636 203 230 203 230 565 0 363-230 566-229 203-636 203-409 0-636-203-226-203-226-566z"/>
  </defs>
  <use xlink:href="#ar"/>
  <use x="63.623047" xlink:href="#g"/>
 </g>
 <use x="57.6" y="65.664" stroke="#000000" stroke-width=".8" xlink:href="#n"/>
 <g transform="translate(31.512 69.463) scale(.1 -.1)">
  <use xlink:href="#u"/>
  <use x="63.623047" xlink:href="#g"/>
  <use x="127.246094" xlink:href="#g"/>
 </g>
 <g transform="translate(25.433 199.88) rotate(-90) scale(.1 -.1)">
  <defs>
   <path id="x" transform="scale(.015625)" d="m1259 4147v-1753h794q441 0 681 228 241 228 241 650 0 419-241 647-240 228-681 228h-794zm-631 519h1425q785 0 1186-355 402-355 402-1039 0-691-402-1044-401-353-1186-353h-794v-1875h-631v4666z"/>
   <path id="h" transform="scale(.015625)" d="m269 3500h575l719-2731 715 2731h678l719-2731 716 2731h575l-916-3500h-678l-753 2869-756-2869h-679l-915 3500z"/>
   <path id="af" transform="scale(.015625)" d="m4653 2053q-272 0-427-231-154-231-154-644 0-406 154-639 155-233 427-233 266 0 420 233 155 233 155 639 0 410-155 642-154 233-420 233zm0 397q494 0 784-344 291-343 291-928 0-584-292-927-292-342-783-342-500 0-791 342-290 343-290 927 0 588 292 930t789 342zm-3225 1903q-269 0-424-233-154-232-154-639 0-412 153-644 153-231 425-231t426 231q155 232 155 644 0 403-156 637-156 235-425 235zm2822 397h500l-2919-4841h-500l2919 4841zm-2822 0q494 0 787-342 294-342 294-927 0-590-292-931t-789-341-786 342q-289 343-289 930 0 582 290 925 291 344 785 344z"/>
  </defs>
  <use xlink:href="#x"/>
  <use x="56.677734" xlink:href="#a"/>
  <use x="117.859375" xlink:href="#h"/>
  <use x="199.646484" xlink:href="#b"/>
  <use x="261.169922" xlink:href="#c"/>
  <use x="302.283203" xlink:href="#DejaVuSans-20"/>
  <use x="334.070312" xlink:href="#ae"/>
  <use x="373.083984" xlink:href="#af"/>
  <use x="468.103516" xlink:href="#ad"/>
 </g>
 <path d="m73.833 65.664h162.33-0.40582l0.90182 224.99 12.198 1.8511 13.012 1.752 13.825 1.6391 14.638 1.5164 16.264 1.4554 17.078 1.3047 18.704 1.2061 20.331 1.0896 22.77 0.995 13.012 0.47916v0" clip-path="url(#w)" fill="none" stroke="#1f77b4" stroke-linecap="square" stroke-width="1.5"/>
 <path d="m57.6 307.58v-266.11" fill="none" stroke="#000" stroke-linecap="square" stroke-width=".8"/>
 <path d="m414.72 307.58v-266.11" fill="none" stroke="#000" stroke-linecap="square" stroke-width=".8"/>
 <path d="m57.6 307.58h357.12" fill="none" stroke="#000" stroke-linecap="square" stroke-width=".8"/>
 <path d="m57.6 41.472h357.12" fill="none" stroke="#000" stroke-linecap="square" stroke-width=".8"/>
 <path d="m150.3 90.835q0.99756-5.9912 1.9951-11.982l-5.4253-0.90333q3.9447-5.4258 7.8894-10.852 1.9738 6.4113 3.9476 12.823l-5.4253-0.90333q-0.99756 5.9912-1.9951 11.982l-0.98642-0.16424z" stroke="#000" stroke-linecap="round"/>
 <g transform="translate(73.833 101.95) scale(.1 -.1)">
  <defs>
   <path id="ao" transform="scale(.015625)" d="m628 4666h850l2069-3903v3903h612v-4666h-850l-2068 3903v-3903h-613v4666z"/>
   <path id="d" transform="scale(.015625)" d="m2194 1759q-697 0-966-159t-269-544q0-306 202-486 202-179 548-179 479 0 768 339t289 901v128h-572zm1147 238v-1997h-575v531q-197-318-491-470t-719-152q-537 0-855 302-317 302-317 808 0 590 395 890 396 300 1180 300h807v57q0 397-261 614t-733 217q-300 0-585-72-284-72-546-216v532q315 122 612 182 297 61 578 61 760 0 1135-394 375-393 375-1193z"/>
   <path id="j" transform="scale(.015625)" d="m603 4863h575v-4863h-575v4863z"/>
   <path id="al" transform="scale(.015625)" d="m2375 4863v-479h-550q-309 0-430-125-120-125-120-450v-309h947v-447h-947v-3053h-578v3053h-550v447h550v244q0 584 272 851 272 268 862 268h544z"/>
   <path id="o" transform="scale(.015625)" d="m1159 525v-1856h-578v4831h578v-531q182 312 458 463 277 152 661 152 638 0 1036-506 399-506 399-1331t-399-1332q-398-506-1036-506-384 0-661 152-276 152-458 464zm1957 1222q0 634-261 995t-717 361q-457 0-718-361t-261-995 261-995 718-361q456 0 717 361t261 995z"/>
   <path id="f" transform="scale(.015625)" d="m1172 4494v-994h1184v-447h-1184v-1900q0-428 117-550t477-122h590v-481h-590q-666 0-919 248-253 249-253 905v1900h-422v447h422v994h578z"/>
   <path id="i" transform="scale(.015625)" d="m3513 2113v-2113h-575v2094q0 497-194 743-194 247-581 247-466 0-735-297-269-296-269-809v-1978h-578v3500h578v-544q207 316 486 472 280 156 646 156 603 0 912-373 310-373 310-1098z"/>
  </defs>
  <use xlink:href="#u"/>
  <use x="63.623047" xlink:href="#m"/>
  <use x="95.410156" xlink:href="#DejaVuSans-20"/>
  <use x="127.197266" xlink:href="#ao"/>
  <use x="202.001953" xlink:href="#a"/>
  <use x="263.183594" xlink:href="#c"/>
  <use x="302.546875" xlink:href="#v"/>
  <use x="399.958984" xlink:href="#d"/>
  <use x="461.238281" xlink:href="#j"/>
  <use x="489.021484" xlink:href="#DejaVuSans-20"/>
  <use x="520.808594" xlink:href="#al"/>
  <use x="556.013672" xlink:href="#r"/>
  <use x="619.392578" xlink:href="#j"/>
  <use x="647.175781" xlink:href="#j"/>
  <use x="674.958984" xlink:href="#DejaVuSans-20"/>
  <use x="706.746094" xlink:href="#o"/>
  <use x="770.222656" xlink:href="#a"/>
  <use x="831.404297" xlink:href="#h"/>
  <use x="913.191406" xlink:href="#b"/>
  <use x="974.714844" xlink:href="#c"/>
  <use x="1015.828125" xlink:href="#DejaVuSans-20"/>
  <use x="1047.615234" xlink:href="#a"/>
  <use x="1108.796875" xlink:href="#o"/>
  <use x="1172.273438" xlink:href="#b"/>
  <use x="1233.796875" xlink:href="#c"/>
  <use x="1274.910156" xlink:href="#d"/>
  <use x="1336.189453" xlink:href="#f"/>
  <use x="1375.398438" xlink:href="#k"/>
  <use x="1403.181641" xlink:href="#a"/>
  <use x="1464.363281" xlink:href="#i"/>
 </g>
 <path d="m272.54 81.866q-11.537-5.0343-23.074-10.069l-2.1997 5.041q-4.3015-5.1502-8.6029-10.3 6.7011-0.3491 13.402-0.6982l-2.1997 5.041q11.537 5.0343 23.074 10.069l-0.39994 0.91654z" stroke="#000" stroke-linecap="round"/>
 <g transform="translate(276.74 90.754) scale(.1 -.1)">
  <defs>
   <path id="aq" transform="scale(.015625)" d="m4122 4306v-665q-319 297-680 443-361 147-767 147-800 0-1225-489t-425-1414q0-922 425-1411t1225-489q406 0 767 147t680 444v-660q-331-225-702-338-370-112-782-112-1060 0-1670 648-609 649-609 1771 0 1125 609 1773 610 649 1670 649 418 0 788-111 371-111 696-333z"/>
   <path id="p" transform="scale(.015625)" d="m2906 2969v1894h575v-4863h-575v525q-181-312-458-464-276-152-664-152-634 0-1033 506-398 507-398 1332t398 1331q399 506 1033 506 388 0 664-152 277-151 458-463zm-1959-1222q0-634 261-995t717-361 718 361q263 361 263 995t-263 995q-262 361-718 361t-717-361-261-995z"/>
   <path id="av" transform="scale(.015625)" d="m750 794h659v-538l-512-1e3h-403l256 1e3v538z"/>
  </defs>
  <use xlink:href="#ab"/>
  <use x="63.623047" xlink:href="#m"/>
  <use x="95.410156" xlink:href="#DejaVuSans-20"/>
  <use x="127.197266" xlink:href="#aq"/>
  <use x="197.021484" xlink:href="#a"/>
  <use x="258.203125" xlink:href="#i"/>
  <use x="321.582031" xlink:href="#f"/>
  <use x="360.791016" xlink:href="#c"/>
  <use x="399.654297" xlink:href="#a"/>
  <use x="460.835938" xlink:href="#j"/>
  <use x="488.619141" xlink:href="#DejaVuSans-20"/>
  <use x="520.40625" xlink:href="#c"/>
  <use x="559.269531" xlink:href="#a"/>
  <use x="620.451172" xlink:href="#p"/>
  <use x="683.927734" xlink:href="#e"/>
  <use x="736.027344" xlink:href="#DejaVuSans-20"/>
  <use x="767.814453" xlink:href="#k"/>
  <use x="795.597656" xlink:href="#i"/>
  <use x="858.976562" xlink:href="#e"/>
  <use x="911.076172" xlink:href="#b"/>
  <use x="972.599609" xlink:href="#c"/>
  <use x="1013.712891" xlink:href="#f"/>
  <use x="1052.921875" xlink:href="#av"/>
 </g>
 <g transform="translate(276.74 101.95) scale(.1 -.1)">
  <defs>
   <path id="l" transform="scale(.015625)" d="m3122 3366v-538q-244 135-489 202t-495 67q-560 0-870-355-309-354-309-995t309-996q310-354 870-354 250 0 495 67t489 202v-532q-241-112-499-168-257-57-548-57-791 0-1257 497-465 497-465 1341 0 856 470 1346 471 491 1290 491 265 0 518-55 253-54 491-163z"/>
  </defs>
  <use xlink:href="#l"/>
  <use x="54.980469" xlink:href="#s"/>
  <use x="118.359375" xlink:href="#d"/>
  <use x="179.638672" xlink:href="#k"/>
  <use x="207.421875" xlink:href="#i"/>
  <use x="270.800781" xlink:href="#DejaVuSans-20"/>
  <use x="302.587891" xlink:href="#c"/>
  <use x="341.451172" xlink:href="#b"/>
  <use x="402.974609" xlink:href="#d"/>
  <use x="464.253906" xlink:href="#l"/>
  <use x="519.234375" xlink:href="#f"/>
  <use x="558.443359" xlink:href="#k"/>
  <use x="586.226562" xlink:href="#a"/>
  <use x="647.408203" xlink:href="#i"/>
  <use x="710.787109" xlink:href="#DejaVuSans-20"/>
  <use x="742.574219" xlink:href="#e"/>
  <use x="794.673828" xlink:href="#f"/>
  <use x="833.882812" xlink:href="#a"/>
  <use x="895.064453" xlink:href="#o"/>
  <use x="958.541016" xlink:href="#e"/>
 </g>
 <path d="m227.81 264.57q2.3631 6.5727 4.7261 13.145l5.1757-1.8608q-0.79355 6.66-1.5871 13.32-4.8526-4.6301-9.7053-9.2602l5.1757-1.8608q-2.3631-6.5727-4.7261-13.145l0.94103-0.33832z" stroke="#000" stroke-linecap="round"/>
 <g transform="translate(73.833 259.2) scale(.1 -.1)">
  <defs>
   <path id="au" transform="scale(.015625)" d="m2597 2516q453-97 707-404 255-306 255-756 0-690-475-1069-475-378-1350-378-293 0-604 58t-642 174v609q262-153 574-231 313-78 654-78 593 0 904 234t311 681q0 413-289 645-289 233-804 233h-544v519h569q465 0 712 186t247 536q0 359-255 551-254 193-729 193-260 0-557-57-297-56-653-174v562q360 100 674 150t592 50q719 0 1137-327 419-326 419-882 0-388-222-655t-631-370z"/>
   <path id="t" transform="scale(.015625)" d="m2059-325q-243-625-475-815-231-191-618-191h-460v481h338q237 0 368 113 132 112 291 531l103 262-1415 3444h609l1094-2737 1094 2737h609l-1538-3825z"/>
   <path id="ah" transform="scale(.015625)" d="m4684 2553v-556q-328-247-608-353-279-106-582-106-344 0-800 184-35 12-50 19-22 9-69 25-484 193-778 193-275 0-544-120t-575-380v557q328 247 608 354 280 108 583 108 344 0 803-187 31-13 47-19 25-9 69-25 484-194 778-194 268 0 532 119 265 119 586 381z"/>
   <path id="as" transform="scale(.015625)" d="m525 4666h3e3v-269l-1694-4397h-659l1594 4134h-2241v532z"/>
  </defs>
  <use xlink:href="#au"/>
  <use x="63.623047" xlink:href="#m"/>
  <use x="95.410156" xlink:href="#DejaVuSans-20"/>
  <use x="127.197266" xlink:href="#x"/>
  <use x="183.875" xlink:href="#a"/>
  <use x="245.056641" xlink:href="#h"/>
  <use x="326.84375" xlink:href="#b"/>
  <use x="388.367188" xlink:href="#c"/>
  <use x="429.480469" xlink:href="#DejaVuSans-20"/>
  <use x="461.267578" xlink:href="#c"/>
  <use x="502.380859" xlink:href="#d"/>
  <use x="563.660156" xlink:href="#o"/>
  <use x="627.136719" xlink:href="#k"/>
  <use x="654.919922" xlink:href="#p"/>
  <use x="718.396484" xlink:href="#j"/>
  <use x="746.179688" xlink:href="#t"/>
  <use x="805.359375" xlink:href="#DejaVuSans-20"/>
  <use x="837.146484" xlink:href="#p"/>
  <use x="900.623047" xlink:href="#c"/>
  <use x="939.486328" xlink:href="#a"/>
  <use x="1000.667969" xlink:href="#o"/>
  <use x="1064.144531" xlink:href="#e"/>
  <use x="1116.244141" xlink:href="#DejaVuSans-20"/>
  <use x="1148.03125" xlink:href="#f"/>
  <use x="1187.240234" xlink:href="#a"/>
  <use x="1248.421875" xlink:href="#DejaVuSans-20"/>
  <use x="1280.208984" xlink:href="#ah"/>
  <use x="1363.998047" xlink:href="#as"/>
  <use x="1427.621094" xlink:href="#af"/>
 </g>
 <path d="m290.77 276.6q0 4.043 0 8.0859h5.5q-3 5.9995-6 11.999-3-5.9995-6-11.999h5.5q0-4.043 0-8.0859h1z" stroke="#000" stroke-linecap="round"/>
 <g transform="translate(290.27 260.1) scale(.1 -.1)">
  <defs>
   <path id="y" transform="scale(.015625)" d="m1259 4147v-3628h763q966 0 1414 437 448 438 448 1382 0 937-448 1373t-1414 436h-763zm-631 519h1297q1356 0 1990-564 635-564 635-1764 0-1207-638-1773-637-565-1987-565h-1297v4666z"/>
  </defs>
  <use xlink:href="#aa"/>
  <use x="63.623047" xlink:href="#m"/>
  <use x="95.410156" xlink:href="#DejaVuSans-20"/>
  <use x="127.197266" xlink:href="#y"/>
  <use x="204.199219" xlink:href="#b"/>
  <use x="265.722656" xlink:href="#l"/>
  <use x="320.703125" xlink:href="#d"/>
  <use x="381.982422" xlink:href="#t"/>
  <use x="441.162109" xlink:href="#DejaVuSans-20"/>
  <use x="472.949219" xlink:href="#s"/>
  <use x="536.328125" xlink:href="#b"/>
  <use x="597.851562" xlink:href="#d"/>
  <use x="659.130859" xlink:href="#f"/>
  <use x="698.339844" xlink:href="#DejaVuSans-20"/>
  <use x="730.126953" xlink:href="#e"/>
  <use x="782.226562" xlink:href="#j"/>
  <use x="810.009766" xlink:href="#a"/>
  <use x="871.191406" xlink:href="#h"/>
  <use x="952.978516" xlink:href="#j"/>
  <use x="980.761719" xlink:href="#t"/>
 </g>
 <g transform="translate(290.27 271.3) scale(.1 -.1)">
  <defs>
   <path id="ai" transform="scale(.015625)" d="m191 3500h609l1094-2937 1094 2937h609l-1313-3500h-781l-1312 3500z"/>
   <path id="aj" transform="scale(.015625)" d="m581 4863h578v-2872l1716 1509h734l-1856-1637 1935-1863h-750l-1779 1709v-1709h-578v4863z"/>
  </defs>
  <use xlink:href="#p"/>
  <use x="63.476562" xlink:href="#b"/>
  <use x="125" xlink:href="#l"/>
  <use x="179.980469" xlink:href="#c"/>
  <use x="218.84375" xlink:href="#b"/>
  <use x="280.367188" xlink:href="#d"/>
  <use x="341.646484" xlink:href="#e"/>
  <use x="393.746094" xlink:href="#b"/>
  <use x="455.269531" xlink:href="#e"/>
  <use x="507.369141" xlink:href="#DejaVuSans-20"/>
  <use x="539.15625" xlink:href="#a"/>
  <use x="600.337891" xlink:href="#ai"/>
  <use x="659.517578" xlink:href="#b"/>
  <use x="721.041016" xlink:href="#c"/>
  <use x="762.154297" xlink:href="#DejaVuSans-20"/>
  <use x="793.941406" xlink:href="#h"/>
  <use x="875.728516" xlink:href="#b"/>
  <use x="937.251953" xlink:href="#b"/>
  <use x="998.775391" xlink:href="#aj"/>
  <use x="1056.685547" xlink:href="#e"/>
 </g>
 <g transform="translate(240.67 306.37) scale(.1 -.1)" fill="#f00">
  <defs>
   <path id="ap" transform="scale(.015625)" d="m628 4666h631v-1913h2294v1913h631v-4666h-631v2222h-2294v-2222h-631v4666z"/>
  </defs>
  <use xlink:href="#y"/>
  <use x="77.001953" xlink:href="#b"/>
  <use x="138.525391" xlink:href="#l"/>
  <use x="193.505859" xlink:href="#d"/>
  <use x="254.785156" xlink:href="#t"/>
  <use x="313.964844" xlink:href="#DejaVuSans-20"/>
  <use x="345.751953" xlink:href="#ap"/>
  <use x="420.947266" xlink:href="#b"/>
  <use x="482.470703" xlink:href="#d"/>
  <use x="543.75" xlink:href="#f"/>
 </g>
 <g transform="translate(140.21 35.472) scale(.12 -.12)">
  <defs>
   <path id="an" transform="scale(.015625)" d="m2841 2188q203-69 395-294t386-619l641-1275h-679l-596 1197q-232 469-449 622t-592 153h-688v-1972h-631v4666h1425q800 0 1194-335 394-334 394-1009 0-441-205-732-205-290-595-402zm-1582 1959v-1656h794q456 0 689 211t233 620-233 617-689 208h-794z"/>
   <path id="ak" transform="scale(.015625)" d="m2906 1791q0 625-258 968-257 344-723 344-462 0-720-344-258-343-258-968 0-622 258-966t720-344q466 0 723 344 258 344 258 966zm575-1357q0-893-397-1329-396-436-1215-436-303 0-572 45t-522 139v559q253-137 500-202 247-66 503-66 566 0 847 295t281 892v285q-178-310-456-463t-666-153q-643 0-1037 490-394 491-394 1301 0 812 394 1302 394 491 1037 491 388 0 666-153t456-462v531h575v-3066z"/>
  </defs>
  <use xlink:href="#an"/>
  <use x="64.982422" xlink:href="#b"/>
  <use x="126.505859" xlink:href="#d"/>
  <use x="187.785156" xlink:href="#l"/>
  <use x="242.765625" xlink:href="#f"/>
  <use x="281.974609" xlink:href="#a"/>
  <use x="343.15625" xlink:href="#c"/>
  <use x="384.269531" xlink:href="#DejaVuSans-20"/>
  <use x="416.056641" xlink:href="#o"/>
  <use x="479.533203" xlink:href="#a"/>
  <use x="540.714844" xlink:href="#h"/>
  <use x="622.501953" xlink:href="#b"/>
  <use x="684.025391" xlink:href="#c"/>
  <use x="725.138672" xlink:href="#DejaVuSans-20"/>
  <use x="756.925781" xlink:href="#p"/>
  <use x="820.402344" xlink:href="#r"/>
  <use x="883.78125" xlink:href="#c"/>
  <use x="924.894531" xlink:href="#k"/>
  <use x="952.677734" xlink:href="#i"/>
  <use x="1016.056641" xlink:href="#ak"/>
  <use x="1079.533203" xlink:href="#DejaVuSans-20"/>
  <use x="1111.320312" xlink:href="#e"/>
  <use x="1163.419922" xlink:href="#s"/>
  <use x="1226.798828" xlink:href="#r"/>
  <use x="1290.177734" xlink:href="#f"/>
  <use x="1329.386719" xlink:href="#p"/>
  <use x="1392.863281" xlink:href="#a"/>
  <use x="1454.044922" xlink:href="#h"/>
  <use x="1535.832031" xlink:href="#i"/>
 </g>
 <g transform="translate(322.56 342.14) scale(.1 -.1)">
  <use xlink:href="#h"/>
  <use x="81.787109" xlink:href="#s"/>
  <use x="145.166016" xlink:href="#d"/>
  <use x="206.445312" xlink:href="#f"/>
  <use x="245.654297" xlink:href="#k"/>
  <use x="273.4375" xlink:href="#e"/>
  <use x="325.537109" xlink:href="#i"/>
  <use x="388.916016" xlink:href="#r"/>
  <use x="452.294922" xlink:href="#l"/>
  <use x="507.275391" xlink:href="#j"/>
  <use x="535.058594" xlink:href="#b"/>
  <use x="596.582031" xlink:href="#d"/>
  <use x="657.861328" xlink:href="#c"/>
  <use x="689.849609" xlink:href="#m"/>
  <use x="721.636719" xlink:href="#l"/>
  <use x="776.617188" xlink:href="#a"/>
  <use x="837.798828" xlink:href="#v"/>
 </g>
 <defs>
  <clipPath id="w">
   <rect x="57.6" y="41.472" width="357.12" height="266.11"/>
  </clipPath>
 </defs>
</svg>
