<?xml version="1.0" encoding="UTF-8"?>
<svg width="281.35mm" height="101.95mm" version="1.1" viewBox="0 0 996.9 361.26" xmlns="http://www.w3.org/2000/svg" xmlns:xlink="http://www.w3.org/1999/xlink">
 <defs>
  <marker id="j" overflow="visible" orient="auto">
   <path transform="matrix(-.4 0 0 -.4 -4 0)" d="m0 0 5-5-17.5 5 17.5 5z" fill-rule="evenodd" stroke="#000" stroke-width="1pt"/>
  </marker>
  <marker id="u" overflow="visible" orient="auto">
   <path transform="matrix(-.4 0 0 -.4 -4 0)" d="m0 0 5-5-17.5 5 17.5 5z" fill="#a75afe" fill-rule="evenodd" stroke="#a75afe" stroke-width="1pt"/>
  </marker>
  <linearGradient id="a">
   <stop stop-color="#59dafe" offset="0"/>
   <stop offset="1"/>
  </linearGradient>
  <marker id="q" overflow="visible" orient="auto">
   <path transform="matrix(-1.1,0,0,-1.1,-1.1,0)" d="m8.7186 4.0337-10.926-4.0177 10.926-4.0177c-1.7455 2.3721-1.7354 5.6175-6e-7 8.0354z" fill-rule="evenodd" stroke="#000" stroke-linejoin="round" stroke-width=".625"/>
  </marker>
  <radialGradient id="i" cx="307.94" cy="315.21" r="175.77" gradientTransform="matrix(.3171 .52338 -.47416 .28728 273.16 358.34)" gradientUnits="userSpaceOnUse">
   <stop stop-color="#5f9" offset="0"/>
   <stop offset="1"/>
  </radialGradient>
  <radialGradient id="g" cx="188.91" cy="820.74" r="147.84" gradientTransform="matrix(.36225 .57011 -1.115 .70848 1064.1 202.17)" gradientUnits="userSpaceOnUse">
   <stop stop-color="#ff9755" offset="0"/>
   <stop stop-color="#fff" offset="1"/>
  </radialGradient>
  <radialGradient id="h" cx="307.94" cy="315.21" r="175.77" gradientTransform="matrix(.19597 .32345 -.29303 .17754 603.35 375.42)" gradientUnits="userSpaceOnUse">
   <stop stop-color="#fe598b" offset="0"/>
   <stop offset="1"/>
  </radialGradient>
  <radialGradient id="f" cx="307.94" cy="315.21" r="175.77" gradientTransform="matrix(.15215 .25113 -.22752 .13785 599.73 592.96)" gradientUnits="userSpaceOnUse">
   <stop stop-color="#f8fe59" offset="0"/>
   <stop offset="1"/>
  </radialGradient>
  <radialGradient id="e" cx="307.94" cy="315.21" r="175.77" gradientTransform="matrix(.029588 .048835 -.044243 .026805 76.475 612.17)" gradientUnits="userSpaceOnUse" xlink:href="#a"/>
  <marker id="p" overflow="visible" orient="auto">
   <path transform="matrix(-1.1,0,0,-1.1,-1.1,0)" d="m8.7186 4.0337-10.926-4.0177 10.926-4.0177c-1.7455 2.3721-1.7354 5.6175-6e-7 8.0354z" fill-rule="evenodd" stroke="#000" stroke-linejoin="round" stroke-width=".625"/>
  </marker>
  <marker id="o" overflow="visible" orient="auto">
   <path transform="matrix(-1.1,0,0,-1.1,-1.1,0)" d="m8.7186 4.0337-10.926-4.0177 10.926-4.0177c-1.7455 2.3721-1.7354 5.6175-6e-7 8.0354z" fill-rule="evenodd" stroke="#000" stroke-linejoin="round" stroke-width=".625"/>
  </marker>
  <radialGradient id="d" cx="307.94" cy="315.21" r="175.77" gradientTransform="matrix(.029588 .048835 -.044243 .026805 458.28 482.18)" gradientUnits="userSpaceOnUse" xlink:href="#a"/>
  <marker id="n" overflow="visible" orient="auto">
   <path transform="matrix(-1.1,0,0,-1.1,-1.1,0)" d="m8.7186 4.0337-10.926-4.0177 10.926-4.0177c-1.7455 2.3721-1.7354 5.6175-6e-7 8.0354z" fill-rule="evenodd" stroke="#000" stroke-linejoin="round" stroke-width=".625"/>
  </marker>
  <radialGradient id="c" cx="307.94" cy="315.21" r="175.77" gradientTransform="matrix(.029588 .048835 -.044243 .026805 572.67 607.34)" gradientUnits="userSpaceOnUse" xlink:href="#a"/>
  <marker id="m" overflow="visible" orient="auto">
   <path transform="matrix(-1.1,0,0,-1.1,-1.1,0)" d="m8.7186 4.0337-10.926-4.0177 10.926-4.0177c-1.7455 2.3721-1.7354 5.6175-6e-7 8.0354z" fill-rule="evenodd" stroke="#000" stroke-linejoin="round" stroke-width=".625"/>
  </marker>
  <radialGradient id="b" cx="307.94" cy="315.21" r="175.77" gradientTransform="matrix(.029588 .048835 -.044243 .026805 460 730.61)" gradientUnits="userSpaceOnUse" xlink:href="#a"/>
  <marker id="l" overflow="visible" orient="auto">
   <path transform="matrix(-1.1,0,0,-1.1,-1.1,0)" d="m8.7186 4.0337-10.926-4.0177 10.926-4.0177c-1.7455 2.3721-1.7354 5.6175-6e-7 8.0354z" fill-rule="evenodd" stroke="#000" stroke-linejoin="round" stroke-width=".625"/>
  </marker>
  <marker id="t" overflow="visible" orient="auto">
   <path transform="matrix(-.4 0 0 -.4 -4 0)" d="m0 0 5-5-17.5 5 17.5 5z" fill="#a75afe" fill-rule="evenodd" stroke="#a75afe" stroke-width="1pt"/>
  </marker>
  <marker id="s" overflow="visible" orient="auto">
   <path transform="matrix(-.4 0 0 -.4 -4 0)" d="m0 0 5-5-17.5 5 17.5 5z" fill="#a75afe" fill-rule="evenodd" stroke="#a75afe" stroke-width="1pt"/>
  </marker>
  <marker id="r" overflow="visible" orient="auto">
   <path transform="matrix(-.4 0 0 -.4 -4 0)" d="m0 0 5-5-17.5 5 17.5 5z" fill="#a75afe" fill-rule="evenodd" stroke="#a75afe" stroke-width="1pt"/>
  </marker>
  <marker id="k" overflow="visible" orient="auto">
   <path transform="matrix(-.4 0 0 -.4 -4 0)" d="m0 0 5-5-17.5 5 17.5 5z" fill-rule="evenodd" stroke="#000" stroke-width="1pt"/>
  </marker>
 </defs>
 <g transform="translate(-33.443 -474.37)">
  <circle cx="253.51" cy="632.53" r="76.663" fill="url(#i)"/>
  <circle cx="74.642" cy="637.76" r="7.1532" fill="url(#e)"/>
  <path d="m105.4 636.23h55.119" fill="none" marker-end="url(#q)" stroke="#000" stroke-width="1.4667"/>
  <g>
   <path transform="matrix(.31141 0 0 .43616 350.18 253.44)" d="m224.04 919.85 43.209 133.12-55.964-114.94-81.593 81.765 54.826-99.337-129.86-8.285 122.21-17.336-84.653-106.08 115.29 71.084 34.814-125.04 3.0857 116.52 112.84-35.488-115.16 58.594 116.25 77.113z" fill="url(#g)"/>
   <circle cx="591.21" cy="544.87" r="47.378" fill="url(#h)"/>
   <text transform="scale(1.0084 .99169)" x="595.81177" y="818.50592" fill="#000000" font-family="sans-serif" font-size="20.181px" font-weight="bold" letter-spacing="0px" stroke-width=".38758px" text-align="center" text-anchor="middle" word-spacing="0px" style="font-feature-settings:normal;font-variant-caps:normal;font-variant-ligatures:normal;font-variant-numeric:normal;line-height:125%" xml:space="preserve"><tspan x="595.81177" y="818.50592" stroke-width=".38758px">Nuclear waste</tspan></text>
   <circle cx="590.3" cy="724.52" r="36.785" fill="url(#f)"/>
  </g>
  <path d="m631.9 513.84c2.2549-2.2069-1.9666-8.5282 3.7763-6.706 3.9168-0.25704-0.6429-8.3102 5.4452-6.3711 5.1158 1.9932-0.0209-7.2995 5.3708-5.7978 5.3497 1.2982 1.4362-5.5176 5.1871-7.27 2.035-1.3759 6.622 1.4097 5.5962-3.2258-2.0458-5.0307 6.614-5.6254 8.5138-6.0601" color="#000000" color-rendering="auto" fill="none" image-rendering="auto" marker-end="url(#u)" shape-rendering="auto" solid-color="#000000" stroke="#a75afe" stroke-miterlimit="3.8" stroke-width="1.1013" style="isolation:auto;mix-blend-mode:normal"/>
  <g fill="#000000" letter-spacing="0px" word-spacing="0px">
   <g font-weight="bold" stroke-width=".38758px">
    <text transform="scale(1.0084 .99169)" x="253.66281" y="747.7644" font-family="sans-serif" font-size="20.181px" text-align="center" text-anchor="middle" style="font-feature-settings:normal;font-variant-caps:normal;font-variant-ligatures:normal;font-variant-numeric:normal;line-height:125%" xml:space="preserve"><tspan x="253.66281" y="747.7644">Nuclear fuel</tspan></text>
    <text transform="scale(1.0084 .99169)" x="70.596153" y="681.39655" font-family="sans-serif" font-size="20.181px" text-align="center" text-anchor="middle" style="font-feature-settings:normal;font-variant-caps:normal;font-variant-ligatures:normal;font-variant-numeric:normal;line-height:125%" xml:space="preserve"><tspan x="0" y="0"><tspan x="70.596153" y="681.39655" fill="#000000" font-family="sans-serif" font-size="20.181px" font-weight="bold" text-align="center" text-anchor="middle" style="font-feature-settings:normal;font-variant-caps:normal;font-variant-ligatures:normal;font-variant-numeric:normal;line-height:125%"/></tspan><tspan x="77.700974" y="706.62317"><tspan x="77.700974" y="706.62317" fill="#000000" font-family="sans-serif" font-size="20.181px" font-weight="bold" stroke-width=".52732px" text-align="center" text-anchor="middle" style="font-feature-settings:normal;font-variant-caps:normal;font-variant-ligatures:normal;font-variant-numeric:normal;line-height:125%">Neutron</tspan></tspan></text>
    <text transform="scale(1.0084 .99169)" x="346.79523" y="632.27832" font-family="Sans" font-size="21.092px" style="font-feature-settings:normal;font-variant-caps:normal;font-variant-ligatures:normal;font-variant-numeric:normal;line-height:125%" xml:space="preserve"><tspan x="346.79523" y="632.27832">Atom splits!</tspan></text>
   </g>
   <text x="319.20822" y="989.73273" font-family="Sans" font-size="40px" stroke-width="1px" style="line-height:125%" xml:space="preserve"><tspan x="319.20822" y="989.73273"/></text>
  </g>
  <path d="m480.61 596.28 53.408-26.436" fill="none" marker-end="url(#p)" stroke="#000" stroke-width="1.7358"/>
  <path d="m483.25 672.07 50.764 29.079" fill="none" marker-end="url(#o)" stroke="#000" stroke-width="1.7358"/>
  <circle cx="456.44" cy="507.76" r="7.1532" fill="url(#d)"/>
  <path d="m439.63 572.18 11.51-46.315" fill="none" marker-end="url(#n)" stroke="#000" stroke-width="1.7358"/>
  <circle cx="570.83" cy="632.93" r="7.1532" fill="url(#c)"/>
  <path d="m496.69 635.66 55.126-1.4524" fill="none" marker-end="url(#m)" stroke="#000" stroke-width="1.7358"/>
  <circle cx="458.17" cy="756.19" r="7.1532" fill="url(#b)"/>
  <g fill="none">
   <path d="m431.39 695.38 17.741 39.672" marker-end="url(#l)" stroke="#000" stroke-width="1.7358"/>
   <path d="m414.8 474.37v361.26" stroke="#000" stroke-dasharray="2.7794, 2.7794" stroke-width=".46323"/>
   <g stroke="#a75afe" stroke-miterlimit="3.8">
    <path d="m634.09 575.93c2.7424 1.647 7.3576-4.3771 7.4003 1.9115 1.428 3.867 7.5559-2.9846 7.5942 3.6841-0.30712 5.706 6.802-2.0745 7.0369 3.7706 0.41212 5.7457 5.582-0.10788 8.3543 3.1716 1.9007 1.6596 0.69406 7.0567 4.7064 4.7209 4.0715-3.4728 7.2532 5.0694 8.235 6.8578" color="#000000" color-rendering="auto" image-rendering="auto" marker-end="url(#t)" shape-rendering="auto" solid-color="#000000" stroke-width="1.1013" style="isolation:auto;mix-blend-mode:normal"/>
    <path d="m621.71 693.76c2.833-1.4859 0.0876-8.5608 5.4811-5.3269 4.0456 0.7913 1.3801-8.0059 7.096-4.5707 4.7141 3.2297 1.7654-6.8887 6.88-4.0497 5.122 2.636 2.8107-4.8239 7.0536-5.4864 2.406-0.76041 6.3884 3.0769 6.4799-1.5649-0.849-5.2837 8.1019-3.559 10.14-3.4676" marker-end="url(#s)" stroke-width="1.1013"/>
    <path d="m624.64 756.33c2.7424 1.647 7.3576-4.3771 7.4003 1.9115 1.428 3.867 7.5559-2.9846 7.5942 3.6841-0.30711 5.706 6.802-2.0745 7.0369 3.7706 0.41214 5.7457 5.582-0.10788 8.3543 3.1716 1.9007 1.6596 0.69407 7.0567 4.7064 4.7209 4.0715-3.4728 7.2532 5.0694 8.235 6.8578" marker-end="url(#r)" stroke-width="1.1013"/>
   </g>
  </g>
  <g transform="translate(0 -9.4225)">
   <rect x="753.13" y="524.04" width="268.5" height="280.76" color="#000000" color-rendering="auto" fill="none" image-rendering="auto" shape-rendering="auto" solid-color="#000000" stroke="#000" stroke-miterlimit="3.8" stroke-width="1.1511" style="isolation:auto;mix-blend-mode:normal"/>
   <text x="774.15833" y="558.41974" fill="#000000" font-family="sans-serif" font-size="20.181px" letter-spacing="0px" stroke-width=".43616px" word-spacing="0px" style="font-feature-settings:normal;font-variant-caps:normal;font-variant-ligatures:normal;font-variant-numeric:normal;line-height:125%" xml:space="preserve"><tspan x="774.15833" y="558.41974"><tspan x="774.15833" y="558.41974" font-family="sans-serif" font-size="20.181px" stroke-width=".43616px" style="font-feature-settings:normal;font-variant-caps:normal;font-variant-ligatures:normal;font-variant-numeric:normal;line-height:125%">These two fission </tspan></tspan><tspan x="774.15833" y="583.6463"><tspan x="774.15833" y="583.6463" font-family="sans-serif" font-size="20.181px" stroke-width=".43616px" style="font-feature-settings:normal;font-variant-caps:normal;font-variant-ligatures:normal;font-variant-numeric:normal;line-height:125%">products are unstable </tspan></tspan><tspan x="774.15833" y="608.87286"><tspan x="774.15833" y="608.87286" font-family="sans-serif" font-size="20.181px" stroke-width=".43616px" style="font-feature-settings:normal;font-variant-caps:normal;font-variant-ligatures:normal;font-variant-numeric:normal;line-height:125%">and will release their </tspan></tspan><tspan x="774.15833" y="634.09943"><tspan x="774.15833" y="634.09943" font-family="sans-serif" font-size="20.181px" stroke-width=".43616px" style="font-feature-settings:normal;font-variant-caps:normal;font-variant-ligatures:normal;font-variant-numeric:normal;line-height:125%">energy sometime </tspan></tspan><tspan x="774.15833" y="659.32599"><tspan x="774.15833" y="659.32599" font-family="sans-serif" font-size="20.181px" stroke-width=".43616px" style="font-feature-settings:normal;font-variant-caps:normal;font-variant-ligatures:normal;font-variant-numeric:normal;line-height:125%">between now and </tspan></tspan><tspan x="774.15833" y="684.55255"><tspan x="774.15833" y="684.55255" font-family="sans-serif" font-size="20.181px" stroke-width=".43616px" style="font-feature-settings:normal;font-variant-caps:normal;font-variant-ligatures:normal;font-variant-numeric:normal;line-height:125%">thousands of years in </tspan></tspan><tspan x="774.15833" y="709.77911" font-family="sans-serif" font-size="20.181px"><tspan x="774.15833" y="709.77911" style="font-feature-settings:normal;font-variant-caps:normal;font-variant-ligatures:normal;font-variant-numeric:normal;line-height:125%">the future. </tspan><tspan x="887.39209" y="709.77911" dx="0" style="font-feature-settings:normal;font-variant-caps:normal;font-variant-ligatures:normal;font-variant-numeric:normal;line-height:125%"/></tspan><tspan x="774.15833" y="735.00574"><tspan x="774.15833" y="735.00568" font-family="sans-serif" font-size="20.181px" stroke-width=".43616px" style="font-feature-settings:normal;font-variant-caps:normal;font-variant-ligatures:normal;font-variant-numeric:normal;line-height:125%"/></tspan><tspan x="774.15833" y="760.23224"><tspan x="774.15833" y="760.23224" font-family="sans-serif" font-size="20.181px" font-weight="bold" stroke-width=".43616px" style="font-feature-settings:normal;font-variant-caps:normal;font-variant-ligatures:normal;font-variant-numeric:normal;line-height:125%">They make up high-</tspan></tspan><tspan x="774.15833" y="785.4588"><tspan x="774.15833" y="785.4588" font-family="sans-serif" font-size="20.181px" font-weight="bold" stroke-width=".43616px" style="font-feature-settings:normal;font-variant-caps:normal;font-variant-ligatures:normal;font-variant-numeric:normal;line-height:125%">level nuclear waste.</tspan></tspan></text>
  </g>
  <path d="m750.54 547.64h-90.971" color="#000000" color-rendering="auto" fill="none" image-rendering="auto" marker-end="url(#j)" shape-rendering="auto" solid-color="#000000" stroke="#000" stroke-dasharray="9.07221, 9.07221" stroke-width="2.268" style="isolation:auto;mix-blend-mode:normal"/>
  <path d="m749.83 727.55h-90.971" fill="none" marker-end="url(#k)" stroke="#000" stroke-dasharray="9.07221, 9.07221" stroke-width="2.268"/>
  <text x="385.1301" y="672.97455" fill="#000000" font-family="sans-serif" font-size="16.257px" letter-spacing="0px" stroke-width=".40642" word-spacing="0px" style="font-feature-settings:normal;font-variant-caps:normal;font-variant-ligatures:normal;font-variant-numeric:normal;line-height:1.25" xml:space="preserve"><tspan x="385.1301" y="672.97455" stroke-width=".40642"><tspan x="385.1301" y="672.97455" stroke-width=".40642">(fission)</tspan></tspan></text>
  <g fill="#e5d5ff" font-family="sans-serif" letter-spacing="0px" word-spacing="0px">
   <text x="223.69849" y="661.64575" font-size="81.464px" stroke-width="2.0366" style="line-height:1.25" xml:space="preserve"><tspan x="223.69849" y="661.64575" stroke-width="2.0366"><tspan x="223.69849" y="661.64575" stroke-width="2.0366">U</tspan></tspan></text>
   <text x="568.21143" y="558.5249" font-size="37.5px" stroke-width=".9375" style="line-height:1.25" xml:space="preserve"><tspan x="568.21143" y="558.5249" stroke-width=".9375"><tspan x="568.21143" y="558.5249" stroke-width=".9375">Cs</tspan></tspan></text>
   <text x="568.45959" y="738.19281" font-size="37.5px" stroke-width=".9375" style="line-height:1.25" xml:space="preserve"><tspan x="568.45959" y="738.19281" stroke-width=".9375"><tspan x="568.45959" y="738.19281" stroke-width=".9375">Kr</tspan></tspan></text>
  </g>
  <text transform="scale(1.0084 .99169)" x="448.9483" y="765.76044" fill="#000000" font-family="sans-serif" font-size="13.756px" font-weight="bold" letter-spacing="0px" stroke-width=".26419px" text-align="center" text-anchor="middle" word-spacing="0px" style="font-feature-settings:normal;font-variant-caps:normal;font-variant-ligatures:normal;font-variant-numeric:normal;line-height:125%" xml:space="preserve"><tspan x="0" y="0"><tspan x="448.9483" y="765.76044" fill="#000000" font-family="sans-serif" font-size="13.756px" font-weight="bold" text-align="center" text-anchor="middle" style="font-feature-settings:normal;font-variant-caps:normal;font-variant-ligatures:normal;font-variant-numeric:normal;line-height:125%"/></tspan><tspan x="453.7912" y="782.95587"><tspan x="453.7912" y="782.95587" fill="#000000" font-family="sans-serif" font-size="13.756px" font-weight="bold" stroke-width=".35944px" text-align="center" text-anchor="middle" style="font-feature-settings:normal;font-variant-caps:normal;font-variant-ligatures:normal;font-variant-numeric:normal;line-height:125%">More neutrons</tspan></tspan></text>
 </g>
</svg>
