<?xml version="1.0" encoding="utf-8" standalone="no"?>
<!DOCTYPE svg PUBLIC "-//W3C//DTD SVG 1.1//EN"
  "http://www.w3.org/Graphics/SVG/1.1/DTD/svg11.dtd">
<!-- Created with matplotlib (https://matplotlib.org/) -->
<svg height="360pt" version="1.1" viewBox="0 0 576 360" width="576pt" xmlns="http://www.w3.org/2000/svg" xmlns:xlink="http://www.w3.org/1999/xlink">
 <defs>
  <style type="text/css">
*{stroke-linecap:butt;stroke-linejoin:round;}
  </style>
 </defs>
 <g id="figure_1">
  <g id="patch_1">
   <path d="M 0 360 
L 576 360 
L 576 0 
L 0 0 
z
" style="fill:#ffffff;"/>
  </g>
  <g id="axes_1">
   <g id="patch_2">
    <path d="M 72 270 
L 518.4 270 
L 518.4 18 
L 72 18 
z
" style="fill:#ffffff;"/>
   </g>
   <g id="patch_3">
    <path clip-path="url(#pb8c25ddb48)" d="M 92.290909 270 
L 114.65884 270 
L 114.65884 47.455462 
L 92.290909 47.455462 
z
" style="fill:#1f77b4;"/>
   </g>
   <g id="patch_4">
    <path clip-path="url(#pb8c25ddb48)" d="M 156.199284 270 
L 178.567215 270 
L 178.567215 261.315592 
L 156.199284 261.315592 
z
" style="fill:#1f77b4;"/>
   </g>
   <g id="patch_5">
    <path clip-path="url(#pb8c25ddb48)" d="M 220.107659 270 
L 242.475591 270 
L 242.475591 263.634066 
L 220.107659 263.634066 
z
" style="fill:#1f77b4;"/>
   </g>
   <g id="patch_6">
    <path clip-path="url(#pb8c25ddb48)" d="M 284.016034 270 
L 306.383966 270 
L 306.383966 261.447174 
L 284.016034 261.447174 
z
" style="fill:#1f77b4;"/>
   </g>
   <g id="patch_7">
    <path clip-path="url(#pb8c25ddb48)" d="M 347.924409 270 
L 370.292341 270 
L 370.292341 261.670863 
L 347.924409 261.670863 
z
" style="fill:#1f77b4;"/>
   </g>
   <g id="patch_8">
    <path clip-path="url(#pb8c25ddb48)" d="M 411.832785 270 
L 434.200716 270 
L 434.200716 269.990263 
L 411.832785 269.990263 
z
" style="fill:#1f77b4;"/>
   </g>
   <g id="patch_9">
    <path clip-path="url(#pb8c25ddb48)" d="M 475.74116 270 
L 498.109091 270 
L 498.109091 258.48658 
L 475.74116 258.48658 
z
" style="fill:#1f77b4;"/>
   </g>
   <g id="matplotlib.axis_1">
    <g id="xtick_1">
     <g id="line2d_1">
      <defs>
       <path d="M 0 0 
L 0 3.5 
" id="m16780b4780" style="stroke:#000000;stroke-width:0.8;"/>
      </defs>
      <g>
       <use style="stroke:#000000;stroke-width:0.8;" x="103.474875" xlink:href="#m16780b4780" y="270"/>
      </g>
     </g>
     <g id="text_1">
      <!-- Fission fragments -->
      <defs>
       <path d="M 9.8125 72.90625 
L 51.703125 72.90625 
L 51.703125 64.59375 
L 19.671875 64.59375 
L 19.671875 43.109375 
L 48.578125 43.109375 
L 48.578125 34.8125 
L 19.671875 34.8125 
L 19.671875 0 
L 9.8125 0 
z
" id="DejaVuSans-70"/>
       <path d="M 9.421875 54.6875 
L 18.40625 54.6875 
L 18.40625 0 
L 9.421875 0 
z
M 9.421875 75.984375 
L 18.40625 75.984375 
L 18.40625 64.59375 
L 9.421875 64.59375 
z
" id="DejaVuSans-105"/>
       <path d="M 44.28125 53.078125 
L 44.28125 44.578125 
Q 40.484375 46.53125 36.375 47.5 
Q 32.28125 48.484375 27.875 48.484375 
Q 21.1875 48.484375 17.84375 46.4375 
Q 14.5 44.390625 14.5 40.28125 
Q 14.5 37.15625 16.890625 35.375 
Q 19.28125 33.59375 26.515625 31.984375 
L 29.59375 31.296875 
Q 39.15625 29.25 43.1875 25.515625 
Q 47.21875 21.78125 47.21875 15.09375 
Q 47.21875 7.46875 41.1875 3.015625 
Q 35.15625 -1.421875 24.609375 -1.421875 
Q 20.21875 -1.421875 15.453125 -0.5625 
Q 10.6875 0.296875 5.421875 2 
L 5.421875 11.28125 
Q 10.40625 8.6875 15.234375 7.390625 
Q 20.0625 6.109375 24.8125 6.109375 
Q 31.15625 6.109375 34.5625 8.28125 
Q 37.984375 10.453125 37.984375 14.40625 
Q 37.984375 18.0625 35.515625 20.015625 
Q 33.0625 21.96875 24.703125 23.78125 
L 21.578125 24.515625 
Q 13.234375 26.265625 9.515625 29.90625 
Q 5.8125 33.546875 5.8125 39.890625 
Q 5.8125 47.609375 11.28125 51.796875 
Q 16.75 56 26.8125 56 
Q 31.78125 56 36.171875 55.265625 
Q 40.578125 54.546875 44.28125 53.078125 
z
" id="DejaVuSans-115"/>
       <path d="M 30.609375 48.390625 
Q 23.390625 48.390625 19.1875 42.75 
Q 14.984375 37.109375 14.984375 27.296875 
Q 14.984375 17.484375 19.15625 11.84375 
Q 23.34375 6.203125 30.609375 6.203125 
Q 37.796875 6.203125 41.984375 11.859375 
Q 46.1875 17.53125 46.1875 27.296875 
Q 46.1875 37.015625 41.984375 42.703125 
Q 37.796875 48.390625 30.609375 48.390625 
z
M 30.609375 56 
Q 42.328125 56 49.015625 48.375 
Q 55.71875 40.765625 55.71875 27.296875 
Q 55.71875 13.875 49.015625 6.21875 
Q 42.328125 -1.421875 30.609375 -1.421875 
Q 18.84375 -1.421875 12.171875 6.21875 
Q 5.515625 13.875 5.515625 27.296875 
Q 5.515625 40.765625 12.171875 48.375 
Q 18.84375 56 30.609375 56 
z
" id="DejaVuSans-111"/>
       <path d="M 54.890625 33.015625 
L 54.890625 0 
L 45.90625 0 
L 45.90625 32.71875 
Q 45.90625 40.484375 42.875 44.328125 
Q 39.84375 48.1875 33.796875 48.1875 
Q 26.515625 48.1875 22.3125 43.546875 
Q 18.109375 38.921875 18.109375 30.90625 
L 18.109375 0 
L 9.078125 0 
L 9.078125 54.6875 
L 18.109375 54.6875 
L 18.109375 46.1875 
Q 21.34375 51.125 25.703125 53.5625 
Q 30.078125 56 35.796875 56 
Q 45.21875 56 50.046875 50.171875 
Q 54.890625 44.34375 54.890625 33.015625 
z
" id="DejaVuSans-110"/>
       <path id="DejaVuSans-32"/>
       <path d="M 37.109375 75.984375 
L 37.109375 68.5 
L 28.515625 68.5 
Q 23.6875 68.5 21.796875 66.546875 
Q 19.921875 64.59375 19.921875 59.515625 
L 19.921875 54.6875 
L 34.71875 54.6875 
L 34.71875 47.703125 
L 19.921875 47.703125 
L 19.921875 0 
L 10.890625 0 
L 10.890625 47.703125 
L 2.296875 47.703125 
L 2.296875 54.6875 
L 10.890625 54.6875 
L 10.890625 58.5 
Q 10.890625 67.625 15.140625 71.796875 
Q 19.390625 75.984375 28.609375 75.984375 
z
" id="DejaVuSans-102"/>
       <path d="M 41.109375 46.296875 
Q 39.59375 47.171875 37.8125 47.578125 
Q 36.03125 48 33.890625 48 
Q 26.265625 48 22.1875 43.046875 
Q 18.109375 38.09375 18.109375 28.8125 
L 18.109375 0 
L 9.078125 0 
L 9.078125 54.6875 
L 18.109375 54.6875 
L 18.109375 46.1875 
Q 20.953125 51.171875 25.484375 53.578125 
Q 30.03125 56 36.53125 56 
Q 37.453125 56 38.578125 55.875 
Q 39.703125 55.765625 41.0625 55.515625 
z
" id="DejaVuSans-114"/>
       <path d="M 34.28125 27.484375 
Q 23.390625 27.484375 19.1875 25 
Q 14.984375 22.515625 14.984375 16.5 
Q 14.984375 11.71875 18.140625 8.90625 
Q 21.296875 6.109375 26.703125 6.109375 
Q 34.1875 6.109375 38.703125 11.40625 
Q 43.21875 16.703125 43.21875 25.484375 
L 43.21875 27.484375 
z
M 52.203125 31.203125 
L 52.203125 0 
L 43.21875 0 
L 43.21875 8.296875 
Q 40.140625 3.328125 35.546875 0.953125 
Q 30.953125 -1.421875 24.3125 -1.421875 
Q 15.921875 -1.421875 10.953125 3.296875 
Q 6 8.015625 6 15.921875 
Q 6 25.140625 12.171875 29.828125 
Q 18.359375 34.515625 30.609375 34.515625 
L 43.21875 34.515625 
L 43.21875 35.40625 
Q 43.21875 41.609375 39.140625 45 
Q 35.0625 48.390625 27.6875 48.390625 
Q 23 48.390625 18.546875 47.265625 
Q 14.109375 46.140625 10.015625 43.890625 
L 10.015625 52.203125 
Q 14.9375 54.109375 19.578125 55.046875 
Q 24.21875 56 28.609375 56 
Q 40.484375 56 46.34375 49.84375 
Q 52.203125 43.703125 52.203125 31.203125 
z
" id="DejaVuSans-97"/>
       <path d="M 45.40625 27.984375 
Q 45.40625 37.75 41.375 43.109375 
Q 37.359375 48.484375 30.078125 48.484375 
Q 22.859375 48.484375 18.828125 43.109375 
Q 14.796875 37.75 14.796875 27.984375 
Q 14.796875 18.265625 18.828125 12.890625 
Q 22.859375 7.515625 30.078125 7.515625 
Q 37.359375 7.515625 41.375 12.890625 
Q 45.40625 18.265625 45.40625 27.984375 
z
M 54.390625 6.78125 
Q 54.390625 -7.171875 48.1875 -13.984375 
Q 42 -20.796875 29.203125 -20.796875 
Q 24.46875 -20.796875 20.265625 -20.09375 
Q 16.0625 -19.390625 12.109375 -17.921875 
L 12.109375 -9.1875 
Q 16.0625 -11.328125 19.921875 -12.34375 
Q 23.78125 -13.375 27.78125 -13.375 
Q 36.625 -13.375 41.015625 -8.765625 
Q 45.40625 -4.15625 45.40625 5.171875 
L 45.40625 9.625 
Q 42.625 4.78125 38.28125 2.390625 
Q 33.9375 0 27.875 0 
Q 17.828125 0 11.671875 7.65625 
Q 5.515625 15.328125 5.515625 27.984375 
Q 5.515625 40.671875 11.671875 48.328125 
Q 17.828125 56 27.875 56 
Q 33.9375 56 38.28125 53.609375 
Q 42.625 51.21875 45.40625 46.390625 
L 45.40625 54.6875 
L 54.390625 54.6875 
z
" id="DejaVuSans-103"/>
       <path d="M 52 44.1875 
Q 55.375 50.25 60.0625 53.125 
Q 64.75 56 71.09375 56 
Q 79.640625 56 84.28125 50.015625 
Q 88.921875 44.046875 88.921875 33.015625 
L 88.921875 0 
L 79.890625 0 
L 79.890625 32.71875 
Q 79.890625 40.578125 77.09375 44.375 
Q 74.3125 48.1875 68.609375 48.1875 
Q 61.625 48.1875 57.5625 43.546875 
Q 53.515625 38.921875 53.515625 30.90625 
L 53.515625 0 
L 44.484375 0 
L 44.484375 32.71875 
Q 44.484375 40.625 41.703125 44.40625 
Q 38.921875 48.1875 33.109375 48.1875 
Q 26.21875 48.1875 22.15625 43.53125 
Q 18.109375 38.875 18.109375 30.90625 
L 18.109375 0 
L 9.078125 0 
L 9.078125 54.6875 
L 18.109375 54.6875 
L 18.109375 46.1875 
Q 21.1875 51.21875 25.484375 53.609375 
Q 29.78125 56 35.6875 56 
Q 41.65625 56 45.828125 52.96875 
Q 50 49.953125 52 44.1875 
z
" id="DejaVuSans-109"/>
       <path d="M 56.203125 29.59375 
L 56.203125 25.203125 
L 14.890625 25.203125 
Q 15.484375 15.921875 20.484375 11.0625 
Q 25.484375 6.203125 34.421875 6.203125 
Q 39.59375 6.203125 44.453125 7.46875 
Q 49.3125 8.734375 54.109375 11.28125 
L 54.109375 2.78125 
Q 49.265625 0.734375 44.1875 -0.34375 
Q 39.109375 -1.421875 33.890625 -1.421875 
Q 20.796875 -1.421875 13.15625 6.1875 
Q 5.515625 13.8125 5.515625 26.8125 
Q 5.515625 40.234375 12.765625 48.109375 
Q 20.015625 56 32.328125 56 
Q 43.359375 56 49.78125 48.890625 
Q 56.203125 41.796875 56.203125 29.59375 
z
M 47.21875 32.234375 
Q 47.125 39.59375 43.09375 43.984375 
Q 39.0625 48.390625 32.421875 48.390625 
Q 24.90625 48.390625 20.390625 44.140625 
Q 15.875 39.890625 15.1875 32.171875 
z
" id="DejaVuSans-101"/>
       <path d="M 18.3125 70.21875 
L 18.3125 54.6875 
L 36.8125 54.6875 
L 36.8125 47.703125 
L 18.3125 47.703125 
L 18.3125 18.015625 
Q 18.3125 11.328125 20.140625 9.421875 
Q 21.96875 7.515625 27.59375 7.515625 
L 36.8125 7.515625 
L 36.8125 0 
L 27.59375 0 
Q 17.1875 0 13.234375 3.875 
Q 9.28125 7.765625 9.28125 18.015625 
L 9.28125 47.703125 
L 2.6875 47.703125 
L 2.6875 54.6875 
L 9.28125 54.6875 
L 9.28125 70.21875 
z
" id="DejaVuSans-116"/>
      </defs>
      <g transform="translate(44.79015 349.923291)rotate(-50)scale(0.1 -0.1)">
       <use xlink:href="#DejaVuSans-70"/>
       <use x="57.410156" xlink:href="#DejaVuSans-105"/>
       <use x="85.193359" xlink:href="#DejaVuSans-115"/>
       <use x="137.292969" xlink:href="#DejaVuSans-115"/>
       <use x="189.392578" xlink:href="#DejaVuSans-105"/>
       <use x="217.175781" xlink:href="#DejaVuSans-111"/>
       <use x="278.357422" xlink:href="#DejaVuSans-110"/>
       <use x="341.736328" xlink:href="#DejaVuSans-32"/>
       <use x="373.523438" xlink:href="#DejaVuSans-102"/>
       <use x="408.728516" xlink:href="#DejaVuSans-114"/>
       <use x="449.841797" xlink:href="#DejaVuSans-97"/>
       <use x="511.121094" xlink:href="#DejaVuSans-103"/>
       <use x="574.597656" xlink:href="#DejaVuSans-109"/>
       <use x="672.009766" xlink:href="#DejaVuSans-101"/>
       <use x="733.533203" xlink:href="#DejaVuSans-110"/>
       <use x="796.912109" xlink:href="#DejaVuSans-116"/>
       <use x="836.121094" xlink:href="#DejaVuSans-115"/>
      </g>
     </g>
    </g>
    <g id="xtick_2">
     <g id="line2d_2">
      <g>
       <use style="stroke:#000000;stroke-width:0.8;" x="167.38325" xlink:href="#m16780b4780" y="270"/>
      </g>
     </g>
     <g id="text_2">
      <!-- Prompt gammas -->
      <defs>
       <path d="M 19.671875 64.796875 
L 19.671875 37.40625 
L 32.078125 37.40625 
Q 38.96875 37.40625 42.71875 40.96875 
Q 46.484375 44.53125 46.484375 51.125 
Q 46.484375 57.671875 42.71875 61.234375 
Q 38.96875 64.796875 32.078125 64.796875 
z
M 9.8125 72.90625 
L 32.078125 72.90625 
Q 44.34375 72.90625 50.609375 67.359375 
Q 56.890625 61.8125 56.890625 51.125 
Q 56.890625 40.328125 50.609375 34.8125 
Q 44.34375 29.296875 32.078125 29.296875 
L 19.671875 29.296875 
L 19.671875 0 
L 9.8125 0 
z
" id="DejaVuSans-80"/>
       <path d="M 18.109375 8.203125 
L 18.109375 -20.796875 
L 9.078125 -20.796875 
L 9.078125 54.6875 
L 18.109375 54.6875 
L 18.109375 46.390625 
Q 20.953125 51.265625 25.265625 53.625 
Q 29.59375 56 35.59375 56 
Q 45.5625 56 51.78125 48.09375 
Q 58.015625 40.1875 58.015625 27.296875 
Q 58.015625 14.40625 51.78125 6.484375 
Q 45.5625 -1.421875 35.59375 -1.421875 
Q 29.59375 -1.421875 25.265625 0.953125 
Q 20.953125 3.328125 18.109375 8.203125 
z
M 48.6875 27.296875 
Q 48.6875 37.203125 44.609375 42.84375 
Q 40.53125 48.484375 33.40625 48.484375 
Q 26.265625 48.484375 22.1875 42.84375 
Q 18.109375 37.203125 18.109375 27.296875 
Q 18.109375 17.390625 22.1875 11.75 
Q 26.265625 6.109375 33.40625 6.109375 
Q 40.53125 6.109375 44.609375 11.75 
Q 48.6875 17.390625 48.6875 27.296875 
z
" id="DejaVuSans-112"/>
      </defs>
      <g transform="translate(112.607477 345.264784)rotate(-50)scale(0.1 -0.1)">
       <use xlink:href="#DejaVuSans-80"/>
       <use x="60.287109" xlink:href="#DejaVuSans-114"/>
       <use x="101.369141" xlink:href="#DejaVuSans-111"/>
       <use x="162.550781" xlink:href="#DejaVuSans-109"/>
       <use x="259.962891" xlink:href="#DejaVuSans-112"/>
       <use x="323.439453" xlink:href="#DejaVuSans-116"/>
       <use x="362.648438" xlink:href="#DejaVuSans-32"/>
       <use x="394.435547" xlink:href="#DejaVuSans-103"/>
       <use x="457.912109" xlink:href="#DejaVuSans-97"/>
       <use x="519.191406" xlink:href="#DejaVuSans-109"/>
       <use x="616.603516" xlink:href="#DejaVuSans-109"/>
       <use x="714.015625" xlink:href="#DejaVuSans-97"/>
       <use x="775.294922" xlink:href="#DejaVuSans-115"/>
      </g>
     </g>
    </g>
    <g id="xtick_3">
     <g id="line2d_3">
      <g>
       <use style="stroke:#000000;stroke-width:0.8;" x="231.291625" xlink:href="#m16780b4780" y="270"/>
      </g>
     </g>
     <g id="text_3">
      <!-- Prompt neutrons -->
      <defs>
       <path d="M 8.5 21.578125 
L 8.5 54.6875 
L 17.484375 54.6875 
L 17.484375 21.921875 
Q 17.484375 14.15625 20.5 10.265625 
Q 23.53125 6.390625 29.59375 6.390625 
Q 36.859375 6.390625 41.078125 11.03125 
Q 45.3125 15.671875 45.3125 23.6875 
L 45.3125 54.6875 
L 54.296875 54.6875 
L 54.296875 0 
L 45.3125 0 
L 45.3125 8.40625 
Q 42.046875 3.421875 37.71875 1 
Q 33.40625 -1.421875 27.6875 -1.421875 
Q 18.265625 -1.421875 13.375 4.4375 
Q 8.5 10.296875 8.5 21.578125 
z
M 31.109375 56 
z
" id="DejaVuSans-117"/>
      </defs>
      <g transform="translate(175.727433 346.204385)rotate(-50)scale(0.1 -0.1)">
       <use xlink:href="#DejaVuSans-80"/>
       <use x="60.287109" xlink:href="#DejaVuSans-114"/>
       <use x="101.369141" xlink:href="#DejaVuSans-111"/>
       <use x="162.550781" xlink:href="#DejaVuSans-109"/>
       <use x="259.962891" xlink:href="#DejaVuSans-112"/>
       <use x="323.439453" xlink:href="#DejaVuSans-116"/>
       <use x="362.648438" xlink:href="#DejaVuSans-32"/>
       <use x="394.435547" xlink:href="#DejaVuSans-110"/>
       <use x="457.814453" xlink:href="#DejaVuSans-101"/>
       <use x="519.337891" xlink:href="#DejaVuSans-117"/>
       <use x="582.716797" xlink:href="#DejaVuSans-116"/>
       <use x="621.925781" xlink:href="#DejaVuSans-114"/>
       <use x="663.007812" xlink:href="#DejaVuSans-111"/>
       <use x="724.189453" xlink:href="#DejaVuSans-110"/>
       <use x="787.568359" xlink:href="#DejaVuSans-115"/>
      </g>
     </g>
    </g>
    <g id="xtick_4">
     <g id="line2d_4">
      <g>
       <use style="stroke:#000000;stroke-width:0.8;" x="295.2" xlink:href="#m16780b4780" y="270"/>
      </g>
     </g>
     <g id="text_4">
      <!-- Delayed betas -->
      <defs>
       <path d="M 19.671875 64.796875 
L 19.671875 8.109375 
L 31.59375 8.109375 
Q 46.6875 8.109375 53.6875 14.9375 
Q 60.6875 21.78125 60.6875 36.53125 
Q 60.6875 51.171875 53.6875 57.984375 
Q 46.6875 64.796875 31.59375 64.796875 
z
M 9.8125 72.90625 
L 30.078125 72.90625 
Q 51.265625 72.90625 61.171875 64.09375 
Q 71.09375 55.28125 71.09375 36.53125 
Q 71.09375 17.671875 61.125 8.828125 
Q 51.171875 0 30.078125 0 
L 9.8125 0 
z
" id="DejaVuSans-68"/>
       <path d="M 9.421875 75.984375 
L 18.40625 75.984375 
L 18.40625 0 
L 9.421875 0 
z
" id="DejaVuSans-108"/>
       <path d="M 32.171875 -5.078125 
Q 28.375 -14.84375 24.75 -17.8125 
Q 21.140625 -20.796875 15.09375 -20.796875 
L 7.90625 -20.796875 
L 7.90625 -13.28125 
L 13.1875 -13.28125 
Q 16.890625 -13.28125 18.9375 -11.515625 
Q 21 -9.765625 23.484375 -3.21875 
L 25.09375 0.875 
L 2.984375 54.6875 
L 12.5 54.6875 
L 29.59375 11.921875 
L 46.6875 54.6875 
L 56.203125 54.6875 
z
" id="DejaVuSans-121"/>
       <path d="M 45.40625 46.390625 
L 45.40625 75.984375 
L 54.390625 75.984375 
L 54.390625 0 
L 45.40625 0 
L 45.40625 8.203125 
Q 42.578125 3.328125 38.25 0.953125 
Q 33.9375 -1.421875 27.875 -1.421875 
Q 17.96875 -1.421875 11.734375 6.484375 
Q 5.515625 14.40625 5.515625 27.296875 
Q 5.515625 40.1875 11.734375 48.09375 
Q 17.96875 56 27.875 56 
Q 33.9375 56 38.25 53.625 
Q 42.578125 51.265625 45.40625 46.390625 
z
M 14.796875 27.296875 
Q 14.796875 17.390625 18.875 11.75 
Q 22.953125 6.109375 30.078125 6.109375 
Q 37.203125 6.109375 41.296875 11.75 
Q 45.40625 17.390625 45.40625 27.296875 
Q 45.40625 37.203125 41.296875 42.84375 
Q 37.203125 48.484375 30.078125 48.484375 
Q 22.953125 48.484375 18.875 42.84375 
Q 14.796875 37.203125 14.796875 27.296875 
z
" id="DejaVuSans-100"/>
       <path d="M 48.6875 27.296875 
Q 48.6875 37.203125 44.609375 42.84375 
Q 40.53125 48.484375 33.40625 48.484375 
Q 26.265625 48.484375 22.1875 42.84375 
Q 18.109375 37.203125 18.109375 27.296875 
Q 18.109375 17.390625 22.1875 11.75 
Q 26.265625 6.109375 33.40625 6.109375 
Q 40.53125 6.109375 44.609375 11.75 
Q 48.6875 17.390625 48.6875 27.296875 
z
M 18.109375 46.390625 
Q 20.953125 51.265625 25.265625 53.625 
Q 29.59375 56 35.59375 56 
Q 45.5625 56 51.78125 48.09375 
Q 58.015625 40.1875 58.015625 27.296875 
Q 58.015625 14.40625 51.78125 6.484375 
Q 45.5625 -1.421875 35.59375 -1.421875 
Q 29.59375 -1.421875 25.265625 0.953125 
Q 20.953125 3.328125 18.109375 8.203125 
L 18.109375 0 
L 9.078125 0 
L 9.078125 75.984375 
L 18.109375 75.984375 
z
" id="DejaVuSans-98"/>
      </defs>
      <g transform="translate(247.250832 337.129152)rotate(-50)scale(0.1 -0.1)">
       <use xlink:href="#DejaVuSans-68"/>
       <use x="77.001953" xlink:href="#DejaVuSans-101"/>
       <use x="138.525391" xlink:href="#DejaVuSans-108"/>
       <use x="166.308594" xlink:href="#DejaVuSans-97"/>
       <use x="227.587891" xlink:href="#DejaVuSans-121"/>
       <use x="286.767578" xlink:href="#DejaVuSans-101"/>
       <use x="348.291016" xlink:href="#DejaVuSans-100"/>
       <use x="411.767578" xlink:href="#DejaVuSans-32"/>
       <use x="443.554688" xlink:href="#DejaVuSans-98"/>
       <use x="507.03125" xlink:href="#DejaVuSans-101"/>
       <use x="568.554688" xlink:href="#DejaVuSans-116"/>
       <use x="607.763672" xlink:href="#DejaVuSans-97"/>
       <use x="669.042969" xlink:href="#DejaVuSans-115"/>
      </g>
     </g>
    </g>
    <g id="xtick_5">
     <g id="line2d_5">
      <g>
       <use style="stroke:#000000;stroke-width:0.8;" x="359.108375" xlink:href="#m16780b4780" y="270"/>
      </g>
     </g>
     <g id="text_5">
      <!-- Delayed gammas -->
      <g transform="translate(301.172899 349.030371)rotate(-50)scale(0.1 -0.1)">
       <use xlink:href="#DejaVuSans-68"/>
       <use x="77.001953" xlink:href="#DejaVuSans-101"/>
       <use x="138.525391" xlink:href="#DejaVuSans-108"/>
       <use x="166.308594" xlink:href="#DejaVuSans-97"/>
       <use x="227.587891" xlink:href="#DejaVuSans-121"/>
       <use x="286.767578" xlink:href="#DejaVuSans-101"/>
       <use x="348.291016" xlink:href="#DejaVuSans-100"/>
       <use x="411.767578" xlink:href="#DejaVuSans-32"/>
       <use x="443.554688" xlink:href="#DejaVuSans-103"/>
       <use x="507.03125" xlink:href="#DejaVuSans-97"/>
       <use x="568.310547" xlink:href="#DejaVuSans-109"/>
       <use x="665.722656" xlink:href="#DejaVuSans-109"/>
       <use x="763.134766" xlink:href="#DejaVuSans-97"/>
       <use x="824.414062" xlink:href="#DejaVuSans-115"/>
      </g>
     </g>
    </g>
    <g id="xtick_6">
     <g id="line2d_6">
      <g>
       <use style="stroke:#000000;stroke-width:0.8;" x="423.01675" xlink:href="#m16780b4780" y="270"/>
      </g>
     </g>
     <g id="text_6">
      <!-- Delayed neutrons -->
      <g transform="translate(364.292855 349.969972)rotate(-50)scale(0.1 -0.1)">
       <use xlink:href="#DejaVuSans-68"/>
       <use x="77.001953" xlink:href="#DejaVuSans-101"/>
       <use x="138.525391" xlink:href="#DejaVuSans-108"/>
       <use x="166.308594" xlink:href="#DejaVuSans-97"/>
       <use x="227.587891" xlink:href="#DejaVuSans-121"/>
       <use x="286.767578" xlink:href="#DejaVuSans-101"/>
       <use x="348.291016" xlink:href="#DejaVuSans-100"/>
       <use x="411.767578" xlink:href="#DejaVuSans-32"/>
       <use x="443.554688" xlink:href="#DejaVuSans-110"/>
       <use x="506.933594" xlink:href="#DejaVuSans-101"/>
       <use x="568.457031" xlink:href="#DejaVuSans-117"/>
       <use x="631.835938" xlink:href="#DejaVuSans-116"/>
       <use x="671.044922" xlink:href="#DejaVuSans-114"/>
       <use x="712.126953" xlink:href="#DejaVuSans-111"/>
       <use x="773.308594" xlink:href="#DejaVuSans-110"/>
       <use x="836.6875" xlink:href="#DejaVuSans-115"/>
      </g>
     </g>
    </g>
    <g id="xtick_7">
     <g id="line2d_7">
      <g>
       <use style="stroke:#000000;stroke-width:0.8;" x="486.925125" xlink:href="#m16780b4780" y="270"/>
      </g>
     </g>
     <g id="text_7">
      <!-- Neutrinos -->
      <defs>
       <path d="M 9.8125 72.90625 
L 23.09375 72.90625 
L 55.421875 11.921875 
L 55.421875 72.90625 
L 64.984375 72.90625 
L 64.984375 0 
L 51.703125 0 
L 19.390625 60.984375 
L 19.390625 0 
L 9.8125 0 
z
" id="DejaVuSans-78"/>
      </defs>
      <g transform="translate(454.190941 318.996641)rotate(-50)scale(0.1 -0.1)">
       <use xlink:href="#DejaVuSans-78"/>
       <use x="74.804688" xlink:href="#DejaVuSans-101"/>
       <use x="136.328125" xlink:href="#DejaVuSans-117"/>
       <use x="199.707031" xlink:href="#DejaVuSans-116"/>
       <use x="238.916016" xlink:href="#DejaVuSans-114"/>
       <use x="280.029297" xlink:href="#DejaVuSans-105"/>
       <use x="307.8125" xlink:href="#DejaVuSans-110"/>
       <use x="371.191406" xlink:href="#DejaVuSans-111"/>
       <use x="432.373047" xlink:href="#DejaVuSans-115"/>
      </g>
     </g>
    </g>
   </g>
   <g id="matplotlib.axis_2">
    <g id="ytick_1">
     <g id="line2d_8">
      <defs>
       <path d="M 0 0 
L -3.5 0 
" id="m8303dc42f2" style="stroke:#000000;stroke-width:0.8;"/>
      </defs>
      <g>
       <use style="stroke:#000000;stroke-width:0.8;" x="72" xlink:href="#m8303dc42f2" y="270"/>
      </g>
     </g>
     <g id="text_8">
      <!-- 0 -->
      <defs>
       <path d="M 31.78125 66.40625 
Q 24.171875 66.40625 20.328125 58.90625 
Q 16.5 51.421875 16.5 36.375 
Q 16.5 21.390625 20.328125 13.890625 
Q 24.171875 6.390625 31.78125 6.390625 
Q 39.453125 6.390625 43.28125 13.890625 
Q 47.125 21.390625 47.125 36.375 
Q 47.125 51.421875 43.28125 58.90625 
Q 39.453125 66.40625 31.78125 66.40625 
z
M 31.78125 74.21875 
Q 44.046875 74.21875 50.515625 64.515625 
Q 56.984375 54.828125 56.984375 36.375 
Q 56.984375 17.96875 50.515625 8.265625 
Q 44.046875 -1.421875 31.78125 -1.421875 
Q 19.53125 -1.421875 13.0625 8.265625 
Q 6.59375 17.96875 6.59375 36.375 
Q 6.59375 54.828125 13.0625 64.515625 
Q 19.53125 74.21875 31.78125 74.21875 
z
" id="DejaVuSans-48"/>
      </defs>
      <g transform="translate(58.6375 273.799219)scale(0.1 -0.1)">
       <use xlink:href="#DejaVuSans-48"/>
      </g>
     </g>
    </g>
    <g id="ytick_2">
     <g id="line2d_9">
      <g>
       <use style="stroke:#000000;stroke-width:0.8;" x="72" xlink:href="#m8303dc42f2" y="242"/>
      </g>
     </g>
     <g id="text_9">
      <!-- 100 -->
      <defs>
       <path d="M 12.40625 8.296875 
L 28.515625 8.296875 
L 28.515625 63.921875 
L 10.984375 60.40625 
L 10.984375 69.390625 
L 28.421875 72.90625 
L 38.28125 72.90625 
L 38.28125 8.296875 
L 54.390625 8.296875 
L 54.390625 0 
L 12.40625 0 
z
" id="DejaVuSans-49"/>
      </defs>
      <g transform="translate(45.9125 245.799219)scale(0.1 -0.1)">
       <use xlink:href="#DejaVuSans-49"/>
       <use x="63.623047" xlink:href="#DejaVuSans-48"/>
       <use x="127.246094" xlink:href="#DejaVuSans-48"/>
      </g>
     </g>
    </g>
    <g id="ytick_3">
     <g id="line2d_10">
      <g>
       <use style="stroke:#000000;stroke-width:0.8;" x="72" xlink:href="#m8303dc42f2" y="214"/>
      </g>
     </g>
     <g id="text_10">
      <!-- 200 -->
      <defs>
       <path d="M 19.1875 8.296875 
L 53.609375 8.296875 
L 53.609375 0 
L 7.328125 0 
L 7.328125 8.296875 
Q 12.9375 14.109375 22.625 23.890625 
Q 32.328125 33.6875 34.8125 36.53125 
Q 39.546875 41.84375 41.421875 45.53125 
Q 43.3125 49.21875 43.3125 52.78125 
Q 43.3125 58.59375 39.234375 62.25 
Q 35.15625 65.921875 28.609375 65.921875 
Q 23.96875 65.921875 18.8125 64.3125 
Q 13.671875 62.703125 7.8125 59.421875 
L 7.8125 69.390625 
Q 13.765625 71.78125 18.9375 73 
Q 24.125 74.21875 28.421875 74.21875 
Q 39.75 74.21875 46.484375 68.546875 
Q 53.21875 62.890625 53.21875 53.421875 
Q 53.21875 48.921875 51.53125 44.890625 
Q 49.859375 40.875 45.40625 35.40625 
Q 44.1875 33.984375 37.640625 27.21875 
Q 31.109375 20.453125 19.1875 8.296875 
z
" id="DejaVuSans-50"/>
      </defs>
      <g transform="translate(45.9125 217.799219)scale(0.1 -0.1)">
       <use xlink:href="#DejaVuSans-50"/>
       <use x="63.623047" xlink:href="#DejaVuSans-48"/>
       <use x="127.246094" xlink:href="#DejaVuSans-48"/>
      </g>
     </g>
    </g>
    <g id="ytick_4">
     <g id="line2d_11">
      <g>
       <use style="stroke:#000000;stroke-width:0.8;" x="72" xlink:href="#m8303dc42f2" y="186"/>
      </g>
     </g>
     <g id="text_11">
      <!-- 300 -->
      <defs>
       <path d="M 40.578125 39.3125 
Q 47.65625 37.796875 51.625 33 
Q 55.609375 28.21875 55.609375 21.1875 
Q 55.609375 10.40625 48.1875 4.484375 
Q 40.765625 -1.421875 27.09375 -1.421875 
Q 22.515625 -1.421875 17.65625 -0.515625 
Q 12.796875 0.390625 7.625 2.203125 
L 7.625 11.71875 
Q 11.71875 9.328125 16.59375 8.109375 
Q 21.484375 6.890625 26.8125 6.890625 
Q 36.078125 6.890625 40.9375 10.546875 
Q 45.796875 14.203125 45.796875 21.1875 
Q 45.796875 27.640625 41.28125 31.265625 
Q 36.765625 34.90625 28.71875 34.90625 
L 20.21875 34.90625 
L 20.21875 43.015625 
L 29.109375 43.015625 
Q 36.375 43.015625 40.234375 45.921875 
Q 44.09375 48.828125 44.09375 54.296875 
Q 44.09375 59.90625 40.109375 62.90625 
Q 36.140625 65.921875 28.71875 65.921875 
Q 24.65625 65.921875 20.015625 65.03125 
Q 15.375 64.15625 9.8125 62.3125 
L 9.8125 71.09375 
Q 15.4375 72.65625 20.34375 73.4375 
Q 25.25 74.21875 29.59375 74.21875 
Q 40.828125 74.21875 47.359375 69.109375 
Q 53.90625 64.015625 53.90625 55.328125 
Q 53.90625 49.265625 50.4375 45.09375 
Q 46.96875 40.921875 40.578125 39.3125 
z
" id="DejaVuSans-51"/>
      </defs>
      <g transform="translate(45.9125 189.799219)scale(0.1 -0.1)">
       <use xlink:href="#DejaVuSans-51"/>
       <use x="63.623047" xlink:href="#DejaVuSans-48"/>
       <use x="127.246094" xlink:href="#DejaVuSans-48"/>
      </g>
     </g>
    </g>
    <g id="ytick_5">
     <g id="line2d_12">
      <g>
       <use style="stroke:#000000;stroke-width:0.8;" x="72" xlink:href="#m8303dc42f2" y="158"/>
      </g>
     </g>
     <g id="text_12">
      <!-- 400 -->
      <defs>
       <path d="M 37.796875 64.3125 
L 12.890625 25.390625 
L 37.796875 25.390625 
z
M 35.203125 72.90625 
L 47.609375 72.90625 
L 47.609375 25.390625 
L 58.015625 25.390625 
L 58.015625 17.1875 
L 47.609375 17.1875 
L 47.609375 0 
L 37.796875 0 
L 37.796875 17.1875 
L 4.890625 17.1875 
L 4.890625 26.703125 
z
" id="DejaVuSans-52"/>
      </defs>
      <g transform="translate(45.9125 161.799219)scale(0.1 -0.1)">
       <use xlink:href="#DejaVuSans-52"/>
       <use x="63.623047" xlink:href="#DejaVuSans-48"/>
       <use x="127.246094" xlink:href="#DejaVuSans-48"/>
      </g>
     </g>
    </g>
    <g id="ytick_6">
     <g id="line2d_13">
      <g>
       <use style="stroke:#000000;stroke-width:0.8;" x="72" xlink:href="#m8303dc42f2" y="130"/>
      </g>
     </g>
     <g id="text_13">
      <!-- 500 -->
      <defs>
       <path d="M 10.796875 72.90625 
L 49.515625 72.90625 
L 49.515625 64.59375 
L 19.828125 64.59375 
L 19.828125 46.734375 
Q 21.96875 47.46875 24.109375 47.828125 
Q 26.265625 48.1875 28.421875 48.1875 
Q 40.625 48.1875 47.75 41.5 
Q 54.890625 34.8125 54.890625 23.390625 
Q 54.890625 11.625 47.5625 5.09375 
Q 40.234375 -1.421875 26.90625 -1.421875 
Q 22.3125 -1.421875 17.546875 -0.640625 
Q 12.796875 0.140625 7.71875 1.703125 
L 7.71875 11.625 
Q 12.109375 9.234375 16.796875 8.0625 
Q 21.484375 6.890625 26.703125 6.890625 
Q 35.15625 6.890625 40.078125 11.328125 
Q 45.015625 15.765625 45.015625 23.390625 
Q 45.015625 31 40.078125 35.4375 
Q 35.15625 39.890625 26.703125 39.890625 
Q 22.75 39.890625 18.8125 39.015625 
Q 14.890625 38.140625 10.796875 36.28125 
z
" id="DejaVuSans-53"/>
      </defs>
      <g transform="translate(45.9125 133.799219)scale(0.1 -0.1)">
       <use xlink:href="#DejaVuSans-53"/>
       <use x="63.623047" xlink:href="#DejaVuSans-48"/>
       <use x="127.246094" xlink:href="#DejaVuSans-48"/>
      </g>
     </g>
    </g>
    <g id="ytick_7">
     <g id="line2d_14">
      <g>
       <use style="stroke:#000000;stroke-width:0.8;" x="72" xlink:href="#m8303dc42f2" y="102"/>
      </g>
     </g>
     <g id="text_14">
      <!-- 600 -->
      <defs>
       <path d="M 33.015625 40.375 
Q 26.375 40.375 22.484375 35.828125 
Q 18.609375 31.296875 18.609375 23.390625 
Q 18.609375 15.53125 22.484375 10.953125 
Q 26.375 6.390625 33.015625 6.390625 
Q 39.65625 6.390625 43.53125 10.953125 
Q 47.40625 15.53125 47.40625 23.390625 
Q 47.40625 31.296875 43.53125 35.828125 
Q 39.65625 40.375 33.015625 40.375 
z
M 52.59375 71.296875 
L 52.59375 62.3125 
Q 48.875 64.0625 45.09375 64.984375 
Q 41.3125 65.921875 37.59375 65.921875 
Q 27.828125 65.921875 22.671875 59.328125 
Q 17.53125 52.734375 16.796875 39.40625 
Q 19.671875 43.65625 24.015625 45.921875 
Q 28.375 48.1875 33.59375 48.1875 
Q 44.578125 48.1875 50.953125 41.515625 
Q 57.328125 34.859375 57.328125 23.390625 
Q 57.328125 12.15625 50.6875 5.359375 
Q 44.046875 -1.421875 33.015625 -1.421875 
Q 20.359375 -1.421875 13.671875 8.265625 
Q 6.984375 17.96875 6.984375 36.375 
Q 6.984375 53.65625 15.1875 63.9375 
Q 23.390625 74.21875 37.203125 74.21875 
Q 40.921875 74.21875 44.703125 73.484375 
Q 48.484375 72.75 52.59375 71.296875 
z
" id="DejaVuSans-54"/>
      </defs>
      <g transform="translate(45.9125 105.799219)scale(0.1 -0.1)">
       <use xlink:href="#DejaVuSans-54"/>
       <use x="63.623047" xlink:href="#DejaVuSans-48"/>
       <use x="127.246094" xlink:href="#DejaVuSans-48"/>
      </g>
     </g>
    </g>
    <g id="ytick_8">
     <g id="line2d_15">
      <g>
       <use style="stroke:#000000;stroke-width:0.8;" x="72" xlink:href="#m8303dc42f2" y="74"/>
      </g>
     </g>
     <g id="text_15">
      <!-- 700 -->
      <defs>
       <path d="M 8.203125 72.90625 
L 55.078125 72.90625 
L 55.078125 68.703125 
L 28.609375 0 
L 18.3125 0 
L 43.21875 64.59375 
L 8.203125 64.59375 
z
" id="DejaVuSans-55"/>
      </defs>
      <g transform="translate(45.9125 77.799219)scale(0.1 -0.1)">
       <use xlink:href="#DejaVuSans-55"/>
       <use x="63.623047" xlink:href="#DejaVuSans-48"/>
       <use x="127.246094" xlink:href="#DejaVuSans-48"/>
      </g>
     </g>
    </g>
    <g id="ytick_9">
     <g id="line2d_16">
      <g>
       <use style="stroke:#000000;stroke-width:0.8;" x="72" xlink:href="#m8303dc42f2" y="46"/>
      </g>
     </g>
     <g id="text_16">
      <!-- 800 -->
      <defs>
       <path d="M 31.78125 34.625 
Q 24.75 34.625 20.71875 30.859375 
Q 16.703125 27.09375 16.703125 20.515625 
Q 16.703125 13.921875 20.71875 10.15625 
Q 24.75 6.390625 31.78125 6.390625 
Q 38.8125 6.390625 42.859375 10.171875 
Q 46.921875 13.96875 46.921875 20.515625 
Q 46.921875 27.09375 42.890625 30.859375 
Q 38.875 34.625 31.78125 34.625 
z
M 21.921875 38.8125 
Q 15.578125 40.375 12.03125 44.71875 
Q 8.5 49.078125 8.5 55.328125 
Q 8.5 64.0625 14.71875 69.140625 
Q 20.953125 74.21875 31.78125 74.21875 
Q 42.671875 74.21875 48.875 69.140625 
Q 55.078125 64.0625 55.078125 55.328125 
Q 55.078125 49.078125 51.53125 44.71875 
Q 48 40.375 41.703125 38.8125 
Q 48.828125 37.15625 52.796875 32.3125 
Q 56.78125 27.484375 56.78125 20.515625 
Q 56.78125 9.90625 50.3125 4.234375 
Q 43.84375 -1.421875 31.78125 -1.421875 
Q 19.734375 -1.421875 13.25 4.234375 
Q 6.78125 9.90625 6.78125 20.515625 
Q 6.78125 27.484375 10.78125 32.3125 
Q 14.796875 37.15625 21.921875 38.8125 
z
M 18.3125 54.390625 
Q 18.3125 48.734375 21.84375 45.5625 
Q 25.390625 42.390625 31.78125 42.390625 
Q 38.140625 42.390625 41.71875 45.5625 
Q 45.3125 48.734375 45.3125 54.390625 
Q 45.3125 60.0625 41.71875 63.234375 
Q 38.140625 66.40625 31.78125 66.40625 
Q 25.390625 66.40625 21.84375 63.234375 
Q 18.3125 60.0625 18.3125 54.390625 
z
" id="DejaVuSans-56"/>
      </defs>
      <g transform="translate(45.9125 49.799219)scale(0.1 -0.1)">
       <use xlink:href="#DejaVuSans-56"/>
       <use x="63.623047" xlink:href="#DejaVuSans-48"/>
       <use x="127.246094" xlink:href="#DejaVuSans-48"/>
      </g>
     </g>
    </g>
    <g id="ytick_10">
     <g id="line2d_17">
      <g>
       <use style="stroke:#000000;stroke-width:0.8;" x="72" xlink:href="#m8303dc42f2" y="18"/>
      </g>
     </g>
     <g id="text_17">
      <!-- 900 -->
      <defs>
       <path d="M 10.984375 1.515625 
L 10.984375 10.5 
Q 14.703125 8.734375 18.5 7.8125 
Q 22.3125 6.890625 25.984375 6.890625 
Q 35.75 6.890625 40.890625 13.453125 
Q 46.046875 20.015625 46.78125 33.40625 
Q 43.953125 29.203125 39.59375 26.953125 
Q 35.25 24.703125 29.984375 24.703125 
Q 19.046875 24.703125 12.671875 31.3125 
Q 6.296875 37.9375 6.296875 49.421875 
Q 6.296875 60.640625 12.9375 67.421875 
Q 19.578125 74.21875 30.609375 74.21875 
Q 43.265625 74.21875 49.921875 64.515625 
Q 56.59375 54.828125 56.59375 36.375 
Q 56.59375 19.140625 48.40625 8.859375 
Q 40.234375 -1.421875 26.421875 -1.421875 
Q 22.703125 -1.421875 18.890625 -0.6875 
Q 15.09375 0.046875 10.984375 1.515625 
z
M 30.609375 32.421875 
Q 37.25 32.421875 41.125 36.953125 
Q 45.015625 41.5 45.015625 49.421875 
Q 45.015625 57.28125 41.125 61.84375 
Q 37.25 66.40625 30.609375 66.40625 
Q 23.96875 66.40625 20.09375 61.84375 
Q 16.21875 57.28125 16.21875 49.421875 
Q 16.21875 41.5 20.09375 36.953125 
Q 23.96875 32.421875 30.609375 32.421875 
z
" id="DejaVuSans-57"/>
      </defs>
      <g transform="translate(45.9125 21.799219)scale(0.1 -0.1)">
       <use xlink:href="#DejaVuSans-57"/>
       <use x="63.623047" xlink:href="#DejaVuSans-48"/>
       <use x="127.246094" xlink:href="#DejaVuSans-48"/>
      </g>
     </g>
    </g>
    <g id="text_18">
     <!-- Energy released (megawatt days) -->
     <defs>
      <path d="M 9.8125 72.90625 
L 55.90625 72.90625 
L 55.90625 64.59375 
L 19.671875 64.59375 
L 19.671875 43.015625 
L 54.390625 43.015625 
L 54.390625 34.71875 
L 19.671875 34.71875 
L 19.671875 8.296875 
L 56.78125 8.296875 
L 56.78125 0 
L 9.8125 0 
z
" id="DejaVuSans-69"/>
      <path d="M 31 75.875 
Q 24.46875 64.65625 21.28125 53.65625 
Q 18.109375 42.671875 18.109375 31.390625 
Q 18.109375 20.125 21.3125 9.0625 
Q 24.515625 -2 31 -13.1875 
L 23.1875 -13.1875 
Q 15.875 -1.703125 12.234375 9.375 
Q 8.59375 20.453125 8.59375 31.390625 
Q 8.59375 42.28125 12.203125 53.3125 
Q 15.828125 64.359375 23.1875 75.875 
z
" id="DejaVuSans-40"/>
      <path d="M 4.203125 54.6875 
L 13.1875 54.6875 
L 24.421875 12.015625 
L 35.59375 54.6875 
L 46.1875 54.6875 
L 57.421875 12.015625 
L 68.609375 54.6875 
L 77.59375 54.6875 
L 63.28125 0 
L 52.6875 0 
L 40.921875 44.828125 
L 29.109375 0 
L 18.5 0 
z
" id="DejaVuSans-119"/>
      <path d="M 8.015625 75.875 
L 15.828125 75.875 
Q 23.140625 64.359375 26.78125 53.3125 
Q 30.421875 42.28125 30.421875 31.390625 
Q 30.421875 20.453125 26.78125 9.375 
Q 23.140625 -1.703125 15.828125 -13.1875 
L 8.015625 -13.1875 
Q 14.5 -2 17.703125 9.0625 
Q 20.90625 20.125 20.90625 31.390625 
Q 20.90625 42.671875 17.703125 53.65625 
Q 14.5 64.65625 8.015625 75.875 
z
" id="DejaVuSans-41"/>
     </defs>
     <g transform="translate(39.832812 228.838281)rotate(-90)scale(0.1 -0.1)">
      <use xlink:href="#DejaVuSans-69"/>
      <use x="63.183594" xlink:href="#DejaVuSans-110"/>
      <use x="126.5625" xlink:href="#DejaVuSans-101"/>
      <use x="188.085938" xlink:href="#DejaVuSans-114"/>
      <use x="229.183594" xlink:href="#DejaVuSans-103"/>
      <use x="292.660156" xlink:href="#DejaVuSans-121"/>
      <use x="351.839844" xlink:href="#DejaVuSans-32"/>
      <use x="383.626953" xlink:href="#DejaVuSans-114"/>
      <use x="424.708984" xlink:href="#DejaVuSans-101"/>
      <use x="486.232422" xlink:href="#DejaVuSans-108"/>
      <use x="514.015625" xlink:href="#DejaVuSans-101"/>
      <use x="575.539062" xlink:href="#DejaVuSans-97"/>
      <use x="636.818359" xlink:href="#DejaVuSans-115"/>
      <use x="688.917969" xlink:href="#DejaVuSans-101"/>
      <use x="750.441406" xlink:href="#DejaVuSans-100"/>
      <use x="813.917969" xlink:href="#DejaVuSans-32"/>
      <use x="845.705078" xlink:href="#DejaVuSans-40"/>
      <use x="884.71875" xlink:href="#DejaVuSans-109"/>
      <use x="982.130859" xlink:href="#DejaVuSans-101"/>
      <use x="1043.654297" xlink:href="#DejaVuSans-103"/>
      <use x="1107.130859" xlink:href="#DejaVuSans-97"/>
      <use x="1168.410156" xlink:href="#DejaVuSans-119"/>
      <use x="1250.197266" xlink:href="#DejaVuSans-97"/>
      <use x="1311.476562" xlink:href="#DejaVuSans-116"/>
      <use x="1350.685547" xlink:href="#DejaVuSans-116"/>
      <use x="1389.894531" xlink:href="#DejaVuSans-32"/>
      <use x="1421.681641" xlink:href="#DejaVuSans-100"/>
      <use x="1485.158203" xlink:href="#DejaVuSans-97"/>
      <use x="1546.4375" xlink:href="#DejaVuSans-121"/>
      <use x="1605.617188" xlink:href="#DejaVuSans-115"/>
      <use x="1657.716797" xlink:href="#DejaVuSans-41"/>
     </g>
    </g>
   </g>
   <g id="line2d_18">
    <path clip-path="url(#pb8c25ddb48)" d="M 263.245812 270 
L 263.245812 18 
" style="fill:none;stroke:#000000;stroke-dasharray:5.55,2.4;stroke-dashoffset:0;stroke-width:1.5;"/>
   </g>
   <g id="line2d_19">
    <path clip-path="url(#pb8c25ddb48)" d="M 454.970938 270 
L 454.970938 18 
" style="fill:none;stroke:#000000;stroke-dasharray:5.55,2.4;stroke-dashoffset:0;stroke-width:1.5;"/>
   </g>
   <g id="patch_10">
    <path d="M 72 270 
L 72 18 
" style="fill:none;stroke:#000000;stroke-linecap:square;stroke-linejoin:miter;stroke-width:0.8;"/>
   </g>
   <g id="patch_11">
    <path d="M 518.4 270 
L 518.4 18 
" style="fill:none;stroke:#000000;stroke-linecap:square;stroke-linejoin:miter;stroke-width:0.8;"/>
   </g>
   <g id="patch_12">
    <path d="M 72 270 
L 518.4 270 
" style="fill:none;stroke:#000000;stroke-linecap:square;stroke-linejoin:miter;stroke-width:0.8;"/>
   </g>
   <g id="patch_13">
    <path d="M 72 18 
L 518.4 18 
" style="fill:none;stroke:#000000;stroke-linecap:square;stroke-linejoin:miter;stroke-width:0.8;"/>
   </g>
   <g id="text_19">
    <!-- 795 -->
    <g transform="translate(97.748625 43.20765)scale(0.06 -0.06)">
     <use xlink:href="#DejaVuSans-55"/>
     <use x="63.623047" xlink:href="#DejaVuSans-57"/>
     <use x="127.246094" xlink:href="#DejaVuSans-53"/>
    </g>
   </g>
   <g id="text_20">
    <!-- 31 -->
    <g transform="translate(163.56575 257.067779)scale(0.06 -0.06)">
     <use xlink:href="#DejaVuSans-51"/>
     <use x="63.623047" xlink:href="#DejaVuSans-49"/>
    </g>
   </g>
   <g id="text_21">
    <!-- 23 -->
    <g transform="translate(227.474125 259.386253)scale(0.06 -0.06)">
     <use xlink:href="#DejaVuSans-50"/>
     <use x="63.623047" xlink:href="#DejaVuSans-51"/>
    </g>
   </g>
   <g id="text_22">
    <!-- 31 -->
    <g transform="translate(291.3825 257.199361)scale(0.06 -0.06)">
     <use xlink:href="#DejaVuSans-51"/>
     <use x="63.623047" xlink:href="#DejaVuSans-49"/>
    </g>
   </g>
   <g id="text_23">
    <!-- 30 -->
    <g transform="translate(355.290875 257.423051)scale(0.06 -0.06)">
     <use xlink:href="#DejaVuSans-51"/>
     <use x="63.623047" xlink:href="#DejaVuSans-48"/>
    </g>
   </g>
   <g id="text_24">
    <!-- 0.035 -->
    <defs>
     <path d="M 10.6875 12.40625 
L 21 12.40625 
L 21 0 
L 10.6875 0 
z
" id="DejaVuSans-46"/>
    </defs>
    <g transform="translate(414.428313 265.74245)scale(0.06 -0.06)">
     <use xlink:href="#DejaVuSans-48"/>
     <use x="63.623047" xlink:href="#DejaVuSans-46"/>
     <use x="95.410156" xlink:href="#DejaVuSans-48"/>
     <use x="159.033203" xlink:href="#DejaVuSans-51"/>
     <use x="222.65625" xlink:href="#DejaVuSans-53"/>
    </g>
   </g>
   <g id="text_25">
    <!-- 41 -->
    <g transform="translate(483.107625 254.238768)scale(0.06 -0.06)">
     <use xlink:href="#DejaVuSans-52"/>
     <use x="63.623047" xlink:href="#DejaVuSans-49"/>
    </g>
   </g>
   <g id="text_26">
    <g id="patch_14">
     <path d="M 141.832325 132.234688 
L 231.2792 132.234688 
Q 234.2792 132.234688 234.2792 129.234688 
L 234.2792 74.765313 
Q 234.2792 71.765313 231.2792 71.765313 
L 141.832325 71.765313 
Q 138.832325 71.765313 138.832325 74.765313 
L 138.832325 129.234688 
Q 138.832325 132.234688 141.832325 132.234688 
z
" style="fill:#f5deb3;opacity:0.5;stroke:#000000;stroke-linejoin:miter;"/>
    </g>
    <!-- These come -->
    <defs>
     <path d="M -0.296875 72.90625 
L 61.375 72.90625 
L 61.375 64.59375 
L 35.5 64.59375 
L 35.5 0 
L 25.59375 0 
L 25.59375 64.59375 
L -0.296875 64.59375 
z
" id="DejaVuSans-84"/>
     <path d="M 54.890625 33.015625 
L 54.890625 0 
L 45.90625 0 
L 45.90625 32.71875 
Q 45.90625 40.484375 42.875 44.328125 
Q 39.84375 48.1875 33.796875 48.1875 
Q 26.515625 48.1875 22.3125 43.546875 
Q 18.109375 38.921875 18.109375 30.90625 
L 18.109375 0 
L 9.078125 0 
L 9.078125 75.984375 
L 18.109375 75.984375 
L 18.109375 46.1875 
Q 21.34375 51.125 25.703125 53.5625 
Q 30.078125 56 35.796875 56 
Q 45.21875 56 50.046875 50.171875 
Q 54.890625 44.34375 54.890625 33.015625 
z
" id="DejaVuSans-104"/>
     <path d="M 48.78125 52.59375 
L 48.78125 44.1875 
Q 44.96875 46.296875 41.140625 47.34375 
Q 37.3125 48.390625 33.40625 48.390625 
Q 24.65625 48.390625 19.8125 42.84375 
Q 14.984375 37.3125 14.984375 27.296875 
Q 14.984375 17.28125 19.8125 11.734375 
Q 24.65625 6.203125 33.40625 6.203125 
Q 37.3125 6.203125 41.140625 7.25 
Q 44.96875 8.296875 48.78125 10.40625 
L 48.78125 2.09375 
Q 45.015625 0.34375 40.984375 -0.53125 
Q 36.96875 -1.421875 32.421875 -1.421875 
Q 20.0625 -1.421875 12.78125 6.34375 
Q 5.515625 14.109375 5.515625 27.296875 
Q 5.515625 40.671875 12.859375 48.328125 
Q 20.21875 56 33.015625 56 
Q 37.15625 56 41.109375 55.140625 
Q 45.0625 54.296875 48.78125 52.59375 
z
" id="DejaVuSans-99"/>
    </defs>
    <g transform="translate(156.230762 82.36375)scale(0.1 -0.1)">
     <use xlink:href="#DejaVuSans-84"/>
     <use x="61.083984" xlink:href="#DejaVuSans-104"/>
     <use x="124.462891" xlink:href="#DejaVuSans-101"/>
     <use x="185.986328" xlink:href="#DejaVuSans-115"/>
     <use x="238.085938" xlink:href="#DejaVuSans-101"/>
     <use x="299.609375" xlink:href="#DejaVuSans-32"/>
     <use x="331.396484" xlink:href="#DejaVuSans-99"/>
     <use x="386.376953" xlink:href="#DejaVuSans-111"/>
     <use x="447.558594" xlink:href="#DejaVuSans-109"/>
     <use x="544.970703" xlink:href="#DejaVuSans-101"/>
    </g>
    <!-- immediately after -->
    <g transform="translate(141.832325 93.561562)scale(0.1 -0.1)">
     <use xlink:href="#DejaVuSans-105"/>
     <use x="27.783203" xlink:href="#DejaVuSans-109"/>
     <use x="125.195312" xlink:href="#DejaVuSans-109"/>
     <use x="222.607422" xlink:href="#DejaVuSans-101"/>
     <use x="284.130859" xlink:href="#DejaVuSans-100"/>
     <use x="347.607422" xlink:href="#DejaVuSans-105"/>
     <use x="375.390625" xlink:href="#DejaVuSans-97"/>
     <use x="436.669922" xlink:href="#DejaVuSans-116"/>
     <use x="475.878906" xlink:href="#DejaVuSans-101"/>
     <use x="537.402344" xlink:href="#DejaVuSans-108"/>
     <use x="565.185547" xlink:href="#DejaVuSans-121"/>
     <use x="624.365234" xlink:href="#DejaVuSans-32"/>
     <use x="656.152344" xlink:href="#DejaVuSans-97"/>
     <use x="717.431641" xlink:href="#DejaVuSans-102"/>
     <use x="752.621094" xlink:href="#DejaVuSans-116"/>
     <use x="791.830078" xlink:href="#DejaVuSans-101"/>
     <use x="853.353516" xlink:href="#DejaVuSans-114"/>
    </g>
    <!-- fission and -->
    <g transform="translate(159.583887 104.759375)scale(0.1 -0.1)">
     <use xlink:href="#DejaVuSans-102"/>
     <use x="35.205078" xlink:href="#DejaVuSans-105"/>
     <use x="62.988281" xlink:href="#DejaVuSans-115"/>
     <use x="115.087891" xlink:href="#DejaVuSans-115"/>
     <use x="167.1875" xlink:href="#DejaVuSans-105"/>
     <use x="194.970703" xlink:href="#DejaVuSans-111"/>
     <use x="256.152344" xlink:href="#DejaVuSans-110"/>
     <use x="319.53125" xlink:href="#DejaVuSans-32"/>
     <use x="351.318359" xlink:href="#DejaVuSans-97"/>
     <use x="412.597656" xlink:href="#DejaVuSans-110"/>
     <use x="475.976562" xlink:href="#DejaVuSans-100"/>
    </g>
    <!-- stop after -->
    <g transform="translate(162.252637 115.957188)scale(0.1 -0.1)">
     <use xlink:href="#DejaVuSans-115"/>
     <use x="52.099609" xlink:href="#DejaVuSans-116"/>
     <use x="91.308594" xlink:href="#DejaVuSans-111"/>
     <use x="152.490234" xlink:href="#DejaVuSans-112"/>
     <use x="215.966797" xlink:href="#DejaVuSans-32"/>
     <use x="247.753906" xlink:href="#DejaVuSans-97"/>
     <use x="309.033203" xlink:href="#DejaVuSans-102"/>
     <use x="344.222656" xlink:href="#DejaVuSans-116"/>
     <use x="383.431641" xlink:href="#DejaVuSans-101"/>
     <use x="444.955078" xlink:href="#DejaVuSans-114"/>
    </g>
    <!-- reactor shutdown -->
    <g transform="translate(142.5542 127.155)scale(0.1 -0.1)">
     <use xlink:href="#DejaVuSans-114"/>
     <use x="41.082031" xlink:href="#DejaVuSans-101"/>
     <use x="102.605469" xlink:href="#DejaVuSans-97"/>
     <use x="163.884766" xlink:href="#DejaVuSans-99"/>
     <use x="218.865234" xlink:href="#DejaVuSans-116"/>
     <use x="258.074219" xlink:href="#DejaVuSans-111"/>
     <use x="319.255859" xlink:href="#DejaVuSans-114"/>
     <use x="360.369141" xlink:href="#DejaVuSans-32"/>
     <use x="392.15625" xlink:href="#DejaVuSans-115"/>
     <use x="444.255859" xlink:href="#DejaVuSans-104"/>
     <use x="507.634766" xlink:href="#DejaVuSans-117"/>
     <use x="571.013672" xlink:href="#DejaVuSans-116"/>
     <use x="610.222656" xlink:href="#DejaVuSans-100"/>
     <use x="673.699219" xlink:href="#DejaVuSans-111"/>
     <use x="734.880859" xlink:href="#DejaVuSans-119"/>
     <use x="816.667969" xlink:href="#DejaVuSans-110"/>
    </g>
   </g>
   <g id="text_27">
    <g id="patch_15">
     <path d="M 295.302125 126.635781 
L 422.914625 126.635781 
Q 425.914625 126.635781 425.914625 123.635781 
L 425.914625 80.364219 
Q 425.914625 77.364219 422.914625 77.364219 
L 295.302125 77.364219 
Q 292.302125 77.364219 292.302125 80.364219 
L 292.302125 123.635781 
Q 292.302125 126.635781 295.302125 126.635781 
z
" style="fill:#f5deb3;opacity:0.5;stroke:#000000;stroke-linejoin:miter;"/>
    </g>
    <!-- These come between -->
    <g transform="translate(305.572438 87.962656)scale(0.1 -0.1)">
     <use xlink:href="#DejaVuSans-84"/>
     <use x="61.083984" xlink:href="#DejaVuSans-104"/>
     <use x="124.462891" xlink:href="#DejaVuSans-101"/>
     <use x="185.986328" xlink:href="#DejaVuSans-115"/>
     <use x="238.085938" xlink:href="#DejaVuSans-101"/>
     <use x="299.609375" xlink:href="#DejaVuSans-32"/>
     <use x="331.396484" xlink:href="#DejaVuSans-99"/>
     <use x="386.376953" xlink:href="#DejaVuSans-111"/>
     <use x="447.558594" xlink:href="#DejaVuSans-109"/>
     <use x="544.970703" xlink:href="#DejaVuSans-101"/>
     <use x="606.494141" xlink:href="#DejaVuSans-32"/>
     <use x="638.28125" xlink:href="#DejaVuSans-98"/>
     <use x="701.757812" xlink:href="#DejaVuSans-101"/>
     <use x="763.28125" xlink:href="#DejaVuSans-116"/>
     <use x="802.490234" xlink:href="#DejaVuSans-119"/>
     <use x="884.277344" xlink:href="#DejaVuSans-101"/>
     <use x="945.800781" xlink:href="#DejaVuSans-101"/>
     <use x="1007.324219" xlink:href="#DejaVuSans-110"/>
    </g>
    <!-- milliseconds and millenia -->
    <g transform="translate(295.923219 99.160469)scale(0.1 -0.1)">
     <use xlink:href="#DejaVuSans-109"/>
     <use x="97.412109" xlink:href="#DejaVuSans-105"/>
     <use x="125.195312" xlink:href="#DejaVuSans-108"/>
     <use x="152.978516" xlink:href="#DejaVuSans-108"/>
     <use x="180.761719" xlink:href="#DejaVuSans-105"/>
     <use x="208.544922" xlink:href="#DejaVuSans-115"/>
     <use x="260.644531" xlink:href="#DejaVuSans-101"/>
     <use x="322.167969" xlink:href="#DejaVuSans-99"/>
     <use x="377.148438" xlink:href="#DejaVuSans-111"/>
     <use x="438.330078" xlink:href="#DejaVuSans-110"/>
     <use x="501.708984" xlink:href="#DejaVuSans-100"/>
     <use x="565.185547" xlink:href="#DejaVuSans-115"/>
     <use x="617.285156" xlink:href="#DejaVuSans-32"/>
     <use x="649.072266" xlink:href="#DejaVuSans-97"/>
     <use x="710.351562" xlink:href="#DejaVuSans-110"/>
     <use x="773.730469" xlink:href="#DejaVuSans-100"/>
     <use x="837.207031" xlink:href="#DejaVuSans-32"/>
     <use x="868.994141" xlink:href="#DejaVuSans-109"/>
     <use x="966.40625" xlink:href="#DejaVuSans-105"/>
     <use x="994.189453" xlink:href="#DejaVuSans-108"/>
     <use x="1021.972656" xlink:href="#DejaVuSans-108"/>
     <use x="1049.755859" xlink:href="#DejaVuSans-101"/>
     <use x="1111.279297" xlink:href="#DejaVuSans-110"/>
     <use x="1174.658203" xlink:href="#DejaVuSans-105"/>
     <use x="1202.441406" xlink:href="#DejaVuSans-97"/>
    </g>
    <!-- after fission and continue -->
    <g transform="translate(295.302125 110.358281)scale(0.1 -0.1)">
     <use xlink:href="#DejaVuSans-97"/>
     <use x="61.279297" xlink:href="#DejaVuSans-102"/>
     <use x="96.46875" xlink:href="#DejaVuSans-116"/>
     <use x="135.677734" xlink:href="#DejaVuSans-101"/>
     <use x="197.201172" xlink:href="#DejaVuSans-114"/>
     <use x="238.314453" xlink:href="#DejaVuSans-32"/>
     <use x="270.101562" xlink:href="#DejaVuSans-102"/>
     <use x="305.306641" xlink:href="#DejaVuSans-105"/>
     <use x="333.089844" xlink:href="#DejaVuSans-115"/>
     <use x="385.189453" xlink:href="#DejaVuSans-115"/>
     <use x="437.289062" xlink:href="#DejaVuSans-105"/>
     <use x="465.072266" xlink:href="#DejaVuSans-111"/>
     <use x="526.253906" xlink:href="#DejaVuSans-110"/>
     <use x="589.632812" xlink:href="#DejaVuSans-32"/>
     <use x="621.419922" xlink:href="#DejaVuSans-97"/>
     <use x="682.699219" xlink:href="#DejaVuSans-110"/>
     <use x="746.078125" xlink:href="#DejaVuSans-100"/>
     <use x="809.554688" xlink:href="#DejaVuSans-32"/>
     <use x="841.341797" xlink:href="#DejaVuSans-99"/>
     <use x="896.322266" xlink:href="#DejaVuSans-111"/>
     <use x="957.503906" xlink:href="#DejaVuSans-110"/>
     <use x="1020.882812" xlink:href="#DejaVuSans-116"/>
     <use x="1060.091797" xlink:href="#DejaVuSans-105"/>
     <use x="1087.875" xlink:href="#DejaVuSans-110"/>
     <use x="1151.253906" xlink:href="#DejaVuSans-117"/>
     <use x="1214.632812" xlink:href="#DejaVuSans-101"/>
    </g>
    <!-- after reactor shutdown -->
    <g transform="translate(301.602125 121.556094)scale(0.1 -0.1)">
     <use xlink:href="#DejaVuSans-97"/>
     <use x="61.279297" xlink:href="#DejaVuSans-102"/>
     <use x="96.46875" xlink:href="#DejaVuSans-116"/>
     <use x="135.677734" xlink:href="#DejaVuSans-101"/>
     <use x="197.201172" xlink:href="#DejaVuSans-114"/>
     <use x="238.314453" xlink:href="#DejaVuSans-32"/>
     <use x="270.101562" xlink:href="#DejaVuSans-114"/>
     <use x="311.183594" xlink:href="#DejaVuSans-101"/>
     <use x="372.707031" xlink:href="#DejaVuSans-97"/>
     <use x="433.986328" xlink:href="#DejaVuSans-99"/>
     <use x="488.966797" xlink:href="#DejaVuSans-116"/>
     <use x="528.175781" xlink:href="#DejaVuSans-111"/>
     <use x="589.357422" xlink:href="#DejaVuSans-114"/>
     <use x="630.470703" xlink:href="#DejaVuSans-32"/>
     <use x="662.257812" xlink:href="#DejaVuSans-115"/>
     <use x="714.357422" xlink:href="#DejaVuSans-104"/>
     <use x="777.736328" xlink:href="#DejaVuSans-117"/>
     <use x="841.115234" xlink:href="#DejaVuSans-116"/>
     <use x="880.324219" xlink:href="#DejaVuSans-100"/>
     <use x="943.800781" xlink:href="#DejaVuSans-111"/>
     <use x="1004.982422" xlink:href="#DejaVuSans-119"/>
     <use x="1086.769531" xlink:href="#DejaVuSans-110"/>
    </g>
   </g>
   <g id="text_28">
    <g id="patch_16">
     <path d="M 304.108375 233.115 
L 414.108375 233.115 
Q 417.108375 233.115 417.108375 230.115 
L 417.108375 197.806875 
Q 417.108375 194.806875 414.108375 194.806875 
L 304.108375 194.806875 
Q 301.108375 194.806875 301.108375 197.806875 
L 301.108375 230.115 
Q 301.108375 233.115 304.108375 233.115 
z
" style="fill:#87ceeb;opacity:0.5;stroke:#000000;stroke-linejoin:miter;"/>
    </g>
    <!-- This afterglow heat -->
    <defs>
     <path d="M 0.484375 72.90625 
L 67.671875 72.90625 
L 67.671875 58.6875 
L 43.5 58.6875 
L 43.5 0 
L 24.703125 0 
L 24.703125 58.6875 
L 0.484375 58.6875 
z
" id="DejaVuSans-Bold-84"/>
     <path d="M 63.375 33.296875 
L 63.375 0 
L 45.796875 0 
L 45.796875 5.421875 
L 45.796875 25.390625 
Q 45.796875 32.5625 45.484375 35.25 
Q 45.171875 37.9375 44.390625 39.203125 
Q 43.359375 40.921875 41.59375 41.875 
Q 39.84375 42.828125 37.59375 42.828125 
Q 32.125 42.828125 29 38.59375 
Q 25.875 34.375 25.875 26.90625 
L 25.875 0 
L 8.40625 0 
L 8.40625 75.984375 
L 25.875 75.984375 
L 25.875 46.6875 
Q 29.828125 51.46875 34.265625 53.734375 
Q 38.71875 56 44.09375 56 
Q 53.5625 56 58.46875 50.1875 
Q 63.375 44.390625 63.375 33.296875 
z
" id="DejaVuSans-Bold-104"/>
     <path d="M 8.40625 54.6875 
L 25.875 54.6875 
L 25.875 0 
L 8.40625 0 
z
M 8.40625 75.984375 
L 25.875 75.984375 
L 25.875 61.71875 
L 8.40625 61.71875 
z
" id="DejaVuSans-Bold-105"/>
     <path d="M 51.125 52.984375 
L 51.125 39.703125 
Q 45.515625 42.046875 40.28125 43.21875 
Q 35.0625 44.390625 30.421875 44.390625 
Q 25.4375 44.390625 23.015625 43.140625 
Q 20.609375 41.890625 20.609375 39.3125 
Q 20.609375 37.203125 22.4375 36.078125 
Q 24.265625 34.96875 29 34.421875 
L 32.078125 33.984375 
Q 45.515625 32.28125 50.140625 28.375 
Q 54.78125 24.46875 54.78125 16.109375 
Q 54.78125 7.375 48.328125 2.96875 
Q 41.890625 -1.421875 29.109375 -1.421875 
Q 23.6875 -1.421875 17.890625 -0.5625 
Q 12.109375 0.296875 6 2 
L 6 15.28125 
Q 11.234375 12.75 16.71875 11.46875 
Q 22.21875 10.203125 27.875 10.203125 
Q 33.015625 10.203125 35.59375 11.609375 
Q 38.1875 13.03125 38.1875 15.828125 
Q 38.1875 18.171875 36.40625 19.3125 
Q 34.625 20.453125 29.296875 21.09375 
L 26.21875 21.484375 
Q 14.546875 22.953125 9.859375 26.90625 
Q 5.171875 30.859375 5.171875 38.921875 
Q 5.171875 47.609375 11.125 51.796875 
Q 17.09375 56 29.390625 56 
Q 34.234375 56 39.546875 55.265625 
Q 44.875 54.546875 51.125 52.984375 
z
" id="DejaVuSans-Bold-115"/>
     <path id="DejaVuSans-Bold-32"/>
     <path d="M 32.90625 24.609375 
Q 27.4375 24.609375 24.671875 22.75 
Q 21.921875 20.90625 21.921875 17.28125 
Q 21.921875 13.96875 24.140625 12.078125 
Q 26.375 10.203125 30.328125 10.203125 
Q 35.25 10.203125 38.625 13.734375 
Q 42 17.28125 42 22.609375 
L 42 24.609375 
z
M 59.625 31.203125 
L 59.625 0 
L 42 0 
L 42 8.109375 
Q 38.484375 3.125 34.078125 0.84375 
Q 29.6875 -1.421875 23.390625 -1.421875 
Q 14.890625 -1.421875 9.59375 3.53125 
Q 4.296875 8.5 4.296875 16.40625 
Q 4.296875 26.03125 10.90625 30.515625 
Q 17.53125 35.015625 31.6875 35.015625 
L 42 35.015625 
L 42 36.375 
Q 42 40.53125 38.71875 42.453125 
Q 35.453125 44.390625 28.515625 44.390625 
Q 22.90625 44.390625 18.0625 43.265625 
Q 13.234375 42.140625 9.078125 39.890625 
L 9.078125 53.21875 
Q 14.703125 54.59375 20.359375 55.296875 
Q 26.03125 56 31.6875 56 
Q 46.484375 56 53.046875 50.171875 
Q 59.625 44.34375 59.625 31.203125 
z
" id="DejaVuSans-Bold-97"/>
     <path d="M 44.390625 75.984375 
L 44.390625 64.5 
L 34.71875 64.5 
Q 31 64.5 29.53125 63.15625 
Q 28.078125 61.8125 28.078125 58.5 
L 28.078125 54.6875 
L 43.015625 54.6875 
L 43.015625 42.1875 
L 28.078125 42.1875 
L 28.078125 0 
L 10.59375 0 
L 10.59375 42.1875 
L 1.90625 42.1875 
L 1.90625 54.6875 
L 10.59375 54.6875 
L 10.59375 58.5 
Q 10.59375 67.4375 15.578125 71.703125 
Q 20.5625 75.984375 31 75.984375 
z
" id="DejaVuSans-Bold-102"/>
     <path d="M 27.484375 70.21875 
L 27.484375 54.6875 
L 45.515625 54.6875 
L 45.515625 42.1875 
L 27.484375 42.1875 
L 27.484375 19 
Q 27.484375 15.1875 29 13.84375 
Q 30.515625 12.5 35.015625 12.5 
L 44 12.5 
L 44 0 
L 29 0 
Q 18.65625 0 14.328125 4.3125 
Q 10.015625 8.640625 10.015625 19 
L 10.015625 42.1875 
L 1.3125 42.1875 
L 1.3125 54.6875 
L 10.015625 54.6875 
L 10.015625 70.21875 
z
" id="DejaVuSans-Bold-116"/>
     <path d="M 62.984375 27.484375 
L 62.984375 22.515625 
L 22.125 22.515625 
Q 22.75 16.359375 26.5625 13.28125 
Q 30.375 10.203125 37.203125 10.203125 
Q 42.71875 10.203125 48.5 11.84375 
Q 54.296875 13.484375 60.40625 16.796875 
L 60.40625 3.328125 
Q 54.203125 0.984375 48 -0.21875 
Q 41.796875 -1.421875 35.59375 -1.421875 
Q 20.75 -1.421875 12.515625 6.125 
Q 4.296875 13.671875 4.296875 27.296875 
Q 4.296875 40.671875 12.375 48.328125 
Q 20.453125 56 34.625 56 
Q 47.515625 56 55.25 48.234375 
Q 62.984375 40.484375 62.984375 27.484375 
z
M 45.015625 33.296875 
Q 45.015625 38.28125 42.109375 41.328125 
Q 39.203125 44.390625 34.515625 44.390625 
Q 29.4375 44.390625 26.265625 41.53125 
Q 23.09375 38.671875 22.3125 33.296875 
z
" id="DejaVuSans-Bold-101"/>
     <path d="M 49.03125 39.796875 
Q 46.734375 40.875 44.453125 41.375 
Q 42.1875 41.890625 39.890625 41.890625 
Q 33.15625 41.890625 29.515625 37.5625 
Q 25.875 33.25 25.875 25.203125 
L 25.875 0 
L 8.40625 0 
L 8.40625 54.6875 
L 25.875 54.6875 
L 25.875 45.703125 
Q 29.25 51.078125 33.609375 53.53125 
Q 37.984375 56 44.09375 56 
Q 44.96875 56 45.984375 55.921875 
Q 47.015625 55.859375 48.96875 55.609375 
z
" id="DejaVuSans-Bold-114"/>
     <path d="M 45.609375 9.28125 
Q 42 4.5 37.640625 2.25 
Q 33.296875 0 27.59375 0 
Q 17.578125 0 11.03125 7.875 
Q 4.5 15.765625 4.5 27.984375 
Q 4.5 40.234375 11.03125 48.0625 
Q 17.578125 55.90625 27.59375 55.90625 
Q 33.296875 55.90625 37.640625 53.65625 
Q 42 51.421875 45.609375 46.578125 
L 45.609375 54.6875 
L 63.1875 54.6875 
L 63.1875 5.515625 
Q 63.1875 -7.671875 54.859375 -14.625 
Q 46.53125 -21.578125 30.71875 -21.578125 
Q 25.59375 -21.578125 20.796875 -20.796875 
Q 16.015625 -20.015625 11.1875 -18.40625 
L 11.1875 -4.78125 
Q 15.765625 -7.421875 20.15625 -8.71875 
Q 24.5625 -10.015625 29 -10.015625 
Q 37.59375 -10.015625 41.59375 -6.25 
Q 45.609375 -2.484375 45.609375 5.515625 
z
M 34.078125 43.3125 
Q 28.65625 43.3125 25.625 39.296875 
Q 22.609375 35.296875 22.609375 27.984375 
Q 22.609375 20.453125 25.53125 16.578125 
Q 28.46875 12.703125 34.078125 12.703125 
Q 39.546875 12.703125 42.578125 16.703125 
Q 45.609375 20.703125 45.609375 27.984375 
Q 45.609375 35.296875 42.578125 39.296875 
Q 39.546875 43.3125 34.078125 43.3125 
z
" id="DejaVuSans-Bold-103"/>
     <path d="M 8.40625 75.984375 
L 25.875 75.984375 
L 25.875 0 
L 8.40625 0 
z
" id="DejaVuSans-Bold-108"/>
     <path d="M 34.421875 43.5 
Q 28.609375 43.5 25.5625 39.328125 
Q 22.515625 35.15625 22.515625 27.296875 
Q 22.515625 19.4375 25.5625 15.25 
Q 28.609375 11.078125 34.421875 11.078125 
Q 40.140625 11.078125 43.15625 15.25 
Q 46.1875 19.4375 46.1875 27.296875 
Q 46.1875 35.15625 43.15625 39.328125 
Q 40.140625 43.5 34.421875 43.5 
z
M 34.421875 56 
Q 48.53125 56 56.46875 48.375 
Q 64.40625 40.765625 64.40625 27.296875 
Q 64.40625 13.8125 56.46875 6.1875 
Q 48.53125 -1.421875 34.421875 -1.421875 
Q 20.265625 -1.421875 12.28125 6.1875 
Q 4.296875 13.8125 4.296875 27.296875 
Q 4.296875 40.765625 12.28125 48.375 
Q 20.265625 56 34.421875 56 
z
" id="DejaVuSans-Bold-111"/>
     <path d="M 3.515625 54.6875 
L 20.515625 54.6875 
L 29.6875 17 
L 38.921875 54.6875 
L 53.515625 54.6875 
L 62.703125 17.390625 
L 71.921875 54.6875 
L 88.921875 54.6875 
L 74.515625 0 
L 55.421875 0 
L 46.1875 37.59375 
L 37.015625 0 
L 17.921875 0 
z
" id="DejaVuSans-Bold-119"/>
    </defs>
    <g transform="translate(304.108375 205.483438)scale(0.1 -0.1)">
     <use xlink:href="#DejaVuSans-Bold-84"/>
     <use x="68.212891" xlink:href="#DejaVuSans-Bold-104"/>
     <use x="139.404297" xlink:href="#DejaVuSans-Bold-105"/>
     <use x="173.681641" xlink:href="#DejaVuSans-Bold-115"/>
     <use x="233.203125" xlink:href="#DejaVuSans-Bold-32"/>
     <use x="268.017578" xlink:href="#DejaVuSans-Bold-97"/>
     <use x="335.498047" xlink:href="#DejaVuSans-Bold-102"/>
     <use x="379.003906" xlink:href="#DejaVuSans-Bold-116"/>
     <use x="426.806641" xlink:href="#DejaVuSans-Bold-101"/>
     <use x="494.628906" xlink:href="#DejaVuSans-Bold-114"/>
     <use x="543.945312" xlink:href="#DejaVuSans-Bold-103"/>
     <use x="615.527344" xlink:href="#DejaVuSans-Bold-108"/>
     <use x="649.804688" xlink:href="#DejaVuSans-Bold-111"/>
     <use x="718.505859" xlink:href="#DejaVuSans-Bold-119"/>
     <use x="810.888672" xlink:href="#DejaVuSans-Bold-32"/>
     <use x="845.703125" xlink:href="#DejaVuSans-Bold-104"/>
     <use x="916.894531" xlink:href="#DejaVuSans-Bold-101"/>
     <use x="984.716797" xlink:href="#DejaVuSans-Bold-97"/>
     <use x="1052.197266" xlink:href="#DejaVuSans-Bold-116"/>
    </g>
    <!-- is why nuclear -->
    <defs>
     <path d="M 1.21875 54.6875 
L 18.703125 54.6875 
L 33.40625 17.578125 
L 45.90625 54.6875 
L 63.375 54.6875 
L 40.375 -5.171875 
Q 36.921875 -14.3125 32.296875 -17.9375 
Q 27.6875 -21.578125 20.125 -21.578125 
L 10.015625 -21.578125 
L 10.015625 -10.109375 
L 15.484375 -10.109375 
Q 19.921875 -10.109375 21.9375 -8.6875 
Q 23.96875 -7.28125 25.09375 -3.609375 
L 25.59375 -2.09375 
z
" id="DejaVuSans-Bold-121"/>
     <path d="M 63.375 33.296875 
L 63.375 0 
L 45.796875 0 
L 45.796875 5.421875 
L 45.796875 25.484375 
Q 45.796875 32.5625 45.484375 35.25 
Q 45.171875 37.9375 44.390625 39.203125 
Q 43.359375 40.921875 41.59375 41.875 
Q 39.84375 42.828125 37.59375 42.828125 
Q 32.125 42.828125 29 38.59375 
Q 25.875 34.375 25.875 26.90625 
L 25.875 0 
L 8.40625 0 
L 8.40625 54.6875 
L 25.875 54.6875 
L 25.875 46.6875 
Q 29.828125 51.46875 34.265625 53.734375 
Q 38.71875 56 44.09375 56 
Q 53.5625 56 58.46875 50.1875 
Q 63.375 44.390625 63.375 33.296875 
z
" id="DejaVuSans-Bold-110"/>
     <path d="M 7.8125 21.296875 
L 7.8125 54.6875 
L 25.390625 54.6875 
L 25.390625 49.21875 
Q 25.390625 44.78125 25.34375 38.0625 
Q 25.296875 31.34375 25.296875 29.109375 
Q 25.296875 22.515625 25.640625 19.609375 
Q 25.984375 16.703125 26.8125 15.375 
Q 27.875 13.671875 29.609375 12.734375 
Q 31.34375 11.8125 33.59375 11.8125 
Q 39.0625 11.8125 42.1875 16.015625 
Q 45.3125 20.21875 45.3125 27.6875 
L 45.3125 54.6875 
L 62.796875 54.6875 
L 62.796875 0 
L 45.3125 0 
L 45.3125 7.90625 
Q 41.359375 3.125 36.9375 0.84375 
Q 32.515625 -1.421875 27.203125 -1.421875 
Q 17.71875 -1.421875 12.765625 4.390625 
Q 7.8125 10.203125 7.8125 21.296875 
z
" id="DejaVuSans-Bold-117"/>
     <path d="M 52.59375 52.984375 
L 52.59375 38.71875 
Q 49.03125 41.15625 45.4375 42.328125 
Q 41.84375 43.5 37.984375 43.5 
Q 30.671875 43.5 26.59375 39.234375 
Q 22.515625 34.96875 22.515625 27.296875 
Q 22.515625 19.625 26.59375 15.34375 
Q 30.671875 11.078125 37.984375 11.078125 
Q 42.09375 11.078125 45.78125 12.296875 
Q 49.46875 13.53125 52.59375 15.921875 
L 52.59375 1.609375 
Q 48.484375 0.09375 44.265625 -0.65625 
Q 40.046875 -1.421875 35.796875 -1.421875 
Q 21 -1.421875 12.640625 6.171875 
Q 4.296875 13.765625 4.296875 27.296875 
Q 4.296875 40.828125 12.640625 48.40625 
Q 21 56 35.796875 56 
Q 40.09375 56 44.265625 55.25 
Q 48.4375 54.5 52.59375 52.984375 
z
" id="DejaVuSans-Bold-99"/>
    </defs>
    <g transform="translate(318.470875 216.759375)scale(0.1 -0.1)">
     <use xlink:href="#DejaVuSans-Bold-105"/>
     <use x="34.277344" xlink:href="#DejaVuSans-Bold-115"/>
     <use x="93.798828" xlink:href="#DejaVuSans-Bold-32"/>
     <use x="128.613281" xlink:href="#DejaVuSans-Bold-119"/>
     <use x="220.996094" xlink:href="#DejaVuSans-Bold-104"/>
     <use x="292.1875" xlink:href="#DejaVuSans-Bold-121"/>
     <use x="357.373047" xlink:href="#DejaVuSans-Bold-32"/>
     <use x="392.1875" xlink:href="#DejaVuSans-Bold-110"/>
     <use x="463.378906" xlink:href="#DejaVuSans-Bold-117"/>
     <use x="534.570312" xlink:href="#DejaVuSans-Bold-99"/>
     <use x="593.847656" xlink:href="#DejaVuSans-Bold-108"/>
     <use x="628.125" xlink:href="#DejaVuSans-Bold-101"/>
     <use x="695.947266" xlink:href="#DejaVuSans-Bold-97"/>
     <use x="763.427734" xlink:href="#DejaVuSans-Bold-114"/>
    </g>
    <!-- waste is hazardous -->
    <defs>
     <path d="M 5.71875 54.6875 
L 53.421875 54.6875 
L 53.421875 42.484375 
L 24.609375 12.5 
L 53.421875 12.5 
L 53.421875 0 
L 4.5 0 
L 4.5 12.203125 
L 33.296875 42.1875 
L 5.71875 42.1875 
z
" id="DejaVuSans-Bold-122"/>
     <path d="M 45.609375 46.6875 
L 45.609375 75.984375 
L 63.1875 75.984375 
L 63.1875 0 
L 45.609375 0 
L 45.609375 7.90625 
Q 42 3.078125 37.640625 0.828125 
Q 33.296875 -1.421875 27.59375 -1.421875 
Q 17.484375 -1.421875 10.984375 6.609375 
Q 4.5 14.65625 4.5 27.296875 
Q 4.5 39.9375 10.984375 47.96875 
Q 17.484375 56 27.59375 56 
Q 33.25 56 37.625 53.734375 
Q 42 51.46875 45.609375 46.6875 
z
M 34.078125 11.28125 
Q 39.703125 11.28125 42.65625 15.375 
Q 45.609375 19.484375 45.609375 27.296875 
Q 45.609375 35.109375 42.65625 39.203125 
Q 39.703125 43.3125 34.078125 43.3125 
Q 28.515625 43.3125 25.5625 39.203125 
Q 22.609375 35.109375 22.609375 27.296875 
Q 22.609375 19.484375 25.5625 15.375 
Q 28.515625 11.28125 34.078125 11.28125 
z
" id="DejaVuSans-Bold-100"/>
    </defs>
    <g transform="translate(304.953688 228.035313)scale(0.1 -0.1)">
     <use xlink:href="#DejaVuSans-Bold-119"/>
     <use x="92.382812" xlink:href="#DejaVuSans-Bold-97"/>
     <use x="159.863281" xlink:href="#DejaVuSans-Bold-115"/>
     <use x="219.384766" xlink:href="#DejaVuSans-Bold-116"/>
     <use x="267.1875" xlink:href="#DejaVuSans-Bold-101"/>
     <use x="335.009766" xlink:href="#DejaVuSans-Bold-32"/>
     <use x="369.824219" xlink:href="#DejaVuSans-Bold-105"/>
     <use x="404.101562" xlink:href="#DejaVuSans-Bold-115"/>
     <use x="463.623047" xlink:href="#DejaVuSans-Bold-32"/>
     <use x="498.4375" xlink:href="#DejaVuSans-Bold-104"/>
     <use x="569.628906" xlink:href="#DejaVuSans-Bold-97"/>
     <use x="637.109375" xlink:href="#DejaVuSans-Bold-122"/>
     <use x="695.3125" xlink:href="#DejaVuSans-Bold-97"/>
     <use x="762.792969" xlink:href="#DejaVuSans-Bold-114"/>
     <use x="812.109375" xlink:href="#DejaVuSans-Bold-100"/>
     <use x="883.691406" xlink:href="#DejaVuSans-Bold-111"/>
     <use x="952.392578" xlink:href="#DejaVuSans-Bold-117"/>
     <use x="1023.583984" xlink:href="#DejaVuSans-Bold-115"/>
    </g>
   </g>
   <g id="text_29">
    <g id="patch_17">
     <path d="M 462.867313 132.234688 
L 510.982938 132.234688 
Q 513.982938 132.234688 513.982938 129.234688 
L 513.982938 74.765313 
Q 513.982938 71.765313 510.982938 71.765313 
L 462.867313 71.765313 
Q 459.867313 71.765313 459.867313 74.765313 
L 459.867313 129.234688 
Q 459.867313 132.234688 462.867313 132.234688 
z
" style="fill:#f5deb3;opacity:0.5;stroke:#000000;stroke-linejoin:miter;"/>
    </g>
    <!-- These -->
    <g transform="translate(471.944657 82.36375)scale(0.1 -0.1)">
     <use xlink:href="#DejaVuSans-84"/>
     <use x="61.083984" xlink:href="#DejaVuSans-104"/>
     <use x="124.462891" xlink:href="#DejaVuSans-101"/>
     <use x="185.986328" xlink:href="#DejaVuSans-115"/>
     <use x="238.085938" xlink:href="#DejaVuSans-101"/>
    </g>
    <!-- rarely -->
    <g transform="translate(472.326688 93.561562)scale(0.1 -0.1)">
     <use xlink:href="#DejaVuSans-114"/>
     <use x="41.113281" xlink:href="#DejaVuSans-97"/>
     <use x="102.392578" xlink:href="#DejaVuSans-114"/>
     <use x="143.474609" xlink:href="#DejaVuSans-101"/>
     <use x="204.998047" xlink:href="#DejaVuSans-108"/>
     <use x="232.78125" xlink:href="#DejaVuSans-121"/>
    </g>
    <!-- interact -->
    <g transform="translate(467.501688 104.759375)scale(0.1 -0.1)">
     <use xlink:href="#DejaVuSans-105"/>
     <use x="27.783203" xlink:href="#DejaVuSans-110"/>
     <use x="91.162109" xlink:href="#DejaVuSans-116"/>
     <use x="130.371094" xlink:href="#DejaVuSans-101"/>
     <use x="191.894531" xlink:href="#DejaVuSans-114"/>
     <use x="233.007812" xlink:href="#DejaVuSans-97"/>
     <use x="294.287109" xlink:href="#DejaVuSans-99"/>
     <use x="349.267578" xlink:href="#DejaVuSans-116"/>
    </g>
    <!-- with -->
    <g transform="translate(476.318094 115.957188)scale(0.1 -0.1)">
     <use xlink:href="#DejaVuSans-119"/>
     <use x="81.787109" xlink:href="#DejaVuSans-105"/>
     <use x="109.570312" xlink:href="#DejaVuSans-116"/>
     <use x="148.779297" xlink:href="#DejaVuSans-104"/>
    </g>
    <!-- anything! -->
    <defs>
     <path d="M 15.09375 12.40625 
L 25 12.40625 
L 25 0 
L 15.09375 0 
z
M 15.09375 72.90625 
L 25 72.90625 
L 25 40.921875 
L 24.03125 23.484375 
L 16.109375 23.484375 
L 15.09375 40.921875 
z
" id="DejaVuSans-33"/>
    </defs>
    <g transform="translate(462.867313 127.155)scale(0.1 -0.1)">
     <use xlink:href="#DejaVuSans-97"/>
     <use x="61.279297" xlink:href="#DejaVuSans-110"/>
     <use x="124.658203" xlink:href="#DejaVuSans-121"/>
     <use x="183.837891" xlink:href="#DejaVuSans-116"/>
     <use x="223.046875" xlink:href="#DejaVuSans-104"/>
     <use x="286.425781" xlink:href="#DejaVuSans-105"/>
     <use x="314.208984" xlink:href="#DejaVuSans-110"/>
     <use x="377.587891" xlink:href="#DejaVuSans-103"/>
     <use x="441.064453" xlink:href="#DejaVuSans-33"/>
    </g>
   </g>
   <g id="text_30">
    <!-- Energy release from fission of 1 kg $^{235}$Uranium -->
    <defs>
     <path d="M 9.078125 75.984375 
L 18.109375 75.984375 
L 18.109375 31.109375 
L 44.921875 54.6875 
L 56.390625 54.6875 
L 27.390625 29.109375 
L 57.625 0 
L 45.90625 0 
L 18.109375 26.703125 
L 18.109375 0 
L 9.078125 0 
z
" id="DejaVuSans-107"/>
     <path d="M 8.6875 72.90625 
L 18.609375 72.90625 
L 18.609375 28.609375 
Q 18.609375 16.890625 22.84375 11.734375 
Q 27.09375 6.59375 36.625 6.59375 
Q 46.09375 6.59375 50.34375 11.734375 
Q 54.59375 16.890625 54.59375 28.609375 
L 54.59375 72.90625 
L 64.5 72.90625 
L 64.5 27.390625 
Q 64.5 13.140625 57.4375 5.859375 
Q 50.390625 -1.421875 36.625 -1.421875 
Q 22.796875 -1.421875 15.734375 5.859375 
Q 8.6875 13.140625 8.6875 27.390625 
z
" id="DejaVuSans-85"/>
    </defs>
    <g transform="translate(154.68 12)scale(0.12 -0.12)">
     <use transform="translate(0 0.765625)" xlink:href="#DejaVuSans-69"/>
     <use transform="translate(63.183594 0.765625)" xlink:href="#DejaVuSans-110"/>
     <use transform="translate(126.5625 0.765625)" xlink:href="#DejaVuSans-101"/>
     <use transform="translate(188.085938 0.765625)" xlink:href="#DejaVuSans-114"/>
     <use transform="translate(229.199219 0.765625)" xlink:href="#DejaVuSans-103"/>
     <use transform="translate(292.675781 0.765625)" xlink:href="#DejaVuSans-121"/>
     <use transform="translate(351.855469 0.765625)" xlink:href="#DejaVuSans-32"/>
     <use transform="translate(383.642578 0.765625)" xlink:href="#DejaVuSans-114"/>
     <use transform="translate(424.755859 0.765625)" xlink:href="#DejaVuSans-101"/>
     <use transform="translate(486.279297 0.765625)" xlink:href="#DejaVuSans-108"/>
     <use transform="translate(514.0625 0.765625)" xlink:href="#DejaVuSans-101"/>
     <use transform="translate(575.585938 0.765625)" xlink:href="#DejaVuSans-97"/>
     <use transform="translate(636.865234 0.765625)" xlink:href="#DejaVuSans-115"/>
     <use transform="translate(688.964844 0.765625)" xlink:href="#DejaVuSans-101"/>
     <use transform="translate(750.488281 0.765625)" xlink:href="#DejaVuSans-32"/>
     <use transform="translate(782.275391 0.765625)" xlink:href="#DejaVuSans-102"/>
     <use transform="translate(817.480469 0.765625)" xlink:href="#DejaVuSans-114"/>
     <use transform="translate(858.59375 0.765625)" xlink:href="#DejaVuSans-111"/>
     <use transform="translate(919.775391 0.765625)" xlink:href="#DejaVuSans-109"/>
     <use transform="translate(1017.1875 0.765625)" xlink:href="#DejaVuSans-32"/>
     <use transform="translate(1048.974609 0.765625)" xlink:href="#DejaVuSans-102"/>
     <use transform="translate(1084.179688 0.765625)" xlink:href="#DejaVuSans-105"/>
     <use transform="translate(1111.962891 0.765625)" xlink:href="#DejaVuSans-115"/>
     <use transform="translate(1164.0625 0.765625)" xlink:href="#DejaVuSans-115"/>
     <use transform="translate(1216.162109 0.765625)" xlink:href="#DejaVuSans-105"/>
     <use transform="translate(1243.945312 0.765625)" xlink:href="#DejaVuSans-111"/>
     <use transform="translate(1305.126953 0.765625)" xlink:href="#DejaVuSans-110"/>
     <use transform="translate(1368.505859 0.765625)" xlink:href="#DejaVuSans-32"/>
     <use transform="translate(1400.292969 0.765625)" xlink:href="#DejaVuSans-111"/>
     <use transform="translate(1461.474609 0.765625)" xlink:href="#DejaVuSans-102"/>
     <use transform="translate(1496.679688 0.765625)" xlink:href="#DejaVuSans-32"/>
     <use transform="translate(1528.466797 0.765625)" xlink:href="#DejaVuSans-49"/>
     <use transform="translate(1592.089844 0.765625)" xlink:href="#DejaVuSans-32"/>
     <use transform="translate(1623.876953 0.765625)" xlink:href="#DejaVuSans-107"/>
     <use transform="translate(1681.787109 0.765625)" xlink:href="#DejaVuSans-103"/>
     <use transform="translate(1745.263672 0.765625)" xlink:href="#DejaVuSans-32"/>
     <use transform="translate(1778.007812 39.046875)scale(0.7)" xlink:href="#DejaVuSans-50"/>
     <use transform="translate(1822.543945 39.046875)scale(0.7)" xlink:href="#DejaVuSans-51"/>
     <use transform="translate(1867.080078 39.046875)scale(0.7)" xlink:href="#DejaVuSans-53"/>
     <use transform="translate(1914.350586 0.765625)" xlink:href="#DejaVuSans-85"/>
     <use transform="translate(1987.543945 0.765625)" xlink:href="#DejaVuSans-114"/>
     <use transform="translate(2028.657227 0.765625)" xlink:href="#DejaVuSans-97"/>
     <use transform="translate(2089.936523 0.765625)" xlink:href="#DejaVuSans-110"/>
     <use transform="translate(2153.31543 0.765625)" xlink:href="#DejaVuSans-105"/>
     <use transform="translate(2181.098633 0.765625)" xlink:href="#DejaVuSans-117"/>
     <use transform="translate(2244.477539 0.765625)" xlink:href="#DejaVuSans-109"/>
    </g>
   </g>
  </g>
 </g>
 <defs>
  <clipPath id="pb8c25ddb48">
   <rect height="252" width="446.4" x="72" y="18"/>
  </clipPath>
 </defs>
</svg>
