<?xml version="1.0" encoding="utf-8" standalone="no"?>
<!DOCTYPE svg PUBLIC "-//W3C//DTD SVG 1.1//EN"
  "http://www.w3.org/Graphics/SVG/1.1/DTD/svg11.dtd">
<svg xmlns:xlink="http://www.w3.org/1999/xlink" width="576pt" height="576pt" viewBox="0 0 576 576" xmlns="http://www.w3.org/2000/svg" version="1.1">
 <metadata>
  <rdf:RDF xmlns:dc="http://purl.org/dc/elements/1.1/" xmlns:cc="http://creativecommons.org/ns#" xmlns:rdf="http://www.w3.org/1999/02/22-rdf-syntax-ns#">
   <cc:Work>
    <dc:type rdf:resource="http://purl.org/dc/dcmitype/StillImage"/>
    <dc:date>2022-10-01T07:07:27.535144</dc:date>
    <dc:format>image/svg+xml</dc:format>
    <dc:creator>
     <cc:Agent>
      <dc:title>Matplotlib v3.5.1, https://matplotlib.org/</dc:title>
     </cc:Agent>
    </dc:creator>
   </cc:Work>
  </rdf:RDF>
 </metadata>
 <defs>
  <style type="text/css">*{stroke-linejoin: round; stroke-linecap: butt}</style>
 </defs>
 <g id="figure_1">
  <g id="patch_1">
   <path d="M 0 576 
L 576 576 
L 576 0 
L 0 0 
z
" style="fill: #ffffff"/>
  </g>
  <g id="axes_1">
   <g id="PatchCollection_1">
    <path d="M 81.80296 231.891158 
L 277.862156 231.891158 
L 277.862156 35.831961 
L 81.80296 35.831961 
z
" clip-path="url(#p41483c248e)" style="fill: #fffacd; stroke: #000000"/>
    <path d="M 238.650317 231.891158 
L 277.862156 231.891158 
L 277.862156 192.679318 
L 238.650317 192.679318 
z
" clip-path="url(#p41483c248e)" style="fill: #d3d3d3; stroke: #000000"/>
    <path d="M 238.650317 192.679318 
L 277.862156 192.679318 
L 277.862156 182.876359 
L 238.650317 182.876359 
z
" clip-path="url(#p41483c248e)" style="fill: #f08080; stroke: #000000"/>
    <path d="M 238.650317 182.876359 
L 277.862156 182.876359 
L 277.862156 173.073399 
L 238.650317 173.073399 
z
" clip-path="url(#p41483c248e)" style="fill: #cd5c5c; stroke: #000000"/>
   </g>
   <g id="text_1">
    <!-- U-238 -->
    <g transform="translate(136.215388 138.27656)scale(0.16 -0.16)">
     <defs>
      <path id="DejaVuSans-55" d="M 556 4666 
L 1191 4666 
L 1191 1831 
Q 1191 1081 1462 751 
Q 1734 422 2344 422 
Q 2950 422 3222 751 
Q 3494 1081 3494 1831 
L 3494 4666 
L 4128 4666 
L 4128 1753 
Q 4128 841 3676 375 
Q 3225 -91 2344 -91 
Q 1459 -91 1007 375 
Q 556 841 556 1753 
L 556 4666 
z
" transform="scale(0.015625)"/>
      <path id="DejaVuSans-2d" d="M 313 2009 
L 1997 2009 
L 1997 1497 
L 313 1497 
L 313 2009 
z
" transform="scale(0.015625)"/>
      <path id="DejaVuSans-32" d="M 1228 531 
L 3431 531 
L 3431 0 
L 469 0 
L 469 531 
Q 828 903 1448 1529 
Q 2069 2156 2228 2338 
Q 2531 2678 2651 2914 
Q 2772 3150 2772 3378 
Q 2772 3750 2511 3984 
Q 2250 4219 1831 4219 
Q 1534 4219 1204 4116 
Q 875 4013 500 3803 
L 500 4441 
Q 881 4594 1212 4672 
Q 1544 4750 1819 4750 
Q 2544 4750 2975 4387 
Q 3406 4025 3406 3419 
Q 3406 3131 3298 2873 
Q 3191 2616 2906 2266 
Q 2828 2175 2409 1742 
Q 1991 1309 1228 531 
z
" transform="scale(0.015625)"/>
      <path id="DejaVuSans-33" d="M 2597 2516 
Q 3050 2419 3304 2112 
Q 3559 1806 3559 1356 
Q 3559 666 3084 287 
Q 2609 -91 1734 -91 
Q 1441 -91 1130 -33 
Q 819 25 488 141 
L 488 750 
Q 750 597 1062 519 
Q 1375 441 1716 441 
Q 2309 441 2620 675 
Q 2931 909 2931 1356 
Q 2931 1769 2642 2001 
Q 2353 2234 1838 2234 
L 1294 2234 
L 1294 2753 
L 1863 2753 
Q 2328 2753 2575 2939 
Q 2822 3125 2822 3475 
Q 2822 3834 2567 4026 
Q 2313 4219 1838 4219 
Q 1578 4219 1281 4162 
Q 984 4106 628 3988 
L 628 4550 
Q 988 4650 1302 4700 
Q 1616 4750 1894 4750 
Q 2613 4750 3031 4423 
Q 3450 4097 3450 3541 
Q 3450 3153 3228 2886 
Q 3006 2619 2597 2516 
z
" transform="scale(0.015625)"/>
      <path id="DejaVuSans-38" d="M 2034 2216 
Q 1584 2216 1326 1975 
Q 1069 1734 1069 1313 
Q 1069 891 1326 650 
Q 1584 409 2034 409 
Q 2484 409 2743 651 
Q 3003 894 3003 1313 
Q 3003 1734 2745 1975 
Q 2488 2216 2034 2216 
z
M 1403 2484 
Q 997 2584 770 2862 
Q 544 3141 544 3541 
Q 544 4100 942 4425 
Q 1341 4750 2034 4750 
Q 2731 4750 3128 4425 
Q 3525 4100 3525 3541 
Q 3525 3141 3298 2862 
Q 3072 2584 2669 2484 
Q 3125 2378 3379 2068 
Q 3634 1759 3634 1313 
Q 3634 634 3220 271 
Q 2806 -91 2034 -91 
Q 1263 -91 848 271 
Q 434 634 434 1313 
Q 434 1759 690 2068 
Q 947 2378 1403 2484 
z
M 1172 3481 
Q 1172 3119 1398 2916 
Q 1625 2713 2034 2713 
Q 2441 2713 2670 2916 
Q 2900 3119 2900 3481 
Q 2900 3844 2670 4047 
Q 2441 4250 2034 4250 
Q 1625 4250 1398 4047 
Q 1172 3844 1172 3481 
z
" transform="scale(0.015625)"/>
     </defs>
     <use xlink:href="#DejaVuSans-55"/>
     <use xlink:href="#DejaVuSans-2d" x="73.193359"/>
     <use xlink:href="#DejaVuSans-32" x="109.277344"/>
     <use xlink:href="#DejaVuSans-33" x="172.900391"/>
     <use xlink:href="#DejaVuSans-38" x="236.523438"/>
    </g>
   </g>
   <g id="text_2">
    <!-- 94.0% -->
    <g transform="translate(144.343045 152.30567)scale(0.1 -0.1)">
     <defs>
      <path id="DejaVuSans-39" d="M 703 97 
L 703 672 
Q 941 559 1184 500 
Q 1428 441 1663 441 
Q 2288 441 2617 861 
Q 2947 1281 2994 2138 
Q 2813 1869 2534 1725 
Q 2256 1581 1919 1581 
Q 1219 1581 811 2004 
Q 403 2428 403 3163 
Q 403 3881 828 4315 
Q 1253 4750 1959 4750 
Q 2769 4750 3195 4129 
Q 3622 3509 3622 2328 
Q 3622 1225 3098 567 
Q 2575 -91 1691 -91 
Q 1453 -91 1209 -44 
Q 966 3 703 97 
z
M 1959 2075 
Q 2384 2075 2632 2365 
Q 2881 2656 2881 3163 
Q 2881 3666 2632 3958 
Q 2384 4250 1959 4250 
Q 1534 4250 1286 3958 
Q 1038 3666 1038 3163 
Q 1038 2656 1286 2365 
Q 1534 2075 1959 2075 
z
" transform="scale(0.015625)"/>
      <path id="DejaVuSans-34" d="M 2419 4116 
L 825 1625 
L 2419 1625 
L 2419 4116 
z
M 2253 4666 
L 3047 4666 
L 3047 1625 
L 3713 1625 
L 3713 1100 
L 3047 1100 
L 3047 0 
L 2419 0 
L 2419 1100 
L 313 1100 
L 313 1709 
L 2253 4666 
z
" transform="scale(0.015625)"/>
      <path id="DejaVuSans-2e" d="M 684 794 
L 1344 794 
L 1344 0 
L 684 0 
L 684 794 
z
" transform="scale(0.015625)"/>
      <path id="DejaVuSans-30" d="M 2034 4250 
Q 1547 4250 1301 3770 
Q 1056 3291 1056 2328 
Q 1056 1369 1301 889 
Q 1547 409 2034 409 
Q 2525 409 2770 889 
Q 3016 1369 3016 2328 
Q 3016 3291 2770 3770 
Q 2525 4250 2034 4250 
z
M 2034 4750 
Q 2819 4750 3233 4129 
Q 3647 3509 3647 2328 
Q 3647 1150 3233 529 
Q 2819 -91 2034 -91 
Q 1250 -91 836 529 
Q 422 1150 422 2328 
Q 422 3509 836 4129 
Q 1250 4750 2034 4750 
z
" transform="scale(0.015625)"/>
      <path id="DejaVuSans-25" d="M 4653 2053 
Q 4381 2053 4226 1822 
Q 4072 1591 4072 1178 
Q 4072 772 4226 539 
Q 4381 306 4653 306 
Q 4919 306 5073 539 
Q 5228 772 5228 1178 
Q 5228 1588 5073 1820 
Q 4919 2053 4653 2053 
z
M 4653 2450 
Q 5147 2450 5437 2106 
Q 5728 1763 5728 1178 
Q 5728 594 5436 251 
Q 5144 -91 4653 -91 
Q 4153 -91 3862 251 
Q 3572 594 3572 1178 
Q 3572 1766 3864 2108 
Q 4156 2450 4653 2450 
z
M 1428 4353 
Q 1159 4353 1004 4120 
Q 850 3888 850 3481 
Q 850 3069 1003 2837 
Q 1156 2606 1428 2606 
Q 1700 2606 1854 2837 
Q 2009 3069 2009 3481 
Q 2009 3884 1853 4118 
Q 1697 4353 1428 4353 
z
M 4250 4750 
L 4750 4750 
L 1831 -91 
L 1331 -91 
L 4250 4750 
z
M 1428 4750 
Q 1922 4750 2215 4408 
Q 2509 4066 2509 3481 
Q 2509 2891 2217 2550 
Q 1925 2209 1428 2209 
Q 931 2209 642 2551 
Q 353 2894 353 3481 
Q 353 4063 643 4406 
Q 934 4750 1428 4750 
z
" transform="scale(0.015625)"/>
     </defs>
     <use xlink:href="#DejaVuSans-39"/>
     <use xlink:href="#DejaVuSans-34" x="63.623047"/>
     <use xlink:href="#DejaVuSans-2e" x="127.246094"/>
     <use xlink:href="#DejaVuSans-30" x="159.033203"/>
     <use xlink:href="#DejaVuSans-25" x="222.65625"/>
    </g>
   </g>
   <g id="patch_2">
    <path d="M 203.392501 210.285238 
Q 214.040464 210.285238 224.688426 210.285238 
L 224.688426 206.285238 
Q 230.690227 209.285238 236.692028 212.285238 
Q 230.690227 215.285238 224.688426 218.285238 
L 224.688426 214.285238 
Q 214.040464 214.285238 203.392501 214.285238 
L 203.392501 210.285238 
z
" style="stroke: #000000; stroke-linecap: round"/>
   </g>
   <g id="text_3">
    <!-- Fission Prods. (4.0%) -->
    <g transform="translate(95.82129 215.044613)scale(0.1 -0.1)">
     <defs>
      <path id="DejaVuSans-46" d="M 628 4666 
L 3309 4666 
L 3309 4134 
L 1259 4134 
L 1259 2759 
L 3109 2759 
L 3109 2228 
L 1259 2228 
L 1259 0 
L 628 0 
L 628 4666 
z
" transform="scale(0.015625)"/>
      <path id="DejaVuSans-69" d="M 603 3500 
L 1178 3500 
L 1178 0 
L 603 0 
L 603 3500 
z
M 603 4863 
L 1178 4863 
L 1178 4134 
L 603 4134 
L 603 4863 
z
" transform="scale(0.015625)"/>
      <path id="DejaVuSans-73" d="M 2834 3397 
L 2834 2853 
Q 2591 2978 2328 3040 
Q 2066 3103 1784 3103 
Q 1356 3103 1142 2972 
Q 928 2841 928 2578 
Q 928 2378 1081 2264 
Q 1234 2150 1697 2047 
L 1894 2003 
Q 2506 1872 2764 1633 
Q 3022 1394 3022 966 
Q 3022 478 2636 193 
Q 2250 -91 1575 -91 
Q 1294 -91 989 -36 
Q 684 19 347 128 
L 347 722 
Q 666 556 975 473 
Q 1284 391 1588 391 
Q 1994 391 2212 530 
Q 2431 669 2431 922 
Q 2431 1156 2273 1281 
Q 2116 1406 1581 1522 
L 1381 1569 
Q 847 1681 609 1914 
Q 372 2147 372 2553 
Q 372 3047 722 3315 
Q 1072 3584 1716 3584 
Q 2034 3584 2315 3537 
Q 2597 3491 2834 3397 
z
" transform="scale(0.015625)"/>
      <path id="DejaVuSans-6f" d="M 1959 3097 
Q 1497 3097 1228 2736 
Q 959 2375 959 1747 
Q 959 1119 1226 758 
Q 1494 397 1959 397 
Q 2419 397 2687 759 
Q 2956 1122 2956 1747 
Q 2956 2369 2687 2733 
Q 2419 3097 1959 3097 
z
M 1959 3584 
Q 2709 3584 3137 3096 
Q 3566 2609 3566 1747 
Q 3566 888 3137 398 
Q 2709 -91 1959 -91 
Q 1206 -91 779 398 
Q 353 888 353 1747 
Q 353 2609 779 3096 
Q 1206 3584 1959 3584 
z
" transform="scale(0.015625)"/>
      <path id="DejaVuSans-6e" d="M 3513 2113 
L 3513 0 
L 2938 0 
L 2938 2094 
Q 2938 2591 2744 2837 
Q 2550 3084 2163 3084 
Q 1697 3084 1428 2787 
Q 1159 2491 1159 1978 
L 1159 0 
L 581 0 
L 581 3500 
L 1159 3500 
L 1159 2956 
Q 1366 3272 1645 3428 
Q 1925 3584 2291 3584 
Q 2894 3584 3203 3211 
Q 3513 2838 3513 2113 
z
" transform="scale(0.015625)"/>
      <path id="DejaVuSans-20" transform="scale(0.015625)"/>
      <path id="DejaVuSans-50" d="M 1259 4147 
L 1259 2394 
L 2053 2394 
Q 2494 2394 2734 2622 
Q 2975 2850 2975 3272 
Q 2975 3691 2734 3919 
Q 2494 4147 2053 4147 
L 1259 4147 
z
M 628 4666 
L 2053 4666 
Q 2838 4666 3239 4311 
Q 3641 3956 3641 3272 
Q 3641 2581 3239 2228 
Q 2838 1875 2053 1875 
L 1259 1875 
L 1259 0 
L 628 0 
L 628 4666 
z
" transform="scale(0.015625)"/>
      <path id="DejaVuSans-72" d="M 2631 2963 
Q 2534 3019 2420 3045 
Q 2306 3072 2169 3072 
Q 1681 3072 1420 2755 
Q 1159 2438 1159 1844 
L 1159 0 
L 581 0 
L 581 3500 
L 1159 3500 
L 1159 2956 
Q 1341 3275 1631 3429 
Q 1922 3584 2338 3584 
Q 2397 3584 2469 3576 
Q 2541 3569 2628 3553 
L 2631 2963 
z
" transform="scale(0.015625)"/>
      <path id="DejaVuSans-64" d="M 2906 2969 
L 2906 4863 
L 3481 4863 
L 3481 0 
L 2906 0 
L 2906 525 
Q 2725 213 2448 61 
Q 2172 -91 1784 -91 
Q 1150 -91 751 415 
Q 353 922 353 1747 
Q 353 2572 751 3078 
Q 1150 3584 1784 3584 
Q 2172 3584 2448 3432 
Q 2725 3281 2906 2969 
z
M 947 1747 
Q 947 1113 1208 752 
Q 1469 391 1925 391 
Q 2381 391 2643 752 
Q 2906 1113 2906 1747 
Q 2906 2381 2643 2742 
Q 2381 3103 1925 3103 
Q 1469 3103 1208 2742 
Q 947 2381 947 1747 
z
" transform="scale(0.015625)"/>
      <path id="DejaVuSans-28" d="M 1984 4856 
Q 1566 4138 1362 3434 
Q 1159 2731 1159 2009 
Q 1159 1288 1364 580 
Q 1569 -128 1984 -844 
L 1484 -844 
Q 1016 -109 783 600 
Q 550 1309 550 2009 
Q 550 2706 781 3412 
Q 1013 4119 1484 4856 
L 1984 4856 
z
" transform="scale(0.015625)"/>
      <path id="DejaVuSans-29" d="M 513 4856 
L 1013 4856 
Q 1481 4119 1714 3412 
Q 1947 2706 1947 2009 
Q 1947 1309 1714 600 
Q 1481 -109 1013 -844 
L 513 -844 
Q 928 -128 1133 580 
Q 1338 1288 1338 2009 
Q 1338 2731 1133 3434 
Q 928 4138 513 4856 
z
" transform="scale(0.015625)"/>
     </defs>
     <use xlink:href="#DejaVuSans-46"/>
     <use xlink:href="#DejaVuSans-69" x="50.269531"/>
     <use xlink:href="#DejaVuSans-73" x="78.052734"/>
     <use xlink:href="#DejaVuSans-73" x="130.152344"/>
     <use xlink:href="#DejaVuSans-69" x="182.251953"/>
     <use xlink:href="#DejaVuSans-6f" x="210.035156"/>
     <use xlink:href="#DejaVuSans-6e" x="271.216797"/>
     <use xlink:href="#DejaVuSans-20" x="334.595703"/>
     <use xlink:href="#DejaVuSans-50" x="366.382812"/>
     <use xlink:href="#DejaVuSans-72" x="424.935547"/>
     <use xlink:href="#DejaVuSans-6f" x="463.798828"/>
     <use xlink:href="#DejaVuSans-64" x="524.980469"/>
     <use xlink:href="#DejaVuSans-73" x="588.457031"/>
     <use xlink:href="#DejaVuSans-2e" x="640.556641"/>
     <use xlink:href="#DejaVuSans-20" x="672.34375"/>
     <use xlink:href="#DejaVuSans-28" x="704.130859"/>
     <use xlink:href="#DejaVuSans-34" x="743.144531"/>
     <use xlink:href="#DejaVuSans-2e" x="806.767578"/>
     <use xlink:href="#DejaVuSans-30" x="838.554688"/>
     <use xlink:href="#DejaVuSans-25" x="902.177734"/>
     <use xlink:href="#DejaVuSans-29" x="997.197266"/>
    </g>
   </g>
   <g id="patch_3">
    <path d="M 203.392501 185.777839 
Q 214.040464 185.777839 224.688426 185.777839 
L 224.688426 181.777839 
Q 230.690227 184.777839 236.692028 187.777839 
Q 230.690227 190.777839 224.688426 193.777839 
L 224.688426 189.777839 
Q 214.040464 189.777839 203.392501 189.777839 
L 203.392501 185.777839 
z
" style="stroke: #000000; stroke-linecap: round"/>
   </g>
   <g id="text_4">
    <!-- U-235 (1.0%) -->
    <g transform="translate(133.038478 190.537214)scale(0.1 -0.1)">
     <defs>
      <path id="DejaVuSans-35" d="M 691 4666 
L 3169 4666 
L 3169 4134 
L 1269 4134 
L 1269 2991 
Q 1406 3038 1543 3061 
Q 1681 3084 1819 3084 
Q 2600 3084 3056 2656 
Q 3513 2228 3513 1497 
Q 3513 744 3044 326 
Q 2575 -91 1722 -91 
Q 1428 -91 1123 -41 
Q 819 9 494 109 
L 494 744 
Q 775 591 1075 516 
Q 1375 441 1709 441 
Q 2250 441 2565 725 
Q 2881 1009 2881 1497 
Q 2881 1984 2565 2268 
Q 2250 2553 1709 2553 
Q 1456 2553 1204 2497 
Q 953 2441 691 2322 
L 691 4666 
z
" transform="scale(0.015625)"/>
      <path id="DejaVuSans-31" d="M 794 531 
L 1825 531 
L 1825 4091 
L 703 3866 
L 703 4441 
L 1819 4666 
L 2450 4666 
L 2450 531 
L 3481 531 
L 3481 0 
L 794 0 
L 794 531 
z
" transform="scale(0.015625)"/>
     </defs>
     <use xlink:href="#DejaVuSans-55"/>
     <use xlink:href="#DejaVuSans-2d" x="73.193359"/>
     <use xlink:href="#DejaVuSans-32" x="109.277344"/>
     <use xlink:href="#DejaVuSans-33" x="172.900391"/>
     <use xlink:href="#DejaVuSans-35" x="236.523438"/>
     <use xlink:href="#DejaVuSans-20" x="300.146484"/>
     <use xlink:href="#DejaVuSans-28" x="331.933594"/>
     <use xlink:href="#DejaVuSans-31" x="370.947266"/>
     <use xlink:href="#DejaVuSans-2e" x="434.570312"/>
     <use xlink:href="#DejaVuSans-30" x="466.357422"/>
     <use xlink:href="#DejaVuSans-25" x="529.980469"/>
     <use xlink:href="#DejaVuSans-29" x="625"/>
    </g>
   </g>
   <g id="patch_4">
    <path d="M 203.392501 175.974879 
Q 214.040464 175.974879 224.688426 175.974879 
L 224.688426 171.974879 
Q 230.690227 174.974879 236.692028 177.974879 
Q 230.690227 180.974879 224.688426 183.974879 
L 224.688426 179.974879 
Q 214.040464 179.974879 203.392501 179.974879 
L 203.392501 175.974879 
z
" style="stroke: #000000; stroke-linecap: round"/>
   </g>
   <g id="text_5">
    <!-- Plutonium (1.0%) -->
    <g transform="translate(112.674415 180.734254)scale(0.1 -0.1)">
     <defs>
      <path id="DejaVuSans-6c" d="M 603 4863 
L 1178 4863 
L 1178 0 
L 603 0 
L 603 4863 
z
" transform="scale(0.015625)"/>
      <path id="DejaVuSans-75" d="M 544 1381 
L 544 3500 
L 1119 3500 
L 1119 1403 
Q 1119 906 1312 657 
Q 1506 409 1894 409 
Q 2359 409 2629 706 
Q 2900 1003 2900 1516 
L 2900 3500 
L 3475 3500 
L 3475 0 
L 2900 0 
L 2900 538 
Q 2691 219 2414 64 
Q 2138 -91 1772 -91 
Q 1169 -91 856 284 
Q 544 659 544 1381 
z
M 1991 3584 
L 1991 3584 
z
" transform="scale(0.015625)"/>
      <path id="DejaVuSans-74" d="M 1172 4494 
L 1172 3500 
L 2356 3500 
L 2356 3053 
L 1172 3053 
L 1172 1153 
Q 1172 725 1289 603 
Q 1406 481 1766 481 
L 2356 481 
L 2356 0 
L 1766 0 
Q 1100 0 847 248 
Q 594 497 594 1153 
L 594 3053 
L 172 3053 
L 172 3500 
L 594 3500 
L 594 4494 
L 1172 4494 
z
" transform="scale(0.015625)"/>
      <path id="DejaVuSans-6d" d="M 3328 2828 
Q 3544 3216 3844 3400 
Q 4144 3584 4550 3584 
Q 5097 3584 5394 3201 
Q 5691 2819 5691 2113 
L 5691 0 
L 5113 0 
L 5113 2094 
Q 5113 2597 4934 2840 
Q 4756 3084 4391 3084 
Q 3944 3084 3684 2787 
Q 3425 2491 3425 1978 
L 3425 0 
L 2847 0 
L 2847 2094 
Q 2847 2600 2669 2842 
Q 2491 3084 2119 3084 
Q 1678 3084 1418 2786 
Q 1159 2488 1159 1978 
L 1159 0 
L 581 0 
L 581 3500 
L 1159 3500 
L 1159 2956 
Q 1356 3278 1631 3431 
Q 1906 3584 2284 3584 
Q 2666 3584 2933 3390 
Q 3200 3197 3328 2828 
z
" transform="scale(0.015625)"/>
     </defs>
     <use xlink:href="#DejaVuSans-50"/>
     <use xlink:href="#DejaVuSans-6c" x="60.302734"/>
     <use xlink:href="#DejaVuSans-75" x="88.085938"/>
     <use xlink:href="#DejaVuSans-74" x="151.464844"/>
     <use xlink:href="#DejaVuSans-6f" x="190.673828"/>
     <use xlink:href="#DejaVuSans-6e" x="251.855469"/>
     <use xlink:href="#DejaVuSans-69" x="315.234375"/>
     <use xlink:href="#DejaVuSans-75" x="343.017578"/>
     <use xlink:href="#DejaVuSans-6d" x="406.396484"/>
     <use xlink:href="#DejaVuSans-20" x="503.808594"/>
     <use xlink:href="#DejaVuSans-28" x="535.595703"/>
     <use xlink:href="#DejaVuSans-31" x="574.609375"/>
     <use xlink:href="#DejaVuSans-2e" x="638.232422"/>
     <use xlink:href="#DejaVuSans-30" x="670.019531"/>
     <use xlink:href="#DejaVuSans-25" x="733.642578"/>
     <use xlink:href="#DejaVuSans-29" x="828.662109"/>
    </g>
   </g>
   <g id="text_6">
    <!-- Typical LWR waste -->
    <g transform="translate(124.970996 252.5474)scale(0.12 -0.12)">
     <defs>
      <path id="DejaVuSans-54" d="M -19 4666 
L 3928 4666 
L 3928 4134 
L 2272 4134 
L 2272 0 
L 1638 0 
L 1638 4134 
L -19 4134 
L -19 4666 
z
" transform="scale(0.015625)"/>
      <path id="DejaVuSans-79" d="M 2059 -325 
Q 1816 -950 1584 -1140 
Q 1353 -1331 966 -1331 
L 506 -1331 
L 506 -850 
L 844 -850 
Q 1081 -850 1212 -737 
Q 1344 -625 1503 -206 
L 1606 56 
L 191 3500 
L 800 3500 
L 1894 763 
L 2988 3500 
L 3597 3500 
L 2059 -325 
z
" transform="scale(0.015625)"/>
      <path id="DejaVuSans-70" d="M 1159 525 
L 1159 -1331 
L 581 -1331 
L 581 3500 
L 1159 3500 
L 1159 2969 
Q 1341 3281 1617 3432 
Q 1894 3584 2278 3584 
Q 2916 3584 3314 3078 
Q 3713 2572 3713 1747 
Q 3713 922 3314 415 
Q 2916 -91 2278 -91 
Q 1894 -91 1617 61 
Q 1341 213 1159 525 
z
M 3116 1747 
Q 3116 2381 2855 2742 
Q 2594 3103 2138 3103 
Q 1681 3103 1420 2742 
Q 1159 2381 1159 1747 
Q 1159 1113 1420 752 
Q 1681 391 2138 391 
Q 2594 391 2855 752 
Q 3116 1113 3116 1747 
z
" transform="scale(0.015625)"/>
      <path id="DejaVuSans-63" d="M 3122 3366 
L 3122 2828 
Q 2878 2963 2633 3030 
Q 2388 3097 2138 3097 
Q 1578 3097 1268 2742 
Q 959 2388 959 1747 
Q 959 1106 1268 751 
Q 1578 397 2138 397 
Q 2388 397 2633 464 
Q 2878 531 3122 666 
L 3122 134 
Q 2881 22 2623 -34 
Q 2366 -91 2075 -91 
Q 1284 -91 818 406 
Q 353 903 353 1747 
Q 353 2603 823 3093 
Q 1294 3584 2113 3584 
Q 2378 3584 2631 3529 
Q 2884 3475 3122 3366 
z
" transform="scale(0.015625)"/>
      <path id="DejaVuSans-61" d="M 2194 1759 
Q 1497 1759 1228 1600 
Q 959 1441 959 1056 
Q 959 750 1161 570 
Q 1363 391 1709 391 
Q 2188 391 2477 730 
Q 2766 1069 2766 1631 
L 2766 1759 
L 2194 1759 
z
M 3341 1997 
L 3341 0 
L 2766 0 
L 2766 531 
Q 2569 213 2275 61 
Q 1981 -91 1556 -91 
Q 1019 -91 701 211 
Q 384 513 384 1019 
Q 384 1609 779 1909 
Q 1175 2209 1959 2209 
L 2766 2209 
L 2766 2266 
Q 2766 2663 2505 2880 
Q 2244 3097 1772 3097 
Q 1472 3097 1187 3025 
Q 903 2953 641 2809 
L 641 3341 
Q 956 3463 1253 3523 
Q 1550 3584 1831 3584 
Q 2591 3584 2966 3190 
Q 3341 2797 3341 1997 
z
" transform="scale(0.015625)"/>
      <path id="DejaVuSans-4c" d="M 628 4666 
L 1259 4666 
L 1259 531 
L 3531 531 
L 3531 0 
L 628 0 
L 628 4666 
z
" transform="scale(0.015625)"/>
      <path id="DejaVuSans-57" d="M 213 4666 
L 850 4666 
L 1831 722 
L 2809 4666 
L 3519 4666 
L 4500 722 
L 5478 4666 
L 6119 4666 
L 4947 0 
L 4153 0 
L 3169 4050 
L 2175 0 
L 1381 0 
L 213 4666 
z
" transform="scale(0.015625)"/>
      <path id="DejaVuSans-52" d="M 2841 2188 
Q 3044 2119 3236 1894 
Q 3428 1669 3622 1275 
L 4263 0 
L 3584 0 
L 2988 1197 
Q 2756 1666 2539 1819 
Q 2322 1972 1947 1972 
L 1259 1972 
L 1259 0 
L 628 0 
L 628 4666 
L 2053 4666 
Q 2853 4666 3247 4331 
Q 3641 3997 3641 3322 
Q 3641 2881 3436 2590 
Q 3231 2300 2841 2188 
z
M 1259 4147 
L 1259 2491 
L 2053 2491 
Q 2509 2491 2742 2702 
Q 2975 2913 2975 3322 
Q 2975 3731 2742 3939 
Q 2509 4147 2053 4147 
L 1259 4147 
z
" transform="scale(0.015625)"/>
      <path id="DejaVuSans-77" d="M 269 3500 
L 844 3500 
L 1563 769 
L 2278 3500 
L 2956 3500 
L 3675 769 
L 4391 3500 
L 4966 3500 
L 4050 0 
L 3372 0 
L 2619 2869 
L 1863 0 
L 1184 0 
L 269 3500 
z
" transform="scale(0.015625)"/>
      <path id="DejaVuSans-65" d="M 3597 1894 
L 3597 1613 
L 953 1613 
Q 991 1019 1311 708 
Q 1631 397 2203 397 
Q 2534 397 2845 478 
Q 3156 559 3463 722 
L 3463 178 
Q 3153 47 2828 -22 
Q 2503 -91 2169 -91 
Q 1331 -91 842 396 
Q 353 884 353 1716 
Q 353 2575 817 3079 
Q 1281 3584 2069 3584 
Q 2775 3584 3186 3129 
Q 3597 2675 3597 1894 
z
M 3022 2063 
Q 3016 2534 2758 2815 
Q 2500 3097 2075 3097 
Q 1594 3097 1305 2825 
Q 1016 2553 972 2059 
L 3022 2063 
z
" transform="scale(0.015625)"/>
     </defs>
     <use xlink:href="#DejaVuSans-54"/>
     <use xlink:href="#DejaVuSans-79" x="45.458984"/>
     <use xlink:href="#DejaVuSans-70" x="104.638672"/>
     <use xlink:href="#DejaVuSans-69" x="168.115234"/>
     <use xlink:href="#DejaVuSans-63" x="195.898438"/>
     <use xlink:href="#DejaVuSans-61" x="250.878906"/>
     <use xlink:href="#DejaVuSans-6c" x="312.158203"/>
     <use xlink:href="#DejaVuSans-20" x="339.941406"/>
     <use xlink:href="#DejaVuSans-4c" x="371.728516"/>
     <use xlink:href="#DejaVuSans-57" x="418.316406"/>
     <use xlink:href="#DejaVuSans-52" x="517.193359"/>
     <use xlink:href="#DejaVuSans-20" x="586.675781"/>
     <use xlink:href="#DejaVuSans-77" x="618.462891"/>
     <use xlink:href="#DejaVuSans-61" x="700.25"/>
     <use xlink:href="#DejaVuSans-73" x="761.529297"/>
     <use xlink:href="#DejaVuSans-74" x="813.628906"/>
     <use xlink:href="#DejaVuSans-65" x="852.837891"/>
    </g>
   </g>
  </g>
  <g id="axes_2">
   <g id="PatchCollection_2">
    <path d="M 329.817844 231.891158 
L 525.87704 231.891158 
L 525.87704 35.831961 
L 329.817844 35.831961 
z
" clip-path="url(#p9f482a58a7)" style="fill: #fffacd; stroke: #000000"/>
    <path d="M 463.877678 231.891158 
L 525.87704 231.891158 
L 525.87704 169.891796 
L 463.877678 169.891796 
z
" clip-path="url(#p9f482a58a7)" style="fill: #d3d3d3; stroke: #000000"/>
    <path d="M 463.877678 169.891796 
L 525.87704 169.891796 
L 525.87704 163.69186 
L 463.877678 163.69186 
z
" clip-path="url(#p9f482a58a7)" style="fill: #f08080; stroke: #000000"/>
    <path d="M 463.877678 163.69186 
L 525.87704 163.69186 
L 525.87704 89.292626 
L 463.877678 89.292626 
z
" clip-path="url(#p9f482a58a7)" style="fill: #cd5c5c; stroke: #000000"/>
   </g>
   <g id="text_7">
    <!-- U-238 -->
    <g transform="translate(372.836511 138.27656)scale(0.16 -0.16)">
     <use xlink:href="#DejaVuSans-55"/>
     <use xlink:href="#DejaVuSans-2d" x="73.193359"/>
     <use xlink:href="#DejaVuSans-32" x="109.277344"/>
     <use xlink:href="#DejaVuSans-33" x="172.900391"/>
     <use xlink:href="#DejaVuSans-38" x="236.523438"/>
    </g>
   </g>
   <g id="text_8">
    <!-- 77.0% -->
    <g transform="translate(380.964167 152.30567)scale(0.1 -0.1)">
     <defs>
      <path id="DejaVuSans-37" d="M 525 4666 
L 3525 4666 
L 3525 4397 
L 1831 0 
L 1172 0 
L 2766 4134 
L 525 4134 
L 525 4666 
z
" transform="scale(0.015625)"/>
     </defs>
     <use xlink:href="#DejaVuSans-37"/>
     <use xlink:href="#DejaVuSans-37" x="63.623047"/>
     <use xlink:href="#DejaVuSans-2e" x="127.246094"/>
     <use xlink:href="#DejaVuSans-30" x="159.033203"/>
     <use xlink:href="#DejaVuSans-25" x="222.65625"/>
    </g>
   </g>
   <g id="text_9">
    <!-- FPs -->
    <g transform="translate(481.424859 205.306477)scale(0.16 -0.16)">
     <use xlink:href="#DejaVuSans-46"/>
     <use xlink:href="#DejaVuSans-50" x="57.519531"/>
     <use xlink:href="#DejaVuSans-73" x="116.072266"/>
    </g>
   </g>
   <g id="text_10">
    <!-- 10.0% -->
    <g transform="translate(478.993766 219.335588)scale(0.1 -0.1)">
     <use xlink:href="#DejaVuSans-31"/>
     <use xlink:href="#DejaVuSans-30" x="63.623047"/>
     <use xlink:href="#DejaVuSans-2e" x="127.246094"/>
     <use xlink:href="#DejaVuSans-30" x="159.033203"/>
     <use xlink:href="#DejaVuSans-25" x="222.65625"/>
    </g>
   </g>
   <g id="patch_5">
    <path d="M 428.619862 164.791828 
Q 439.267825 164.791828 449.915788 164.791828 
L 449.915788 160.791828 
Q 455.917588 163.791828 461.919389 166.791828 
Q 455.917588 169.791828 449.915788 172.791828 
L 449.915788 168.791828 
Q 439.267825 168.791828 428.619862 168.791828 
L 428.619862 164.791828 
z
" style="stroke: #000000; stroke-linecap: round"/>
   </g>
   <g id="text_11">
    <!-- U-235 (1.0%) -->
    <g transform="translate(358.265839 169.551203)scale(0.1 -0.1)">
     <use xlink:href="#DejaVuSans-55"/>
     <use xlink:href="#DejaVuSans-2d" x="73.193359"/>
     <use xlink:href="#DejaVuSans-32" x="109.277344"/>
     <use xlink:href="#DejaVuSans-33" x="172.900391"/>
     <use xlink:href="#DejaVuSans-35" x="236.523438"/>
     <use xlink:href="#DejaVuSans-20" x="300.146484"/>
     <use xlink:href="#DejaVuSans-28" x="331.933594"/>
     <use xlink:href="#DejaVuSans-31" x="370.947266"/>
     <use xlink:href="#DejaVuSans-2e" x="434.570312"/>
     <use xlink:href="#DejaVuSans-30" x="466.357422"/>
     <use xlink:href="#DejaVuSans-25" x="529.980469"/>
     <use xlink:href="#DejaVuSans-29" x="625"/>
    </g>
   </g>
   <g id="text_12">
    <!-- Pu -->
    <g transform="translate(485.123609 130.907243)scale(0.16 -0.16)">
     <use xlink:href="#DejaVuSans-50"/>
     <use xlink:href="#DejaVuSans-75" x="58.552734"/>
    </g>
   </g>
   <g id="text_13">
    <!-- 12.0% -->
    <g transform="translate(478.993766 144.936354)scale(0.1 -0.1)">
     <use xlink:href="#DejaVuSans-31"/>
     <use xlink:href="#DejaVuSans-32" x="63.623047"/>
     <use xlink:href="#DejaVuSans-2e" x="127.246094"/>
     <use xlink:href="#DejaVuSans-30" x="159.033203"/>
     <use xlink:href="#DejaVuSans-25" x="222.65625"/>
    </g>
   </g>
   <g id="text_14">
    <!-- Typical breeder -->
    <g transform="translate(382.051504 252.5474)scale(0.12 -0.12)">
     <defs>
      <path id="DejaVuSans-62" d="M 3116 1747 
Q 3116 2381 2855 2742 
Q 2594 3103 2138 3103 
Q 1681 3103 1420 2742 
Q 1159 2381 1159 1747 
Q 1159 1113 1420 752 
Q 1681 391 2138 391 
Q 2594 391 2855 752 
Q 3116 1113 3116 1747 
z
M 1159 2969 
Q 1341 3281 1617 3432 
Q 1894 3584 2278 3584 
Q 2916 3584 3314 3078 
Q 3713 2572 3713 1747 
Q 3713 922 3314 415 
Q 2916 -91 2278 -91 
Q 1894 -91 1617 61 
Q 1341 213 1159 525 
L 1159 0 
L 581 0 
L 581 4863 
L 1159 4863 
L 1159 2969 
z
" transform="scale(0.015625)"/>
     </defs>
     <use xlink:href="#DejaVuSans-54"/>
     <use xlink:href="#DejaVuSans-79" x="45.458984"/>
     <use xlink:href="#DejaVuSans-70" x="104.638672"/>
     <use xlink:href="#DejaVuSans-69" x="168.115234"/>
     <use xlink:href="#DejaVuSans-63" x="195.898438"/>
     <use xlink:href="#DejaVuSans-61" x="250.878906"/>
     <use xlink:href="#DejaVuSans-6c" x="312.158203"/>
     <use xlink:href="#DejaVuSans-20" x="339.941406"/>
     <use xlink:href="#DejaVuSans-62" x="371.728516"/>
     <use xlink:href="#DejaVuSans-72" x="435.205078"/>
     <use xlink:href="#DejaVuSans-65" x="474.068359"/>
     <use xlink:href="#DejaVuSans-65" x="535.591797"/>
     <use xlink:href="#DejaVuSans-64" x="597.115234"/>
     <use xlink:href="#DejaVuSans-65" x="660.591797"/>
     <use xlink:href="#DejaVuSans-72" x="722.115234"/>
    </g>
    <!-- (first cycle) -->
    <g transform="translate(394.027129 265.984775)scale(0.12 -0.12)">
     <defs>
      <path id="DejaVuSans-66" d="M 2375 4863 
L 2375 4384 
L 1825 4384 
Q 1516 4384 1395 4259 
Q 1275 4134 1275 3809 
L 1275 3500 
L 2222 3500 
L 2222 3053 
L 1275 3053 
L 1275 0 
L 697 0 
L 697 3053 
L 147 3053 
L 147 3500 
L 697 3500 
L 697 3744 
Q 697 4328 969 4595 
Q 1241 4863 1831 4863 
L 2375 4863 
z
" transform="scale(0.015625)"/>
     </defs>
     <use xlink:href="#DejaVuSans-28"/>
     <use xlink:href="#DejaVuSans-66" x="39.013672"/>
     <use xlink:href="#DejaVuSans-69" x="74.21875"/>
     <use xlink:href="#DejaVuSans-72" x="102.001953"/>
     <use xlink:href="#DejaVuSans-73" x="143.115234"/>
     <use xlink:href="#DejaVuSans-74" x="195.214844"/>
     <use xlink:href="#DejaVuSans-20" x="234.423828"/>
     <use xlink:href="#DejaVuSans-63" x="266.210938"/>
     <use xlink:href="#DejaVuSans-79" x="321.191406"/>
     <use xlink:href="#DejaVuSans-63" x="380.371094"/>
     <use xlink:href="#DejaVuSans-6c" x="435.351562"/>
     <use xlink:href="#DejaVuSans-65" x="463.134766"/>
     <use xlink:href="#DejaVuSans-29" x="524.658203"/>
    </g>
   </g>
  </g>
  <g id="axes_3">
   <g id="PatchCollection_3">
    <path d="M 81.80296 482.568039 
L 277.862156 482.568039 
L 277.862156 286.508842 
L 81.80296 286.508842 
z
" clip-path="url(#pfde4a29200)" style="fill: #fffacd; stroke: #000000"/>
    <path d="M 215.862795 482.568039 
L 277.862156 482.568039 
L 277.862156 420.568677 
L 215.862795 420.568677 
z
" clip-path="url(#pfde4a29200)" style="fill: #d3d3d3; stroke: #000000"/>
    <path d="M 215.862795 420.568677 
L 277.862156 420.568677 
L 277.862156 346.169443 
L 215.862795 346.169443 
z
" clip-path="url(#pfde4a29200)" style="fill: #cd5c5c; stroke: #000000"/>
   </g>
   <g id="text_15">
    <!-- U-238 -->
    <g transform="translate(124.821627 388.95344)scale(0.16 -0.16)">
     <use xlink:href="#DejaVuSans-55"/>
     <use xlink:href="#DejaVuSans-2d" x="73.193359"/>
     <use xlink:href="#DejaVuSans-32" x="109.277344"/>
     <use xlink:href="#DejaVuSans-33" x="172.900391"/>
     <use xlink:href="#DejaVuSans-38" x="236.523438"/>
    </g>
   </g>
   <g id="text_16">
    <!-- 78.0% -->
    <g transform="translate(132.949284 402.982551)scale(0.1 -0.1)">
     <use xlink:href="#DejaVuSans-37"/>
     <use xlink:href="#DejaVuSans-38" x="63.623047"/>
     <use xlink:href="#DejaVuSans-2e" x="127.246094"/>
     <use xlink:href="#DejaVuSans-30" x="159.033203"/>
     <use xlink:href="#DejaVuSans-25" x="222.65625"/>
    </g>
   </g>
   <g id="text_17">
    <!-- FPs -->
    <g transform="translate(233.409976 455.983358)scale(0.16 -0.16)">
     <use xlink:href="#DejaVuSans-46"/>
     <use xlink:href="#DejaVuSans-50" x="57.519531"/>
     <use xlink:href="#DejaVuSans-73" x="116.072266"/>
    </g>
   </g>
   <g id="text_18">
    <!-- 10.0% -->
    <g transform="translate(230.978882 470.012469)scale(0.1 -0.1)">
     <use xlink:href="#DejaVuSans-31"/>
     <use xlink:href="#DejaVuSans-30" x="63.623047"/>
     <use xlink:href="#DejaVuSans-2e" x="127.246094"/>
     <use xlink:href="#DejaVuSans-30" x="159.033203"/>
     <use xlink:href="#DejaVuSans-25" x="222.65625"/>
    </g>
   </g>
   <g id="text_19">
    <!-- Pu -->
    <g transform="translate(237.108726 387.78406)scale(0.16 -0.16)">
     <use xlink:href="#DejaVuSans-50"/>
     <use xlink:href="#DejaVuSans-75" x="58.552734"/>
    </g>
   </g>
   <g id="text_20">
    <!-- 12.0% -->
    <g transform="translate(230.978882 401.813171)scale(0.1 -0.1)">
     <use xlink:href="#DejaVuSans-31"/>
     <use xlink:href="#DejaVuSans-32" x="63.623047"/>
     <use xlink:href="#DejaVuSans-2e" x="127.246094"/>
     <use xlink:href="#DejaVuSans-30" x="159.033203"/>
     <use xlink:href="#DejaVuSans-25" x="222.65625"/>
    </g>
   </g>
   <g id="text_21">
    <!-- Typical breeder -->
    <g transform="translate(134.036621 503.224281)scale(0.12 -0.12)">
     <use xlink:href="#DejaVuSans-54"/>
     <use xlink:href="#DejaVuSans-79" x="45.458984"/>
     <use xlink:href="#DejaVuSans-70" x="104.638672"/>
     <use xlink:href="#DejaVuSans-69" x="168.115234"/>
     <use xlink:href="#DejaVuSans-63" x="195.898438"/>
     <use xlink:href="#DejaVuSans-61" x="250.878906"/>
     <use xlink:href="#DejaVuSans-6c" x="312.158203"/>
     <use xlink:href="#DejaVuSans-20" x="339.941406"/>
     <use xlink:href="#DejaVuSans-62" x="371.728516"/>
     <use xlink:href="#DejaVuSans-72" x="435.205078"/>
     <use xlink:href="#DejaVuSans-65" x="474.068359"/>
     <use xlink:href="#DejaVuSans-65" x="535.591797"/>
     <use xlink:href="#DejaVuSans-64" x="597.115234"/>
     <use xlink:href="#DejaVuSans-65" x="660.591797"/>
     <use xlink:href="#DejaVuSans-72" x="722.115234"/>
    </g>
    <!-- (N-th cycle) -->
    <g transform="translate(144.927558 516.661656)scale(0.12 -0.12)">
     <defs>
      <path id="DejaVuSans-4e" d="M 628 4666 
L 1478 4666 
L 3547 763 
L 3547 4666 
L 4159 4666 
L 4159 0 
L 3309 0 
L 1241 3903 
L 1241 0 
L 628 0 
L 628 4666 
z
" transform="scale(0.015625)"/>
      <path id="DejaVuSans-68" d="M 3513 2113 
L 3513 0 
L 2938 0 
L 2938 2094 
Q 2938 2591 2744 2837 
Q 2550 3084 2163 3084 
Q 1697 3084 1428 2787 
Q 1159 2491 1159 1978 
L 1159 0 
L 581 0 
L 581 4863 
L 1159 4863 
L 1159 2956 
Q 1366 3272 1645 3428 
Q 1925 3584 2291 3584 
Q 2894 3584 3203 3211 
Q 3513 2838 3513 2113 
z
" transform="scale(0.015625)"/>
     </defs>
     <use xlink:href="#DejaVuSans-28"/>
     <use xlink:href="#DejaVuSans-4e" x="39.013672"/>
     <use xlink:href="#DejaVuSans-2d" x="113.818359"/>
     <use xlink:href="#DejaVuSans-74" x="149.902344"/>
     <use xlink:href="#DejaVuSans-68" x="189.111328"/>
     <use xlink:href="#DejaVuSans-20" x="252.490234"/>
     <use xlink:href="#DejaVuSans-63" x="284.277344"/>
     <use xlink:href="#DejaVuSans-79" x="339.257812"/>
     <use xlink:href="#DejaVuSans-63" x="398.4375"/>
     <use xlink:href="#DejaVuSans-6c" x="453.417969"/>
     <use xlink:href="#DejaVuSans-65" x="481.201172"/>
     <use xlink:href="#DejaVuSans-29" x="542.724609"/>
    </g>
   </g>
  </g>
  <g id="axes_4">
   <g id="PatchCollection_4">
    <path d="M 329.817844 482.568039 
L 525.87704 482.568039 
L 525.87704 286.508842 
L 329.817844 286.508842 
z
" clip-path="url(#p73f8938334)" style="fill: #fffacd; stroke: #000000"/>
    <path d="M 463.877678 482.568039 
L 525.87704 482.568039 
L 525.87704 420.568677 
L 463.877678 420.568677 
z
" clip-path="url(#p73f8938334)" style="fill: #d3d3d3; stroke: #000000"/>
    <path d="M 463.877678 420.568677 
L 525.87704 420.568677 
L 525.87704 355.469347 
L 463.877678 355.469347 
z
" clip-path="url(#p73f8938334)" style="fill: #cd5c5c; stroke: #000000"/>
   </g>
   <g id="text_22">
    <!-- Th-232 -->
    <g transform="translate(368.735261 388.95344)scale(0.16 -0.16)">
     <use xlink:href="#DejaVuSans-54"/>
     <use xlink:href="#DejaVuSans-68" x="61.083984"/>
     <use xlink:href="#DejaVuSans-2d" x="124.462891"/>
     <use xlink:href="#DejaVuSans-32" x="160.546875"/>
     <use xlink:href="#DejaVuSans-33" x="224.169922"/>
     <use xlink:href="#DejaVuSans-32" x="287.792969"/>
    </g>
   </g>
   <g id="text_23">
    <!-- 79.5% -->
    <g transform="translate(380.964167 402.982551)scale(0.1 -0.1)">
     <use xlink:href="#DejaVuSans-37"/>
     <use xlink:href="#DejaVuSans-39" x="63.623047"/>
     <use xlink:href="#DejaVuSans-2e" x="127.246094"/>
     <use xlink:href="#DejaVuSans-35" x="159.033203"/>
     <use xlink:href="#DejaVuSans-25" x="222.65625"/>
    </g>
   </g>
   <g id="text_24">
    <!-- FPs -->
    <g transform="translate(481.424859 455.983358)scale(0.16 -0.16)">
     <use xlink:href="#DejaVuSans-46"/>
     <use xlink:href="#DejaVuSans-50" x="57.519531"/>
     <use xlink:href="#DejaVuSans-73" x="116.072266"/>
    </g>
   </g>
   <g id="text_25">
    <!-- 10.0% -->
    <g transform="translate(478.993766 470.012469)scale(0.1 -0.1)">
     <use xlink:href="#DejaVuSans-31"/>
     <use xlink:href="#DejaVuSans-30" x="63.623047"/>
     <use xlink:href="#DejaVuSans-2e" x="127.246094"/>
     <use xlink:href="#DejaVuSans-30" x="159.033203"/>
     <use xlink:href="#DejaVuSans-25" x="222.65625"/>
    </g>
   </g>
   <g id="text_26">
    <!-- U-233 -->
    <g transform="translate(470.866109 392.434012)scale(0.16 -0.16)">
     <use xlink:href="#DejaVuSans-55"/>
     <use xlink:href="#DejaVuSans-2d" x="73.193359"/>
     <use xlink:href="#DejaVuSans-32" x="109.277344"/>
     <use xlink:href="#DejaVuSans-33" x="172.900391"/>
     <use xlink:href="#DejaVuSans-33" x="236.523438"/>
    </g>
   </g>
   <g id="text_27">
    <!-- 10.5% -->
    <g transform="translate(478.993766 406.463123)scale(0.1 -0.1)">
     <use xlink:href="#DejaVuSans-31"/>
     <use xlink:href="#DejaVuSans-30" x="63.623047"/>
     <use xlink:href="#DejaVuSans-2e" x="127.246094"/>
     <use xlink:href="#DejaVuSans-35" x="159.033203"/>
     <use xlink:href="#DejaVuSans-25" x="222.65625"/>
    </g>
   </g>
   <g id="text_28">
    <!-- Thorium breeder -->
    <g transform="translate(377.529942 503.224281)scale(0.12 -0.12)">
     <use xlink:href="#DejaVuSans-54"/>
     <use xlink:href="#DejaVuSans-68" x="61.083984"/>
     <use xlink:href="#DejaVuSans-6f" x="124.462891"/>
     <use xlink:href="#DejaVuSans-72" x="185.644531"/>
     <use xlink:href="#DejaVuSans-69" x="226.757812"/>
     <use xlink:href="#DejaVuSans-75" x="254.541016"/>
     <use xlink:href="#DejaVuSans-6d" x="317.919922"/>
     <use xlink:href="#DejaVuSans-20" x="415.332031"/>
     <use xlink:href="#DejaVuSans-62" x="447.119141"/>
     <use xlink:href="#DejaVuSans-72" x="510.595703"/>
     <use xlink:href="#DejaVuSans-65" x="549.458984"/>
     <use xlink:href="#DejaVuSans-65" x="610.982422"/>
     <use xlink:href="#DejaVuSans-64" x="672.505859"/>
     <use xlink:href="#DejaVuSans-65" x="735.982422"/>
     <use xlink:href="#DejaVuSans-72" x="797.505859"/>
    </g>
    <!-- (N-th cycle) -->
    <g transform="translate(392.942442 516.661656)scale(0.12 -0.12)">
     <use xlink:href="#DejaVuSans-28"/>
     <use xlink:href="#DejaVuSans-4e" x="39.013672"/>
     <use xlink:href="#DejaVuSans-2d" x="113.818359"/>
     <use xlink:href="#DejaVuSans-74" x="149.902344"/>
     <use xlink:href="#DejaVuSans-68" x="189.111328"/>
     <use xlink:href="#DejaVuSans-20" x="252.490234"/>
     <use xlink:href="#DejaVuSans-63" x="284.277344"/>
     <use xlink:href="#DejaVuSans-79" x="339.257812"/>
     <use xlink:href="#DejaVuSans-63" x="398.4375"/>
     <use xlink:href="#DejaVuSans-6c" x="453.417969"/>
     <use xlink:href="#DejaVuSans-65" x="481.201172"/>
     <use xlink:href="#DejaVuSans-29" x="542.724609"/>
    </g>
   </g>
   <g id="legend_1">
    <g id="patch_6">
     <path d="M 115.804517 568.980874 
L 437.959204 568.980874 
L 437.959204 536.624624 
L 115.804517 536.624624 
z
" style="fill: #ffffff; opacity: 0.8; stroke: #cccccc; stroke-linejoin: miter"/>
    </g>
    <g id="patch_7">
     <path d="M 119.804517 548.223061 
L 139.804517 548.223061 
L 139.804517 541.223061 
L 119.804517 541.223061 
z
" style="fill: #f08080; stroke: #000000; stroke-linejoin: miter"/>
    </g>
    <g id="text_29">
     <!-- Fissile (good fuel) -->
     <g transform="translate(147.804517 548.223061)scale(0.1 -0.1)">
      <defs>
       <path id="DejaVuSans-67" d="M 2906 1791 
Q 2906 2416 2648 2759 
Q 2391 3103 1925 3103 
Q 1463 3103 1205 2759 
Q 947 2416 947 1791 
Q 947 1169 1205 825 
Q 1463 481 1925 481 
Q 2391 481 2648 825 
Q 2906 1169 2906 1791 
z
M 3481 434 
Q 3481 -459 3084 -895 
Q 2688 -1331 1869 -1331 
Q 1566 -1331 1297 -1286 
Q 1028 -1241 775 -1147 
L 775 -588 
Q 1028 -725 1275 -790 
Q 1522 -856 1778 -856 
Q 2344 -856 2625 -561 
Q 2906 -266 2906 331 
L 2906 616 
Q 2728 306 2450 153 
Q 2172 0 1784 0 
Q 1141 0 747 490 
Q 353 981 353 1791 
Q 353 2603 747 3093 
Q 1141 3584 1784 3584 
Q 2172 3584 2450 3431 
Q 2728 3278 2906 2969 
L 2906 3500 
L 3481 3500 
L 3481 434 
z
" transform="scale(0.015625)"/>
      </defs>
      <use xlink:href="#DejaVuSans-46"/>
      <use xlink:href="#DejaVuSans-69" x="50.269531"/>
      <use xlink:href="#DejaVuSans-73" x="78.052734"/>
      <use xlink:href="#DejaVuSans-73" x="130.152344"/>
      <use xlink:href="#DejaVuSans-69" x="182.251953"/>
      <use xlink:href="#DejaVuSans-6c" x="210.035156"/>
      <use xlink:href="#DejaVuSans-65" x="237.818359"/>
      <use xlink:href="#DejaVuSans-20" x="299.341797"/>
      <use xlink:href="#DejaVuSans-28" x="331.128906"/>
      <use xlink:href="#DejaVuSans-67" x="370.142578"/>
      <use xlink:href="#DejaVuSans-6f" x="433.619141"/>
      <use xlink:href="#DejaVuSans-6f" x="494.800781"/>
      <use xlink:href="#DejaVuSans-64" x="555.982422"/>
      <use xlink:href="#DejaVuSans-20" x="619.458984"/>
      <use xlink:href="#DejaVuSans-66" x="651.246094"/>
      <use xlink:href="#DejaVuSans-75" x="686.451172"/>
      <use xlink:href="#DejaVuSans-65" x="749.830078"/>
      <use xlink:href="#DejaVuSans-6c" x="811.353516"/>
      <use xlink:href="#DejaVuSans-29" x="839.136719"/>
     </g>
    </g>
    <g id="patch_8">
     <path d="M 119.804517 562.901186 
L 139.804517 562.901186 
L 139.804517 555.901186 
L 119.804517 555.901186 
z
" style="fill: #fffacd; stroke: #000000; stroke-linejoin: miter"/>
    </g>
    <g id="text_30">
     <!-- Fertile (potential fuel) -->
     <g transform="translate(147.804517 562.901186)scale(0.1 -0.1)">
      <use xlink:href="#DejaVuSans-46"/>
      <use xlink:href="#DejaVuSans-65" x="52.019531"/>
      <use xlink:href="#DejaVuSans-72" x="113.542969"/>
      <use xlink:href="#DejaVuSans-74" x="154.65625"/>
      <use xlink:href="#DejaVuSans-69" x="193.865234"/>
      <use xlink:href="#DejaVuSans-6c" x="221.648438"/>
      <use xlink:href="#DejaVuSans-65" x="249.431641"/>
      <use xlink:href="#DejaVuSans-20" x="310.955078"/>
      <use xlink:href="#DejaVuSans-28" x="342.742188"/>
      <use xlink:href="#DejaVuSans-70" x="381.755859"/>
      <use xlink:href="#DejaVuSans-6f" x="445.232422"/>
      <use xlink:href="#DejaVuSans-74" x="506.414062"/>
      <use xlink:href="#DejaVuSans-65" x="545.623047"/>
      <use xlink:href="#DejaVuSans-6e" x="607.146484"/>
      <use xlink:href="#DejaVuSans-74" x="670.525391"/>
      <use xlink:href="#DejaVuSans-69" x="709.734375"/>
      <use xlink:href="#DejaVuSans-61" x="737.517578"/>
      <use xlink:href="#DejaVuSans-6c" x="798.796875"/>
      <use xlink:href="#DejaVuSans-20" x="826.580078"/>
      <use xlink:href="#DejaVuSans-66" x="858.367188"/>
      <use xlink:href="#DejaVuSans-75" x="893.572266"/>
      <use xlink:href="#DejaVuSans-65" x="956.951172"/>
      <use xlink:href="#DejaVuSans-6c" x="1018.474609"/>
      <use xlink:href="#DejaVuSans-29" x="1046.257812"/>
     </g>
    </g>
    <g id="patch_9">
     <path d="M 276.331079 548.223061 
L 296.331079 548.223061 
L 296.331079 541.223061 
L 276.331079 541.223061 
z
" style="fill: #cd5c5c; stroke: #000000; stroke-linejoin: miter"/>
    </g>
    <g id="text_31">
     <!-- Fissile (excellent fuel) -->
     <g transform="translate(304.331079 548.223061)scale(0.1 -0.1)">
      <defs>
       <path id="DejaVuSans-78" d="M 3513 3500 
L 2247 1797 
L 3578 0 
L 2900 0 
L 1881 1375 
L 863 0 
L 184 0 
L 1544 1831 
L 300 3500 
L 978 3500 
L 1906 2253 
L 2834 3500 
L 3513 3500 
z
" transform="scale(0.015625)"/>
      </defs>
      <use xlink:href="#DejaVuSans-46"/>
      <use xlink:href="#DejaVuSans-69" x="50.269531"/>
      <use xlink:href="#DejaVuSans-73" x="78.052734"/>
      <use xlink:href="#DejaVuSans-73" x="130.152344"/>
      <use xlink:href="#DejaVuSans-69" x="182.251953"/>
      <use xlink:href="#DejaVuSans-6c" x="210.035156"/>
      <use xlink:href="#DejaVuSans-65" x="237.818359"/>
      <use xlink:href="#DejaVuSans-20" x="299.341797"/>
      <use xlink:href="#DejaVuSans-28" x="331.128906"/>
      <use xlink:href="#DejaVuSans-65" x="370.142578"/>
      <use xlink:href="#DejaVuSans-78" x="429.916016"/>
      <use xlink:href="#DejaVuSans-63" x="487.345703"/>
      <use xlink:href="#DejaVuSans-65" x="542.326172"/>
      <use xlink:href="#DejaVuSans-6c" x="603.849609"/>
      <use xlink:href="#DejaVuSans-6c" x="631.632812"/>
      <use xlink:href="#DejaVuSans-65" x="659.416016"/>
      <use xlink:href="#DejaVuSans-6e" x="720.939453"/>
      <use xlink:href="#DejaVuSans-74" x="784.318359"/>
      <use xlink:href="#DejaVuSans-20" x="823.527344"/>
      <use xlink:href="#DejaVuSans-66" x="855.314453"/>
      <use xlink:href="#DejaVuSans-75" x="890.519531"/>
      <use xlink:href="#DejaVuSans-65" x="953.898438"/>
      <use xlink:href="#DejaVuSans-6c" x="1015.421875"/>
      <use xlink:href="#DejaVuSans-29" x="1043.205078"/>
     </g>
    </g>
    <g id="patch_10">
     <path d="M 276.331079 562.901186 
L 296.331079 562.901186 
L 296.331079 555.901186 
L 276.331079 555.901186 
z
" style="fill: #d3d3d3; stroke: #000000; stroke-linejoin: miter"/>
    </g>
    <g id="text_32">
     <!-- Fission products (not fuel) -->
     <g transform="translate(304.331079 562.901186)scale(0.1 -0.1)">
      <use xlink:href="#DejaVuSans-46"/>
      <use xlink:href="#DejaVuSans-69" x="50.269531"/>
      <use xlink:href="#DejaVuSans-73" x="78.052734"/>
      <use xlink:href="#DejaVuSans-73" x="130.152344"/>
      <use xlink:href="#DejaVuSans-69" x="182.251953"/>
      <use xlink:href="#DejaVuSans-6f" x="210.035156"/>
      <use xlink:href="#DejaVuSans-6e" x="271.216797"/>
      <use xlink:href="#DejaVuSans-20" x="334.595703"/>
      <use xlink:href="#DejaVuSans-70" x="366.382812"/>
      <use xlink:href="#DejaVuSans-72" x="429.859375"/>
      <use xlink:href="#DejaVuSans-6f" x="468.722656"/>
      <use xlink:href="#DejaVuSans-64" x="529.904297"/>
      <use xlink:href="#DejaVuSans-75" x="593.380859"/>
      <use xlink:href="#DejaVuSans-63" x="656.759766"/>
      <use xlink:href="#DejaVuSans-74" x="711.740234"/>
      <use xlink:href="#DejaVuSans-73" x="750.949219"/>
      <use xlink:href="#DejaVuSans-20" x="803.048828"/>
      <use xlink:href="#DejaVuSans-28" x="834.835938"/>
      <use xlink:href="#DejaVuSans-6e" x="873.849609"/>
      <use xlink:href="#DejaVuSans-6f" x="937.228516"/>
      <use xlink:href="#DejaVuSans-74" x="998.410156"/>
      <use xlink:href="#DejaVuSans-20" x="1037.619141"/>
      <use xlink:href="#DejaVuSans-66" x="1069.40625"/>
      <use xlink:href="#DejaVuSans-75" x="1104.611328"/>
      <use xlink:href="#DejaVuSans-65" x="1167.990234"/>
      <use xlink:href="#DejaVuSans-6c" x="1229.513672"/>
      <use xlink:href="#DejaVuSans-29" x="1257.296875"/>
     </g>
    </g>
   </g>
  </g>
  <g id="text_33">
   <!-- Used fuel after irradiation in a reactor -->
   <g transform="translate(174.619687 20.638125)scale(0.12 -0.12)">
    <use xlink:href="#DejaVuSans-55"/>
    <use xlink:href="#DejaVuSans-73" x="73.193359"/>
    <use xlink:href="#DejaVuSans-65" x="125.292969"/>
    <use xlink:href="#DejaVuSans-64" x="186.816406"/>
    <use xlink:href="#DejaVuSans-20" x="250.292969"/>
    <use xlink:href="#DejaVuSans-66" x="282.080078"/>
    <use xlink:href="#DejaVuSans-75" x="317.285156"/>
    <use xlink:href="#DejaVuSans-65" x="380.664062"/>
    <use xlink:href="#DejaVuSans-6c" x="442.1875"/>
    <use xlink:href="#DejaVuSans-20" x="469.970703"/>
    <use xlink:href="#DejaVuSans-61" x="501.757812"/>
    <use xlink:href="#DejaVuSans-66" x="563.037109"/>
    <use xlink:href="#DejaVuSans-74" x="596.492188"/>
    <use xlink:href="#DejaVuSans-65" x="635.701172"/>
    <use xlink:href="#DejaVuSans-72" x="697.224609"/>
    <use xlink:href="#DejaVuSans-20" x="738.337891"/>
    <use xlink:href="#DejaVuSans-69" x="770.125"/>
    <use xlink:href="#DejaVuSans-72" x="797.908203"/>
    <use xlink:href="#DejaVuSans-72" x="837.271484"/>
    <use xlink:href="#DejaVuSans-61" x="878.384766"/>
    <use xlink:href="#DejaVuSans-64" x="939.664062"/>
    <use xlink:href="#DejaVuSans-69" x="1003.140625"/>
    <use xlink:href="#DejaVuSans-61" x="1030.923828"/>
    <use xlink:href="#DejaVuSans-74" x="1092.203125"/>
    <use xlink:href="#DejaVuSans-69" x="1131.412109"/>
    <use xlink:href="#DejaVuSans-6f" x="1159.195312"/>
    <use xlink:href="#DejaVuSans-6e" x="1220.376953"/>
    <use xlink:href="#DejaVuSans-20" x="1283.755859"/>
    <use xlink:href="#DejaVuSans-69" x="1315.542969"/>
    <use xlink:href="#DejaVuSans-6e" x="1343.326172"/>
    <use xlink:href="#DejaVuSans-20" x="1406.705078"/>
    <use xlink:href="#DejaVuSans-61" x="1438.492188"/>
    <use xlink:href="#DejaVuSans-20" x="1499.771484"/>
    <use xlink:href="#DejaVuSans-72" x="1531.558594"/>
    <use xlink:href="#DejaVuSans-65" x="1570.421875"/>
    <use xlink:href="#DejaVuSans-61" x="1631.945312"/>
    <use xlink:href="#DejaVuSans-63" x="1693.224609"/>
    <use xlink:href="#DejaVuSans-74" x="1748.205078"/>
    <use xlink:href="#DejaVuSans-6f" x="1787.414062"/>
    <use xlink:href="#DejaVuSans-72" x="1848.595703"/>
   </g>
  </g>
  <g id="text_34">
   <!-- CC-BY-NC -->
   <g style="fill: #d3d3d3" transform="translate(466.342969 549.802187)scale(0.1 -0.1)">
    <defs>
     <path id="DejaVuSans-43" d="M 4122 4306 
L 4122 3641 
Q 3803 3938 3442 4084 
Q 3081 4231 2675 4231 
Q 1875 4231 1450 3742 
Q 1025 3253 1025 2328 
Q 1025 1406 1450 917 
Q 1875 428 2675 428 
Q 3081 428 3442 575 
Q 3803 722 4122 1019 
L 4122 359 
Q 3791 134 3420 21 
Q 3050 -91 2638 -91 
Q 1578 -91 968 557 
Q 359 1206 359 2328 
Q 359 3453 968 4101 
Q 1578 4750 2638 4750 
Q 3056 4750 3426 4639 
Q 3797 4528 4122 4306 
z
" transform="scale(0.015625)"/>
     <path id="DejaVuSans-42" d="M 1259 2228 
L 1259 519 
L 2272 519 
Q 2781 519 3026 730 
Q 3272 941 3272 1375 
Q 3272 1813 3026 2020 
Q 2781 2228 2272 2228 
L 1259 2228 
z
M 1259 4147 
L 1259 2741 
L 2194 2741 
Q 2656 2741 2882 2914 
Q 3109 3088 3109 3444 
Q 3109 3797 2882 3972 
Q 2656 4147 2194 4147 
L 1259 4147 
z
M 628 4666 
L 2241 4666 
Q 2963 4666 3353 4366 
Q 3744 4066 3744 3513 
Q 3744 3084 3544 2831 
Q 3344 2578 2956 2516 
Q 3422 2416 3680 2098 
Q 3938 1781 3938 1306 
Q 3938 681 3513 340 
Q 3088 0 2303 0 
L 628 0 
L 628 4666 
z
" transform="scale(0.015625)"/>
     <path id="DejaVuSans-59" d="M -13 4666 
L 666 4666 
L 1959 2747 
L 3244 4666 
L 3922 4666 
L 2272 2222 
L 2272 0 
L 1638 0 
L 1638 2222 
L -13 4666 
z
" transform="scale(0.015625)"/>
    </defs>
    <use xlink:href="#DejaVuSans-43"/>
    <use xlink:href="#DejaVuSans-43" x="69.824219"/>
    <use xlink:href="#DejaVuSans-2d" x="139.648438"/>
    <use xlink:href="#DejaVuSans-42" x="172.107422"/>
    <use xlink:href="#DejaVuSans-59" x="235.210938"/>
    <use xlink:href="#DejaVuSans-2d" x="284.419922"/>
    <use xlink:href="#DejaVuSans-4e" x="320.503906"/>
    <use xlink:href="#DejaVuSans-43" x="395.308594"/>
   </g>
   <!-- whatisnuclear.com -->
   <g style="fill: #d3d3d3" transform="translate(442.840625 561)scale(0.1 -0.1)">
    <use xlink:href="#DejaVuSans-77"/>
    <use xlink:href="#DejaVuSans-68" x="81.787109"/>
    <use xlink:href="#DejaVuSans-61" x="145.166016"/>
    <use xlink:href="#DejaVuSans-74" x="206.445312"/>
    <use xlink:href="#DejaVuSans-69" x="245.654297"/>
    <use xlink:href="#DejaVuSans-73" x="273.4375"/>
    <use xlink:href="#DejaVuSans-6e" x="325.537109"/>
    <use xlink:href="#DejaVuSans-75" x="388.916016"/>
    <use xlink:href="#DejaVuSans-63" x="452.294922"/>
    <use xlink:href="#DejaVuSans-6c" x="507.275391"/>
    <use xlink:href="#DejaVuSans-65" x="535.058594"/>
    <use xlink:href="#DejaVuSans-61" x="596.582031"/>
    <use xlink:href="#DejaVuSans-72" x="657.861328"/>
    <use xlink:href="#DejaVuSans-2e" x="689.849609"/>
    <use xlink:href="#DejaVuSans-63" x="721.636719"/>
    <use xlink:href="#DejaVuSans-6f" x="776.617188"/>
    <use xlink:href="#DejaVuSans-6d" x="837.798828"/>
   </g>
  </g>
 </g>
 <defs>
  <clipPath id="p41483c248e">
   <rect x="72" y="28.8" width="215.665116" height="210.123119"/>
  </clipPath>
  <clipPath id="p9f482a58a7">
   <rect x="320.014884" y="28.8" width="215.665116" height="210.123119"/>
  </clipPath>
  <clipPath id="pfde4a29200">
   <rect x="72" y="279.476881" width="215.665116" height="210.123119"/>
  </clipPath>
  <clipPath id="p73f8938334">
   <rect x="320.014884" y="279.476881" width="215.665116" height="210.123119"/>
  </clipPath>
 </defs>
</svg>
