<?xml version="1.0" encoding="UTF-8"?>
<svg width="190.5mm" height="129.46mm" version="1.1" viewBox="0 0 190.5 129.46" xmlns="http://www.w3.org/2000/svg">
 <g transform="translate(-8.3547 -8.6385)">
  <g>
   <rect x="33.382" y="51.439" width="21.511" height="22.847" fill="#ff0" fill-rule="evenodd" stroke="#000" stroke-width=".94644"/>
   <g font-family="'Bitstream Vera Sans'" stroke-width=".26458">
    <text x="43.919319" y="57.275116" fill="#000000" font-size="5.5673px" text-align="center" text-anchor="middle" style="line-height:0%" xml:space="preserve"><tspan x="43.919319" y="57.275116" text-align="center" style="line-height:1.25">92p</tspan><tspan x="43.919319" y="64.234253" text-align="center" style="line-height:1.25">141n</tspan></text>
    <text x="37.034637" y="69.42617" fill="#0532b9" font-size="3.175px" style="line-height:0%" xml:space="preserve"><tspan x="37.034637" y="69.42617" fill="#0532b9" font-size="5.5673px" stroke-width=".26458" style="line-height:1.25">U-233</tspan></text>
    <text x="37.323448" y="72.715149" fill="#000000" font-size="3.175px" style="line-height:0%" xml:space="preserve"><tspan x="37.323448" y="72.715149" font-size="3.175px" stroke-width=".26458" style="line-height:1.25">1.6E5 yr</tspan></text>
   </g>
   <rect x="57.214" y="51.439" width="21.511" height="22.847" fill="#ff0" fill-rule="evenodd" stroke="#000" stroke-width=".94644"/>
   <g font-family="'Bitstream Vera Sans'" stroke-width=".26458">
    <text x="67.750854" y="57.275116" fill="#000000" font-size="5.5673px" text-align="center" text-anchor="middle" style="line-height:0%" xml:space="preserve"><tspan x="67.750854" y="57.275116" text-align="center" style="line-height:1.25">92p</tspan><tspan x="67.750854" y="64.234253" text-align="center" style="line-height:1.25">142n</tspan></text>
    <text x="60.8041" y="69.42617" fill="#0532b9" font-size="3.175px" style="line-height:0%" xml:space="preserve"><tspan x="60.8041" y="69.42617" fill="#0532b9" font-size="5.5673px" stroke-width=".26458" style="line-height:1.25">U-234</tspan></text>
    <text x="63.30365" y="72.715149" fill="#000000" font-size="3.175px" style="line-height:0%" xml:space="preserve"><tspan x="63.30365" y="72.715149" font-size="3.175px" stroke-width=".26458" style="line-height:1.25"> </tspan></text>
   </g>
   <rect x="81.045" y="51.439" width="21.511" height="22.847" fill="#b3b3b3" fill-rule="evenodd" stroke="#000" stroke-width=".94644"/>
   <g font-family="'Bitstream Vera Sans'" stroke-width=".26458">
    <text x="91.582405" y="57.275116" fill="#000000" font-size="5.5673px" text-align="center" text-anchor="middle" style="line-height:0%" xml:space="preserve"><tspan x="91.582405" y="57.275116" text-align="center" style="line-height:1.25">92p</tspan><tspan x="91.582405" y="64.234253" text-align="center" style="line-height:1.25">143n</tspan></text>
    <text x="84.727165" y="69.42617" fill="#0532b9" font-size="3.175px" style="line-height:0%" xml:space="preserve"><tspan x="84.727165" y="69.42617" fill="#0532b9" font-size="5.5673px" stroke-width=".26458" style="line-height:1.25">U-235</tspan></text>
    <text x="85.030724" y="72.715149" fill="#000000" font-size="3.175px" style="line-height:0%" xml:space="preserve"><tspan x="85.030724" y="72.715149" font-size="3.175px" stroke-width=".26458" style="line-height:1.25">7.0E8 yr</tspan></text>
   </g>
   <rect x="104.88" y="51.439" width="21.511" height="22.847" fill="#ff0" fill-rule="evenodd" stroke="#000" stroke-width=".94644"/>
   <g font-family="'Bitstream Vera Sans'" stroke-width=".26458">
    <text x="115.41393" y="57.275116" fill="#000000" font-size="5.5673px" text-align="center" text-anchor="middle" style="line-height:0%" xml:space="preserve"><tspan x="115.41393" y="57.275116" text-align="center" style="line-height:1.25">92p</tspan><tspan x="115.41393" y="64.234253" text-align="center" style="line-height:1.25">144n</tspan></text>
    <text x="108.49528" y="69.42617" fill="#0532b9" font-size="3.175px" style="line-height:0%" xml:space="preserve"><tspan x="108.49528" y="69.42617" fill="#0532b9" font-size="5.5673px" stroke-width=".26458" style="line-height:1.25">U-236</tspan></text>
    <text x="109.98589" y="72.715149" fill="#000000" font-size="3.175px" style="line-height:0%" xml:space="preserve"><tspan x="109.98589" y="72.715149" font-size="3.175px" stroke-width=".26458" style="line-height:1.25">2.3E7 yr</tspan></text>
   </g>
   <rect x="128.71" y="51.439" width="21.511" height="22.847" fill="#ff0" fill-rule="evenodd" stroke="#000" stroke-width=".94644"/>
   <g font-family="'Bitstream Vera Sans'" stroke-width=".26458">
    <text x="139.24545" y="57.275116" fill="#000000" font-size="5.5673px" text-align="center" text-anchor="middle" style="line-height:0%" xml:space="preserve"><tspan x="139.24545" y="57.275116" text-align="center" style="line-height:1.25">92p</tspan><tspan x="139.24545" y="64.234253" text-align="center" style="line-height:1.25">145n</tspan></text>
    <text x="132.39386" y="69.42617" fill="#0532b9" font-size="3.175px" style="line-height:0%" xml:space="preserve"><tspan x="132.39386" y="69.42617" fill="#0532b9" font-size="5.5673px" stroke-width=".26458" style="line-height:1.25">U-237</tspan></text>
    <text x="133.68901" y="72.715149" fill="#000000" font-size="3.175px" style="line-height:0%" xml:space="preserve"><tspan x="133.68901" y="72.715149" font-size="3.175px" stroke-width=".26458" style="line-height:1.25">6.7 days</tspan></text>
   </g>
   <rect x="152.54" y="51.439" width="21.511" height="22.847" fill="#b3b3b3" fill-rule="evenodd" stroke="#000" stroke-width=".94644"/>
   <g font-family="'Bitstream Vera Sans'" stroke-width=".26458">
    <text x="163.077" y="57.275116" fill="#000000" font-size="5.5673px" text-align="center" text-anchor="middle" style="line-height:0%" xml:space="preserve"><tspan x="163.077" y="57.275116" text-align="center" style="line-height:1.25">92p</tspan><tspan x="163.077" y="64.234253" text-align="center" style="line-height:1.25">146n</tspan></text>
    <text x="156.18234" y="69.42617" fill="#0532b9" font-size="3.175px" style="line-height:0%" xml:space="preserve"><tspan x="156.18234" y="69.42617" fill="#0532b9" font-size="5.5673px" stroke-width=".26458" style="line-height:1.25">U-238</tspan></text>
    <text x="156.57802" y="72.715149" fill="#000000" font-size="3.175px" style="line-height:0%" xml:space="preserve"><tspan x="156.57802" y="72.715149" font-size="3.175px" stroke-width=".26458" style="line-height:1.25">4.5E9 yr</tspan></text>
   </g>
   <rect x="176.37" y="51.439" width="21.511" height="22.847" fill="#ff0" fill-rule="evenodd" stroke="#000" stroke-width=".94644"/>
   <g font-family="'Bitstream Vera Sans'" stroke-width=".26458">
    <text x="186.90852" y="57.275116" fill="#000000" font-size="5.5673px" text-align="center" text-anchor="middle" style="line-height:0%" xml:space="preserve"><tspan x="186.90852" y="57.275116" text-align="center" style="line-height:1.25">92p</tspan><tspan x="186.90852" y="64.234253" text-align="center" style="line-height:1.25">147n</tspan></text>
    <text x="180.02386" y="69.42617" fill="#0532b9" font-size="3.175px" style="line-height:0%" xml:space="preserve"><tspan x="180.02386" y="69.42617" fill="#0532b9" font-size="5.5673px" stroke-width=".26458" style="line-height:1.25">U-239</tspan></text>
    <text x="181.63551" y="72.715149" fill="#000000" font-size="3.175px" style="line-height:0%" xml:space="preserve"><tspan x="181.63551" y="72.715149" font-size="3.175px" stroke-width=".26458" style="line-height:1.25">23 mins</tspan></text>
   </g>
   <rect x="9.328" y="51.573" width="21.511" height="22.847" fill="#ff0" fill-rule="evenodd" stroke="#000" stroke-width=".94644"/>
  </g>
  <g fill="#000000" font-family="'Bitstream Vera Sans'" stroke-width=".26458">
   <text x="10.729074" y="58.452858" font-size="2.6458px" style="line-height:0%" xml:space="preserve"><tspan x="10.729074" y="58.452858" style="line-height:1.25">Many more</tspan><tspan x="10.729074" y="61.760147" style="line-height:1.25">unstable</tspan><tspan x="10.729074" y="65.067436" style="line-height:1.25">nuclides exist</tspan><tspan x="10.729074" y="68.374718" style="line-height:1.25">on each side</tspan></text>
   <text x="81.246826" y="39.422337" font-size="3.175px" style="line-height:0%" xml:space="preserve"><tspan x="81.246826" y="39.422337" style="line-height:1.25">0.7% of U found in</tspan><tspan x="81.246826" y="43.391087" style="line-height:1.25">nature is U-235</tspan></text>
   <text x="146.45883" y="39.422337" font-size="3.175px" style="line-height:0%" xml:space="preserve"><tspan x="146.45883" y="39.422337" style="line-height:1.25">99.3% of U found in</tspan><tspan x="146.45883" y="43.391087" style="line-height:1.25">nature is U-238</tspan></text>
   <text x="39.818291" y="39.422337" font-size="3.175px" style="line-height:0%" xml:space="preserve"><tspan x="39.818291" y="39.422337" style="line-height:1.25">Only tiny amounts </tspan><tspan x="39.818291" y="43.391087" style="line-height:1.25">(&lt;0.006%) of U found</tspan><tspan x="39.818291" y="47.359837" style="line-height:1.25"> in nature is U-234</tspan></text>
  </g>
  <g>
   <path transform="matrix(.16823 0 0 .16823 43.869 -73.183)" d="m335.37 776.59-4.5606-6.8065-5.4751 6.0951 0.88153-8.1456-8.1121 1.1498 5.9112-5.6732-6.9533-4.3335 8.1749-0.54633-2.541-7.7892 6.6135 4.8362 3.0603-7.6002 1.9576 7.9559 7.2296-3.855-3.6143 7.3528 8.0161 1.694-7.4951 3.3094 5.0518 6.4504-7.8688-2.2826z" fill="#ff0" stroke="#000" stroke-width="1.7"/>
   <path transform="matrix(.65941 0 0 .65941 -188.96 -407.78)" d="m335.37 776.59-4.5606-6.8065-5.4751 6.0951 0.88153-8.1456-8.1121 1.1498 5.9112-5.6732-6.9533-4.3335 8.1749-0.54633-2.541-7.7892 6.6135 4.8362 3.0603-7.6002 1.9576 7.9559 7.2296-3.855-3.6143 7.3528 8.0161 1.694-7.4951 3.3094 5.0518 6.4504-7.8688-2.2826z" fill="#ff0" stroke="#000" stroke-width="1.7"/>
   <text x="46.817558" y="84.292076" fill="#000000" font-family="'Bitstream Vera Sans'" font-size="4.2599px" stroke-width=".26458" style="line-height:0%" xml:space="preserve"><tspan x="46.817558" y="84.292076" style="line-height:1.25">When U-233 or U-235 nuclides absorb a neutron, they split</tspan><tspan x="46.817558" y="89.616913" style="line-height:1.25">immediately, releasing the power that we use for nuclear energy. </tspan><tspan x="46.817558" y="94.94175" style="line-height:1.25">These are called fissile nuclides. </tspan><tspan x="46.817558" y="100.26659" style="line-height:1.25"> </tspan><tspan x="46.817558" y="105.59142" style="line-height:1.25">Because it exists in nature, U-235 is the most common nuclear fuel. </tspan><tspan x="46.817558" y="110.91627" style="line-height:1.25"> </tspan><tspan x="46.817558" y="116.2411" style="line-height:1.25">U-233 can be produced in reactors from Thorium. Similarly, </tspan><tspan x="46.817558" y="121.56594" style="line-height:1.25">Plutonium-239 (also fissile) can be produced from U-238.</tspan><tspan x="46.817558" y="126.89078" style="line-height:1.25"> </tspan><tspan x="46.817558" y="132.21561" style="line-height:1.25">U-238 does not readily split when it absorbs a neutron. This </tspan><tspan x="46.817558" y="137.54045" style="line-height:1.25">necessitates enrichment </tspan></text>
   <text x="177.41527" y="91.059746" fill="#000000" font-family="'Bitstream Vera Sans'" font-size="3.175px" stroke-width=".26458" style="line-height:0%" xml:space="preserve"><tspan x="177.41527" y="91.059746" style="line-height:1.25"> </tspan><tspan x="177.41527" y="95.028496" style="line-height:1.25"> </tspan></text>
   <path transform="matrix(.16823 0 0 .16823 -3.7348 -72.968)" d="m335.37 776.59-4.5606-6.8065-5.4751 6.0951 0.88153-8.1456-8.1121 1.1498 5.9112-5.6732-6.9533-4.3335 8.1749-0.54633-2.541-7.7892 6.6135 4.8362 3.0603-7.6002 1.9576 7.9559 7.2296-3.855-3.6143 7.3528 8.0161 1.694-7.4951 3.3094 5.0518 6.4504-7.8688-2.2826z" fill="#ff0" stroke="#000" stroke-width="1.7"/>
   <text x="25.071648" y="67.005501" fill="#000000" font-family="'Bitstream Vera Sans'" font-size="3.175px" stroke-width=".26458" style="line-height:0%" xml:space="preserve"><tspan x="25.071648" y="67.005501" style="line-height:1.25"> </tspan><tspan x="25.071648" y="70.974251" style="line-height:1.25"> </tspan></text>
   <rect x="55.476" y="9.6118" width="21.511" height="22.847" fill="#ffc0c0" fill-rule="evenodd" stroke="#000" stroke-width=".94644"/>
   <g font-family="'Bitstream Vera Sans'" font-size="3.175px" stroke-width=".26458">
    <text x="62.791008" y="18.755188" fill="#000000" style="line-height:0%" xml:space="preserve"><tspan x="62.791008" y="18.755188" font-size="5.5673px" stroke-width=".26458" style="line-height:1.25">92</tspan></text>
    <text x="64.19371" y="27.33152" fill="#0532b9" style="line-height:0%" xml:space="preserve"><tspan x="64.19371" y="27.33152" fill="#0532b9" font-size="5.5673px" stroke-width=".26458" style="line-height:1.25">U</tspan></text>
    <text x="60.68885" y="31.545315" fill="#000000" style="line-height:0%" xml:space="preserve"><tspan x="60.68885" y="31.545315" font-size="3.175px" stroke-width=".26458" style="line-height:1.25">238.02</tspan></text>
   </g>
  </g>
  <path d="m55.273 34.933c-23.787-2.1382-47.574 4.2763-45.436 12.027" fill="none" stroke="#000" stroke-width=".26458px"/>
  <path d="m76.655 34.666c32.34-0.80181 120-6.4145 119.47 13.898" fill="none" stroke="#000" stroke-width=".26458px"/>
  <text x="62.265648" y="72.649895" fill="#000000" font-family="'Bitstream Vera Sans'" font-size="3.175px" stroke-width=".26458" style="line-height:0%" xml:space="preserve"><tspan x="62.265648" y="72.649895" font-size="3.175px" stroke-width=".26458" style="line-height:1.25">2.4E5 yr</tspan></text>
 </g>
</svg>
