<?xml version="1.0" encoding="UTF-8"?>
<svg width="433.54pt" height="328.92pt" version="1.1" viewBox="0 0 433.54 328.92" xmlns="http://www.w3.org/2000/svg" xmlns:xlink="http://www.w3.org/1999/xlink">
 <defs>
  <style type="text/css">*{stroke-linecap:butt;stroke-linejoin:round;}</style>
 </defs>
 <g transform="scale(.94084 .95175)">
  <path d="M 0,345.6 H 460.8 V 0 H 0 Z" fill="#fff"/>
 </g>
 <path d="m57.6 241.92h357.12v-207.36h-357.12z" fill="#fff"/>
 <path d="m73.833 241.92h9.2007v-188.93h-9.2007z" clip-path="url(#c)" fill="#a50026" stroke="#000"/>
 <path d="m100.12 241.92h9.2007v-170.5h-9.2007z" clip-path="url(#c)" fill="#a50026" stroke="#000"/>
 <path d="m126.41 241.92h9.2007v-112.9h-9.2007z" clip-path="url(#c)" fill="#a50026" stroke="#000"/>
 <path d="m152.7 241.92h9.2007v-52.992h-9.2007z" clip-path="url(#c)" fill="#a50026" stroke="#000"/>
 <path d="m178.98 241.92h9.2007v-11.059h-9.2007z" clip-path="url(#c)" fill="#f7fcb4" stroke="#000"/>
 <path d="m205.27 241.92h9.2007v-9.4464h-9.2007z" clip-path="url(#c)" fill="#dcf08f" stroke="#000"/>
 <path d="m231.56 241.92h9.2007v-8.7552h-9.2007z" clip-path="url(#c)" fill="#cfeb85" stroke="#000"/>
 <path d="m257.85 241.92h9.2007v-6.2208h-9.2007z" clip-path="url(#c)" fill="#93d168" stroke="#000"/>
 <path d="m284.14 241.92h9.2007v-5.5296h-9.2007z" clip-path="url(#c)" fill="#7fc866" stroke="#000"/>
 <path d="m310.42 241.92h9.2007v-3.9168h-9.2007z" clip-path="url(#c)" fill="#4eb15d" stroke="#000"/>
 <path d="m336.71 241.92h9.2007v-2.7648h-9.2007z" clip-path="url(#c)" fill="#279f53" stroke="#000"/>
 <path d="m363 241.92h9.2007v-2.7648h-9.2007z" clip-path="url(#c)" fill="#279f53" stroke="#000"/>
 <path d="m389.29 241.92h9.2007v-2.5344h-9.2007z" clip-path="url(#c)" fill="#219c52" stroke="#000"/>
 <defs>
  <path id="i" d="m0 0v3.5" stroke="#000" stroke-width=".8"/>
 </defs>
 <use x="78.433098" y="241.92" width="100%" height="100%" stroke="#000000" stroke-width=".8" xlink:href="#i"/>
 <defs>
  <path id="ae" d="m64.406 67.281v-10.391q-4.9844 4.6406-10.625 6.9219-5.6406 2.2969-11.984 2.2969-12.5 0-19.141-7.6406t-6.6406-22.094q0-14.406 6.6406-22.047t19.141-7.6406q6.3438 0 11.984 2.2969t10.625 6.9375v-10.312q-5.1719-3.5156-10.969-5.2812-5.7812-1.75-12.219-1.75-16.562 0-26.094 10.125-9.5156 10.141-9.5156 27.672 0 17.578 9.5156 27.703 9.5312 10.141 26.094 10.141 6.5312 0 12.312-1.7344 5.7969-1.7344 10.875-5.2031z"/>
  <path id="a" d="m30.609 48.391q-7.2188 0-11.422-5.6406t-4.2031-15.453 4.1719-15.453q4.1875-5.6406 11.453-5.6406 7.1875 0 11.375 5.6562 4.2031 5.6719 4.2031 15.438 0 9.7188-4.2031 15.406-4.1875 5.6875-11.375 5.6875zm0 7.6094q11.719 0 18.406-7.625 6.7031-7.6094 6.7031-21.078 0-13.422-6.7031-21.078-6.6875-7.6406-18.406-7.6406-11.766 0-18.438 7.6406-6.6562 7.6562-6.6562 21.078 0 13.469 6.6562 21.078 6.6719 7.625 18.438 7.625z"/>
  <path id="f" d="m34.281 27.484q-10.891 0-15.094-2.4844t-4.2031-8.5q0-4.7812 3.1562-7.5938 3.1562-2.7969 8.5625-2.7969 7.4844 0 12 5.2969t4.5156 14.078v2zm17.922 3.7188v-31.203h-8.9844v8.2969q-3.0781-4.9688-7.6719-7.3438t-11.234-2.375q-8.3906 0-13.359 4.7188-4.9531 4.7188-4.9531 12.625 0 9.2188 6.1719 13.906 6.1875 4.6875 18.438 4.6875h12.609v0.89062q0 6.2031-4.0781 9.5938t-11.453 3.3906q-4.6875 0-9.1406-1.125-4.4375-1.125-8.5312-3.375v8.3125q4.9219 1.9062 9.5625 2.8438 4.6406 0.95312 9.0312 0.95312 11.875 0 17.734-6.1562 5.8594-6.1406 5.8594-18.641z"/>
  <path id="k" d="m9.4219 75.984h8.9844v-75.984h-8.9844z"/>
 </defs>
 <g transform="matrix(.064279 -.076604 -.076604 -.064279 62.694 270.66)">
  <use width="100%" height="100%" xlink:href="#ae"/>
  <use x="69.824219" width="100%" height="100%" xlink:href="#a"/>
  <use x="131.00586" width="100%" height="100%" xlink:href="#f"/>
  <use x="192.28516" width="100%" height="100%" xlink:href="#k"/>
 </g>
 <use x="104.72092" y="241.92" width="100%" height="100%" stroke="#000000" stroke-width=".8" xlink:href="#i"/>
 <defs>
  <path id="ai" d="m19.672 34.812v-26.703h15.828q7.9531 0 11.781 3.2969 3.8438 3.2969 3.8438 10.078 0 6.8438-3.8438 10.078-3.8281 3.25-11.781 3.25zm0 29.984v-21.969h14.609q7.2188 0 10.75 2.7031 3.5469 2.7188 3.5469 8.2812 0 5.5156-3.5469 8.25-3.5312 2.7344-10.75 2.7344zm-9.8594 8.1094h25.203q11.281 0 17.375-4.6875 6.1094-4.6875 6.1094-13.328 0-6.7031-3.125-10.656t-9.1875-4.9219q7.2812-1.5625 11.312-6.5312 4.0312-4.9531 4.0312-12.375 0-9.7656-6.6406-15.094-6.6406-5.3125-18.906-5.3125h-26.172z"/>
  <path id="h" d="m9.4219 54.688h8.9844v-54.688h-8.9844zm0 21.297h8.9844v-11.391h-8.9844z"/>
  <path id="s" d="m52 44.188q3.375 6.0625 8.0625 8.9375t11.031 2.875q8.5469 0 13.188-5.9844 4.6406-5.9688 4.6406-17v-33.016h-9.0312v32.719q0 7.8594-2.7969 11.656-2.7812 3.8125-8.4844 3.8125-6.9844 0-11.047-4.6406-4.0469-4.625-4.0469-12.641v-30.906h-9.0312v32.719q0 7.9062-2.7812 11.688t-8.5938 3.7812q-6.8906 0-10.953-4.6562-4.0469-4.6562-4.0469-12.625v-30.906h-9.0312v54.688h9.0312v-8.5q3.0781 5.0312 7.375 7.4219t10.203 2.3906q5.9688 0 10.141-3.0312 4.1719-3.0156 6.1719-8.7812z"/>
  <path id="e" d="m44.281 53.078v-8.5q-3.7969 1.9531-7.9062 2.9219-4.0938 0.98438-8.5 0.98438-6.6875 0-10.031-2.0469t-3.3438-6.1562q0-3.125 2.3906-4.9062t9.625-3.3906l3.0781-0.6875q9.5625-2.0469 13.594-5.7812t4.0312-10.422q0-7.625-6.0312-12.078-6.0312-4.4375-16.578-4.4375-4.3906 0-9.1562 0.85938t-10.031 2.5625v9.2812q4.9844-2.5938 9.8125-3.8906 4.8281-1.2812 9.5781-1.2812 6.3438 0 9.75 2.1719 3.4219 2.1719 3.4219 6.125 0 3.6562-2.4688 5.6094-2.4531 1.9531-10.812 3.7656l-3.125 0.73438q-8.3438 1.75-12.062 5.3906-3.7031 3.6406-3.7031 9.9844 0 7.7188 5.4688 11.906 5.4688 4.2031 15.531 4.2031 4.9688 0 9.3594-0.73438 4.4062-0.71875 8.1094-2.1875z"/>
  <path id="m" d="m48.781 52.594v-8.4062q-3.8125 2.1094-7.6406 3.1562t-7.7344 1.0469q-8.75 0-13.594-5.5469-4.8281-5.5312-4.8281-15.547t4.8281-15.562q4.8438-5.5312 13.594-5.5312 3.9062 0 7.7344 1.0469t7.6406 3.1562v-8.3125q-3.7656-1.75-7.7969-2.625-4.0156-0.89062-8.5625-0.89062-12.359 0-19.641 7.7656-7.2656 7.7656-7.2656 20.953 0 13.375 7.3438 21.031 7.3594 7.6719 20.156 7.6719 4.1406 0 8.0938-0.85938 3.9531-0.84375 7.6719-2.5469z"/>
  <path id="p" d="m37.109 75.984v-7.4844h-8.5938q-4.8281 0-6.7188-1.9531-1.875-1.9531-1.875-7.0312v-4.8281h14.797v-6.9844h-14.797v-47.703h-9.0312v47.703h-8.5938v6.9844h8.5938v3.8125q0 9.125 4.25 13.297 4.25 4.1875 13.469 4.1875z"/>
  <path id="g" d="m41.109 46.297q-1.5156 0.875-3.2969 1.2812-1.7812 0.42188-3.9219 0.42188-7.625 0-11.703-4.9531t-4.0781-14.234v-28.812h-9.0312v54.688h9.0312v-8.5q2.8438 4.9844 7.375 7.3906 4.5469 2.4219 11.047 2.4219 0.92188 0 2.0469-0.125 1.125-0.10938 2.4844-0.35938z"/>
  <path id="j" d="m54.891 33.016v-33.016h-8.9844v32.719q0 7.7656-3.0312 11.609-3.0312 3.8594-9.0781 3.8594-7.2812 0-11.484-4.6406-4.2031-4.625-4.2031-12.641v-30.906h-9.0312v54.688h9.0312v-8.5q3.2344 4.9375 7.5938 7.375 4.375 2.4375 10.094 2.4375 9.4219 0 14.25-5.8281 4.8438-5.8281 4.8438-17.156z"/>
  <path id="t" d="m45.406 27.984q0 9.7656-4.0312 15.125-4.0156 5.375-11.297 5.375-7.2188 0-11.25-5.375-4.0312-5.3594-4.0312-15.125 0-9.7188 4.0312-15.094t11.25-5.375q7.2812 0 11.297 5.375 4.0312 5.375 4.0312 15.094zm8.9844-21.203q0-13.953-6.2031-20.766-6.1875-6.8125-18.984-6.8125-4.7344 0-8.9375 0.70312t-8.1562 2.1719v8.7344q3.9531-2.1406 7.8125-3.1562 3.8594-1.0312 7.8594-1.0312 8.8438 0 13.234 4.6094t4.3906 13.938v4.4531q-2.7812-4.8438-7.125-7.2344t-10.406-2.3906q-10.047 0-16.203 7.6562-6.1562 7.6719-6.1562 20.328 0 12.688 6.1562 20.344 6.1562 7.6719 16.203 7.6719 6.0625 0 10.406-2.3906t7.125-7.2188v8.2969h8.9844z"/>
 </defs>
 <g transform="matrix(.064279 -.076604 -.076604 -.064279 49.96 317.17)">
  <use width="100%" height="100%" xlink:href="#ai"/>
  <use x="68.603516" width="100%" height="100%" xlink:href="#h"/>
  <use x="96.386719" width="100%" height="100%" xlink:href="#a"/>
  <use x="157.56836" width="100%" height="100%" xlink:href="#s"/>
  <use x="254.98047" width="100%" height="100%" xlink:href="#f"/>
  <use x="316.25977" width="100%" height="100%" xlink:href="#e"/>
  <use x="368.35938" width="100%" height="100%" xlink:href="#e"/>
  <use x="420.45898" width="100%" height="100%" xlink:href="#DejaVuSans-32"/>
  <use x="452.24609" width="100%" height="100%" xlink:href="#m"/>
  <use x="507.22656" width="100%" height="100%" xlink:href="#a"/>
  <use x="568.4082" width="100%" height="100%" xlink:href="#p"/>
  <use x="603.61328" width="100%" height="100%" xlink:href="#h"/>
  <use x="631.39648" width="100%" height="100%" xlink:href="#g"/>
  <use x="672.50977" width="100%" height="100%" xlink:href="#h"/>
  <use x="700.29297" width="100%" height="100%" xlink:href="#j"/>
  <use x="763.67188" width="100%" height="100%" xlink:href="#t"/>
 </g>
 <use x="131.00873" y="241.92" width="100%" height="100%" stroke="#000000" stroke-width=".8" xlink:href="#i"/>
 <defs>
  <path id="ad" d="m9.8125 72.906h13.281l32.328-60.984v60.984h9.5625v-72.906h-13.281l-32.312 60.984v-60.984h-9.5781z"/>
  <path id="n" d="m18.312 70.219v-15.531h18.5v-6.9844h-18.5v-29.688q0-6.6875 1.8281-8.5938t7.4531-1.9062h9.2188v-7.5156h-9.2188q-10.406 0-14.359 3.875-3.9531 3.8906-3.9531 14.141v29.688h-6.5938v6.9844h6.5938v15.531z"/>
  <path id="x" d="m8.5 21.578v33.109h8.9844v-32.766q0-7.7656 3.0156-11.656 3.0312-3.875 9.0938-3.875 7.2656 0 11.484 4.6406 4.2344 4.6406 4.2344 12.656v31h8.9844v-54.688h-8.9844v8.4062q-3.2656-4.9844-7.5938-7.4062-4.3125-2.4219-10.031-2.4219-9.4219 0-14.312 5.8594-4.875 5.8594-4.875 17.141z"/>
 </defs>
 <g transform="matrix(.064279 -.076604 -.076604 -.064279 92.296 298.04)">
  <use width="100%" height="100%" xlink:href="#ad"/>
  <use x="74.804688" width="100%" height="100%" xlink:href="#f"/>
  <use x="136.08398" width="100%" height="100%" xlink:href="#n"/>
  <use x="175.29297" width="100%" height="100%" xlink:href="#x"/>
  <use x="238.67188" width="100%" height="100%" xlink:href="#g"/>
  <use x="279.78516" width="100%" height="100%" xlink:href="#f"/>
  <use x="341.06445" width="100%" height="100%" xlink:href="#k"/>
  <use x="368.84766" width="100%" height="100%" xlink:href="#DejaVuSans-32"/>
  <use x="400.63477" width="100%" height="100%" xlink:href="#t"/>
  <use x="464.11133" width="100%" height="100%" xlink:href="#f"/>
  <use x="525.39062" width="100%" height="100%" xlink:href="#e"/>
 </g>
 <use x="157.29655" y="241.92" width="100%" height="100%" stroke="#000000" stroke-width=".8" xlink:href="#i"/>
 <defs>
  <path id="q" d="m45.406 46.391v29.594h8.9844v-75.984h-8.9844v8.2031q-2.8281-4.875-7.1562-7.25-4.3125-2.375-10.375-2.375-9.9062 0-16.141 7.9062-6.2188 7.9219-6.2188 20.812t6.2188 20.797q6.2344 7.9062 16.141 7.9062 6.0625 0 10.375-2.375 4.3281-2.3594 7.1562-7.2344zm-30.609-19.094q0-9.9062 4.0781-15.547t11.203-5.6406 11.219 5.6406q4.1094 5.6406 4.1094 15.547t-4.1094 15.547q-4.0938 5.6406-11.219 5.6406t-11.203-5.6406-4.0781-15.547z"/>
  <path id="b" d="m56.203 29.594v-4.3906h-41.312q0.59375-9.2812 5.5938-14.141t13.938-4.8594q5.1719 0 10.031 1.2656t9.6562 3.8125v-8.5q-4.8438-2.0469-9.9219-3.125t-10.297-1.0781q-13.094 0-20.734 7.6094-7.6406 7.625-7.6406 20.625 0 13.422 7.25 21.297 7.25 7.8906 19.562 7.8906 11.031 0 17.453-7.1094 6.4219-7.0938 6.4219-19.297zm-8.9844 2.6406q-0.09375 7.3594-4.125 11.75-4.0312 4.4062-10.672 4.4062-7.5156 0-12.031-4.25t-5.2031-11.969z"/>
 </defs>
 <g transform="matrix(.064279 -.076604 -.076604 -.064279 94.703 326.5)">
  <use width="100%" height="100%" xlink:href="#ai"/>
  <use x="68.603516" width="100%" height="100%" xlink:href="#h"/>
  <use x="96.386719" width="100%" height="100%" xlink:href="#a"/>
  <use x="157.56836" width="100%" height="100%" xlink:href="#s"/>
  <use x="254.98047" width="100%" height="100%" xlink:href="#f"/>
  <use x="316.25977" width="100%" height="100%" xlink:href="#e"/>
  <use x="368.35938" width="100%" height="100%" xlink:href="#e"/>
  <use x="420.45898" width="100%" height="100%" xlink:href="#DejaVuSans-32"/>
  <use x="452.24609" width="100%" height="100%" xlink:href="#q"/>
  <use x="515.72266" width="100%" height="100%" xlink:href="#b"/>
  <use x="577.24609" width="100%" height="100%" xlink:href="#q"/>
  <use x="640.72266" width="100%" height="100%" xlink:href="#h"/>
  <use x="668.50586" width="100%" height="100%" xlink:href="#m"/>
  <use x="723.48633" width="100%" height="100%" xlink:href="#f"/>
  <use x="784.76562" width="100%" height="100%" xlink:href="#n"/>
  <use x="823.97461" width="100%" height="100%" xlink:href="#b"/>
  <use x="885.49805" width="100%" height="100%" xlink:href="#q"/>
 </g>
 <use x="183.58437" y="241.92" width="100%" height="100%" stroke="#000000" stroke-width=".8" xlink:href="#i"/>
 <defs>
  <path id="ag" d="m53.516 70.516v-9.625q-5.6094 2.6875-10.594 4-4.9844 1.3281-9.625 1.3281-8.0469 0-12.422-3.125t-4.375-8.8906q0-4.8438 2.9062-7.3125 2.9062-2.4531 11.016-3.9688l5.9531-1.2188q11.031-2.1094 16.281-7.4062t5.25-14.172q0-10.609-7.1094-16.078-7.0938-5.4688-20.812-5.4688-5.1719 0-11.016 1.1719-5.8281 1.1719-12.078 3.4688v10.156q6-3.3594 11.766-5.0781 5.7656-1.7031 11.328-1.7031 8.4375 0 13.031 3.3125 4.5938 3.3281 4.5938 9.4844 0 5.3594-3.2969 8.3906t-10.812 4.5469l-6.0156 1.1719q-11.031 2.1875-15.969 6.875-4.9219 4.6875-4.9219 13.047 0 9.6719 6.8125 15.234t18.766 5.5625q5.1406 0 10.453-0.9375 5.3281-0.92188 10.891-2.7656z"/>
  <path id="ab" d="m18.109 8.2031v-29h-9.0312v75.484h9.0312v-8.2969q2.8438 4.875 7.1562 7.2344 4.3281 2.375 10.328 2.375 9.9688 0 16.188-7.9062 6.2344-7.9062 6.2344-20.797t-6.2344-20.812q-6.2188-7.9062-16.188-7.9062-6 0-10.328 2.375-4.3125 2.375-7.1562 7.25zm30.578 19.094q0 9.9062-4.0781 15.547t-11.203 5.6406q-7.1406 0-11.219-5.6406t-4.0781-15.547 4.0781-15.547 11.219-5.6406q7.125 0 11.203 5.6406t4.0781 15.547z"/>
  <path id="al" d="m2.9844 54.688h9.5156l17.094-45.891 17.094 45.891h9.5156l-20.516-54.688h-12.203z"/>
  <path id="w" d="m32.172-5.0781q-3.7969-9.7656-7.4219-12.734-3.6094-2.9844-9.6562-2.9844h-7.1875v7.5156h5.2812q3.7031 0 5.75 1.7656 2.0625 1.75 4.5469 8.2969l1.6094 4.0938-22.109 53.812h9.5156l17.094-42.766 17.094 42.766h9.5156z"/>
 </defs>
 <g transform="matrix(.064279 -.076604 -.076604 -.064279 135.36 309.37)">
  <use width="100%" height="100%" xlink:href="#ag"/>
  <use x="63.476562" width="100%" height="100%" xlink:href="#a"/>
  <use x="124.6582" width="100%" height="100%" xlink:href="#k"/>
  <use x="152.44141" width="100%" height="100%" xlink:href="#f"/>
  <use x="213.7207" width="100%" height="100%" xlink:href="#g"/>
  <use x="254.83398" width="100%" height="100%" xlink:href="#DejaVuSans-32"/>
  <use x="286.62109" width="100%" height="100%" xlink:href="#ab"/>
  <use x="350.09766" width="100%" height="100%" xlink:href="#al"/>
  <use x="409.27734" width="100%" height="100%" xlink:href="#DejaVuSans-32"/>
  <use x="441.06445" width="100%" height="100%" xlink:href="#x"/>
  <use x="504.44336" width="100%" height="100%" xlink:href="#n"/>
  <use x="543.65234" width="100%" height="100%" xlink:href="#h"/>
  <use x="571.43555" width="100%" height="100%" xlink:href="#k"/>
  <use x="599.21875" width="100%" height="100%" xlink:href="#h"/>
  <use x="627.00195" width="100%" height="100%" xlink:href="#n"/>
  <use x="666.21094" width="100%" height="100%" xlink:href="#w"/>
 </g>
 <use x="209.87218" y="241.92" width="100%" height="100%" stroke="#000000" stroke-width=".8" xlink:href="#i"/>
 <g transform="matrix(.064279 -.076604 -.076604 -.064279 156.63 315.36)">
  <use width="100%" height="100%" xlink:href="#ag"/>
  <use x="63.476562" width="100%" height="100%" xlink:href="#a"/>
  <use x="124.6582" width="100%" height="100%" xlink:href="#k"/>
  <use x="152.44141" width="100%" height="100%" xlink:href="#f"/>
  <use x="213.7207" width="100%" height="100%" xlink:href="#g"/>
  <use x="254.83398" width="100%" height="100%" xlink:href="#DejaVuSans-32"/>
  <use x="286.62109" width="100%" height="100%" xlink:href="#ab"/>
  <use x="350.09766" width="100%" height="100%" xlink:href="#al"/>
  <use x="409.27734" width="100%" height="100%" xlink:href="#DejaVuSans-32"/>
  <use x="441.06445" width="100%" height="100%" xlink:href="#g"/>
  <use x="482.14648" width="100%" height="100%" xlink:href="#a"/>
  <use x="543.32812" width="100%" height="100%" xlink:href="#a"/>
  <use x="604.50977" width="100%" height="100%" xlink:href="#p"/>
  <use x="639.69922" width="100%" height="100%" xlink:href="#n"/>
  <use x="678.9082" width="100%" height="100%" xlink:href="#a"/>
  <use x="740.08984" width="100%" height="100%" xlink:href="#ab"/>
 </g>
 <use x="236.16" y="241.92" width="100%" height="100%" stroke="#000000" stroke-width=".8" xlink:href="#i"/>
 <defs>
  <path id="ar" d="m59.516 10.406v19.578h-16.109v8.1094h25.875v-31.312q-5.7031-4.0469-12.594-6.125-6.875-2.0781-14.688-2.0781-17.094 0-26.75 9.9844-9.6406 10-9.6406 27.812 0 17.875 9.6406 27.859 9.6562 9.9844 26.75 9.9844 7.125 0 13.547-1.7656 6.4219-1.75 11.844-5.1719v-10.5q-5.4688 4.6406-11.625 6.9844t-12.938 2.3438q-13.391 0-20.109-7.4688-6.7031-7.4688-6.7031-22.266 0-14.75 6.7031-22.219 6.7188-7.4688 20.109-7.4688 5.2188 0 9.3125 0.90625 4.1094 0.90625 7.375 2.8125z"/>
  <path id="v" d="m54.891 33.016v-33.016h-8.9844v32.719q0 7.7656-3.0312 11.609-3.0312 3.8594-9.0781 3.8594-7.2812 0-11.484-4.6406-4.2031-4.625-4.2031-12.641v-30.906h-9.0312v75.984h9.0312v-29.797q3.2344 4.9375 7.5938 7.375 4.375 2.4375 10.094 2.4375 9.4219 0 14.25-5.8281 4.8438-5.8281 4.8438-17.156z"/>
 </defs>
 <g transform="matrix(.064279 -.076604 -.076604 -.064279 196.52 299.14)">
  <use width="100%" height="100%" xlink:href="#ar"/>
  <use x="77.490234" width="100%" height="100%" xlink:href="#b"/>
  <use x="139.01367" width="100%" height="100%" xlink:href="#a"/>
  <use x="200.19531" width="100%" height="100%" xlink:href="#n"/>
  <use x="239.4043" width="100%" height="100%" xlink:href="#v"/>
  <use x="302.7832" width="100%" height="100%" xlink:href="#b"/>
  <use x="364.30664" width="100%" height="100%" xlink:href="#g"/>
  <use x="405.4043" width="100%" height="100%" xlink:href="#s"/>
  <use x="502.81641" width="100%" height="100%" xlink:href="#f"/>
  <use x="564.0957" width="100%" height="100%" xlink:href="#k"/>
 </g>
 <use x="262.44781" y="241.92" width="100%" height="100%" stroke="#000000" stroke-width=".8" xlink:href="#i"/>
 <g transform="matrix(.064279 -.076604 -.076604 -.064279 199.45 326.99)">
  <use width="100%" height="100%" xlink:href="#ae"/>
  <use x="69.824219" width="100%" height="100%" xlink:href="#a"/>
  <use x="131.00586" width="100%" height="100%" xlink:href="#j"/>
  <use x="194.38477" width="100%" height="100%" xlink:href="#m"/>
  <use x="249.36523" width="100%" height="100%" xlink:href="#b"/>
  <use x="310.88867" width="100%" height="100%" xlink:href="#j"/>
  <use x="374.26758" width="100%" height="100%" xlink:href="#n"/>
  <use x="413.47656" width="100%" height="100%" xlink:href="#g"/>
  <use x="454.58984" width="100%" height="100%" xlink:href="#f"/>
  <use x="515.86914" width="100%" height="100%" xlink:href="#n"/>
  <use x="555.07812" width="100%" height="100%" xlink:href="#b"/>
  <use x="616.60156" width="100%" height="100%" xlink:href="#q"/>
  <use x="680.07812" width="100%" height="100%" xlink:href="#DejaVuSans-32"/>
  <use x="711.86523" width="100%" height="100%" xlink:href="#e"/>
  <use x="763.96484" width="100%" height="100%" xlink:href="#a"/>
  <use x="825.14648" width="100%" height="100%" xlink:href="#k"/>
  <use x="852.92969" width="100%" height="100%" xlink:href="#f"/>
  <use x="914.20898" width="100%" height="100%" xlink:href="#g"/>
 </g>
 <use x="288.73563" y="241.92" width="100%" height="100%" stroke="#000000" stroke-width=".8" xlink:href="#i"/>
 <defs>
  <path id="aq" d="m9.8125 72.906h9.8594v-29.891h35.844v29.891h9.8594v-72.906h-9.8594v34.719h-35.844v-34.719h-9.8594z"/>
  <path id="aa" d="m4.2031 54.688h8.9844l11.234-42.672 11.172 42.672h10.594l11.234-42.672 11.188 42.672h8.9844l-14.312-54.688h-10.594l-11.766 44.828-11.812-44.828h-10.609z"/>
 </defs>
 <g transform="matrix(.064279 -.076604 -.076604 -.064279 247.98 300.47)">
  <use width="100%" height="100%" xlink:href="#aq"/>
  <use x="75.195312" width="100%" height="100%" xlink:href="#w"/>
  <use x="134.375" width="100%" height="100%" xlink:href="#q"/>
  <use x="197.85156" width="100%" height="100%" xlink:href="#g"/>
  <use x="238.93359" width="100%" height="100%" xlink:href="#a"/>
  <use x="300.11523" width="100%" height="100%" xlink:href="#ab"/>
  <use x="363.5918" width="100%" height="100%" xlink:href="#a"/>
  <use x="424.77344" width="100%" height="100%" xlink:href="#aa"/>
  <use x="506.56055" width="100%" height="100%" xlink:href="#b"/>
  <use x="568.08398" width="100%" height="100%" xlink:href="#g"/>
 </g>
 <use x="315.02344" y="241.92" width="100%" height="100%" stroke="#000000" stroke-width=".8" xlink:href="#i"/>
 <defs>
  <path id="ao" d="m-0.29688 72.906h61.672v-8.3125h-25.875v-64.594h-9.9062v64.594h-25.891z"/>
 </defs>
 <g transform="matrix(.064279 -.076604 -.076604 -.064279 297.92 272.29)">
  <use width="100%" height="100%" xlink:href="#ao"/>
  <use x="61.037109" width="100%" height="100%" xlink:href="#h"/>
  <use x="88.820312" width="100%" height="100%" xlink:href="#q"/>
  <use x="152.29688" width="100%" height="100%" xlink:href="#f"/>
  <use x="213.57617" width="100%" height="100%" xlink:href="#k"/>
 </g>
 <use x="341.31128" y="241.92" width="100%" height="100%" stroke="#000000" stroke-width=".8" xlink:href="#i"/>
 <defs>
  <path id="ac" d="m3.3281 72.906h9.9531l15.328-61.625 15.281 61.625h11.094l15.328-61.625 15.281 61.625h10.016l-18.312-72.906h-12.406l-15.375 63.281-15.531-63.281h-12.406z"/>
 </defs>
 <g transform="matrix(.064279 -.076604 -.076604 -.064279 294.97 307.13)">
  <use width="100%" height="100%" xlink:href="#ac"/>
  <use x="98.845703" width="100%" height="100%" xlink:href="#h"/>
  <use x="126.62891" width="100%" height="100%" xlink:href="#j"/>
  <use x="190.00781" width="100%" height="100%" xlink:href="#q"/>
  <use x="253.48438" width="100%" height="100%" xlink:href="#DejaVuSans-32"/>
  <use x="285.27148" width="100%" height="100%" xlink:href="#a"/>
  <use x="346.45312" width="100%" height="100%" xlink:href="#p"/>
  <use x="381.6582" width="100%" height="100%" xlink:href="#p"/>
  <use x="416.86328" width="100%" height="100%" xlink:href="#e"/>
  <use x="468.96289" width="100%" height="100%" xlink:href="#v"/>
  <use x="532.3418" width="100%" height="100%" xlink:href="#a"/>
  <use x="593.52344" width="100%" height="100%" xlink:href="#g"/>
  <use x="634.60547" width="100%" height="100%" xlink:href="#b"/>
 </g>
 <use x="367.59909" y="241.92" width="100%" height="100%" stroke="#000000" stroke-width=".8" xlink:href="#i"/>
 <g transform="matrix(.064279 -.076604 -.076604 -.064279 341.27 283.29)">
  <use width="100%" height="100%" xlink:href="#ad"/>
  <use x="74.804688" width="100%" height="100%" xlink:href="#x"/>
  <use x="138.18359" width="100%" height="100%" xlink:href="#m"/>
  <use x="193.16406" width="100%" height="100%" xlink:href="#k"/>
  <use x="220.94727" width="100%" height="100%" xlink:href="#b"/>
  <use x="282.4707" width="100%" height="100%" xlink:href="#f"/>
  <use x="343.75" width="100%" height="100%" xlink:href="#g"/>
 </g>
 <use x="393.8869" y="241.92" width="100%" height="100%" stroke="#000000" stroke-width=".8" xlink:href="#i"/>
 <g transform="matrix(.064279 -.076604 -.076604 -.064279 348 306.59)">
  <use width="100%" height="100%" xlink:href="#ac"/>
  <use x="98.845703" width="100%" height="100%" xlink:href="#h"/>
  <use x="126.62891" width="100%" height="100%" xlink:href="#j"/>
  <use x="190.00781" width="100%" height="100%" xlink:href="#q"/>
  <use x="253.48438" width="100%" height="100%" xlink:href="#DejaVuSans-32"/>
  <use x="285.27148" width="100%" height="100%" xlink:href="#a"/>
  <use x="346.45312" width="100%" height="100%" xlink:href="#j"/>
  <use x="409.83203" width="100%" height="100%" xlink:href="#e"/>
  <use x="461.93164" width="100%" height="100%" xlink:href="#v"/>
  <use x="525.31055" width="100%" height="100%" xlink:href="#a"/>
  <use x="586.49219" width="100%" height="100%" xlink:href="#g"/>
  <use x="627.57422" width="100%" height="100%" xlink:href="#b"/>
 </g>
 <path d="m57.6 241.92h357.12" clip-path="url(#c)" fill="none" stroke="#b0b0b0" stroke-dasharray="2.96, 1.28" stroke-opacity=".7" stroke-width=".8"/>
 <defs>
  <path id="l" d="m0 0h-3.5" stroke="#000" stroke-width=".8"/>
 </defs>
 <use x="57.599998" y="241.92" width="100%" height="100%" stroke="#000000" stroke-width=".8" xlink:href="#l"/>
 <defs>
  <path id="d" d="m31.781 66.406q-7.6094 0-11.453-7.5-3.8281-7.4844-3.8281-22.531 0-14.984 3.8281-22.484 3.8438-7.5 11.453-7.5 7.6719 0 11.5 7.5 3.8438 7.5 3.8438 22.484 0 15.047-3.8438 22.531-3.8281 7.5-11.5 7.5zm0 7.8125q12.266 0 18.734-9.7031 6.4688-9.6875 6.4688-28.141 0-18.406-6.4688-28.109-6.4688-9.6875-18.734-9.6875-12.25 0-18.719 9.6875-6.4688 9.7031-6.4688 28.109 0 18.453 6.4688 28.141 6.4688 9.7031 18.719 9.7031z"/>
 </defs>
 <g transform="matrix(.1 0 0 -.1 44.238 245.72)">
  <use width="100%" height="100%" xlink:href="#d"/>
 </g>
 <path d="m57.6 218.88h357.12" clip-path="url(#c)" fill="none" stroke="#b0b0b0" stroke-dasharray="2.96, 1.28" stroke-opacity=".7" stroke-width=".8"/>
 <use x="57.599998" y="218.88" width="100%" height="100%" stroke="#000000" stroke-width=".8" xlink:href="#l"/>
 <defs>
  <path id="r" d="m12.406 8.2969h16.109v55.625l-17.531-3.5156v8.9844l17.438 3.5156h9.8594v-64.609h16.109v-8.2969h-41.984z"/>
 </defs>
 <g transform="matrix(.1 0 0 -.1 31.512 222.68)">
  <use width="100%" height="100%" xlink:href="#r"/>
  <use x="63.623047" width="100%" height="100%" xlink:href="#d"/>
  <use x="127.24609" width="100%" height="100%" xlink:href="#d"/>
 </g>
 <path d="m57.6 195.84h357.12" clip-path="url(#c)" fill="none" stroke="#b0b0b0" stroke-dasharray="2.96, 1.28" stroke-opacity=".7" stroke-width=".8"/>
 <use x="57.599998" y="195.84" width="100%" height="100%" stroke="#000000" stroke-width=".8" xlink:href="#l"/>
 <defs>
  <path id="o" d="m19.188 8.2969h34.422v-8.2969h-46.281v8.2969q5.6094 5.8125 15.297 15.594 9.7031 9.7969 12.188 12.641 4.7344 5.3125 6.6094 9 1.8906 3.6875 1.8906 7.25 0 5.8125-4.0781 9.4688-4.0781 3.6719-10.625 3.6719-4.6406 0-9.7969-1.6094-5.1406-1.6094-11-4.8906v9.9688q5.9531 2.3906 11.125 3.6094 5.1875 1.2188 9.4844 1.2188 11.328 0 18.062-5.6719 6.7344-5.6562 6.7344-15.125 0-4.5-1.6875-8.5312-1.6719-4.0156-6.125-9.4844-1.2188-1.4219-7.7656-8.1875-6.5312-6.7656-18.453-18.922z"/>
 </defs>
 <g transform="matrix(.1 0 0 -.1 31.512 199.64)">
  <use width="100%" height="100%" xlink:href="#o"/>
  <use x="63.623047" width="100%" height="100%" xlink:href="#d"/>
  <use x="127.24609" width="100%" height="100%" xlink:href="#d"/>
 </g>
 <path d="m57.6 172.8h357.12" clip-path="url(#c)" fill="none" stroke="#b0b0b0" stroke-dasharray="2.96, 1.28" stroke-opacity=".7" stroke-width=".8"/>
 <use x="57.599998" y="172.8" width="100%" height="100%" stroke="#000000" stroke-width=".8" xlink:href="#l"/>
 <defs>
  <path id="af" d="m40.578 39.312q7.0781-1.5156 11.047-6.3125 3.9844-4.7812 3.9844-11.812 0-10.781-7.4219-16.703-7.4219-5.9062-21.094-5.9062-4.5781 0-9.4375 0.90625t-10.031 2.7188v9.5156q4.0938-2.3906 8.9688-3.6094 4.8906-1.2188 10.219-1.2188 9.2656 0 14.125 3.6562t4.8594 10.641q0 6.4531-4.5156 10.078-4.5156 3.6406-12.562 3.6406h-8.5v8.1094h8.8906q7.2656 0 11.125 2.9062t3.8594 8.375q0 5.6094-3.9844 8.6094-3.9688 3.0156-11.391 3.0156-4.0625 0-8.7031-0.89062-4.6406-0.875-10.203-2.7188v8.7812q5.625 1.5625 10.531 2.3438t9.25 0.78125q11.234 0 17.766-5.1094 6.5469-5.0938 6.5469-13.781 0-6.0625-3.4688-10.234t-9.8594-5.7812z"/>
 </defs>
 <g transform="matrix(.1 0 0 -.1 31.512 176.6)">
  <use width="100%" height="100%" xlink:href="#af"/>
  <use x="63.623047" width="100%" height="100%" xlink:href="#d"/>
  <use x="127.24609" width="100%" height="100%" xlink:href="#d"/>
 </g>
 <path d="m57.6 149.76h357.12" clip-path="url(#c)" fill="none" stroke="#b0b0b0" stroke-dasharray="2.96, 1.28" stroke-opacity=".7" stroke-width=".8"/>
 <use x="57.599998" y="149.75999" width="100%" height="100%" stroke="#000000" stroke-width=".8" xlink:href="#l"/>
 <defs>
  <path id="u" d="m37.797 64.312-24.906-38.922h24.906zm-2.5938 8.5938h12.406v-47.516h10.406v-8.2031h-10.406v-17.188h-9.8125v17.188h-32.906v9.5156z"/>
 </defs>
 <g transform="matrix(.1 0 0 -.1 31.512 153.56)">
  <use width="100%" height="100%" xlink:href="#u"/>
  <use x="63.623047" width="100%" height="100%" xlink:href="#d"/>
  <use x="127.24609" width="100%" height="100%" xlink:href="#d"/>
 </g>
 <path d="m57.6 126.72h357.12" clip-path="url(#c)" fill="none" stroke="#b0b0b0" stroke-dasharray="2.96, 1.28" stroke-opacity=".7" stroke-width=".8"/>
 <use x="57.599998" y="126.72" width="100%" height="100%" stroke="#000000" stroke-width=".8" xlink:href="#l"/>
 <defs>
  <path id="at" d="m10.797 72.906h38.719v-8.3125h-29.688v-17.859q2.1406 0.73438 4.2812 1.0938 2.1562 0.35938 4.3125 0.35938 12.203 0 19.328-6.6875 7.1406-6.6875 7.1406-18.109 0-11.766-7.3281-18.297-7.3281-6.5156-20.656-6.5156-4.5938 0-9.3594 0.78125-4.75 0.78125-9.8281 2.3438v9.9219q4.3906-2.3906 9.0781-3.5625t9.9062-1.1719q8.4531 0 13.375 4.4375 4.9375 4.4375 4.9375 12.062 0 7.6094-4.9375 12.047-4.9219 4.4531-13.375 4.4531-3.9531 0-7.8906-0.875-3.9219-0.875-8.0156-2.7344z"/>
 </defs>
 <g transform="matrix(.1 0 0 -.1 31.512 130.52)">
  <use width="100%" height="100%" xlink:href="#at"/>
  <use x="63.623047" width="100%" height="100%" xlink:href="#d"/>
  <use x="127.24609" width="100%" height="100%" xlink:href="#d"/>
 </g>
 <path d="m57.6 103.68h357.12" clip-path="url(#c)" fill="none" stroke="#b0b0b0" stroke-dasharray="2.96, 1.28" stroke-opacity=".7" stroke-width=".8"/>
 <use x="57.599998" y="103.68" width="100%" height="100%" stroke="#000000" stroke-width=".8" xlink:href="#l"/>
 <defs>
  <path id="as" d="m33.016 40.375q-6.6406 0-10.531-4.5469-3.875-4.5312-3.875-12.438 0-7.8594 3.875-12.438 3.8906-4.5625 10.531-4.5625t10.516 4.5625q3.875 4.5781 3.875 12.438 0 7.9062-3.875 12.438-3.875 4.5469-10.516 4.5469zm19.578 30.922v-8.9844q-3.7188 1.75-7.5 2.6719-3.7812 0.9375-7.5 0.9375-9.7656 0-14.922-6.5938-5.1406-6.5938-5.875-19.922 2.875 4.25 7.2188 6.5156 4.3594 2.2656 9.5781 2.2656 10.984 0 17.359-6.6719 6.375-6.6562 6.375-18.125 0-11.234-6.6406-18.031-6.6406-6.7812-17.672-6.7812-12.656 0-19.344 9.6875-6.6875 9.7031-6.6875 28.109 0 17.281 8.2031 27.562t22.016 10.281q3.7188 0 7.5-0.73438t7.8906-2.1875z"/>
 </defs>
 <g transform="matrix(.1 0 0 -.1 31.512 107.48)">
  <use width="100%" height="100%" xlink:href="#as"/>
  <use x="63.623047" width="100%" height="100%" xlink:href="#d"/>
  <use x="127.24609" width="100%" height="100%" xlink:href="#d"/>
 </g>
 <path d="m57.6 80.64h357.12" clip-path="url(#c)" fill="none" stroke="#b0b0b0" stroke-dasharray="2.96, 1.28" stroke-opacity=".7" stroke-width=".8"/>
 <use x="57.599998" y="80.639999" width="100%" height="100%" stroke="#000000" stroke-width=".8" xlink:href="#l"/>
 <defs>
  <path id="z" d="m8.2031 72.906h46.875v-4.2031l-26.469-68.703h-10.297l24.906 64.594h-35.016z"/>
 </defs>
 <g transform="matrix(.1 0 0 -.1 31.512 84.439)">
  <use width="100%" height="100%" xlink:href="#z"/>
  <use x="63.623047" width="100%" height="100%" xlink:href="#d"/>
  <use x="127.24609" width="100%" height="100%" xlink:href="#d"/>
 </g>
 <path d="m57.6 57.6h357.12" clip-path="url(#c)" fill="none" stroke="#b0b0b0" stroke-dasharray="2.96, 1.28" stroke-opacity=".7" stroke-width=".8"/>
 <use x="57.599998" y="57.599998" width="100%" height="100%" stroke="#000000" stroke-width=".8" xlink:href="#l"/>
 <defs>
  <path id="y" d="m31.781 34.625q-7.0312 0-11.062-3.7656-4.0156-3.7656-4.0156-10.344 0-6.5938 4.0156-10.359 4.0312-3.7656 11.062-3.7656t11.078 3.7812q4.0625 3.7969 4.0625 10.344 0 6.5781-4.0312 10.344-4.0156 3.7656-11.109 3.7656zm-9.8594 4.1875q-6.3438 1.5625-9.8906 5.9062-3.5312 4.3594-3.5312 10.609 0 8.7344 6.2188 13.812 6.2344 5.0781 17.062 5.0781 10.891 0 17.094-5.0781t6.2031-13.812q0-6.25-3.5469-10.609-3.5312-4.3438-9.8281-5.9062 7.125-1.6562 11.094-6.5 3.9844-4.8281 3.9844-11.797 0-10.609-6.4688-16.281-6.4688-5.6562-18.531-5.6562-12.047 0-18.531 5.6562-6.4688 5.6719-6.4688 16.281 0 6.9688 4 11.797 4.0156 4.8438 11.141 6.5zm-3.6094 15.578q0-5.6562 3.5312-8.8281 3.5469-3.1719 9.9375-3.1719 6.3594 0 9.9375 3.1719 3.5938 3.1719 3.5938 8.8281 0 5.6719-3.5938 8.8438-3.5781 3.1719-9.9375 3.1719-6.3906 0-9.9375-3.1719-3.5312-3.1719-3.5312-8.8438z"/>
 </defs>
 <g transform="matrix(.1 0 0 -.1 31.512 61.399)">
  <use width="100%" height="100%" xlink:href="#y"/>
  <use x="63.623047" width="100%" height="100%" xlink:href="#d"/>
  <use x="127.24609" width="100%" height="100%" xlink:href="#d"/>
 </g>
 <path d="m57.6 34.56h357.12" clip-path="url(#c)" fill="none" stroke="#b0b0b0" stroke-dasharray="2.96, 1.28" stroke-opacity=".7" stroke-width=".8"/>
 <use x="57.599998" y="34.560001" width="100%" height="100%" stroke="#000000" stroke-width=".8" xlink:href="#l"/>
 <defs>
  <path id="aj" d="m10.984 1.5156v8.9844q3.7188-1.7656 7.5156-2.6875 3.8125-0.92188 7.4844-0.92188 9.7656 0 14.906 6.5625 5.1562 6.5625 5.8906 19.953-2.8281-4.2031-7.1875-6.4531-4.3438-2.25-9.6094-2.25-10.938 0-17.312 6.6094-6.375 6.625-6.375 18.109 0 11.219 6.6406 18 6.6406 6.7969 17.672 6.7969 12.656 0 19.312-9.7031 6.6719-9.6875 6.6719-28.141 0-17.234-8.1875-27.516-8.1719-10.281-21.984-10.281-3.7188 0-7.5312 0.73438-3.7969 0.73438-7.9062 2.2031zm19.625 30.906q6.6406 0 10.516 4.5312 3.8906 4.5469 3.8906 12.469 0 7.8594-3.8906 12.422-3.875 4.5625-10.516 4.5625t-10.516-4.5625-3.875-12.422q0-7.9219 3.875-12.469 3.875-4.5312 10.516-4.5312z"/>
 </defs>
 <g transform="matrix(.1 0 0 -.1 31.512 38.359)">
  <use width="100%" height="100%" xlink:href="#aj"/>
  <use x="63.623047" width="100%" height="100%" xlink:href="#d"/>
  <use x="127.24609" width="100%" height="100%" xlink:href="#d"/>
 </g>
 <defs>
  <path id="ah" d="m9.8125 72.906h9.8594v-64.609h35.5v-8.2969h-45.359z"/>
  <path id="aw" d="m31 75.875q-6.5312-11.219-9.7188-22.219-3.1719-10.984-3.1719-22.266 0-11.266 3.2031-22.328t9.6875-22.25h-7.8125q-7.3125 11.484-10.953 22.562t-3.6406 22.016q0 10.891 3.6094 21.922 3.625 11.047 10.984 22.562z"/>
  <path id="ap" d="m39.406 66.219q-10.75 0-17.078-8.0156-6.3125-8-6.3125-21.828 0-13.766 6.3125-21.781 6.3281-8 17.078-8 10.734 0 17.016 8 6.2812 8.0156 6.2812 21.781 0 13.828-6.2812 21.828-6.2812 8.0156-17.016 8.0156zm0 8q15.328 0 24.5-10.281 9.1875-10.281 9.1875-27.562 0-17.234-9.1875-27.516-9.1719-10.281-24.5-10.281-15.375 0-24.594 10.25-9.2031 10.266-9.2031 27.547t9.2031 27.562q9.2188 10.281 24.594 10.281z"/>
  <path id="ak" d="m4.8906 31.391h26.312v-8h-26.312z"/>
  <path id="ax" d="m14.797 27.297q0-9.9062 4.0781-15.547t11.203-5.6406 11.219 5.6406q4.1094 5.6406 4.1094 15.547t-4.1094 15.547q-4.0938 5.6406-11.219 5.6406t-11.203-5.6406-4.0781-15.547zm30.609-19.094q-2.8281-4.875-7.1562-7.25-4.3125-2.375-10.375-2.375-9.9062 0-16.141 7.9062-6.2188 7.9219-6.2188 20.812t6.2188 20.797q6.2344 7.9062 16.141 7.9062 6.0625 0 10.375-2.375 4.3281-2.3594 7.1562-7.2344v8.2969h8.9844v-75.484h-8.9844z"/>
  <path id="au" d="m25.391 72.906h8.2969l-25.391-82.188h-8.2969z"/>
  <path id="am" d="m9.0781 75.984h9.0312v-44.875l26.812 23.578h11.469l-29-25.578 30.234-29.109h-11.719l-27.797 26.703v-26.703h-9.0312z"/>
  <path id="av" d="m8.0156 75.875h7.8125q7.3125-11.516 10.953-22.562 3.6406-11.031 3.6406-21.922 0-10.938-3.6406-22.016t-10.953-22.562h-7.8125q6.4844 11.188 9.6875 22.25t3.2031 22.328q0 11.281-3.2031 22.266-3.2031 11-9.6875 22.219z"/>
 </defs>
 <g transform="matrix(0 -.1 -.1 0 25.412 225.79)">
  <use transform="translate(0 .015625)" width="100%" height="100%" xlink:href="#ah"/>
  <use transform="translate(55.713 .015625)" width="100%" height="100%" xlink:href="#h"/>
  <use transform="translate(83.496 .015625)" width="100%" height="100%" xlink:href="#p"/>
  <use transform="translate(118.7 .015625)" width="100%" height="100%" xlink:href="#b"/>
  <use transform="translate(180.22 .015625)" width="100%" height="100%" xlink:href="#m"/>
  <use transform="translate(235.21 .015625)" width="100%" height="100%" xlink:href="#w"/>
  <use transform="translate(294.38 .015625)" width="100%" height="100%" xlink:href="#m"/>
  <use transform="translate(349.37 .015625)" width="100%" height="100%" xlink:href="#k"/>
  <use transform="translate(377.15 .015625)" width="100%" height="100%" xlink:href="#b"/>
  <use transform="translate(438.67 .015625)" width="100%" height="100%" xlink:href="#DejaVuSans-32"/>
  <use transform="translate(470.46 .015625)" width="100%" height="100%" xlink:href="#b"/>
  <use transform="translate(531.98 .015625)" width="100%" height="100%" xlink:href="#s"/>
  <use transform="translate(629.39 .015625)" width="100%" height="100%" xlink:href="#h"/>
  <use transform="translate(657.18 .015625)" width="100%" height="100%" xlink:href="#e"/>
  <use transform="translate(709.28 .015625)" width="100%" height="100%" xlink:href="#e"/>
  <use transform="translate(761.38 .015625)" width="100%" height="100%" xlink:href="#h"/>
  <use transform="translate(789.16 .015625)" width="100%" height="100%" xlink:href="#a"/>
  <use transform="translate(850.34 .015625)" width="100%" height="100%" xlink:href="#j"/>
  <use transform="translate(913.72 .015625)" width="100%" height="100%" xlink:href="#e"/>
  <use transform="translate(965.82 .015625)" width="100%" height="100%" xlink:href="#DejaVuSans-32"/>
  <use transform="translate(997.61 .015625)" width="100%" height="100%" xlink:href="#aw"/>
  <use transform="translate(1036.6 .015625)" width="100%" height="100%" xlink:href="#t"/>
  <use transform="translate(1100.1 .015625)" width="100%" height="100%" xlink:href="#ae"/>
  <use transform="translate(1169.9 .015625)" width="100%" height="100%" xlink:href="#ap"/>
  <use transform="matrix(.7 0 0 .7 1249.6 -16.391)" width="100%" height="100%" xlink:href="#o"/>
  <use transform="translate(1296.9 .015625)" width="100%" height="100%" xlink:href="#ak"/>
  <use transform="translate(1332.9 .015625)" width="100%" height="100%" xlink:href="#b"/>
  <use transform="translate(1394.5 .015625)" width="100%" height="100%" xlink:href="#ax"/>
  <use transform="translate(1457.9 .015625)" width="100%" height="100%" xlink:href="#au"/>
  <use transform="translate(1491.6 .015625)" width="100%" height="100%" xlink:href="#am"/>
  <use transform="translate(1549.5 .015625)" width="100%" height="100%" xlink:href="#ac"/>
  <use transform="translate(1648.4 .015625)" width="100%" height="100%" xlink:href="#v"/>
  <use transform="translate(1711.8 .015625)" width="100%" height="100%" xlink:href="#av"/>
 </g>
 <path d="m57.6 241.92v-207.36" fill="none" stroke="#000" stroke-linecap="square" stroke-width=".8"/>
 <path d="m414.72 241.92v-207.36" fill="none" stroke="#000" stroke-linecap="square" stroke-width=".8"/>
 <path d="m57.6 241.92h357.12" fill="none" stroke="#000" stroke-linecap="square" stroke-width=".8"/>
 <path d="m57.6 34.56h357.12" fill="none" stroke="#000" stroke-linecap="square" stroke-width=".8"/>
 <g transform="matrix(.06 0 0 -.06 72.707 48.744)">
  <use width="100%" height="100%" xlink:href="#y"/>
  <use x="63.623047" width="100%" height="100%" xlink:href="#o"/>
  <use x="127.24609" width="100%" height="100%" xlink:href="#d"/>
 </g>
 <g transform="matrix(.06 0 0 -.06 98.995 67.176)">
  <use width="100%" height="100%" xlink:href="#z"/>
  <use x="63.623047" width="100%" height="100%" xlink:href="#u"/>
  <use x="127.24609" width="100%" height="100%" xlink:href="#d"/>
 </g>
 <g transform="matrix(.06 0 0 -.06 125.28 124.78)">
  <use width="100%" height="100%" xlink:href="#u"/>
  <use x="63.623047" width="100%" height="100%" xlink:href="#aj"/>
  <use x="127.24609" width="100%" height="100%" xlink:href="#d"/>
 </g>
 <g transform="matrix(.06 0 0 -.06 151.57 184.68)">
  <use width="100%" height="100%" xlink:href="#o"/>
  <use x="63.623047" width="100%" height="100%" xlink:href="#af"/>
  <use x="127.24609" width="100%" height="100%" xlink:href="#d"/>
 </g>
 <g transform="matrix(.06 0 0 -.06 179.77 226.61)">
  <use width="100%" height="100%" xlink:href="#u"/>
  <use x="63.623047" width="100%" height="100%" xlink:href="#y"/>
 </g>
 <g transform="matrix(.06 0 0 -.06 206.05 228.23)">
  <use width="100%" height="100%" xlink:href="#u"/>
  <use x="63.623047" width="100%" height="100%" xlink:href="#r"/>
 </g>
 <g transform="matrix(.06 0 0 -.06 232.34 228.92)">
  <use width="100%" height="100%" xlink:href="#af"/>
  <use x="63.623047" width="100%" height="100%" xlink:href="#y"/>
 </g>
 <g transform="matrix(.06 0 0 -.06 258.63 231.45)">
  <use width="100%" height="100%" xlink:href="#o"/>
  <use x="63.623047" width="100%" height="100%" xlink:href="#z"/>
 </g>
 <g transform="matrix(.06 0 0 -.06 284.92 232.14)">
  <use width="100%" height="100%" xlink:href="#o"/>
  <use x="63.623047" width="100%" height="100%" xlink:href="#u"/>
 </g>
 <g transform="matrix(.06 0 0 -.06 311.21 233.76)">
  <use width="100%" height="100%" xlink:href="#r"/>
  <use x="63.623047" width="100%" height="100%" xlink:href="#z"/>
 </g>
 <g transform="matrix(.06 0 0 -.06 337.49 234.91)">
  <use width="100%" height="100%" xlink:href="#r"/>
  <use x="63.623047" width="100%" height="100%" xlink:href="#o"/>
 </g>
 <g transform="matrix(.06 0 0 -.06 363.78 234.91)">
  <use width="100%" height="100%" xlink:href="#r"/>
  <use x="63.623047" width="100%" height="100%" xlink:href="#o"/>
 </g>
 <g transform="matrix(.06 0 0 -.06 390.07 235.14)">
  <use width="100%" height="100%" xlink:href="#r"/>
  <use x="63.623047" width="100%" height="100%" xlink:href="#r"/>
 </g>
 <g stroke="#000" stroke-linecap="round">
  <path d="m321.84 150.86q31.569 29.361 44.838 71.958" fill="none"/>
  <path d="m367.55 217.52-0.8639 5.2966-3.7189-3.8691z" fill="#fff"/>
 </g>
 <path d="m213.75 147.76c1.8 1.8 148.17 1.8 149.97 0s1.8-40.288 0-42.088-148.17-1.8-149.97 0-1.8 40.288 0 42.088z" fill="#fff" stroke="#000"/>
 <g transform="matrix(.12 0 0 -.12 236.23 116.59)">
  <use width="100%" height="100%" xlink:href="#ad"/>
  <use x="74.804688" width="100%" height="100%" xlink:href="#x"/>
  <use x="138.18359" width="100%" height="100%" xlink:href="#m"/>
  <use x="193.16406" width="100%" height="100%" xlink:href="#k"/>
  <use x="220.94727" width="100%" height="100%" xlink:href="#b"/>
  <use x="282.4707" width="100%" height="100%" xlink:href="#f"/>
  <use x="343.75" width="100%" height="100%" xlink:href="#g"/>
  <use x="384.86328" width="100%" height="100%" xlink:href="#DejaVuSans-32"/>
  <use x="416.65039" width="100%" height="100%" xlink:href="#h"/>
  <use x="444.43359" width="100%" height="100%" xlink:href="#e"/>
  <use x="496.5332" width="100%" height="100%" xlink:href="#DejaVuSans-32"/>
  <use x="528.32031" width="100%" height="100%" xlink:href="#f"/>
  <use x="589.59961" width="100%" height="100%" xlink:href="#s"/>
  <use x="687.01172" width="100%" height="100%" xlink:href="#a"/>
  <use x="748.19336" width="100%" height="100%" xlink:href="#j"/>
  <use x="811.57227" width="100%" height="100%" xlink:href="#t"/>
 </g>
 <defs>
  <path id="an" d="m48.688 27.297q0 9.9062-4.0781 15.547t-11.203 5.6406q-7.1406 0-11.219-5.6406t-4.0781-15.547 4.0781-15.547 11.219-5.6406q7.125 0 11.203 5.6406t4.0781 15.547zm-30.578 19.094q2.8438 4.875 7.1562 7.2344 4.3281 2.375 10.328 2.375 9.9688 0 16.188-7.9062 6.2344-7.9062 6.2344-20.797t-6.2344-20.812q-6.2188-7.9062-16.188-7.9062-6 0-10.328 2.375-4.3125 2.375-7.1562 7.25v-8.2031h-9.0312v75.984h9.0312z"/>
 </defs>
 <g transform="matrix(.12 0 0 -.12 215.55 130.03)">
  <use width="100%" height="100%" xlink:href="#n"/>
  <use x="39.208984" width="100%" height="100%" xlink:href="#v"/>
  <use x="102.58789" width="100%" height="100%" xlink:href="#b"/>
  <use x="164.11133" width="100%" height="100%" xlink:href="#DejaVuSans-32"/>
  <use x="195.89844" width="100%" height="100%" xlink:href="#k"/>
  <use x="223.68164" width="100%" height="100%" xlink:href="#a"/>
  <use x="284.86328" width="100%" height="100%" xlink:href="#aa"/>
  <use x="366.65039" width="100%" height="100%" xlink:href="#b"/>
  <use x="428.17383" width="100%" height="100%" xlink:href="#e"/>
  <use x="480.27344" width="100%" height="100%" xlink:href="#n"/>
  <use x="519.48242" width="100%" height="100%" xlink:href="#ak"/>
  <use x="555.56641" width="100%" height="100%" xlink:href="#m"/>
  <use x="610.54688" width="100%" height="100%" xlink:href="#f"/>
  <use x="671.82617" width="100%" height="100%" xlink:href="#g"/>
  <use x="712.93945" width="100%" height="100%" xlink:href="#an"/>
  <use x="776.41602" width="100%" height="100%" xlink:href="#a"/>
  <use x="837.59766" width="100%" height="100%" xlink:href="#j"/>
  <use x="900.97656" width="100%" height="100%" xlink:href="#DejaVuSans-32"/>
  <use x="932.76367" width="100%" height="100%" xlink:href="#p"/>
  <use x="967.96875" width="100%" height="100%" xlink:href="#a"/>
  <use x="1029.1504" width="100%" height="100%" xlink:href="#g"/>
  <use x="1070.248" width="100%" height="100%" xlink:href="#s"/>
  <use x="1167.6602" width="100%" height="100%" xlink:href="#e"/>
 </g>
 <g transform="matrix(.12 0 0 -.12 231.77 143.47)">
  <use width="100%" height="100%" xlink:href="#a"/>
  <use x="61.181641" width="100%" height="100%" xlink:href="#p"/>
  <use x="96.386719" width="100%" height="100%" xlink:href="#DejaVuSans-32"/>
  <use x="128.17383" width="100%" height="100%" xlink:href="#b"/>
  <use x="189.69727" width="100%" height="100%" xlink:href="#j"/>
  <use x="253.07617" width="100%" height="100%" xlink:href="#b"/>
  <use x="314.59961" width="100%" height="100%" xlink:href="#g"/>
  <use x="355.69727" width="100%" height="100%" xlink:href="#t"/>
  <use x="419.17383" width="100%" height="100%" xlink:href="#w"/>
  <use x="478.35352" width="100%" height="100%" xlink:href="#DejaVuSans-32"/>
  <use x="510.14062" width="100%" height="100%" xlink:href="#aa"/>
  <use x="591.92773" width="100%" height="100%" xlink:href="#b"/>
  <use x="653.45117" width="100%" height="100%" xlink:href="#DejaVuSans-32"/>
  <use x="685.23828" width="100%" height="100%" xlink:href="#am"/>
  <use x="743.14844" width="100%" height="100%" xlink:href="#j"/>
  <use x="806.52734" width="100%" height="100%" xlink:href="#a"/>
  <use x="867.70898" width="100%" height="100%" xlink:href="#aa"/>
 </g>
 <g transform="matrix(.12 0 0 -.12 128.23 28.56)">
  <use width="100%" height="100%" xlink:href="#ah"/>
  <use x="55.712891" width="100%" height="100%" xlink:href="#h"/>
  <use x="83.496094" width="100%" height="100%" xlink:href="#p"/>
  <use x="118.70117" width="100%" height="100%" xlink:href="#b"/>
  <use x="180.22461" width="100%" height="100%" xlink:href="#m"/>
  <use x="235.20508" width="100%" height="100%" xlink:href="#w"/>
  <use x="294.38477" width="100%" height="100%" xlink:href="#m"/>
  <use x="349.36523" width="100%" height="100%" xlink:href="#k"/>
  <use x="377.14844" width="100%" height="100%" xlink:href="#b"/>
  <use x="438.67188" width="100%" height="100%" xlink:href="#DejaVuSans-32"/>
  <use x="470.45898" width="100%" height="100%" xlink:href="#t"/>
  <use x="533.93555" width="100%" height="100%" xlink:href="#g"/>
  <use x="575.01758" width="100%" height="100%" xlink:href="#b"/>
  <use x="636.54102" width="100%" height="100%" xlink:href="#b"/>
  <use x="698.06445" width="100%" height="100%" xlink:href="#j"/>
  <use x="761.44336" width="100%" height="100%" xlink:href="#v"/>
  <use x="824.82227" width="100%" height="100%" xlink:href="#a"/>
  <use x="886.00391" width="100%" height="100%" xlink:href="#x"/>
  <use x="949.38281" width="100%" height="100%" xlink:href="#e"/>
  <use x="1001.4824" width="100%" height="100%" xlink:href="#b"/>
  <use x="1063.0059" width="100%" height="100%" xlink:href="#DejaVuSans-32"/>
  <use x="1094.793" width="100%" height="100%" xlink:href="#t"/>
  <use x="1158.2695" width="100%" height="100%" xlink:href="#f"/>
  <use x="1219.5488" width="100%" height="100%" xlink:href="#e"/>
  <use x="1271.6484" width="100%" height="100%" xlink:href="#DejaVuSans-32"/>
  <use x="1303.4355" width="100%" height="100%" xlink:href="#b"/>
  <use x="1364.959" width="100%" height="100%" xlink:href="#s"/>
  <use x="1462.3711" width="100%" height="100%" xlink:href="#h"/>
  <use x="1490.1543" width="100%" height="100%" xlink:href="#e"/>
  <use x="1542.2539" width="100%" height="100%" xlink:href="#e"/>
  <use x="1594.3535" width="100%" height="100%" xlink:href="#h"/>
  <use x="1622.1367" width="100%" height="100%" xlink:href="#a"/>
  <use x="1683.3184" width="100%" height="100%" xlink:href="#j"/>
  <use x="1746.6973" width="100%" height="100%" xlink:href="#e"/>
 </g>
 <defs>
  <clipPath id="c">
   <rect x="57.6" y="34.56" width="357.12" height="207.36"/>
  </clipPath>
 </defs>
</svg>
