<?xml version="1.0" encoding="UTF-8"?>
<svg width="1152pt" height="1008pt" version="1.1" viewBox="0 0 1152 1008" xmlns="http://www.w3.org/2000/svg" xmlns:xlink="http://www.w3.org/1999/xlink">
 <defs>
  <style type="text/css">*{stroke-linejoin: round; stroke-linecap: butt}</style>
 </defs>
 <path d="m0 1008h1152v-1008h-1152z" fill="#fff"/>
 <path d="m57.6 957.6h1036.8v-907.2h-1036.8z" fill="#fff"/>
 <path d="m559.02 911.7h30.131v-6.2244h-30.131z" clip-path="url(#a)" fill="#008000" opacity=".4"/>
 <path d="m589.16 911.7h124.35v-6.2244h-124.35z" clip-path="url(#a)" fill="#008000" opacity=".6"/>
 <path d="m713.5 911.7h21.943v-6.2244h-21.943z" clip-path="url(#a)" fill="#008000" opacity=".8"/>
 <path d="m735.44 911.7h993.46v-6.2244h-993.46z" clip-path="url(#a)" fill="#008000"/>
 <path d="m559.02 916.36c1.8819 0 3.687-0.8198 5.0177-2.2788 1.3307-1.459 2.0784-3.4382 2.0784-5.5016 0-2.0634-0.74769-4.0426-2.0784-5.5016-1.3307-1.459-3.1358-2.2788-5.0177-2.2788s-3.687 0.8198-5.0177 2.2788c-1.3307 1.459-2.0784 3.4382-2.0784 5.5016 0 2.0634 0.74769 4.0426 2.0784 5.5016 1.3307 1.459 3.1358 2.2788 5.0177 2.2788z" clip-path="url(#a)" fill="none" stroke="#008000"/>
 <path d="m713.5 916.36c1.8819 0 3.687-0.8198 5.0177-2.2788 1.3307-1.459 2.0784-3.4382 2.0784-5.5016 0-2.0634-0.74769-4.0426-2.0784-5.5016-1.3307-1.459-3.1358-2.2788-5.0177-2.2788s-3.687 0.8198-5.0177 2.2788c-1.3307 1.459-2.0784 3.4382-2.0784 5.5016 0 2.0634 0.74769 4.0426 2.0784 5.5016 1.3307 1.459 3.1358 2.2788 5.0177 2.2788z" clip-path="url(#a)" fill="#00f" opacity=".5" stroke="#000" stroke-width=".1"/>
 <path d="m1728.9 916.36c1.8819 0 3.687-0.8198 5.0177-2.2788 1.3307-1.459 2.0784-3.4382 2.0784-5.5016 0-2.0634-0.74769-4.0426-2.0784-5.5016-1.3307-1.459-3.1358-2.2788-5.0177-2.2788s-3.687 0.8198-5.0177 2.2788c-1.3307 1.459-2.0784 3.4382-2.0784 5.5016 0 2.0634 0.74769 4.0426 2.0784 5.5016 1.3307 1.459 3.1358 2.2788 5.0177 2.2788z" clip-path="url(#a)" stroke="#000" stroke-width=".2"/>
 <path d="m512.74 849.45h29.804v-6.2244h-29.804z" clip-path="url(#a)" fill="#008000" opacity=".4"/>
 <path d="m542.54 849.45h173.91v-6.2244h-173.91z" clip-path="url(#a)" fill="#008000" opacity=".6"/>
 <path d="m716.45 849.45h92.796v-6.2244h-92.796z" clip-path="url(#a)" fill="#008000" opacity=".8"/>
 <path d="m809.24 849.45h696.84v-6.2244h-696.84z" clip-path="url(#a)" fill="#008000"/>
 <path d="m512.74 854.12c1.8819 0 3.687-0.8198 5.0177-2.2788 1.3307-1.459 2.0784-3.4382 2.0784-5.5016 0-2.0634-0.74769-4.0426-2.0784-5.5016-1.3307-1.459-3.1358-2.2788-5.0177-2.2788-1.8819 0-3.687 0.8198-5.0177 2.2788s-2.0784 3.4382-2.0784 5.5016c0 2.0634 0.74769 4.0426 2.0784 5.5016s3.1358 2.2788 5.0177 2.2788z" clip-path="url(#a)" fill="none" stroke="#008000"/>
 <path d="m716.45 854.12c1.8819 0 3.687-0.8198 5.0177-2.2788 1.3307-1.459 2.0784-3.4382 2.0784-5.5016 0-2.0634-0.74769-4.0426-2.0784-5.5016-1.3307-1.459-3.1358-2.2788-5.0177-2.2788-1.8819 0-3.687 0.8198-5.0177 2.2788s-2.0784 3.4382-2.0784 5.5016c0 2.0634 0.74769 4.0426 2.0784 5.5016s3.1358 2.2788 5.0177 2.2788z" clip-path="url(#a)" fill="#00f" opacity=".5" stroke="#000" stroke-width=".1"/>
 <path d="m1506.1 854.12c1.8819 0 3.687-0.8198 5.0177-2.2788s2.0784-3.4382 2.0784-5.5016c0-2.0634-0.74769-4.0426-2.0784-5.5016s-3.1358-2.2788-5.0177-2.2788c-1.8819 0-3.687 0.8198-5.0177 2.2788-1.3307 1.459-2.0784 3.4382-2.0784 5.5016 0 2.0634 0.74769 4.0426 2.0784 5.5016 1.3307 1.459 3.1358 2.2788 5.0177 2.2788z" clip-path="url(#a)" stroke="#000" stroke-width=".2"/>
 <path d="m428.67 787.21h9.7162v-6.2244h-9.7162z" clip-path="url(#a)" fill="#008000" opacity=".4"/>
 <path d="m438.39 787.21h87.228v-6.2244h-87.228z" clip-path="url(#a)" fill="#008000" opacity=".6"/>
 <path d="m525.62 787.21h19.105v-6.2244h-19.105z" clip-path="url(#a)" fill="#008000" opacity=".8"/>
 <path d="m544.72 787.21h1373.4v-6.2244h-1373.4z" clip-path="url(#a)" fill="#008000"/>
 <path d="m428.67 791.88c1.8819 0 3.687-0.8198 5.0177-2.2788s2.0784-3.4382 2.0784-5.5016c0-2.0634-0.74769-4.0426-2.0784-5.5016s-3.1358-2.2788-5.0177-2.2788c-1.8819 0-3.687 0.8198-5.0177 2.2788-1.3307 1.459-2.0784 3.4382-2.0784 5.5016 0 2.0634 0.74769 4.0426 2.0784 5.5016 1.3307 1.459 3.1358 2.2788 5.0177 2.2788z" clip-path="url(#a)" fill="none" stroke="#008000"/>
 <path d="m525.62 791.88c1.8819 0 3.687-0.8198 5.0177-2.2788 1.3307-1.459 2.0784-3.4382 2.0784-5.5016 0-2.0634-0.74769-4.0426-2.0784-5.5016-1.3307-1.459-3.1358-2.2788-5.0177-2.2788s-3.687 0.8198-5.0177 2.2788c-1.3307 1.459-2.0784 3.4382-2.0784 5.5016 0 2.0634 0.74769 4.0426 2.0784 5.5016 1.3307 1.459 3.1358 2.2788 5.0177 2.2788z" clip-path="url(#a)" fill="#00f" opacity=".5" stroke="#000" stroke-width=".1"/>
 <path d="m1918.1 791.88c1.8819 0 3.687-0.8198 5.0177-2.2788 1.3307-1.459 2.0784-3.4382 2.0784-5.5016 0-2.0634-0.74769-4.0426-2.0784-5.5016-1.3307-1.459-3.1358-2.2788-5.0177-2.2788s-3.687 0.8198-5.0177 2.2788-2.0784 3.4382-2.0784 5.5016c0 2.0634 0.74769 4.0426 2.0784 5.5016s3.1358 2.2788 5.0177 2.2788z" clip-path="url(#a)" stroke="#000" stroke-width=".2"/>
 <path d="m365.57 724.96h37.009v-6.2244h-37.009z" clip-path="url(#a)" fill="#008000" opacity=".2"/>
 <path d="m402.58 724.96h97.053v-6.2244h-97.053z" clip-path="url(#a)" fill="#008000" opacity=".4"/>
 <path d="m499.63 724.96h162.77v-6.2244h-162.77z" clip-path="url(#a)" fill="#008000" opacity=".6"/>
 <path d="m662.41 724.96h49.673v-6.2244h-49.673z" clip-path="url(#a)" fill="#008000" opacity=".8"/>
 <path d="m712.08 724.96h295.85v-6.2244h-295.85z" clip-path="url(#a)" fill="#008000"/>
 <path d="m365.57 729.63c1.8819 0 3.687-0.8198 5.0177-2.2788 1.3307-1.459 2.0784-3.4382 2.0784-5.5016 0-2.0634-0.74769-4.0426-2.0784-5.5016-1.3307-1.459-3.1358-2.2788-5.0177-2.2788s-3.687 0.8198-5.0177 2.2788c-1.3307 1.459-2.0784 3.4382-2.0784 5.5016 0 2.0634 0.74769 4.0426 2.0784 5.5016 1.3307 1.459 3.1358 2.2788 5.0177 2.2788z" clip-path="url(#a)" fill="#008000" opacity=".5" stroke="#000" stroke-width=".1"/>
 <path d="m402.58 729.63c1.8819 0 3.687-0.8198 5.0177-2.2788 1.3307-1.459 2.0784-3.4382 2.0784-5.5016 0-2.0634-0.74769-4.0426-2.0784-5.5016-1.3307-1.459-3.1358-2.2788-5.0177-2.2788-1.8819 0-3.687 0.8198-5.0177 2.2788s-2.0784 3.4382-2.0784 5.5016c0 2.0634 0.74769 4.0426 2.0784 5.5016s3.1358 2.2788 5.0177 2.2788z" clip-path="url(#a)" fill="none" stroke="#008000"/>
 <path d="m662.41 729.63c1.8819 0 3.687-0.8198 5.0177-2.2788 1.3307-1.459 2.0784-3.4382 2.0784-5.5016 0-2.0634-0.74769-4.0426-2.0784-5.5016-1.3307-1.459-3.1358-2.2788-5.0177-2.2788-1.8819 0-3.687 0.8198-5.0177 2.2788s-2.0784 3.4382-2.0784 5.5016c0 2.0634 0.74769 4.0426 2.0784 5.5016s3.1358 2.2788 5.0177 2.2788z" clip-path="url(#a)" fill="#00f" opacity=".5" stroke="#000" stroke-width=".1"/>
 <path d="m1007.9 729.63c1.8819 0 3.687-0.8198 5.0177-2.2788 1.3307-1.459 2.0784-3.4382 2.0784-5.5016 0-2.0634-0.74769-4.0426-2.0784-5.5016-1.3307-1.459-3.1358-2.2788-5.0177-2.2788s-3.687 0.8198-5.0177 2.2788c-1.3307 1.459-2.0784 3.4382-2.0784 5.5016 0 2.0634 0.74769 4.0426 2.0784 5.5016 1.3307 1.459 3.1358 2.2788 5.0177 2.2788z" clip-path="url(#a)" stroke="#000" stroke-width=".2"/>
 <path d="m353.24 662.72h20.961v-6.2244h-20.961z" clip-path="url(#a)" fill="#008000" opacity=".2"/>
 <path d="m374.2 662.72h42.249v-6.2244h-42.249z" clip-path="url(#a)" fill="#008000" opacity=".4"/>
 <path d="m416.45 662.72h170.85v-6.2244h-170.85z" clip-path="url(#a)" fill="#008000" opacity=".6"/>
 <path d="m587.3 662.72h55.568v-6.2244h-55.568z" clip-path="url(#a)" fill="#008000" opacity=".8"/>
 <path d="m642.87 662.72h109.17v-6.2244h-109.17z" clip-path="url(#a)" fill="#008000"/>
 <path d="m353.24 667.39c1.8819 0 3.687-0.8198 5.0177-2.2788 1.3307-1.459 2.0784-3.4382 2.0784-5.5016 0-2.0634-0.74769-4.0426-2.0784-5.5016-1.3307-1.459-3.1358-2.2788-5.0177-2.2788s-3.687 0.8198-5.0177 2.2788c-1.3307 1.459-2.0784 3.4382-2.0784 5.5016 0 2.0634 0.74769 4.0426 2.0784 5.5016 1.3307 1.459 3.1358 2.2788 5.0177 2.2788z" clip-path="url(#a)" fill="#008000" opacity=".5" stroke="#000" stroke-width=".1"/>
 <path d="m374.2 667.39c1.8819 0 3.687-0.8198 5.0177-2.2788 1.3307-1.459 2.0784-3.4382 2.0784-5.5016 0-2.0634-0.74769-4.0426-2.0784-5.5016-1.3307-1.459-3.1358-2.2788-5.0177-2.2788s-3.687 0.8198-5.0177 2.2788c-1.3307 1.459-2.0784 3.4382-2.0784 5.5016 0 2.0634 0.74769 4.0426 2.0784 5.5016 1.3307 1.459 3.1358 2.2788 5.0177 2.2788z" clip-path="url(#a)" fill="none" stroke="#008000"/>
 <path d="m587.3 667.39c1.8819 0 3.687-0.8198 5.0177-2.2788s2.0784-3.4382 2.0784-5.5016c0-2.0634-0.74769-4.0426-2.0784-5.5016s-3.1358-2.2788-5.0177-2.2788c-1.8819 0-3.687 0.8198-5.0177 2.2788-1.3307 1.459-2.0784 3.4382-2.0784 5.5016 0 2.0634 0.74769 4.0426 2.0784 5.5016 1.3307 1.459 3.1358 2.2788 5.0177 2.2788z" clip-path="url(#a)" fill="#00f" opacity=".5" stroke="#000" stroke-width=".1"/>
 <path d="m752.04 667.39c1.8819 0 3.687-0.8198 5.0177-2.2788 1.3307-1.459 2.0784-3.4382 2.0784-5.5016 0-2.0634-0.74769-4.0426-2.0784-5.5016-1.3307-1.459-3.1358-2.2788-5.0177-2.2788s-3.687 0.8198-5.0177 2.2788c-1.3307 1.459-2.0784 3.4382-2.0784 5.5016 0 2.0634 0.74769 4.0426 2.0784 5.5016 1.3307 1.459 3.1358 2.2788 5.0177 2.2788z" clip-path="url(#a)" stroke="#000" stroke-width=".2"/>
 <path d="m297.56 600.48h108.3v-6.2244h-108.3z" clip-path="url(#a)" fill="#008000" opacity=".2"/>
 <path d="m297.56 605.15c1.8819 0 3.687-0.8198 5.0177-2.2788s2.0784-3.4382 2.0784-5.5016c0-2.0634-0.74769-4.0426-2.0784-5.5016s-3.1358-2.2788-5.0177-2.2788-3.687 0.8198-5.0177 2.2788c-1.3307 1.459-2.0784 3.4382-2.0784 5.5016 0 2.0634 0.74769 4.0426 2.0784 5.5016 1.3307 1.459 3.1358 2.2788 5.0177 2.2788z" clip-path="url(#a)" fill="#008000" opacity=".5" stroke="#000" stroke-width=".1"/>
 <path d="m405.86 605.15c1.8819 0 3.687-0.8198 5.0177-2.2788 1.3307-1.459 2.0784-3.4382 2.0784-5.5016 0-2.0634-0.74769-4.0426-2.0784-5.5016-1.3307-1.459-3.1358-2.2788-5.0177-2.2788s-3.687 0.8198-5.0177 2.2788c-1.3307 1.459-2.0784 3.4382-2.0784 5.5016 0 2.0634 0.74769 4.0426 2.0784 5.5016 1.3307 1.459 3.1358 2.2788 5.0177 2.2788z" clip-path="url(#a)" fill="none" stroke="#008000"/>
 <path d="m297.56 538.23h80.241v-6.2244h-80.241z" clip-path="url(#a)" fill="#008000" opacity=".2"/>
 <path d="m377.8 538.23h38.647v-6.2244h-38.647z" clip-path="url(#a)" fill="#008000" opacity=".4"/>
 <path d="m416.45 538.23h129.26v-6.2244h-129.26z" clip-path="url(#a)" fill="#008000" opacity=".6"/>
 <path d="m545.7 538.23h44.105v-6.2244h-44.105z" clip-path="url(#a)" fill="#008000" opacity=".8"/>
 <path d="m589.81 538.23h106.77v-6.2244h-106.77z" clip-path="url(#a)" fill="#008000"/>
 <path d="m297.56 542.9c1.8819 0 3.687-0.8198 5.0177-2.2788s2.0784-3.4382 2.0784-5.5016c0-2.0634-0.74769-4.0426-2.0784-5.5016s-3.1358-2.2788-5.0177-2.2788-3.687 0.8198-5.0177 2.2788c-1.3307 1.459-2.0784 3.4382-2.0784 5.5016 0 2.0634 0.74769 4.0426 2.0784 5.5016 1.3307 1.459 3.1358 2.2788 5.0177 2.2788z" clip-path="url(#a)" fill="#008000" opacity=".5" stroke="#000" stroke-width=".1"/>
 <path d="m377.8 542.9c1.8819 0 3.687-0.8198 5.0177-2.2788 1.3307-1.459 2.0784-3.4382 2.0784-5.5016 0-2.0634-0.74769-4.0426-2.0784-5.5016-1.3307-1.459-3.1358-2.2788-5.0177-2.2788-1.8819 0-3.687 0.8198-5.0177 2.2788s-2.0784 3.4382-2.0784 5.5016c0 2.0634 0.74769 4.0426 2.0784 5.5016s3.1358 2.2788 5.0177 2.2788z" clip-path="url(#a)" fill="none" stroke="#008000"/>
 <path d="m545.7 542.9c1.8819 0 3.687-0.8198 5.0177-2.2788s2.0784-3.4382 2.0784-5.5016c0-2.0634-0.74769-4.0426-2.0784-5.5016s-3.1358-2.2788-5.0177-2.2788c-1.8819 0-3.687 0.8198-5.0177 2.2788-1.3307 1.459-2.0784 3.4382-2.0784 5.5016 0 2.0634 0.74769 4.0426 2.0784 5.5016 1.3307 1.459 3.1358 2.2788 5.0177 2.2788z" clip-path="url(#a)" fill="#00f" opacity=".5" stroke="#000" stroke-width=".1"/>
 <path d="m696.58 542.9c1.8819 0 3.687-0.8198 5.0177-2.2788 1.3307-1.459 2.0784-3.4382 2.0784-5.5016 0-2.0634-0.74769-4.0426-2.0784-5.5016-1.3307-1.459-3.1358-2.2788-5.0177-2.2788s-3.687 0.8198-5.0177 2.2788c-1.3307 1.459-2.0784 3.4382-2.0784 5.5016 0 2.0634 0.74769 4.0426 2.0784 5.5016 1.3307 1.459 3.1358 2.2788 5.0177 2.2788z" clip-path="url(#a)" stroke="#000" stroke-width=".2"/>
 <path d="m297.56 475.99h35.372v-6.2244h-35.372z" clip-path="url(#a)" fill="#008000" opacity=".2"/>
 <path d="m332.93 475.99h43.669v-6.2244h-43.669z" clip-path="url(#a)" fill="#008000" opacity=".4"/>
 <path d="m376.6 475.99h199.35v-6.2244h-199.35z" clip-path="url(#a)" fill="#008000" opacity=".6"/>
 <path d="m575.95 475.99h102.95v-6.2244h-102.95z" clip-path="url(#a)" fill="#008000" opacity=".8"/>
 <path d="m678.89 475.99h46.507v-6.2244h-46.507z" clip-path="url(#a)" fill="#008000"/>
 <path d="m297.56 480.66c1.8819 0 3.687-0.8198 5.0177-2.2788s2.0784-3.4382 2.0784-5.5016c0-2.0634-0.74769-4.0426-2.0784-5.5016s-3.1358-2.2788-5.0177-2.2788-3.687 0.8198-5.0177 2.2788c-1.3307 1.459-2.0784 3.4382-2.0784 5.5016 0 2.0634 0.74769 4.0426 2.0784 5.5016 1.3307 1.459 3.1358 2.2788 5.0177 2.2788z" clip-path="url(#a)" fill="#008000" opacity=".5" stroke="#000" stroke-width=".1"/>
 <path d="m332.93 480.66c1.8819 0 3.687-0.8198 5.0177-2.2788 1.3307-1.459 2.0784-3.4382 2.0784-5.5016 0-2.0634-0.74769-4.0426-2.0784-5.5016-1.3307-1.459-3.1358-2.2788-5.0177-2.2788s-3.687 0.8198-5.0177 2.2788c-1.3307 1.459-2.0784 3.4382-2.0784 5.5016 0 2.0634 0.74769 4.0426 2.0784 5.5016 1.3307 1.459 3.1358 2.2788 5.0177 2.2788z" clip-path="url(#a)" fill="none" stroke="#008000"/>
 <path d="m575.95 480.66c1.8819 0 3.687-0.8198 5.0177-2.2788s2.0784-3.4382 2.0784-5.5016c0-2.0634-0.74769-4.0426-2.0784-5.5016s-3.1358-2.2788-5.0177-2.2788c-1.8819 0-3.687 0.8198-5.0177 2.2788-1.3307 1.459-2.0784 3.4382-2.0784 5.5016 0 2.0634 0.74769 4.0426 2.0784 5.5016 1.3307 1.459 3.1358 2.2788 5.0177 2.2788z" clip-path="url(#a)" fill="#00f" opacity=".5" stroke="#000" stroke-width=".1"/>
 <path d="m725.4 480.66c1.8819 0 3.687-0.8198 5.0177-2.2788 1.3307-1.459 2.0784-3.4382 2.0784-5.5016 0-2.0634-0.74769-4.0426-2.0784-5.5016-1.3307-1.459-3.1358-2.2788-5.0177-2.2788s-3.687 0.8198-5.0177 2.2788-2.0784 3.4382-2.0784 5.5016c0 2.0634 0.74769 4.0426 2.0784 5.5016s3.1358 2.2788 5.0177 2.2788z" clip-path="url(#a)" stroke="#000" stroke-width=".2"/>
 <path d="m245.81 413.75h103.93v-6.2244h-103.93z" clip-path="url(#a)" fill="#008000" opacity=".2"/>
 <path d="m349.74 413.75h66.704v-6.2244h-66.704z" clip-path="url(#a)" fill="#008000" opacity=".4"/>
 <path d="m416.45 413.75h136.14v-6.2244h-136.14z" clip-path="url(#a)" fill="#008000" opacity=".6"/>
 <path d="m552.58 413.75h26.201v-6.2244h-26.201z" clip-path="url(#a)" fill="#008000" opacity=".8"/>
 <path d="m578.78 413.75h78.276v-6.2244h-78.276z" clip-path="url(#a)" fill="#008000"/>
 <path d="m245.81 418.42c1.8819 0 3.687-0.8198 5.0177-2.2788 1.3307-1.459 2.0784-3.4382 2.0784-5.5016 0-2.0634-0.74769-4.0426-2.0784-5.5016-1.3307-1.459-3.1358-2.2788-5.0177-2.2788s-3.687 0.8198-5.0177 2.2788c-1.3307 1.459-2.0784 3.4382-2.0784 5.5016 0 2.0634 0.74769 4.0426 2.0784 5.5016 1.3307 1.459 3.1358 2.2788 5.0177 2.2788z" clip-path="url(#a)" fill="#008000" opacity=".5" stroke="#000" stroke-width=".1"/>
 <path d="m349.74 418.42c1.8819 0 3.687-0.8198 5.0177-2.2788 1.3307-1.459 2.0784-3.4382 2.0784-5.5016 0-2.0634-0.74769-4.0426-2.0784-5.5016-1.3307-1.459-3.1358-2.2788-5.0177-2.2788s-3.687 0.8198-5.0177 2.2788c-1.3307 1.459-2.0784 3.4382-2.0784 5.5016 0 2.0634 0.74769 4.0426 2.0784 5.5016 1.3307 1.459 3.1358 2.2788 5.0177 2.2788z" clip-path="url(#a)" fill="none" stroke="#008000"/>
 <path d="m552.58 418.42c1.8819 0 3.687-0.8198 5.0177-2.2788s2.0784-3.4382 2.0784-5.5016c0-2.0634-0.74769-4.0426-2.0784-5.5016s-3.1358-2.2788-5.0177-2.2788c-1.8819 0-3.687 0.8198-5.0177 2.2788-1.3307 1.459-2.0784 3.4382-2.0784 5.5016 0 2.0634 0.74769 4.0426 2.0784 5.5016 1.3307 1.459 3.1358 2.2788 5.0177 2.2788z" clip-path="url(#a)" fill="#00f" opacity=".5" stroke="#000" stroke-width=".1"/>
 <path d="m657.06 418.42c1.8819 0 3.687-0.8198 5.0177-2.2788 1.3307-1.459 2.0784-3.4382 2.0784-5.5016 0-2.0634-0.74769-4.0426-2.0784-5.5016-1.3307-1.459-3.1358-2.2788-5.0177-2.2788s-3.687 0.8198-5.0177 2.2788c-1.3307 1.459-2.0784 3.4382-2.0784 5.5016 0 2.0634 0.74769 4.0426 2.0784 5.5016 1.3307 1.459 3.1358 2.2788 5.0177 2.2788z" clip-path="url(#a)" stroke="#000" stroke-width=".2"/>
 <path d="m245.81 351.5h79.804v-6.2244h-79.804z" clip-path="url(#a)" fill="#008000" opacity=".2"/>
 <path d="m325.62 351.5h50.983v-6.2244h-50.983z" clip-path="url(#a)" fill="#008000" opacity=".4"/>
 <path d="m376.6 351.5h152.84v-6.2244h-152.84z" clip-path="url(#a)" fill="#008000" opacity=".6"/>
 <path d="m529.44 351.5h66.376v-6.2244h-66.376z" clip-path="url(#a)" fill="#008000" opacity=".8"/>
 <path d="m595.81 351.5h143.01v-6.2244h-143.01z" clip-path="url(#a)" fill="#008000"/>
 <path d="m245.81 356.17c1.8819 0 3.687-0.8198 5.0177-2.2788 1.3307-1.459 2.0784-3.4382 2.0784-5.5016 0-2.0634-0.74769-4.0426-2.0784-5.5016-1.3307-1.459-3.1358-2.2788-5.0177-2.2788s-3.687 0.8198-5.0177 2.2788c-1.3307 1.459-2.0784 3.4382-2.0784 5.5016 0 2.0634 0.74769 4.0426 2.0784 5.5016 1.3307 1.459 3.1358 2.2788 5.0177 2.2788z" clip-path="url(#a)" fill="#008000" opacity=".5" stroke="#000" stroke-width=".1"/>
 <path d="m325.62 356.17c1.8819 0 3.687-0.8198 5.0177-2.2788 1.3307-1.459 2.0784-3.4382 2.0784-5.5016 0-2.0634-0.74769-4.0426-2.0784-5.5016-1.3307-1.459-3.1358-2.2788-5.0177-2.2788s-3.687 0.8198-5.0177 2.2788c-1.3307 1.459-2.0784 3.4382-2.0784 5.5016 0 2.0634 0.74769 4.0426 2.0784 5.5016 1.3307 1.459 3.1358 2.2788 5.0177 2.2788z" clip-path="url(#a)" fill="none" stroke="#008000"/>
 <path d="m529.44 356.17c1.8819 0 3.687-0.8198 5.0177-2.2788 1.3307-1.459 2.0784-3.4382 2.0784-5.5016 0-2.0634-0.74769-4.0426-2.0784-5.5016-1.3307-1.459-3.1358-2.2788-5.0177-2.2788s-3.687 0.8198-5.0177 2.2788c-1.3307 1.459-2.0784 3.4382-2.0784 5.5016 0 2.0634 0.74769 4.0426 2.0784 5.5016 1.3307 1.459 3.1358 2.2788 5.0177 2.2788z" clip-path="url(#a)" fill="#00f" opacity=".5" stroke="#000" stroke-width=".1"/>
 <path d="m738.83 356.17c1.8819 0 3.687-0.8198 5.0177-2.2788 1.3307-1.459 2.0784-3.4382 2.0784-5.5016 0-2.0634-0.74769-4.0426-2.0784-5.5016-1.3307-1.459-3.1358-2.2788-5.0177-2.2788s-3.687 0.8198-5.0177 2.2788-2.0784 3.4382-2.0784 5.5016c0 2.0634 0.74769 4.0426 2.0784 5.5016s3.1358 2.2788 5.0177 2.2788z" clip-path="url(#a)" stroke="#000" stroke-width=".2"/>
 <path d="m218.08 289.26h107.53v-6.2244h-107.53z" clip-path="url(#a)" fill="#008000" opacity=".2"/>
 <path d="m325.62 289.26h50.983v-6.2244h-50.983z" clip-path="url(#a)" fill="#008000" opacity=".4"/>
 <path d="m376.6 289.26h159.5v-6.2244h-159.5z" clip-path="url(#a)" fill="#008000" opacity=".6"/>
 <path d="m536.1 289.26h19.76v-6.2244h-19.76z" clip-path="url(#a)" fill="#008000" opacity=".8"/>
 <path d="m555.86 289.26h46.725v-6.2244h-46.725z" clip-path="url(#a)" fill="#008000"/>
 <path d="m218.08 293.93c1.8819 0 3.687-0.8198 5.0177-2.2788s2.0784-3.4382 2.0784-5.5016c0-2.0634-0.74769-4.0426-2.0784-5.5016s-3.1358-2.2788-5.0177-2.2788c-1.8819 0-3.687 0.8198-5.0177 2.2788-1.3307 1.459-2.0784 3.4382-2.0784 5.5016 0 2.0634 0.74769 4.0426 2.0784 5.5016 1.3307 1.459 3.1358 2.2788 5.0177 2.2788z" clip-path="url(#a)" fill="#008000" opacity=".5" stroke="#000" stroke-width=".1"/>
 <path d="m325.62 293.93c1.8819 0 3.687-0.8198 5.0177-2.2788 1.3307-1.459 2.0784-3.4382 2.0784-5.5016 0-2.0634-0.74769-4.0426-2.0784-5.5016-1.3307-1.459-3.1358-2.2788-5.0177-2.2788s-3.687 0.8198-5.0177 2.2788c-1.3307 1.459-2.0784 3.4382-2.0784 5.5016 0 2.0634 0.74769 4.0426 2.0784 5.5016 1.3307 1.459 3.1358 2.2788 5.0177 2.2788z" clip-path="url(#a)" fill="none" stroke="#008000"/>
 <path d="m536.1 293.93c1.8819 0 3.687-0.8198 5.0177-2.2788 1.3307-1.459 2.0784-3.4382 2.0784-5.5016 0-2.0634-0.74769-4.0426-2.0784-5.5016-1.3307-1.459-3.1358-2.2788-5.0177-2.2788-1.8819 0-3.687 0.8198-5.0177 2.2788s-2.0784 3.4382-2.0784 5.5016c0 2.0634 0.74769 4.0426 2.0784 5.5016s3.1358 2.2788 5.0177 2.2788z" clip-path="url(#a)" fill="#00f" opacity=".5" stroke="#000" stroke-width=".1"/>
 <path d="m602.58 293.93c1.8819 0 3.687-0.8198 5.0177-2.2788 1.3307-1.459 2.0784-3.4382 2.0784-5.5016 0-2.0634-0.74769-4.0426-2.0784-5.5016-1.3307-1.459-3.1358-2.2788-5.0177-2.2788s-3.687 0.8198-5.0177 2.2788c-1.3307 1.459-2.0784 3.4382-2.0784 5.5016 0 2.0634 0.74769 4.0426 2.0784 5.5016 1.3307 1.459 3.1358 2.2788 5.0177 2.2788z" clip-path="url(#a)" stroke="#000" stroke-width=".2"/>
 <path d="m218.08 227.02h55.787v-6.2244h-55.787z" clip-path="url(#a)" fill="#008000" opacity=".2"/>
 <path d="m273.87 227.02h72.708v-6.2244h-72.708z" clip-path="url(#a)" fill="#008000" opacity=".4"/>
 <path d="m346.58 227.02h93.123v-6.2244h-93.123z" clip-path="url(#a)" fill="#008000" opacity=".6"/>
 <path d="m439.7 227.02h33.188v-6.2244h-33.188z" clip-path="url(#a)" fill="#008000" opacity=".8"/>
 <path d="m472.89 227.02h1225.7v-6.2244h-1225.7z" clip-path="url(#a)" fill="#008000"/>
 <path d="m218.08 231.68c1.8819 0 3.687-0.8198 5.0177-2.2788s2.0784-3.4382 2.0784-5.5016c0-2.0634-0.74769-4.0426-2.0784-5.5016s-3.1358-2.2788-5.0177-2.2788c-1.8819 0-3.687 0.8198-5.0177 2.2788-1.3307 1.459-2.0784 3.4382-2.0784 5.5016 0 2.0634 0.74769 4.0426 2.0784 5.5016 1.3307 1.459 3.1358 2.2788 5.0177 2.2788z" clip-path="url(#a)" fill="#008000" opacity=".5" stroke="#000" stroke-width=".1"/>
 <path d="m273.87 231.68c1.8819 0 3.687-0.8198 5.0177-2.2788s2.0784-3.4382 2.0784-5.5016c0-2.0634-0.74769-4.0426-2.0784-5.5016s-3.1358-2.2788-5.0177-2.2788c-1.8819 0-3.687 0.8198-5.0177 2.2788-1.3307 1.459-2.0784 3.4382-2.0784 5.5016 0 2.0634 0.74769 4.0426 2.0784 5.5016 1.3307 1.459 3.1358 2.2788 5.0177 2.2788z" clip-path="url(#a)" fill="none" stroke="#008000"/>
 <path d="m439.7 231.68c1.8819 0 3.687-0.8198 5.0177-2.2788s2.0784-3.4382 2.0784-5.5016c0-2.0634-0.74769-4.0426-2.0784-5.5016s-3.1358-2.2788-5.0177-2.2788c-1.8819 0-3.687 0.8198-5.0177 2.2788-1.3307 1.459-2.0784 3.4382-2.0784 5.5016 0 2.0634 0.74769 4.0426 2.0784 5.5016 1.3307 1.459 3.1358 2.2788 5.0177 2.2788z" clip-path="url(#a)" fill="#00f" opacity=".5" stroke="#000" stroke-width=".1"/>
 <path d="m1698.6 231.68c1.8819 0 3.687-0.8198 5.0177-2.2788 1.3307-1.459 2.0784-3.4382 2.0784-5.5016 0-2.0634-0.74769-4.0426-2.0784-5.5016-1.3307-1.459-3.1358-2.2788-5.0177-2.2788s-3.687 0.8198-5.0177 2.2788-2.0784 3.4382-2.0784 5.5016c0 2.0634 0.74769 4.0426 2.0784 5.5016s3.1358 2.2788 5.0177 2.2788z" clip-path="url(#a)" stroke="#000" stroke-width=".2"/>
 <path d="m218.08 164.77h24.891v-6.2244h-24.891z" clip-path="url(#a)" fill="#008000" opacity=".2"/>
 <path d="m242.97 164.77h37.992v-6.2244h-37.992z" clip-path="url(#a)" fill="#008000" opacity=".4"/>
 <path d="m280.96 164.77h280.68v-6.2244h-280.68z" clip-path="url(#a)" fill="#008000" opacity=".6"/>
 <path d="m561.64 164.77h273.36v-6.2244h-273.36z" clip-path="url(#a)" fill="#008000" opacity=".8"/>
 <path d="m835.01 164.77h96.289v-6.2244h-96.289z" clip-path="url(#a)" fill="#008000"/>
 <path d="m218.08 169.44c1.8819 0 3.687-0.8198 5.0177-2.2788s2.0784-3.4382 2.0784-5.5016c0-2.0634-0.74769-4.0426-2.0784-5.5016s-3.1358-2.2788-5.0177-2.2788c-1.8819 0-3.687 0.8198-5.0177 2.2788-1.3307 1.459-2.0784 3.4382-2.0784 5.5016 0 2.0634 0.74769 4.0426 2.0784 5.5016 1.3307 1.459 3.1358 2.2788 5.0177 2.2788z" clip-path="url(#a)" fill="#008000" opacity=".5" stroke="#000" stroke-width=".1"/>
 <path d="m242.97 169.44c1.8819 0 3.687-0.8198 5.0177-2.2788 1.3307-1.459 2.0784-3.4382 2.0784-5.5016 0-2.0634-0.74769-4.0426-2.0784-5.5016-1.3307-1.459-3.1358-2.2788-5.0177-2.2788s-3.687 0.8198-5.0177 2.2788-2.0784 3.4382-2.0784 5.5016c0 2.0634 0.74769 4.0426 2.0784 5.5016s3.1358 2.2788 5.0177 2.2788z" clip-path="url(#a)" fill="none" stroke="#008000"/>
 <path d="m561.64 169.44c1.8819 0 3.687-0.8198 5.0177-2.2788 1.3307-1.459 2.0784-3.4382 2.0784-5.5016 0-2.0634-0.74769-4.0426-2.0784-5.5016-1.3307-1.459-3.1358-2.2788-5.0177-2.2788s-3.687 0.8198-5.0177 2.2788c-1.3307 1.459-2.0784 3.4382-2.0784 5.5016 0 2.0634 0.74769 4.0426 2.0784 5.5016 1.3307 1.459 3.1358 2.2788 5.0177 2.2788z" clip-path="url(#a)" fill="#00f" opacity=".5" stroke="#000" stroke-width=".1"/>
 <path d="m931.3 169.44c1.8819 0 3.687-0.8198 5.0177-2.2788 1.3307-1.459 2.0784-3.4382 2.0784-5.5016 0-2.0634-0.74769-4.0426-2.0784-5.5016-1.3307-1.459-3.1358-2.2788-5.0177-2.2788s-3.687 0.8198-5.0177 2.2788c-1.3307 1.459-2.0784 3.4382-2.0784 5.5016 0 2.0634 0.74769 4.0426 2.0784 5.5016 1.3307 1.459 3.1358 2.2788 5.0177 2.2788z" clip-path="url(#a)" stroke="#000" stroke-width=".2"/>
 <path d="m174.52 102.53h11.026v-6.2244h-11.026z" clip-path="url(#a)" fill="#008000" opacity=".2"/>
 <path d="m185.55 102.53h19.105v-6.2244h-19.105z" clip-path="url(#a)" fill="#008000" opacity=".4"/>
 <path d="m204.65 102.53h128.82v-6.2244h-128.82z" clip-path="url(#a)" fill="#008000" opacity=".6"/>
 <path d="m333.48 102.53h2.2926v-6.2244h-2.2926z" clip-path="url(#a)" fill="#008000" opacity=".8"/>
 <path d="m335.77 102.53h987.78v-6.2244h-987.78z" clip-path="url(#a)" fill="#008000"/>
 <path d="m174.52 107.2c1.8819 0 3.687-0.8198 5.0177-2.2788 1.3307-1.459 2.0784-3.4382 2.0784-5.5016 0-2.0634-0.74769-4.0426-2.0784-5.5016-1.3307-1.459-3.1358-2.2788-5.0177-2.2788s-3.687 0.8198-5.0177 2.2788c-1.3307 1.459-2.0784 3.4382-2.0784 5.5016 0 2.0634 0.74769 4.0426 2.0784 5.5016 1.3307 1.459 3.1358 2.2788 5.0177 2.2788z" clip-path="url(#a)" fill="#008000" opacity=".5" stroke="#000" stroke-width=".1"/>
 <path d="m185.55 107.2c1.8819 0 3.687-0.8198 5.0177-2.2788 1.3307-1.459 2.0784-3.4382 2.0784-5.5016 0-2.0634-0.74769-4.0426-2.0784-5.5016-1.3307-1.459-3.1358-2.2788-5.0177-2.2788s-3.687 0.8198-5.0177 2.2788c-1.3307 1.459-2.0784 3.4382-2.0784 5.5016 0 2.0634 0.74769 4.0426 2.0784 5.5016 1.3307 1.459 3.1358 2.2788 5.0177 2.2788z" clip-path="url(#a)" fill="none" stroke="#008000"/>
 <path d="m333.48 107.2c1.8819 0 3.687-0.8198 5.0177-2.2788 1.3307-1.459 2.0784-3.4382 2.0784-5.5016 0-2.0634-0.74769-4.0426-2.0784-5.5016-1.3307-1.459-3.1358-2.2788-5.0177-2.2788s-3.687 0.8198-5.0177 2.2788c-1.3307 1.459-2.0784 3.4382-2.0784 5.5016 0 2.0634 0.74769 4.0426 2.0784 5.5016s3.1358 2.2788 5.0177 2.2788z" clip-path="url(#a)" fill="#00f" opacity=".5" stroke="#000" stroke-width=".1"/>
 <path d="m1323.6 107.2c1.8819 0 3.687-0.8198 5.0177-2.2788 1.3307-1.459 2.0784-3.4382 2.0784-5.5016 0-2.0634-0.74769-4.0426-2.0784-5.5016-1.3307-1.459-3.1358-2.2788-5.0177-2.2788s-3.687 0.8198-5.0177 2.2788c-1.3307 1.459-2.0784 3.4382-2.0784 5.5016 0 2.0634 0.74769 4.0426 2.0784 5.5016 1.3307 1.459 3.1358 2.2788 5.0177 2.2788z" clip-path="url(#a)" stroke="#000" stroke-width=".2"/>
 <defs>
  <path id="al" d="m0 0v3.5" stroke="#000" stroke-width=".8"/>
 </defs>
 <use x="217.099295" y="50.4" stroke="#000000" stroke-width=".8" xlink:href="#al"/>
 <g transform="translate(199.28 43.988) scale(.14 -.14)">
  <defs>
   <path id="o" transform="scale(.015625)" d="m794 531h1031v3560l-1122-225v575l1116 225h631v-4135h1031v-531h-2687v531z"/>
   <path id="t" transform="scale(.015625)" d="m703 97v575q238-113 481-172 244-59 479-59 625 0 954 420 330 420 377 1277-181-269-460-413-278-144-615-144-700 0-1108 423-408 424-408 1159 0 718 425 1152 425 435 1131 435 810 0 1236-621 427-620 427-1801 0-1103-524-1761-523-658-1407-658-238 0-482 47-243 47-506 141zm1256 1978q425 0 673 290 249 291 249 798 0 503-249 795-248 292-673 292t-673-292-248-795q0-507 248-798 248-290 673-290z"/>
   <path id="z" transform="scale(.015625)" d="m691 4666h2478v-532h-1900v-1143q137 47 274 70 138 23 276 23 781 0 1237-428 457-428 457-1159 0-753-469-1171-469-417-1322-417-294 0-599 50-304 50-629 150v635q281-153 581-228t634-75q541 0 856 284 316 284 316 772 0 487-316 771-315 285-856 285-253 0-505-56-251-56-513-175v2344z"/>
  </defs>
  <use xlink:href="#o"/>
  <use x="63.623047" xlink:href="#t"/>
  <use x="127.246094" xlink:href="#z"/>
  <use x="190.869141" xlink:href="#z"/>
 </g>
 <use x="416.44612" y="50.4" stroke="#000000" stroke-width=".8" xlink:href="#al"/>
 <g transform="translate(398.63 43.988) scale(.14 -.14)">
  <defs>
   <path id="ak" transform="scale(.015625)" d="m2113 2584q-425 0-674-291-248-290-248-796 0-503 248-796 249-292 674-292t673 292q248 293 248 796 0 506-248 796-248 291-673 291zm1253 1979v-575q-238 112-480 171-242 60-480 60-625 0-955-422-329-422-376-1275 184 272 462 417 279 145 613 145 703 0 1111-427 408-426 408-1160 0-719-425-1154-425-434-1131-434-810 0-1238 620-428 621-428 1799 0 1106 525 1764t1409 658q238 0 480-47t505-140z"/>
   <path id="ah" transform="scale(.015625)" d="m2034 4250q-487 0-733-480-245-479-245-1442 0-959 245-1439 246-480 733-480 491 0 736 480 246 480 246 1439 0 963-246 1442-245 480-736 480zm0 500q785 0 1199-621 414-620 414-1801 0-1178-414-1799-414-620-1199-620-784 0-1198 620-414 621-414 1799 0 1181 414 1801 414 621 1198 621z"/>
  </defs>
  <use xlink:href="#o"/>
  <use x="63.623047" xlink:href="#t"/>
  <use x="127.246094" xlink:href="#ak"/>
  <use x="190.869141" xlink:href="#ah"/>
 </g>
 <use x="615.902116" y="50.4" stroke="#000000" stroke-width=".8" xlink:href="#al"/>
 <g transform="translate(598.09 43.988) scale(.14 -.14)">
  <use xlink:href="#o"/>
  <use x="63.623047" xlink:href="#t"/>
  <use x="127.246094" xlink:href="#ak"/>
  <use x="190.869141" xlink:href="#z"/>
 </g>
 <use x="815.248942" y="50.4" stroke="#000000" stroke-width=".8" xlink:href="#al"/>
 <g transform="translate(797.43 43.988) scale(.14 -.14)">
  <defs>
   <path id="ag" transform="scale(.015625)" d="m525 4666h3e3v-269l-1694-4397h-659l1594 4134h-2241v532z"/>
  </defs>
  <use xlink:href="#o"/>
  <use x="63.623047" xlink:href="#t"/>
  <use x="127.246094" xlink:href="#ag"/>
  <use x="190.869141" xlink:href="#ah"/>
 </g>
 <use x="1014.595767" y="50.4" stroke="#000000" stroke-width=".8" xlink:href="#al"/>
 <g transform="translate(996.78 43.988) scale(.14 -.14)">
  <use xlink:href="#o"/>
  <use x="63.623047" xlink:href="#t"/>
  <use x="127.246094" xlink:href="#ag"/>
  <use x="190.869141" xlink:href="#z"/>
 </g>
 <defs>
  <path id="j" d="m0 0v-2" stroke="#000" stroke-width=".6"/>
 </defs>
 <use x="57.6" y="50.4" stroke="#000000" stroke-width=".6" xlink:href="#j"/>
 <use x="97.447531" y="50.4" stroke="#000000" stroke-width=".6" xlink:href="#j"/>
 <use x="137.404233" y="50.4" stroke="#000000" stroke-width=".6" xlink:href="#j"/>
 <use x="177.251764" y="50.4" stroke="#000000" stroke-width=".6" xlink:href="#j"/>
 <use x="256.946825" y="50.4" stroke="#000000" stroke-width=".6" xlink:href="#j"/>
 <use x="296.903527" y="50.4" stroke="#000000" stroke-width=".6" xlink:href="#j"/>
 <use x="336.751058" y="50.4" stroke="#000000" stroke-width=".6" xlink:href="#j"/>
 <use x="376.598589" y="50.4" stroke="#000000" stroke-width=".6" xlink:href="#j"/>
 <use x="456.402822" y="50.4" stroke="#000000" stroke-width=".6" xlink:href="#j"/>
 <use x="496.250353" y="50.4" stroke="#000000" stroke-width=".6" xlink:href="#j"/>
 <use x="536.097884" y="50.4" stroke="#000000" stroke-width=".6" xlink:href="#j"/>
 <use x="575.945414" y="50.4" stroke="#000000" stroke-width=".6" xlink:href="#j"/>
 <use x="655.749647" y="50.4" stroke="#000000" stroke-width=".6" xlink:href="#j"/>
 <use x="695.597178" y="50.4" stroke="#000000" stroke-width=".6" xlink:href="#j"/>
 <use x="735.444709" y="50.4" stroke="#000000" stroke-width=".6" xlink:href="#j"/>
 <use x="775.401411" y="50.4" stroke="#000000" stroke-width=".6" xlink:href="#j"/>
 <use x="855.096473" y="50.4" stroke="#000000" stroke-width=".6" xlink:href="#j"/>
 <use x="894.944003" y="50.4" stroke="#000000" stroke-width=".6" xlink:href="#j"/>
 <use x="934.900705" y="50.4" stroke="#000000" stroke-width=".6" xlink:href="#j"/>
 <use x="974.748236" y="50.4" stroke="#000000" stroke-width=".6" xlink:href="#j"/>
 <use x="1054.443298" y="50.4" stroke="#000000" stroke-width=".6" xlink:href="#j"/>
 <use x="1094.4" y="50.4" stroke="#000000" stroke-width=".6" xlink:href="#j"/>
 <path d="m57.6 957.6v-907.2" fill="none" stroke="#000" stroke-linecap="square" stroke-width=".8"/>
 <path d="m1094.4 957.6v-907.2" fill="none" stroke="#000" stroke-linecap="square" stroke-width=".8"/>
 <path d="m57.6 957.6h1036.8" fill="none" stroke="#000" stroke-linecap="square" stroke-width=".8"/>
 <path d="m57.6 50.4h1036.8" fill="none" stroke="#000" stroke-linecap="square" stroke-width=".8"/>
 <g transform="translate(564.02 897.01) scale(.17 -.17)">
  <defs>
   <path id="ad" transform="scale(.015625)" d="m3425 4513v-616q-359 172-678 256-319 85-616 85-515 0-795-200t-280-569q0-310 186-468 186-157 705-254l381-78q706-135 1042-474t336-907q0-679-455-1029-454-350-1332-350-331 0-705 75-373 75-773 222v650q384-215 753-325 369-109 725-109 540 0 834 212 294 213 294 607 0 343-211 537t-692 291l-385 75q-706 140-1022 440-315 300-315 835 0 619 436 975t1201 356q329 0 669-60 341-59 697-177z"/>
   <path id="f" transform="scale(.015625)" d="m2194 1759q-697 0-966-159t-269-544q0-306 202-486 202-179 548-179 479 0 768 339t289 901v128h-572zm1147 238v-1997h-575v531q-197-318-491-470t-719-152q-537 0-855 302-317 302-317 808 0 590 395 890 396 300 1180 300h807v57q0 397-261 614t-733 217q-300 0-585-72-284-72-546-216v532q315 122 612 182 297 61 578 61 760 0 1135-394 375-393 375-1193z"/>
   <path id="g" transform="scale(.015625)" d="m3513 2113v-2113h-575v2094q0 497-194 743-194 247-581 247-466 0-735-297-269-296-269-809v-1978h-578v3500h578v-544q207 316 486 472 280 156 646 156 603 0 912-373 310-373 310-1098z"/>
   <path id="av" transform="scale(.015625)" d="m2522 4238q-688 0-1093-513-404-512-404-1397 0-881 404-1394 405-512 1093-512 687 0 1089 512 402 513 402 1394 0 885-402 1397-402 513-1089 513zm0 512q981 0 1568-658 588-658 588-1764 0-1103-588-1761-587-658-1568-658-984 0-1574 656-589 657-589 1763t589 1764q590 658 1574 658z"/>
   <path id="d" transform="scale(.015625)" d="m1959 3097q-462 0-731-361t-269-989 267-989q268-361 733-361 460 0 728 362 269 363 269 988 0 622-269 986-268 364-728 364zm0 487q750 0 1178-488 429-487 429-1349 0-859-429-1349-428-489-1178-489-753 0-1180 489-426 490-426 1349 0 862 426 1349 427 488 1180 488z"/>
   <path id="bc" transform="scale(.015625)" d="m2375 4863v-479h-550q-309 0-430-125-120-125-120-450v-309h947v-447h-947v-3053h-578v3053h-550v447h550v244q0 584 272 851 272 268 862 268h544z"/>
   <path id="e" transform="scale(.015625)" d="m2631 2963q-97 56-211 82-114 27-251 27-488 0-749-317t-261-911v-1844h-578v3500h578v-544q182 319 472 473 291 155 707 155 59 0 131-8 72-7 159-23l3-590z"/>
   <path id="b" transform="scale(.015625)" d="m3597 1894v-281h-2644q38-594 358-905t892-311q331 0 642 81t618 244v-544q-310-131-635-200t-659-69q-838 0-1327 487-489 488-489 1320 0 859 464 1363 464 505 1252 505 706 0 1117-455 411-454 411-1235zm-575 169q-6 471-264 752-258 282-683 282-481 0-770-272t-333-766l2050 4z"/>
   <path id="x" transform="scale(.015625)" d="m1259 4147v-1753h794q441 0 681 228 241 228 241 650 0 419-241 647-240 228-681 228h-794zm-631 519h1425q785 0 1186-355 402-355 402-1039 0-691-402-1044-401-353-1186-353h-794v-1875h-631v4666z"/>
   <path id="i" transform="scale(.015625)" d="m213 4666h637l981-3944 978 3944h710l981-3944 978 3944h641l-1172-4666h-794l-984 4050-994-4050h-794l-1168 4666z"/>
   <path id="p" transform="scale(.015625)" d="m2841 2188q203-69 395-294t386-619l641-1275h-679l-596 1197q-232 469-449 622t-592 153h-688v-1972h-631v4666h1425q800 0 1194-335 394-334 394-1009 0-441-205-732-205-290-595-402zm-1582 1959v-1656h794q456 0 689 211t233 620-233 617-689 208h-794z"/>
   <path id="c" transform="scale(.015625)" d="m603 3500h575v-3500h-575v3500zm0 1363h575v-729h-575v729z"/>
   <path id="be" transform="scale(.015625)" d="m628 4666h631v-4135h2272v-531h-2903v4666z"/>
   <path id="l" transform="scale(.015625)" d="m2834 3397v-544q-243 125-506 187-262 63-544 63-428 0-642-131t-214-394q0-200 153-314t616-217l197-44q612-131 870-370t258-667q0-488-386-773-386-284-1061-284-281 0-586 55t-642 164v594q319-166 628-249 309-82 613-82 406 0 624 139 219 139 219 392 0 234-158 359-157 125-692 241l-200 47q-534 112-772 345-237 233-237 639 0 494 350 762 350 269 994 269 318 0 599-47 282-46 519-140z"/>
   <path id="an" transform="scale(.015625)" d="m2188 4044-857-2322h1716l-859 2322zm-357 622h716l1778-4666h-656l-425 1197h-2103l-425-1197h-666l1781 4666z"/>
   <path id="ac" transform="scale(.015625)" d="m2906 1791q0 625-258 968-257 344-723 344-462 0-720-344-258-343-258-968 0-622 258-966t720-344q466 0 723 344 258 344 258 966zm575-1357q0-893-397-1329-396-436-1215-436-303 0-572 45t-522 139v559q253-137 500-202 247-66 503-66 566 0 847 295t281 892v285q-178-310-456-463t-666-153q-643 0-1037 490-394 491-394 1301 0 812 394 1302 394 491 1037 491 388 0 666-153t456-462v531h575v-3066z"/>
   <path id="m" transform="scale(.015625)" d="m603 4863h575v-4863h-575v4863z"/>
   <path id="aj" transform="scale(.015625)" d="m750 794h659v-538l-512-1e3h-403l256 1e3v538z"/>
   <path id="y" transform="scale(.015625)" d="m4122 4306v-665q-319 297-680 443-361 147-767 147-800 0-1225-489t-425-1414q0-922 425-1411t1225-489q406 0 767 147t680 444v-660q-331-225-702-338-370-112-782-112-1060 0-1670 648-609 649-609 1771 0 1125 609 1773 610 649 1670 649 418 0 788-111 371-111 696-333z"/>
   <path id="v" transform="scale(.015625)" d="m1984 4856q-418-718-622-1422-203-703-203-1425 0-721 205-1429t620-1424h-500q-468 735-701 1444t-233 1409q0 697 231 1403 232 707 703 1444h500z"/>
   <path id="az" transform="scale(.015625)" d="m2597 2516q453-97 707-404 255-306 255-756 0-690-475-1069-475-378-1350-378-293 0-604 58t-642 174v609q262-153 574-231 313-78 654-78 593 0 904 234t311 681q0 413-289 645-289 233-804 233h-544v519h569q465 0 712 186t247 536q0 359-255 551-254 193-729 193-260 0-557-57-297-56-653-174v562q360 100 674 150t592 50q719 0 1137-327 419-326 419-882 0-388-222-655t-631-370z"/>
   <path id="k" transform="scale(.015625)" d="m628 4666h941l1190-3175 1197 3175h941v-4666h-616v4097l-1203-3200h-634l-1203 3200v-4097h-613v4666z"/>
   <path id="q" transform="scale(.015625)" d="m3078 2063q10 50 14 103 5 53 5 106 0 381-224 603-223 222-607 222-428 0-757-271-328-270-496-767l2065 4zm500-450h-2675q-19-119-25-188t-6-119q0-434 267-672 267-237 755-237 375 0 709 84 335 85 622 247l-109-569q-310-125-640-187-329-63-670-63-728 0-1120 348-392 349-392 990 0 547 195 1017t574 839q243 231 579 356t714 125q594 0 945-356 352-356 352-956 0-144-19-308-18-164-56-351z"/>
   <path id="u" transform="scale(.015625)" d="m513 4856h500q468-737 701-1444 233-706 233-1403 0-700-233-1409t-701-1444h-500q415 716 620 1424t205 1429q0 722-205 1425-205 704-620 1422z"/>
  </defs>
  <use transform="translate(0 .015625)" xlink:href="#ad"/>
  <use transform="translate(63.477 .015625)" xlink:href="#f"/>
  <use transform="translate(124.76 .015625)" xlink:href="#g"/>
  <use transform="translate(188.13 .015625)" xlink:href="#DejaVuSans-20"/>
  <use transform="translate(219.92 .015625)" xlink:href="#av"/>
  <use transform="translate(298.63 .015625)" xlink:href="#g"/>
  <use transform="translate(362.01 .015625)" xlink:href="#d"/>
  <use transform="translate(423.19 .015625)" xlink:href="#bc"/>
  <use transform="translate(458.4 .015625)" xlink:href="#e"/>
  <use transform="translate(499.51 .015625)" xlink:href="#b"/>
  <use transform="translate(561.04 .015625)" xlink:href="#DejaVuSans-20"/>
  <use transform="translate(592.82 .015625)" xlink:href="#x"/>
  <use transform="translate(653.12 .015625)" xlink:href="#i"/>
  <use transform="translate(752 .015625)" xlink:href="#p"/>
  <use transform="translate(821.48 .015625)" xlink:href="#DejaVuSans-20"/>
  <use transform="translate(853.27 .015625)" xlink:href="#c"/>
  <use transform="translate(881.05 .015625)" xlink:href="#g"/>
  <use transform="translate(944.43 .015625)" xlink:href="#DejaVuSans-20"/>
  <use transform="translate(976.22 .015625)" xlink:href="#be"/>
  <use transform="translate(1031.9 .015625)" xlink:href="#d"/>
  <use transform="translate(1093.1 .015625)" xlink:href="#l"/>
  <use transform="translate(1145.2 .015625)" xlink:href="#DejaVuSans-20"/>
  <use transform="translate(1177 .015625)" xlink:href="#an"/>
  <use transform="translate(1245.4 .015625)" xlink:href="#g"/>
  <use transform="translate(1308.8 .015625)" xlink:href="#ac"/>
  <use transform="translate(1372.3 .015625)" xlink:href="#b"/>
  <use transform="translate(1433.8 .015625)" xlink:href="#m"/>
  <use transform="translate(1461.6 .015625)" xlink:href="#b"/>
  <use transform="translate(1523.1 .015625)" xlink:href="#l"/>
  <use transform="translate(1575.2 .015625)" xlink:href="#aj"/>
  <use transform="translate(1607 .015625)" xlink:href="#DejaVuSans-20"/>
  <use transform="translate(1638.8 .015625)" xlink:href="#y"/>
  <use transform="translate(1708.6 .015625)" xlink:href="#an"/>
  <use transform="translate(1777 .015625)" xlink:href="#DejaVuSans-20"/>
  <use transform="translate(1808.8 .015625)" xlink:href="#v"/>
  <use transform="translate(1847.8 .015625)" xlink:href="#az"/>
  <use transform="translate(1911.4 .015625)" xlink:href="#t"/>
  <use transform="translate(1975 .015625)" xlink:href="#z"/>
  <use transform="translate(2038.7 .015625)" xlink:href="#DejaVuSans-20"/>
  <use transform="translate(2070.5 .015625)" xlink:href="#k"/>
  <use transform="translate(2156.7 .015625)" xlink:href="#i"/>
  <use transform="translate(2256.6 -16.391) scale(.7)" xlink:href="#q"/>
  <use transform="translate(2302.4 .015625)" xlink:href="#u"/>
 </g>
 <g transform="translate(1036.1 897.67) scale(.14 -.14)">
  <defs>
   <path id="ao" transform="scale(.015625)" d="m1228 531h2203v-531h-2962v531q359 372 979 998 621 627 780 809 303 340 423 576 121 236 121 464 0 372-261 606-261 235-680 235-297 0-627-103-329-103-704-313v638q381 153 712 231 332 78 607 78 725 0 1156-363 431-362 431-968 0-288-108-546-107-257-392-607-78-91-497-524-418-433-1181-1211z"/>
   <path id="ap" transform="scale(.015625)" d="m5050 2147v-281l-1228-1228-375 375 728 728h-3809v531h3809l-728 728 375 375 1228-1228z"/>
  </defs>
  <use xlink:href="#o"/>
  <use x="63.623047" xlink:href="#t"/>
  <use x="127.246094" xlink:href="#t"/>
  <use x="190.869141" xlink:href="#ao"/>
  <use x="254.492188" xlink:href="#DejaVuSans-20"/>
  <use x="286.279297" xlink:href="#ap"/>
 </g>
 <g transform="translate(517.74 834.8) scale(.17 -.17)">
  <defs>
   <path id="ae" transform="scale(.015625)" d="m1259 2228v-1709h1013q509 0 754 211 246 211 246 645 0 438-246 645-245 208-754 208h-1013zm0 1919v-1406h935q462 0 688 173 227 174 227 530 0 353-227 528-226 175-688 175h-935zm-631 519h1613q722 0 1112-300 391-300 391-853 0-429-200-682t-588-315q466-100 724-418 258-317 258-792 0-625-425-966-425-340-1210-340h-1675v4666z"/>
   <path id="aw" transform="scale(.015625)" d="m628 4666h631v-4666h-631v4666z"/>
  </defs>
  <use transform="translate(0 .015625)" xlink:href="#be"/>
  <use transform="translate(55.713 .015625)" xlink:href="#f"/>
  <use transform="translate(116.99 .015625)" xlink:href="#DejaVuSans-20"/>
  <use transform="translate(148.78 .015625)" xlink:href="#y"/>
  <use transform="translate(218.6 .015625)" xlink:href="#e"/>
  <use transform="translate(259.72 .015625)" xlink:href="#d"/>
  <use transform="translate(320.9 .015625)" xlink:href="#l"/>
  <use transform="translate(373 .015625)" xlink:href="#l"/>
  <use transform="translate(425.1 .015625)" xlink:href="#b"/>
  <use transform="translate(486.62 .015625)" xlink:href="#DejaVuSans-20"/>
  <use transform="translate(518.41 .015625)" xlink:href="#ae"/>
  <use transform="translate(587.01 .015625)" xlink:href="#i"/>
  <use transform="translate(685.89 .015625)" xlink:href="#p"/>
  <use transform="translate(755.37 .015625)" xlink:href="#DejaVuSans-20"/>
  <use transform="translate(787.16 .015625)" xlink:href="#c"/>
  <use transform="translate(814.94 .015625)" xlink:href="#g"/>
  <use transform="translate(878.32 .015625)" xlink:href="#DejaVuSans-20"/>
  <use transform="translate(910.11 .015625)" xlink:href="#i"/>
  <use transform="translate(1009 .015625)" xlink:href="#aw"/>
  <use transform="translate(1038.5 .015625)" xlink:href="#DejaVuSans-20"/>
  <use transform="translate(1070.3 .015625)" xlink:href="#v"/>
  <use transform="translate(1109.3 .015625)" xlink:href="#z"/>
  <use transform="translate(1172.9 .015625)" xlink:href="#ah"/>
  <use transform="translate(1236.5 .015625)" xlink:href="#DejaVuSans-20"/>
  <use transform="translate(1268.3 .015625)" xlink:href="#k"/>
  <use transform="translate(1354.6 .015625)" xlink:href="#i"/>
  <use transform="translate(1454.4 -16.391) scale(.7)" xlink:href="#q"/>
  <use transform="translate(1500.2 .015625)" xlink:href="#u"/>
 </g>
 <g transform="translate(1036.1 835.43) scale(.14 -.14)">
  <defs>
   <path id="bh" transform="scale(.015625)" d="m2034 2216q-450 0-708-241-257-241-257-662 0-422 257-663 258-241 708-241t709 242q260 243 260 662 0 421-258 662-257 241-711 241zm-631 268q-406 100-633 378-226 279-226 679 0 559 398 884 399 325 1092 325 697 0 1094-325t397-884q0-400-227-679-226-278-629-378 456-106 710-416 255-309 255-755 0-679-414-1042-414-362-1186-362-771 0-1186 362-414 363-414 1042 0 446 256 755 257 310 713 416zm-231 997q0-362 226-565 227-203 636-203 407 0 636 203 230 203 230 565 0 363-230 566-229 203-636 203-409 0-636-203-226-203-226-566z"/>
  </defs>
  <use xlink:href="#o"/>
  <use x="63.623047" xlink:href="#t"/>
  <use x="127.246094" xlink:href="#bh"/>
  <use x="190.869141" xlink:href="#ag"/>
  <use x="254.492188" xlink:href="#DejaVuSans-20"/>
  <use x="286.279297" xlink:href="#ap"/>
 </g>
 <g transform="translate(433.67 772.53) scale(.17 -.17)">
  <defs>
   <path id="s" transform="scale(.015625)" d="m3122 3366v-538q-244 135-489 202t-495 67q-560 0-870-355-309-354-309-995t309-996q310-354 870-354 250 0 495 67t489 202v-532q-241-112-499-168-257-57-548-57-791 0-1257 497-465 497-465 1341 0 856 470 1346 471 491 1290 491 265 0 518-55 253-54 491-163z"/>
   <path id="at" transform="scale(.015625)" d="m581 4863h578v-2872l1716 1509h734l-1856-1637 1935-1863h-750l-1779 1709v-1709h-578v4863z"/>
   <path id="h" transform="scale(.015625)" d="m1172 4494v-994h1184v-447h-1184v-1900q0-428 117-550t477-122h590v-481h-590q-666 0-919 248-253 249-253 905v1900h-422v447h422v994h578z"/>
   <path id="n" transform="scale(.015625)" d="m3513 2113v-2113h-575v2094q0 497-194 743-194 247-581 247-466 0-735-297-269-296-269-809v-1978h-578v4863h578v-1907q207 316 486 472 280 156 646 156 603 0 912-373 310-373 310-1098z"/>
   <path id="aa" transform="scale(.015625)" d="m1159 525v-1856h-578v4831h578v-531q182 312 458 463 277 152 661 152 638 0 1036-506 399-506 399-1331t-399-1332q-398-506-1036-506-384 0-661 152-276 152-458 464zm1957 1222q0 634-261 995t-717 361q-457 0-718-361t-261-995 261-995 718-361q456 0 717 361t261 995z"/>
   <path id="af" transform="scale(.015625)" d="m269 3500h575l719-2731 715 2731h678l719-2731 716 2731h575l-916-3500h-678l-753 2869-756-2869h-679l-915 3500z"/>
   <path id="r" transform="scale(.015625)" d="m2906 2969v1894h575v-4863h-575v525q-181-312-458-464-276-152-664-152-634 0-1033 506-398 507-398 1332t398 1331q399 506 1033 506 388 0 664-152 277-151 458-463zm-1959-1222q0-634 261-995t717-361 718 361q263 361 263 995t-263 995q-262 361-718 361t-717-361-261-995z"/>
   <path id="as" transform="scale(.015625)" d="m2059-325q-243-625-475-815-231-191-618-191h-460v481h338q237 0 368 113 132 112 291 531l103 262-1415 3444h609l1094-2737 1094 2737h609l-1538-3825z"/>
   <path id="aq" transform="scale(.015625)" d="m191 3500h609l1094-2937 1094 2937h609l-1313-3500h-781l-1312 3500z"/>
   <path id="bb" transform="scale(.015625)" d="m3513 3500-1266-1703 1331-1797h-678l-1019 1375-1018-1375h-679l1360 1831-1244 1669h678l928-1247 928 1247h679z"/>
  </defs>
  <use transform="translate(0 .015625)" xlink:href="#ae"/>
  <use transform="translate(68.604 .015625)" xlink:href="#c"/>
  <use transform="translate(96.387 .015625)" xlink:href="#ac"/>
  <use transform="translate(159.86 .015625)" xlink:href="#DejaVuSans-20"/>
  <use transform="translate(191.65 .015625)" xlink:href="#p"/>
  <use transform="translate(261.13 .015625)" xlink:href="#d"/>
  <use transform="translate(322.31 .015625)" xlink:href="#s"/>
  <use transform="translate(377.29 .015625)" xlink:href="#at"/>
  <use transform="translate(435.21 .015625)" xlink:href="#DejaVuSans-20"/>
  <use transform="translate(466.99 .015625)" xlink:href="#x"/>
  <use transform="translate(527.29 .015625)" xlink:href="#d"/>
  <use transform="translate(588.48 .015625)" xlink:href="#c"/>
  <use transform="translate(616.26 .015625)" xlink:href="#g"/>
  <use transform="translate(679.64 .015625)" xlink:href="#h"/>
  <use transform="translate(718.85 .015625)" xlink:href="#DejaVuSans-20"/>
  <use transform="translate(750.63 .015625)" xlink:href="#n"/>
  <use transform="translate(814.01 .015625)" xlink:href="#c"/>
  <use transform="translate(841.8 .015625)" xlink:href="#ac"/>
  <use transform="translate(905.27 .015625)" xlink:href="#n"/>
  <use transform="translate(968.65 .015625)" xlink:href="#DejaVuSans-20"/>
  <use transform="translate(1000.4 .015625)" xlink:href="#aa"/>
  <use transform="translate(1063.9 .015625)" xlink:href="#d"/>
  <use transform="translate(1125.1 .015625)" xlink:href="#af"/>
  <use transform="translate(1206.9 .015625)" xlink:href="#b"/>
  <use transform="translate(1268.4 .015625)" xlink:href="#e"/>
  <use transform="translate(1309.5 .015625)" xlink:href="#DejaVuSans-20"/>
  <use transform="translate(1341.3 .015625)" xlink:href="#r"/>
  <use transform="translate(1404.8 .015625)" xlink:href="#b"/>
  <use transform="translate(1466.3 .015625)" xlink:href="#g"/>
  <use transform="translate(1529.7 .015625)" xlink:href="#l"/>
  <use transform="translate(1581.8 .015625)" xlink:href="#c"/>
  <use transform="translate(1609.6 .015625)" xlink:href="#h"/>
  <use transform="translate(1648.8 .015625)" xlink:href="#as"/>
  <use transform="translate(1708 .015625)" xlink:href="#DejaVuSans-20"/>
  <use transform="translate(1739.7 .015625)" xlink:href="#ae"/>
  <use transform="translate(1808.3 .015625)" xlink:href="#i"/>
  <use transform="translate(1907.2 .015625)" xlink:href="#p"/>
  <use transform="translate(1976.7 .015625)" xlink:href="#DejaVuSans-20"/>
  <use transform="translate(2008.5 .015625)" xlink:href="#c"/>
  <use transform="translate(2036.3 .015625)" xlink:href="#g"/>
  <use transform="translate(2099.7 .015625)" xlink:href="#DejaVuSans-20"/>
  <use transform="translate(2131.4 .015625)" xlink:href="#y"/>
  <use transform="translate(2201.3 .015625)" xlink:href="#n"/>
  <use transform="translate(2264.6 .015625)" xlink:href="#f"/>
  <use transform="translate(2325.9 .015625)" xlink:href="#e"/>
  <use transform="translate(2367 .015625)" xlink:href="#m"/>
  <use transform="translate(2394.8 .015625)" xlink:href="#b"/>
  <use transform="translate(2456.3 .015625)" xlink:href="#aq"/>
  <use transform="translate(2515.5 .015625)" xlink:href="#d"/>
  <use transform="translate(2576.7 .015625)" xlink:href="#c"/>
  <use transform="translate(2604.5 .015625)" xlink:href="#bb"/>
  <use transform="translate(2663.7 .015625)" xlink:href="#aj"/>
  <use transform="translate(2695.5 .015625)" xlink:href="#DejaVuSans-20"/>
  <use transform="translate(2727.2 .015625)" xlink:href="#k"/>
  <use transform="translate(2813.5 .015625)" xlink:href="#aw"/>
  <use transform="translate(2843 .015625)" xlink:href="#DejaVuSans-20"/>
  <use transform="translate(2874.8 .015625)" xlink:href="#v"/>
  <use transform="translate(2913.8 .015625)" xlink:href="#ag"/>
  <use transform="translate(2977.4 .015625)" xlink:href="#z"/>
  <use transform="translate(3041.1 .015625)" xlink:href="#DejaVuSans-20"/>
  <use transform="translate(3072.9 .015625)" xlink:href="#k"/>
  <use transform="translate(3159.1 .015625)" xlink:href="#i"/>
  <use transform="translate(3259 -16.391) scale(.7)" xlink:href="#q"/>
  <use transform="translate(3304.8 .015625)" xlink:href="#u"/>
 </g>
 <g transform="translate(1036.1 773.18) scale(.14 -.14)">
  <use xlink:href="#o"/>
  <use x="63.623047" xlink:href="#t"/>
  <use x="127.246094" xlink:href="#t"/>
  <use x="190.869141" xlink:href="#ag"/>
  <use x="254.492188" xlink:href="#DejaVuSans-20"/>
  <use x="286.279297" xlink:href="#ap"/>
 </g>
 <g transform="translate(370.57 710.28) scale(.17 -.17)">
  <defs>
   <path id="au" transform="scale(.015625)" d="m3116 1747q0 634-261 995t-717 361q-457 0-718-361t-261-995 261-995 718-361q456 0 717 361t261 995zm-1957 1222q182 312 458 463 277 152 661 152 638 0 1036-506 399-506 399-1331t-399-1332q-398-506-1036-506-384 0-661 152-276 152-458 464v-525h-578v4863h578v-1894z"/>
   <path id="ab" transform="scale(.015625)" d="m3328 2828q216 388 516 572t706 184q547 0 844-383 297-382 297-1088v-2113h-578v2094q0 503-179 746-178 244-543 244-447 0-707-297-259-296-259-809v-1978h-578v2094q0 506-178 748t-550 242q-441 0-701-298-259-298-259-808v-1978h-578v3500h578v-544q197 322 472 475t653 153q382 0 649-194 267-193 395-562z"/>
   <path id="w" transform="scale(.015625)" d="m544 1381v2119h575v-2097q0-497 193-746 194-248 582-248 465 0 735 297 271 297 271 810v1984h575v-3500h-575v538q-209-319-486-474-276-155-642-155-603 0-916 375-312 375-312 1097zm1447 2203z"/>
   <path id="ai" transform="scale(.015625)" d="m313 2009h1684v-512h-1684v512z"/>
   <path id="ay" transform="scale(.015625)" d="m2419 4116-1594-2491h1594v2491zm-166 550h794v-3041h666v-525h-666v-1100h-628v1100h-2106v609l1940 2957z"/>
  </defs>
  <use transform="translate(0 .015625)" xlink:href="#x"/>
  <use transform="translate(60.303 .015625)" xlink:href="#b"/>
  <use transform="translate(121.83 .015625)" xlink:href="#f"/>
  <use transform="translate(183.11 .015625)" xlink:href="#s"/>
  <use transform="translate(238.09 .015625)" xlink:href="#n"/>
  <use transform="translate(301.46 .015625)" xlink:href="#DejaVuSans-20"/>
  <use transform="translate(333.25 .015625)" xlink:href="#au"/>
  <use transform="translate(396.73 .015625)" xlink:href="#d"/>
  <use transform="translate(457.91 .015625)" xlink:href="#h"/>
  <use transform="translate(497.12 .015625)" xlink:href="#h"/>
  <use transform="translate(536.33 .015625)" xlink:href="#d"/>
  <use transform="translate(597.51 .015625)" xlink:href="#ab"/>
  <use transform="translate(694.92 .015625)" xlink:href="#DejaVuSans-20"/>
  <use transform="translate(726.71 .015625)" xlink:href="#n"/>
  <use transform="translate(790.09 .015625)" xlink:href="#b"/>
  <use transform="translate(851.61 .015625)" xlink:href="#m"/>
  <use transform="translate(879.39 .015625)" xlink:href="#c"/>
  <use transform="translate(907.18 .015625)" xlink:href="#w"/>
  <use transform="translate(970.56 .015625)" xlink:href="#ab"/>
  <use transform="translate(1066.2 .015625)" xlink:href="#ai"/>
  <use transform="translate(1102.3 .015625)" xlink:href="#s"/>
  <use transform="translate(1157.3 .015625)" xlink:href="#d"/>
  <use transform="translate(1218.5 .015625)" xlink:href="#d"/>
  <use transform="translate(1279.6 .015625)" xlink:href="#m"/>
  <use transform="translate(1307.4 .015625)" xlink:href="#b"/>
  <use transform="translate(1369 .015625)" xlink:href="#r"/>
  <use transform="translate(1432.4 .015625)" xlink:href="#DejaVuSans-20"/>
  <use transform="translate(1464.2 .015625)" xlink:href="#ac"/>
  <use transform="translate(1527.7 .015625)" xlink:href="#e"/>
  <use transform="translate(1568.8 .015625)" xlink:href="#f"/>
  <use transform="translate(1630.1 .015625)" xlink:href="#aa"/>
  <use transform="translate(1693.6 .015625)" xlink:href="#n"/>
  <use transform="translate(1756.9 .015625)" xlink:href="#c"/>
  <use transform="translate(1784.7 .015625)" xlink:href="#h"/>
  <use transform="translate(1823.9 .015625)" xlink:href="#b"/>
  <use transform="translate(1885.5 .015625)" xlink:href="#ai"/>
  <use transform="translate(1919.8 .015625)" xlink:href="#ab"/>
  <use transform="translate(2017.2 .015625)" xlink:href="#d"/>
  <use transform="translate(2078.4 .015625)" xlink:href="#r"/>
  <use transform="translate(2141.9 .015625)" xlink:href="#b"/>
  <use transform="translate(2203.4 .015625)" xlink:href="#e"/>
  <use transform="translate(2244.5 .015625)" xlink:href="#f"/>
  <use transform="translate(2305.8 .015625)" xlink:href="#h"/>
  <use transform="translate(2345 .015625)" xlink:href="#b"/>
  <use transform="translate(2406.5 .015625)" xlink:href="#r"/>
  <use transform="translate(2470 .015625)" xlink:href="#DejaVuSans-20"/>
  <use transform="translate(2501.8 .015625)" xlink:href="#c"/>
  <use transform="translate(2529.6 .015625)" xlink:href="#g"/>
  <use transform="translate(2592.9 .015625)" xlink:href="#DejaVuSans-20"/>
  <use transform="translate(2624.7 .015625)" xlink:href="#x"/>
  <use transform="translate(2685 .015625)" xlink:href="#an"/>
  <use transform="translate(2753.4 .015625)" xlink:href="#DejaVuSans-20"/>
  <use transform="translate(2785.2 .015625)" xlink:href="#v"/>
  <use transform="translate(2824.2 .015625)" xlink:href="#ay"/>
  <use transform="translate(2887.9 .015625)" xlink:href="#ah"/>
  <use transform="translate(2951.5 .015625)" xlink:href="#DejaVuSans-20"/>
  <use transform="translate(2983.3 .015625)" xlink:href="#k"/>
  <use transform="translate(3069.5 .015625)" xlink:href="#i"/>
  <use transform="translate(3169.4 -16.391) scale(.7)" xlink:href="#q"/>
  <use transform="translate(3215.2 .015625)" xlink:href="#u"/>
 </g>
 <g transform="translate(358.24 648.04) scale(.17 -.17)">
  <defs>
   <path id="am" transform="scale(.015625)" d="m628 4666h850l2069-3903v3903h612v-4666h-850l-2068 3903v-3903h-613v4666z"/>
   <path id="bl" transform="scale(.015625)" d="m556 4666h635v-2835q0-750 271-1080 272-329 882-329 606 0 878 329 272 330 272 1080v2835h634v-2913q0-912-452-1378-451-466-1332-466-885 0-1337 466-451 466-451 1378v2913z"/>
   <path id="bi" transform="scale(.015625)" d="m1959 3097q-462 0-731-361t-269-989 267-989q268-361 733-361 460 0 728 362 269 363 269 988 0 622-269 986-268 364-728 364zm0 487q750 0 1178-488 429-487 429-1349 0-859-429-1349-428-489-1178-489-753 0-1180 489-426 490-426 1349 0 862 426 1349 427 488 1180 488zm435 1535h622l-1019-1175h-478l875 1175z"/>
   <path id="ba" transform="scale(.015625)" d="m684 794h660v-794h-660v794z"/>
  </defs>
  <use transform="translate(0 .015625)" xlink:href="#ae"/>
  <use transform="translate(68.604 .015625)" xlink:href="#av"/>
  <use transform="translate(147.31 .015625)" xlink:href="#am"/>
  <use transform="translate(222.12 .015625)" xlink:href="#bl"/>
  <use transform="translate(295.31 .015625)" xlink:href="#ad"/>
  <use transform="translate(358.79 .015625)" xlink:href="#DejaVuSans-20"/>
  <use transform="translate(390.58 .015625)" xlink:href="#l"/>
  <use transform="translate(442.68 .015625)" xlink:href="#w"/>
  <use transform="translate(506.05 .015625)" xlink:href="#aa"/>
  <use transform="translate(569.53 .015625)" xlink:href="#b"/>
  <use transform="translate(631.05 .015625)" xlink:href="#e"/>
  <use transform="translate(672.17 .015625)" xlink:href="#n"/>
  <use transform="translate(735.55 .015625)" xlink:href="#b"/>
  <use transform="translate(797.07 .015625)" xlink:href="#f"/>
  <use transform="translate(858.35 .015625)" xlink:href="#h"/>
  <use transform="translate(897.56 .015625)" xlink:href="#DejaVuSans-20"/>
  <use transform="translate(929.35 .015625)" xlink:href="#ae"/>
  <use transform="translate(997.95 .015625)" xlink:href="#i"/>
  <use transform="translate(1096.8 .015625)" xlink:href="#p"/>
  <use transform="translate(1166.3 .015625)" xlink:href="#DejaVuSans-20"/>
  <use transform="translate(1198.1 .015625)" xlink:href="#c"/>
  <use transform="translate(1225.9 .015625)" xlink:href="#g"/>
  <use transform="translate(1289.3 .015625)" xlink:href="#DejaVuSans-20"/>
  <use transform="translate(1321 .015625)" xlink:href="#p"/>
  <use transform="translate(1390.5 .015625)" xlink:href="#c"/>
  <use transform="translate(1418.3 .015625)" xlink:href="#g"/>
  <use transform="translate(1481.7 .015625)" xlink:href="#s"/>
  <use transform="translate(1536.7 .015625)" xlink:href="#bi"/>
  <use transform="translate(1597.9 .015625)" xlink:href="#g"/>
  <use transform="translate(1661.2 .015625)" xlink:href="#aj"/>
  <use transform="translate(1693 .015625)" xlink:href="#DejaVuSans-20"/>
  <use transform="translate(1724.8 .015625)" xlink:href="#x"/>
  <use transform="translate(1785.1 .015625)" xlink:href="#w"/>
  <use transform="translate(1848.5 .015625)" xlink:href="#b"/>
  <use transform="translate(1910 .015625)" xlink:href="#e"/>
  <use transform="translate(1951.1 .015625)" xlink:href="#h"/>
  <use transform="translate(1990.3 .015625)" xlink:href="#d"/>
  <use transform="translate(2051.5 .015625)" xlink:href="#DejaVuSans-20"/>
  <use transform="translate(2083.3 .015625)" xlink:href="#p"/>
  <use transform="translate(2152.8 .015625)" xlink:href="#c"/>
  <use transform="translate(2180.6 .015625)" xlink:href="#s"/>
  <use transform="translate(2235.5 .015625)" xlink:href="#d"/>
  <use transform="translate(2296.7 .015625)" xlink:href="#DejaVuSans-20"/>
  <use transform="translate(2328.5 .015625)" xlink:href="#v"/>
  <use transform="translate(2367.5 .015625)" xlink:href="#o"/>
  <use transform="translate(2431.2 .015625)" xlink:href="#ak"/>
  <use transform="translate(2494.8 .015625)" xlink:href="#ba"/>
  <use transform="translate(2526.6 .015625)" xlink:href="#az"/>
  <use transform="translate(2590.2 .015625)" xlink:href="#DejaVuSans-20"/>
  <use transform="translate(2622 .015625)" xlink:href="#k"/>
  <use transform="translate(2708.3 .015625)" xlink:href="#i"/>
  <use transform="translate(2808.1 -16.391) scale(.7)" xlink:href="#q"/>
  <use transform="translate(2853.9 .015625)" xlink:href="#u"/>
 </g>
 <g transform="translate(302.56 585.8) scale(.17 -.17)">
  <defs>
   <path id="ax" transform="scale(.015625)" d="m628 4666h2950v-532h-2319v-1381h2222v-531h-2222v-1691h2375v-531h-3006v4666z"/>
   <path id="bn" transform="scale(.015625)" d="m3809 666v1253h-1031v519h1656v-2004q-365-259-806-392-440-133-940-133-1094 0-1712 639-617 640-617 1780 0 1144 617 1783 618 639 1712 639 456 0 867-113 411-112 758-331v-672q-350 297-744 447t-828 150q-857 0-1287-478-429-478-429-1425 0-944 429-1422 430-478 1287-478 334 0 596 58 263 58 472 180z"/>
   <path id="ar" transform="scale(.015625)" d="m628 4666h2681v-532h-2050v-1375h1850v-531h-1850v-2228h-631v4666z"/>
  </defs>
  <use transform="translate(0 .015625)" xlink:href="#ax"/>
  <use transform="translate(63.184 .015625)" xlink:href="#y"/>
  <use transform="translate(133.01 .015625)" xlink:href="#am"/>
  <use transform="translate(207.81 .015625)" xlink:href="#bn"/>
  <use transform="translate(285.3 .015625)" xlink:href="#DejaVuSans-20"/>
  <use transform="translate(317.09 .015625)" xlink:href="#ac"/>
  <use transform="translate(380.57 .015625)" xlink:href="#f"/>
  <use transform="translate(441.85 .015625)" xlink:href="#l"/>
  <use transform="translate(493.95 .015625)" xlink:href="#ai"/>
  <use transform="translate(530.03 .015625)" xlink:href="#s"/>
  <use transform="translate(585.01 .015625)" xlink:href="#d"/>
  <use transform="translate(646.19 .015625)" xlink:href="#d"/>
  <use transform="translate(707.37 .015625)" xlink:href="#m"/>
  <use transform="translate(735.16 .015625)" xlink:href="#b"/>
  <use transform="translate(796.68 .015625)" xlink:href="#r"/>
  <use transform="translate(860.16 .015625)" xlink:href="#DejaVuSans-20"/>
  <use transform="translate(891.94 .015625)" xlink:href="#n"/>
  <use transform="translate(955.32 .015625)" xlink:href="#b"/>
  <use transform="translate(1016.8 .015625)" xlink:href="#f"/>
  <use transform="translate(1078.1 .015625)" xlink:href="#aq"/>
  <use transform="translate(1137.3 .015625)" xlink:href="#as"/>
  <use transform="translate(1196.5 .015625)" xlink:href="#DejaVuSans-20"/>
  <use transform="translate(1228.3 .015625)" xlink:href="#af"/>
  <use transform="translate(1310.1 .015625)" xlink:href="#f"/>
  <use transform="translate(1371.3 .015625)" xlink:href="#h"/>
  <use transform="translate(1410.5 .015625)" xlink:href="#b"/>
  <use transform="translate(1472.1 .015625)" xlink:href="#e"/>
  <use transform="translate(1513.2 .015625)" xlink:href="#DejaVuSans-20"/>
  <use transform="translate(1545 .015625)" xlink:href="#aa"/>
  <use transform="translate(1608.4 .015625)" xlink:href="#e"/>
  <use transform="translate(1649.6 .015625)" xlink:href="#b"/>
  <use transform="translate(1711.1 .015625)" xlink:href="#l"/>
  <use transform="translate(1763.2 .015625)" xlink:href="#l"/>
  <use transform="translate(1815.3 .015625)" xlink:href="#w"/>
  <use transform="translate(1878.7 .015625)" xlink:href="#e"/>
  <use transform="translate(1919.8 .015625)" xlink:href="#b"/>
  <use transform="translate(1981.3 .015625)" xlink:href="#DejaVuSans-20"/>
  <use transform="translate(2013.1 .015625)" xlink:href="#h"/>
  <use transform="translate(2052.3 .015625)" xlink:href="#w"/>
  <use transform="translate(2115.7 .015625)" xlink:href="#au"/>
  <use transform="translate(2179.2 .015625)" xlink:href="#b"/>
  <use transform="translate(2240.7 .015625)" xlink:href="#DejaVuSans-20"/>
  <use transform="translate(2272.5 .015625)" xlink:href="#c"/>
  <use transform="translate(2300.2 .015625)" xlink:href="#g"/>
  <use transform="translate(2363.6 .015625)" xlink:href="#DejaVuSans-20"/>
  <use transform="translate(2395.4 .015625)" xlink:href="#ar"/>
  <use transform="translate(2452.9 .015625)" xlink:href="#m"/>
  <use transform="translate(2480.7 .015625)" xlink:href="#d"/>
  <use transform="translate(2541.9 .015625)" xlink:href="#e"/>
  <use transform="translate(2583 .015625)" xlink:href="#c"/>
  <use transform="translate(2610.8 .015625)" xlink:href="#r"/>
  <use transform="translate(2674.3 .015625)" xlink:href="#f"/>
  <use transform="translate(2735.5 .015625)" xlink:href="#DejaVuSans-20"/>
  <use transform="translate(2767.3 .015625)" xlink:href="#v"/>
  <use transform="translate(2806.3 .015625)" xlink:href="#z"/>
  <use transform="translate(2870 .015625)" xlink:href="#ah"/>
  <use transform="translate(2933.6 .015625)" xlink:href="#DejaVuSans-20"/>
  <use transform="translate(2965.4 .015625)" xlink:href="#k"/>
  <use transform="translate(3051.7 .015625)" xlink:href="#i"/>
  <use transform="translate(3151.5 -16.391) scale(.7)" xlink:href="#q"/>
  <use transform="translate(3197.3 .015625)" xlink:href="#u"/>
 </g>
 <g transform="translate(302.56 523.55) scale(.17 -.17)">
  <defs>
   <path id="bk" transform="scale(.015625)" d="m1831 0-1781 4666h659l1479-3928 1481 3928h656l-1778-4666h-716z"/>
  </defs>
  <use transform="translate(0 .015625)" xlink:href="#y"/>
  <use transform="translate(69.824 .015625)" xlink:href="#f"/>
  <use transform="translate(131.1 .015625)" xlink:href="#e"/>
  <use transform="translate(172.22 .015625)" xlink:href="#d"/>
  <use transform="translate(233.4 .015625)" xlink:href="#m"/>
  <use transform="translate(261.18 .015625)" xlink:href="#c"/>
  <use transform="translate(288.96 .015625)" xlink:href="#g"/>
  <use transform="translate(352.34 .015625)" xlink:href="#f"/>
  <use transform="translate(413.62 .015625)" xlink:href="#l"/>
  <use transform="translate(465.72 .015625)" xlink:href="#ai"/>
  <use transform="translate(501.81 .015625)" xlink:href="#bk"/>
  <use transform="translate(570.21 .015625)" xlink:href="#c"/>
  <use transform="translate(598 .015625)" xlink:href="#e"/>
  <use transform="translate(639.11 .015625)" xlink:href="#ac"/>
  <use transform="translate(702.59 .015625)" xlink:href="#c"/>
  <use transform="translate(730.37 .015625)" xlink:href="#g"/>
  <use transform="translate(793.75 .015625)" xlink:href="#c"/>
  <use transform="translate(821.53 .015625)" xlink:href="#f"/>
  <use transform="translate(882.81 .015625)" xlink:href="#DejaVuSans-20"/>
  <use transform="translate(914.6 .015625)" xlink:href="#aa"/>
  <use transform="translate(978.08 .015625)" xlink:href="#e"/>
  <use transform="translate(1019.2 .015625)" xlink:href="#b"/>
  <use transform="translate(1080.7 .015625)" xlink:href="#l"/>
  <use transform="translate(1132.8 .015625)" xlink:href="#l"/>
  <use transform="translate(1184.9 .015625)" xlink:href="#w"/>
  <use transform="translate(1248.3 .015625)" xlink:href="#e"/>
  <use transform="translate(1289.4 .015625)" xlink:href="#b"/>
  <use transform="translate(1350.9 .015625)" xlink:href="#DejaVuSans-20"/>
  <use transform="translate(1382.7 .015625)" xlink:href="#h"/>
  <use transform="translate(1421.9 .015625)" xlink:href="#w"/>
  <use transform="translate(1485.3 .015625)" xlink:href="#au"/>
  <use transform="translate(1548.8 .015625)" xlink:href="#b"/>
  <use transform="translate(1610.3 .015625)" xlink:href="#DejaVuSans-20"/>
  <use transform="translate(1642.1 .015625)" xlink:href="#n"/>
  <use transform="translate(1705.5 .015625)" xlink:href="#b"/>
  <use transform="translate(1767 .015625)" xlink:href="#f"/>
  <use transform="translate(1828.3 .015625)" xlink:href="#aq"/>
  <use transform="translate(1887.5 .015625)" xlink:href="#as"/>
  <use transform="translate(1946.6 .015625)" xlink:href="#DejaVuSans-20"/>
  <use transform="translate(1978.4 .015625)" xlink:href="#af"/>
  <use transform="translate(2060.2 .015625)" xlink:href="#f"/>
  <use transform="translate(2121.5 .015625)" xlink:href="#h"/>
  <use transform="translate(2160.7 .015625)" xlink:href="#b"/>
  <use transform="translate(2222.2 .015625)" xlink:href="#e"/>
  <use transform="translate(2263.3 .015625)" xlink:href="#DejaVuSans-20"/>
  <use transform="translate(2295.1 .015625)" xlink:href="#c"/>
  <use transform="translate(2322.9 .015625)" xlink:href="#g"/>
  <use transform="translate(2386.3 .015625)" xlink:href="#DejaVuSans-20"/>
  <use transform="translate(2418.1 .015625)" xlink:href="#x"/>
  <use transform="translate(2478.4 .015625)" xlink:href="#f"/>
  <use transform="translate(2539.6 .015625)" xlink:href="#e"/>
  <use transform="translate(2580.8 .015625)" xlink:href="#e"/>
  <use transform="translate(2621.9 .015625)" xlink:href="#aj"/>
  <use transform="translate(2653.7 .015625)" xlink:href="#DejaVuSans-20"/>
  <use transform="translate(2685.4 .015625)" xlink:href="#ad"/>
  <use transform="translate(2748.9 .015625)" xlink:href="#y"/>
  <use transform="translate(2818.8 .015625)" xlink:href="#DejaVuSans-20"/>
  <use transform="translate(2850.5 .015625)" xlink:href="#v"/>
  <use transform="translate(2889.6 .015625)" xlink:href="#o"/>
  <use transform="translate(2953.2 .015625)" xlink:href="#ag"/>
  <use transform="translate(3016.8 .015625)" xlink:href="#DejaVuSans-20"/>
  <use transform="translate(3048.6 .015625)" xlink:href="#k"/>
  <use transform="translate(3134.9 .015625)" xlink:href="#i"/>
  <use transform="translate(3234.7 -16.391) scale(.7)" xlink:href="#q"/>
  <use transform="translate(3280.5 .015625)" xlink:href="#u"/>
 </g>
 <g transform="translate(302.56 461.31) scale(.17 -.17)">
  <defs>
   <path id="bg" transform="scale(.015625)" d="m1259 4147v-3628h763q966 0 1414 437 448 438 448 1382 0 937-448 1373t-1414 436h-763zm-631 519h1297q1356 0 1990-564 635-564 635-1764 0-1207-638-1773-637-565-1987-565h-1297v4666z"/>
  </defs>
  <use transform="translate(0 .015625)" xlink:href="#x"/>
  <use transform="translate(60.303 .015625)" xlink:href="#f"/>
  <use transform="translate(121.58 .015625)" xlink:href="#h"/>
  <use transform="translate(160.79 .015625)" xlink:href="#n"/>
  <use transform="translate(224.17 .015625)" xlink:href="#bc"/>
  <use transform="translate(259.38 .015625)" xlink:href="#c"/>
  <use transform="translate(287.16 .015625)" xlink:href="#g"/>
  <use transform="translate(350.54 .015625)" xlink:href="#r"/>
  <use transform="translate(414.01 .015625)" xlink:href="#b"/>
  <use transform="translate(475.54 .015625)" xlink:href="#e"/>
  <use transform="translate(516.65 .015625)" xlink:href="#DejaVuSans-20"/>
  <use transform="translate(548.44 .015625)" xlink:href="#l"/>
  <use transform="translate(600.54 .015625)" xlink:href="#w"/>
  <use transform="translate(663.92 .015625)" xlink:href="#aa"/>
  <use transform="translate(727.39 .015625)" xlink:href="#b"/>
  <use transform="translate(788.92 .015625)" xlink:href="#e"/>
  <use transform="translate(830.03 .015625)" xlink:href="#n"/>
  <use transform="translate(893.41 .015625)" xlink:href="#b"/>
  <use transform="translate(954.93 .015625)" xlink:href="#f"/>
  <use transform="translate(1016.2 .015625)" xlink:href="#h"/>
  <use transform="translate(1055.4 .015625)" xlink:href="#DejaVuSans-20"/>
  <use transform="translate(1087.2 .015625)" xlink:href="#ae"/>
  <use transform="translate(1155.8 .015625)" xlink:href="#i"/>
  <use transform="translate(1254.7 .015625)" xlink:href="#p"/>
  <use transform="translate(1324.2 .015625)" xlink:href="#DejaVuSans-20"/>
  <use transform="translate(1356 .015625)" xlink:href="#c"/>
  <use transform="translate(1383.7 .015625)" xlink:href="#g"/>
  <use transform="translate(1447.1 .015625)" xlink:href="#DejaVuSans-20"/>
  <use transform="translate(1478.9 .015625)" xlink:href="#ad"/>
  <use transform="translate(1542.4 .015625)" xlink:href="#c"/>
  <use transform="translate(1570.2 .015625)" xlink:href="#d"/>
  <use transform="translate(1631.3 .015625)" xlink:href="#w"/>
  <use transform="translate(1694.7 .015625)" xlink:href="#bb"/>
  <use transform="translate(1753.9 .015625)" xlink:href="#DejaVuSans-20"/>
  <use transform="translate(1785.7 .015625)" xlink:href="#ar"/>
  <use transform="translate(1843.2 .015625)" xlink:href="#f"/>
  <use transform="translate(1904.5 .015625)" xlink:href="#m"/>
  <use transform="translate(1932.3 .015625)" xlink:href="#m"/>
  <use transform="translate(1960.1 .015625)" xlink:href="#l"/>
  <use transform="translate(2012.2 .015625)" xlink:href="#aj"/>
  <use transform="translate(2043.9 .015625)" xlink:href="#DejaVuSans-20"/>
  <use transform="translate(2075.7 .015625)" xlink:href="#ad"/>
  <use transform="translate(2139.2 .015625)" xlink:href="#bg"/>
  <use transform="translate(2216.2 .015625)" xlink:href="#DejaVuSans-20"/>
  <use transform="translate(2248 .015625)" xlink:href="#v"/>
  <use transform="translate(2287 .015625)" xlink:href="#ak"/>
  <use transform="translate(2350.6 .015625)" xlink:href="#ak"/>
  <use transform="translate(2414.3 .015625)" xlink:href="#DejaVuSans-20"/>
  <use transform="translate(2446 .015625)" xlink:href="#k"/>
  <use transform="translate(2532.3 .015625)" xlink:href="#i"/>
  <use transform="translate(2632.2 -16.391) scale(.7)" xlink:href="#q"/>
  <use transform="translate(2678 .015625)" xlink:href="#u"/>
 </g>
 <g transform="translate(250.81 399.06) scale(.17 -.17)">
  <defs>
   <path id="bj" transform="scale(.015625)" d="m947 1747q0-634 261-995t717-361 718 361q263 361 263 995t-263 995q-262 361-718 361t-717-361-261-995zm1959-1222q-181-312-458-464-276-152-664-152-634 0-1033 506-398 507-398 1332t398 1331q399 506 1033 506 388 0 664-152 277-151 458-463v531h575v-4831h-575v1856z"/>
   <path id="bo" transform="scale(.015625)" d="m1625 4666h531l-1625-5260h-531l1625 5260z"/>
   <path id="bf" transform="scale(.015625)" d="m628 4666h631v-1913h2294v1913h631v-4666h-631v2222h-2294v-2222h-631v4666z"/>
  </defs>
  <use transform="translate(0 .015625)" xlink:href="#x"/>
  <use transform="translate(60.303 .015625)" xlink:href="#c"/>
  <use transform="translate(88.086 .015625)" xlink:href="#bj"/>
  <use transform="translate(151.56 .015625)" xlink:href="#w"/>
  <use transform="translate(214.94 .015625)" xlink:href="#f"/>
  <use transform="translate(276.22 .015625)" xlink:href="#DejaVuSans-20"/>
  <use transform="translate(308.01 .015625)" xlink:href="#d"/>
  <use transform="translate(369.19 .015625)" xlink:href="#e"/>
  <use transform="translate(410.3 .015625)" xlink:href="#ac"/>
  <use transform="translate(473.78 .015625)" xlink:href="#f"/>
  <use transform="translate(535.06 .015625)" xlink:href="#g"/>
  <use transform="translate(598.44 .015625)" xlink:href="#c"/>
  <use transform="translate(626.22 .015625)" xlink:href="#s"/>
  <use transform="translate(681.2 .015625)" xlink:href="#DejaVuSans-20"/>
  <use transform="translate(712.99 .015625)" xlink:href="#s"/>
  <use transform="translate(767.97 .015625)" xlink:href="#d"/>
  <use transform="translate(829.15 .015625)" xlink:href="#d"/>
  <use transform="translate(890.33 .015625)" xlink:href="#m"/>
  <use transform="translate(918.12 .015625)" xlink:href="#b"/>
  <use transform="translate(979.64 .015625)" xlink:href="#r"/>
  <use transform="translate(1043.1 .015625)" xlink:href="#bo"/>
  <use transform="translate(1076.8 .015625)" xlink:href="#ab"/>
  <use transform="translate(1174.2 .015625)" xlink:href="#d"/>
  <use transform="translate(1235.4 .015625)" xlink:href="#r"/>
  <use transform="translate(1298.9 .015625)" xlink:href="#b"/>
  <use transform="translate(1360.4 .015625)" xlink:href="#e"/>
  <use transform="translate(1401.5 .015625)" xlink:href="#f"/>
  <use transform="translate(1462.8 .015625)" xlink:href="#h"/>
  <use transform="translate(1502 .015625)" xlink:href="#b"/>
  <use transform="translate(1563.5 .015625)" xlink:href="#r"/>
  <use transform="translate(1627 .015625)" xlink:href="#DejaVuSans-20"/>
  <use transform="translate(1658.8 .015625)" xlink:href="#c"/>
  <use transform="translate(1686.6 .015625)" xlink:href="#g"/>
  <use transform="translate(1750 .015625)" xlink:href="#DejaVuSans-20"/>
  <use transform="translate(1781.7 .015625)" xlink:href="#av"/>
  <use transform="translate(1860.4 .015625)" xlink:href="#bf"/>
  <use transform="translate(1935.6 .015625)" xlink:href="#DejaVuSans-20"/>
  <use transform="translate(1967.4 .015625)" xlink:href="#v"/>
  <use transform="translate(2006.4 .015625)" xlink:href="#o"/>
  <use transform="translate(2070.1 .015625)" xlink:href="#ao"/>
  <use transform="translate(2133.7 .015625)" xlink:href="#ba"/>
  <use transform="translate(2165.5 .015625)" xlink:href="#z"/>
  <use transform="translate(2229.1 .015625)" xlink:href="#DejaVuSans-20"/>
  <use transform="translate(2260.9 .015625)" xlink:href="#k"/>
  <use transform="translate(2347.2 .015625)" xlink:href="#i"/>
  <use transform="translate(2447 -16.391) scale(.7)" xlink:href="#q"/>
  <use transform="translate(2492.8 .015625)" xlink:href="#u"/>
 </g>
 <g transform="translate(250.81 336.86) scale(.17 -.17)">
  <use transform="translate(0 .015625)" xlink:href="#ax"/>
  <use transform="translate(63.184 .015625)" xlink:href="#m"/>
  <use transform="translate(90.967 .015625)" xlink:href="#at"/>
  <use transform="translate(148.88 .015625)" xlink:href="#DejaVuSans-20"/>
  <use transform="translate(180.66 .015625)" xlink:href="#p"/>
  <use transform="translate(250.15 .015625)" xlink:href="#c"/>
  <use transform="translate(277.93 .015625)" xlink:href="#aq"/>
  <use transform="translate(337.11 .015625)" xlink:href="#b"/>
  <use transform="translate(398.63 .015625)" xlink:href="#e"/>
  <use transform="translate(439.75 .015625)" xlink:href="#DejaVuSans-20"/>
  <use transform="translate(471.53 .015625)" xlink:href="#ae"/>
  <use transform="translate(540.14 .015625)" xlink:href="#i"/>
  <use transform="translate(639.01 .015625)" xlink:href="#p"/>
  <use transform="translate(708.5 .015625)" xlink:href="#DejaVuSans-20"/>
  <use transform="translate(740.28 .015625)" xlink:href="#c"/>
  <use transform="translate(768.07 .015625)" xlink:href="#g"/>
  <use transform="translate(831.45 .015625)" xlink:href="#DejaVuSans-20"/>
  <use transform="translate(863.23 .015625)" xlink:href="#k"/>
  <use transform="translate(949.51 .015625)" xlink:href="#am"/>
  <use transform="translate(1024.3 .015625)" xlink:href="#DejaVuSans-20"/>
  <use transform="translate(1056.1 .015625)" xlink:href="#v"/>
  <use transform="translate(1095.1 .015625)" xlink:href="#ao"/>
  <use transform="translate(1158.7 .015625)" xlink:href="#ay"/>
  <use transform="translate(1222.4 .015625)" xlink:href="#DejaVuSans-20"/>
  <use transform="translate(1254.2 .015625)" xlink:href="#k"/>
  <use transform="translate(1340.4 .015625)" xlink:href="#i"/>
  <use transform="translate(1440.3 -16.391) scale(.7)" xlink:href="#q"/>
  <use transform="translate(1486.1 .015625)" xlink:href="#u"/>
 </g>
 <g transform="translate(223.08 274.58) scale(.17 -.17)">
  <use transform="translate(0 .015625)" xlink:href="#bf"/>
  <use transform="translate(75.195 .015625)" xlink:href="#f"/>
  <use transform="translate(136.47 .015625)" xlink:href="#m"/>
  <use transform="translate(164.26 .015625)" xlink:href="#m"/>
  <use transform="translate(192.04 .015625)" xlink:href="#f"/>
  <use transform="translate(253.32 .015625)" xlink:href="#ab"/>
  <use transform="translate(350.73 .015625)" xlink:href="#DejaVuSans-20"/>
  <use transform="translate(382.52 .015625)" xlink:href="#l"/>
  <use transform="translate(434.62 .015625)" xlink:href="#d"/>
  <use transform="translate(495.8 .015625)" xlink:href="#r"/>
  <use transform="translate(559.28 .015625)" xlink:href="#c"/>
  <use transform="translate(587.06 .015625)" xlink:href="#w"/>
  <use transform="translate(650.44 .015625)" xlink:href="#ab"/>
  <use transform="translate(747.85 .015625)" xlink:href="#DejaVuSans-20"/>
  <use transform="translate(779.64 .015625)" xlink:href="#ac"/>
  <use transform="translate(843.12 .015625)" xlink:href="#e"/>
  <use transform="translate(884.23 .015625)" xlink:href="#f"/>
  <use transform="translate(945.51 .015625)" xlink:href="#aa"/>
  <use transform="translate(1009 .015625)" xlink:href="#n"/>
  <use transform="translate(1072.4 .015625)" xlink:href="#c"/>
  <use transform="translate(1100.1 .015625)" xlink:href="#h"/>
  <use transform="translate(1139.4 .015625)" xlink:href="#b"/>
  <use transform="translate(1200.9 .015625)" xlink:href="#DejaVuSans-20"/>
  <use transform="translate(1232.7 .015625)" xlink:href="#c"/>
  <use transform="translate(1260.4 .015625)" xlink:href="#g"/>
  <use transform="translate(1323.8 .015625)" xlink:href="#DejaVuSans-20"/>
  <use transform="translate(1355.6 .015625)" xlink:href="#am"/>
  <use transform="translate(1430.4 .015625)" xlink:href="#ax"/>
  <use transform="translate(1493.6 .015625)" xlink:href="#DejaVuSans-20"/>
  <use transform="translate(1525.4 .015625)" xlink:href="#v"/>
  <use transform="translate(1564.4 .015625)" xlink:href="#ag"/>
  <use transform="translate(1628 .015625)" xlink:href="#z"/>
  <use transform="translate(1691.7 .015625)" xlink:href="#DejaVuSans-20"/>
  <use transform="translate(1723.4 .015625)" xlink:href="#k"/>
  <use transform="translate(1809.7 .015625)" xlink:href="#i"/>
  <use transform="translate(1909.6 -16.391) scale(.7)" xlink:href="#q"/>
  <use transform="translate(1955.4 .015625)" xlink:href="#u"/>
 </g>
 <g transform="translate(223.08 212.37) scale(.17 -.17)">
  <defs>
   <path id="bd" transform="scale(.015625)" d="m-13 4666h679l1293-1919 1285 1919h678l-1650-2444v-2222h-634v2222l-1651 2444z"/>
  </defs>
  <use transform="translate(0 .015625)" xlink:href="#bd"/>
  <use transform="translate(61.084 .015625)" xlink:href="#f"/>
  <use transform="translate(122.36 .015625)" xlink:href="#g"/>
  <use transform="translate(185.74 .015625)" xlink:href="#at"/>
  <use transform="translate(243.65 .015625)" xlink:href="#b"/>
  <use transform="translate(305.18 .015625)" xlink:href="#b"/>
  <use transform="translate(366.7 .015625)" xlink:href="#DejaVuSans-20"/>
  <use transform="translate(398.49 .015625)" xlink:href="#x"/>
  <use transform="translate(458.79 .015625)" xlink:href="#i"/>
  <use transform="translate(557.67 .015625)" xlink:href="#p"/>
  <use transform="translate(627.15 .015625)" xlink:href="#DejaVuSans-20"/>
  <use transform="translate(658.94 .015625)" xlink:href="#c"/>
  <use transform="translate(686.72 .015625)" xlink:href="#g"/>
  <use transform="translate(750.1 .015625)" xlink:href="#DejaVuSans-20"/>
  <use transform="translate(781.88 .015625)" xlink:href="#p"/>
  <use transform="translate(851.37 .015625)" xlink:href="#d"/>
  <use transform="translate(912.55 .015625)" xlink:href="#af"/>
  <use transform="translate(994.34 .015625)" xlink:href="#b"/>
  <use transform="translate(1055.9 .015625)" xlink:href="#aj"/>
  <use transform="translate(1087.6 .015625)" xlink:href="#DejaVuSans-20"/>
  <use transform="translate(1119.4 .015625)" xlink:href="#k"/>
  <use transform="translate(1205.7 .015625)" xlink:href="#an"/>
  <use transform="translate(1274.1 .015625)" xlink:href="#DejaVuSans-20"/>
  <use transform="translate(1305.9 .015625)" xlink:href="#v"/>
  <use transform="translate(1344.9 .015625)" xlink:href="#o"/>
  <use transform="translate(1408.5 .015625)" xlink:href="#az"/>
  <use transform="translate(1472.2 .015625)" xlink:href="#ay"/>
  <use transform="translate(1535.8 .015625)" xlink:href="#DejaVuSans-20"/>
  <use transform="translate(1567.6 .015625)" xlink:href="#k"/>
  <use transform="translate(1653.9 .015625)" xlink:href="#i"/>
  <use transform="translate(1753.7 -16.391) scale(.7)" xlink:href="#q"/>
  <use transform="translate(1799.5 .015625)" xlink:href="#u"/>
 </g>
 <g transform="translate(1036.1 212.99) scale(.14 -.14)">
  <use xlink:href="#o"/>
  <use x="63.623047" xlink:href="#t"/>
  <use x="127.246094" xlink:href="#t"/>
  <use x="190.869141" xlink:href="#ao"/>
  <use x="254.492188" xlink:href="#DejaVuSans-20"/>
  <use x="286.279297" xlink:href="#ap"/>
 </g>
 <g transform="translate(223.08 150.12) scale(.17 -.17)">
  <use transform="translate(0 .015625)" xlink:href="#ar"/>
  <use transform="translate(57.52 .015625)" xlink:href="#b"/>
  <use transform="translate(119.04 .015625)" xlink:href="#e"/>
  <use transform="translate(160.16 .015625)" xlink:href="#ab"/>
  <use transform="translate(257.57 .015625)" xlink:href="#c"/>
  <use transform="translate(285.35 .015625)" xlink:href="#ai"/>
  <use transform="translate(321.44 .015625)" xlink:href="#o"/>
  <use transform="translate(385.06 .015625)" xlink:href="#DejaVuSans-20"/>
  <use transform="translate(416.85 .015625)" xlink:href="#ad"/>
  <use transform="translate(480.32 .015625)" xlink:href="#ar"/>
  <use transform="translate(537.84 .015625)" xlink:href="#p"/>
  <use transform="translate(607.32 .015625)" xlink:href="#DejaVuSans-20"/>
  <use transform="translate(639.11 .015625)" xlink:href="#c"/>
  <use transform="translate(666.89 .015625)" xlink:href="#g"/>
  <use transform="translate(730.27 .015625)" xlink:href="#DejaVuSans-20"/>
  <use transform="translate(762.06 .015625)" xlink:href="#k"/>
  <use transform="translate(848.34 .015625)" xlink:href="#d"/>
  <use transform="translate(909.52 .015625)" xlink:href="#g"/>
  <use transform="translate(972.9 .015625)" xlink:href="#e"/>
  <use transform="translate(1014 .015625)" xlink:href="#d"/>
  <use transform="translate(1075.2 .015625)" xlink:href="#b"/>
  <use transform="translate(1136.7 .015625)" xlink:href="#aj"/>
  <use transform="translate(1168.5 .015625)" xlink:href="#DejaVuSans-20"/>
  <use transform="translate(1200.3 .015625)" xlink:href="#k"/>
  <use transform="translate(1286.6 .015625)" xlink:href="#aw"/>
  <use transform="translate(1316.1 .015625)" xlink:href="#DejaVuSans-20"/>
  <use transform="translate(1347.9 .015625)" xlink:href="#v"/>
  <use transform="translate(1386.9 .015625)" xlink:href="#o"/>
  <use transform="translate(1450.5 .015625)" xlink:href="#z"/>
  <use transform="translate(1514.1 .015625)" xlink:href="#ah"/>
  <use transform="translate(1577.7 .015625)" xlink:href="#DejaVuSans-20"/>
  <use transform="translate(1609.5 .015625)" xlink:href="#k"/>
  <use transform="translate(1695.8 .015625)" xlink:href="#i"/>
  <use transform="translate(1795.6 -16.391) scale(.7)" xlink:href="#q"/>
  <use transform="translate(1841.4 .015625)" xlink:href="#u"/>
 </g>
 <g transform="translate(179.52 87.847) scale(.17 -.17)">
  <use transform="translate(0 .015625)" xlink:href="#ad"/>
  <use transform="translate(63.477 .015625)" xlink:href="#n"/>
  <use transform="translate(126.86 .015625)" xlink:href="#c"/>
  <use transform="translate(154.64 .015625)" xlink:href="#aa"/>
  <use transform="translate(218.12 .015625)" xlink:href="#aa"/>
  <use transform="translate(281.59 .015625)" xlink:href="#c"/>
  <use transform="translate(309.38 .015625)" xlink:href="#g"/>
  <use transform="translate(372.75 .015625)" xlink:href="#ac"/>
  <use transform="translate(436.23 .015625)" xlink:href="#aa"/>
  <use transform="translate(499.71 .015625)" xlink:href="#d"/>
  <use transform="translate(560.89 .015625)" xlink:href="#e"/>
  <use transform="translate(602 .015625)" xlink:href="#h"/>
  <use transform="translate(641.21 .015625)" xlink:href="#DejaVuSans-20"/>
  <use transform="translate(673 .015625)" xlink:href="#x"/>
  <use transform="translate(733.3 .015625)" xlink:href="#i"/>
  <use transform="translate(832.18 .015625)" xlink:href="#p"/>
  <use transform="translate(901.66 .015625)" xlink:href="#DejaVuSans-20"/>
  <use transform="translate(933.45 .015625)" xlink:href="#c"/>
  <use transform="translate(961.23 .015625)" xlink:href="#g"/>
  <use transform="translate(1024.6 .015625)" xlink:href="#DejaVuSans-20"/>
  <use transform="translate(1056.4 .015625)" xlink:href="#x"/>
  <use transform="translate(1116.7 .015625)" xlink:href="#an"/>
  <use transform="translate(1185.1 .015625)" xlink:href="#DejaVuSans-20"/>
  <use transform="translate(1216.9 .015625)" xlink:href="#v"/>
  <use transform="translate(1255.9 .015625)" xlink:href="#ak"/>
  <use transform="translate(1319.5 .015625)" xlink:href="#ah"/>
  <use transform="translate(1383.2 .015625)" xlink:href="#DejaVuSans-20"/>
  <use transform="translate(1414.9 .015625)" xlink:href="#k"/>
  <use transform="translate(1501.2 .015625)" xlink:href="#i"/>
  <use transform="translate(1601.1 -16.391) scale(.7)" xlink:href="#q"/>
  <use transform="translate(1646.9 .015625)" xlink:href="#u"/>
 </g>
 <g transform="translate(1036.1 88.505) scale(.14 -.14)">
  <use xlink:href="#o"/>
  <use x="63.623047" xlink:href="#t"/>
  <use x="127.246094" xlink:href="#bh"/>
  <use x="190.869141" xlink:href="#ao"/>
  <use x="254.492188" xlink:href="#DejaVuSans-20"/>
  <use x="286.279297" xlink:href="#ap"/>
 </g>
 <g transform="translate(875.52 950.83) scale(.12 -.12)" opacity=".7">
  <use xlink:href="#y"/>
  <use x="69.824219" xlink:href="#y"/>
  <use x="139.648438" xlink:href="#ai"/>
  <use x="172.107422" xlink:href="#ae"/>
  <use x="235.210938" xlink:href="#bd"/>
  <use x="284.419922" xlink:href="#ai"/>
  <use x="320.503906" xlink:href="#am"/>
  <use x="395.308594" xlink:href="#y"/>
  <use x="465.132812" xlink:href="#DejaVuSans-20"/>
  <use x="496.919922" xlink:href="#af"/>
  <use x="578.707031" xlink:href="#n"/>
  <use x="642.085938" xlink:href="#f"/>
  <use x="703.365234" xlink:href="#h"/>
  <use x="742.574219" xlink:href="#c"/>
  <use x="770.357422" xlink:href="#l"/>
  <use x="822.457031" xlink:href="#g"/>
  <use x="885.835938" xlink:href="#w"/>
  <use x="949.214844" xlink:href="#s"/>
  <use x="1004.195312" xlink:href="#m"/>
  <use x="1031.978516" xlink:href="#b"/>
  <use x="1093.501953" xlink:href="#f"/>
  <use x="1154.78125" xlink:href="#e"/>
  <use x="1186.769531" xlink:href="#ba"/>
  <use x="1218.556641" xlink:href="#s"/>
  <use x="1273.537109" xlink:href="#d"/>
  <use x="1334.71875" xlink:href="#ab"/>
 </g>
 <g transform="translate(402.62 27.351) scale(.16 -.16)">
  <defs>
   <path id="bm" transform="scale(.015625)" d="m-19 4666h3947v-532h-1656v-4134h-634v4134h-1657v532z"/>
  </defs>
  <use xlink:href="#bm"/>
  <use x="61.083984" xlink:href="#n"/>
  <use x="124.462891" xlink:href="#b"/>
  <use x="185.986328" xlink:href="#DejaVuSans-20"/>
  <use x="217.773438" xlink:href="#x"/>
  <use x="274.451172" xlink:href="#d"/>
  <use x="335.632812" xlink:href="#af"/>
  <use x="417.419922" xlink:href="#b"/>
  <use x="478.943359" xlink:href="#e"/>
  <use x="520.056641" xlink:href="#DejaVuSans-20"/>
  <use x="551.84375" xlink:href="#bg"/>
  <use x="628.845703" xlink:href="#b"/>
  <use x="690.369141" xlink:href="#ab"/>
  <use x="787.78125" xlink:href="#d"/>
  <use x="848.962891" xlink:href="#g"/>
  <use x="912.341797" xlink:href="#l"/>
  <use x="964.441406" xlink:href="#h"/>
  <use x="1003.650391" xlink:href="#e"/>
  <use x="1044.763672" xlink:href="#f"/>
  <use x="1106.042969" xlink:href="#h"/>
  <use x="1145.251953" xlink:href="#c"/>
  <use x="1173.035156" xlink:href="#d"/>
  <use x="1234.216797" xlink:href="#g"/>
  <use x="1297.595703" xlink:href="#DejaVuSans-20"/>
  <use x="1329.382812" xlink:href="#p"/>
  <use x="1394.365234" xlink:href="#b"/>
  <use x="1455.888672" xlink:href="#f"/>
  <use x="1517.167969" xlink:href="#s"/>
  <use x="1572.148438" xlink:href="#h"/>
  <use x="1611.357422" xlink:href="#d"/>
  <use x="1672.539062" xlink:href="#e"/>
  <use x="1713.652344" xlink:href="#DejaVuSans-20"/>
  <use x="1745.439453" xlink:href="#x"/>
  <use x="1803.992188" xlink:href="#e"/>
  <use x="1842.855469" xlink:href="#d"/>
  <use x="1904.037109" xlink:href="#ac"/>
  <use x="1967.513672" xlink:href="#e"/>
  <use x="2008.626953" xlink:href="#f"/>
  <use x="2069.90625" xlink:href="#ab"/>
 </g>
 <path d="m68.8 949.6h140.03q3.2 0 3.2-3.2v-92.34q0-3.2-3.2-3.2h-140.03q-3.2 0-3.2 3.2v92.34q0 3.2 3.2 3.2z" fill="#fff" opacity=".8" stroke="#ccc"/>
 <path d="m72 869.42h32v-11.2h-32z" fill="#008000" opacity=".5" stroke="#000" stroke-width=".1"/>
 <g transform="translate(116.8 869.42) scale(.16 -.16)">
  <use xlink:href="#ad"/>
  <use x="63.476562" xlink:href="#d"/>
  <use x="124.658203" xlink:href="#m"/>
  <use x="152.441406" xlink:href="#c"/>
  <use x="180.224609" xlink:href="#s"/>
  <use x="235.205078" xlink:href="#c"/>
  <use x="262.988281" xlink:href="#h"/>
  <use x="302.197266" xlink:href="#b"/>
  <use x="363.720703" xlink:href="#r"/>
 </g>
 <path d="m72 892.9h32v-11.2h-32v11.2z" fill="none" stroke="#008000"/>
 <g transform="translate(116.8 892.9) scale(.16 -.16)">
  <use xlink:href="#y"/>
  <use x="69.824219" xlink:href="#d"/>
  <use x="131.005859" xlink:href="#g"/>
  <use x="194.384766" xlink:href="#h"/>
  <use x="233.59375" xlink:href="#e"/>
  <use x="274.707031" xlink:href="#f"/>
  <use x="335.986328" xlink:href="#s"/>
  <use x="390.966797" xlink:href="#h"/>
  <use x="430.175781" xlink:href="#b"/>
  <use x="491.699219" xlink:href="#r"/>
 </g>
 <path d="m72 916.39h32v-11.2h-32z" fill="#00f" opacity=".5" stroke="#000" stroke-width=".1"/>
 <g transform="translate(116.8 916.39) scale(.16 -.16)">
  <use xlink:href="#y"/>
  <use x="69.824219" xlink:href="#e"/>
  <use x="110.9375" xlink:href="#c"/>
  <use x="138.720703" xlink:href="#h"/>
  <use x="177.929688" xlink:href="#c"/>
  <use x="205.712891" xlink:href="#s"/>
  <use x="260.693359" xlink:href="#f"/>
  <use x="321.972656" xlink:href="#m"/>
 </g>
 <path d="m72 939.87h32v-11.2h-32z" stroke="#000" stroke-width=".2"/>
 <g transform="translate(116.8 939.87) scale(.16 -.16)">
  <use xlink:href="#ad"/>
  <use x="63.476562" xlink:href="#n"/>
  <use x="126.855469" xlink:href="#w"/>
  <use x="190.234375" xlink:href="#h"/>
  <use x="229.443359" xlink:href="#r"/>
  <use x="292.919922" xlink:href="#d"/>
  <use x="354.101562" xlink:href="#af"/>
  <use x="435.888672" xlink:href="#g"/>
 </g>
 <defs>
  <clipPath id="a">
   <rect x="57.6" y="50.4" width="1036.8" height="907.2"/>
  </clipPath>
 </defs>
</svg>
